<?xml version="1.0" encoding="utf-8"?>
<!-- Generator: Adobe Illustrator 19.1.0, SVG Export Plug-In . SVG Version: 6.00 Build 0)  -->
<svg version="1.1" id="Layer_1" xmlns="http://www.w3.org/2000/svg" xmlns:xlink="http://www.w3.org/1999/xlink" x="0px" y="0px"
	 viewBox="-269 191 100 100" style="enable-background:new -269 191 100 100;" xml:space="preserve">
<g>
	<path d="M-190.4,228.4c-0.3-0.4-0.6-0.5-1.1-0.4c-0.3,0.1-0.5,0.2-0.7,0.4c-0.2,0.2-0.2,0.5-0.2,0.9c0,0.4,0,0.8,0.1,1.4
		c0.1,0.6,0.2,1.1,0.4,1.4c0.1,0.4,0.3,0.6,0.5,0.8c0.2,0.2,0.5,0.2,0.8,0.1c0.5-0.1,0.8-0.3,0.9-0.8c0.1-0.4,0.1-1.1-0.1-2
		C-190,229.4-190.2,228.7-190.4,228.4"/>
	<path d="M-201.6,231.3c-0.3-0.6-0.7-1.1-1.1-1.4c-0.4-0.4-0.9-0.7-1.5-0.8c-0.5-0.2-1.1-0.2-1.7-0.1c-1,0.2-1.8,0.8-2.3,1.7
		c-0.5,1-0.7,2.2-0.4,3.6c0.3,1.4,0.8,2.5,1.7,3.2c0.8,0.7,1.8,1,2.9,0.8c0.7-0.1,1.3-0.4,1.8-0.9c0.5-0.4,0.9-1,1.2-1.8
		c0.3-0.7,0.3-1.5,0.2-2.4C-201.1,232.5-201.3,231.8-201.6,231.3"/>
	<path d="M-245.7,239.1c-0.3-0.6-0.7-1.1-1.1-1.4c-0.4-0.4-0.9-0.7-1.5-0.8c-0.5-0.2-1.1-0.2-1.7-0.1c-1,0.2-1.8,0.8-2.3,1.7
		c-0.5,1-0.7,2.2-0.4,3.6c0.3,1.4,0.8,2.5,1.6,3.2c0.9,0.7,1.8,1,2.9,0.8c0.7-0.1,1.3-0.4,1.8-0.9c0.5-0.4,0.9-1,1.2-1.8
		c0.3-0.7,0.3-1.5,0.2-2.4C-245.1,240.3-245.4,239.7-245.7,239.1"/>
	<path d="M-226.3,235.7c-0.3-0.6-0.7-1.1-1.1-1.4c-0.4-0.4-0.9-0.7-1.5-0.8c-0.5-0.2-1.1-0.2-1.7-0.1c-1,0.2-1.8,0.8-2.3,1.7
		c-0.5,1-0.7,2.2-0.4,3.6c0.3,1.4,0.8,2.5,1.6,3.2c0.9,0.7,1.8,1,2.9,0.8c0.7-0.1,1.3-0.4,1.8-0.9c0.5-0.4,0.9-1,1.2-1.8
		c0.3-0.7,0.3-1.5,0.2-2.4C-225.8,236.9-226,236.2-226.3,235.7"/>
	<path d="M-219,191c-27.6,0-50,22.4-50,50c0,27.6,22.4,50,50,50c27.6,0,50-22.4,50-50C-169,213.4-191.4,191-219,191 M-239.3,249
		c-0.1,1.6-0.5,3-1.1,4.2c-0.6,1.2-1.4,2.1-2.4,2.9c-1,0.7-2.2,1.2-3.6,1.4c-1.4,0.2-2.6,0.2-3.7-0.1c-1.1-0.3-2-0.9-2.7-1.5
		c-0.7-0.7-1.1-1.4-1.2-2.1c-0.1-0.4,0-0.9,0.3-1.3c0.3-0.4,0.7-0.7,1.2-0.7c0.5-0.1,0.9,0,1.3,0.2c0.4,0.2,0.8,0.5,1,1
		c0.3,0.6,0.8,1,1.4,1.3c0.6,0.3,1.3,0.4,1.9,0.3c0.6-0.1,1.2-0.4,1.6-0.8c0.5-0.4,0.9-0.9,1.2-1.5c0.6-1.3,0.7-3.4,0.3-6.3
		c-0.5,0.9-1.2,1.7-2,2.3c-0.8,0.6-1.7,1-2.8,1.1c-1,0.2-2,0.1-2.9-0.1c-0.9-0.2-1.8-0.6-2.5-1.2c-0.8-0.6-1.4-1.3-1.9-2.2
		c-0.5-0.9-0.8-1.8-1-2.8c-0.2-1.1-0.2-2.2,0-3.2c0.2-1.1,0.6-2,1.2-2.8c0.6-0.8,1.3-1.6,2.2-2.1c0.9-0.6,2-1,3.2-1.2
		c1.4-0.2,2.6-0.2,3.8,0.1c1.2,0.3,2.2,0.9,3.1,1.7c0.9,0.8,1.7,1.9,2.3,3.3c0.7,1.4,1.1,3,1.5,4.8
		C-239.3,245.5-239.2,247.3-239.3,249 M-219.9,245.5c-0.1,1.6-0.5,3-1.1,4.2c-0.6,1.2-1.4,2.1-2.4,2.9c-1,0.7-2.2,1.2-3.6,1.4
		c-1.4,0.3-2.6,0.2-3.7-0.1c-1.1-0.3-2-0.9-2.7-1.5c-0.7-0.7-1.1-1.4-1.2-2.1c-0.1-0.4,0-0.9,0.3-1.3c0.3-0.4,0.7-0.7,1.2-0.7
		c0.5-0.1,0.9,0,1.3,0.2c0.4,0.2,0.8,0.5,1.1,1c0.3,0.6,0.8,1,1.4,1.3c0.6,0.3,1.3,0.4,1.9,0.3c0.6-0.1,1.2-0.4,1.6-0.8
		c0.5-0.4,0.9-0.9,1.2-1.6c0.6-1.3,0.7-3.4,0.3-6.3c-0.5,1-1.2,1.7-2,2.3c-0.8,0.6-1.7,1-2.8,1.1c-1,0.2-2,0.2-2.9-0.1
		c-0.9-0.2-1.8-0.6-2.5-1.2c-0.8-0.6-1.4-1.3-1.9-2.2c-0.5-0.9-0.8-1.8-1-2.8c-0.2-1.1-0.2-2.2,0-3.2c0.2-1,0.6-2,1.2-2.8
		c0.6-0.8,1.3-1.6,2.2-2.1c0.9-0.6,2-1,3.1-1.2c1.4-0.2,2.6-0.2,3.8,0.1c1.2,0.3,2.2,0.9,3.1,1.7c0.9,0.8,1.7,1.9,2.3,3.3
		c0.6,1.4,1.1,3,1.5,4.8C-219.9,242.1-219.8,243.9-219.9,245.5 M-212.1,250.8c-0.4,0.5-0.9,0.8-1.5,0.9c-0.7,0.1-1.3,0-1.8-0.3
		c-0.6-0.3-0.9-0.9-1-1.7c-0.1-0.7,0-1.2,0.4-1.8c0.4-0.6,0.9-0.9,1.6-1c0.7-0.1,1.3,0,1.8,0.4c0.6,0.4,0.9,0.9,1,1.6
		C-211.6,249.6-211.7,250.3-212.1,250.8 M-195.2,241.1c-0.1,1.6-0.5,3-1.1,4.2c-0.6,1.2-1.4,2.1-2.4,2.9c-1,0.7-2.2,1.2-3.6,1.4
		c-1.4,0.2-2.6,0.2-3.7-0.1c-1.1-0.4-2-0.9-2.7-1.5c-0.7-0.7-1.1-1.4-1.2-2.1c-0.1-0.4,0-0.9,0.3-1.3c0.3-0.4,0.7-0.7,1.2-0.8
		c0.5-0.1,0.9,0,1.3,0.2c0.4,0.2,0.8,0.5,1,1c0.3,0.6,0.8,1,1.4,1.3c0.6,0.3,1.3,0.4,1.9,0.3c0.6-0.1,1.2-0.4,1.6-0.8
		c0.5-0.4,0.9-0.9,1.2-1.6c0.6-1.3,0.7-3.4,0.3-6.3c-0.6,0.9-1.2,1.7-2,2.3c-0.8,0.6-1.7,1-2.8,1.1c-1,0.2-2,0.2-2.9-0.1
		c-0.9-0.2-1.8-0.6-2.5-1.2c-0.8-0.6-1.4-1.3-1.9-2.2c-0.5-0.9-0.8-1.8-1-2.8c-0.2-1.1-0.2-2.2,0-3.2c0.2-1,0.6-2,1.2-2.8
		c0.6-0.8,1.3-1.6,2.2-2.1c0.9-0.6,2-1,3.1-1.2c1.4-0.2,2.6-0.2,3.8,0.1c1.2,0.3,2.2,0.9,3.1,1.7c0.9,0.8,1.7,1.9,2.3,3.3
		c0.7,1.4,1.1,3,1.5,4.8C-195.2,237.7-195.1,239.5-195.2,241.1 M-192.1,234.1c-0.5-0.2-1-0.5-1.3-1c-0.4-0.5-0.6-1.1-0.8-1.9
		c-0.2-0.9-0.2-1.6-0.1-2.2c0.1-0.6,0.3-1.1,0.8-1.5c0.4-0.4,1-0.6,1.7-0.8c0.5-0.1,1-0.1,1.4,0c0.4,0.1,0.8,0.3,1.1,0.6
		c0.3,0.3,0.6,0.6,0.8,1.1c0.2,0.4,0.4,1,0.5,1.6c0.2,1.2,0.1,2.2-0.3,2.9c-0.4,0.7-1.1,1.2-2.1,1.3
		C-191,234.4-191.6,234.3-192.1,234.1 M-187.7,241c-0.1,0.4-0.3,0.6-0.6,0.7c-0.2,0-0.3,0-0.5-0.1c-0.2-0.1-0.3-0.2-0.3-0.4
		c0-0.1,0-0.3,0.1-0.5l5.9-14.8c0.1-0.3,0.2-0.5,0.3-0.6c0.1-0.1,0.2-0.2,0.4-0.3c0.2,0,0.4,0,0.5,0.1c0.1,0.1,0.2,0.2,0.3,0.4
		c0,0.1-0.1,0.4-0.2,0.9L-187.7,241z M-179.1,239.6c-0.6,0.1-1.2,0.1-1.7-0.1c-0.5-0.2-1-0.5-1.3-1c-0.4-0.5-0.6-1.1-0.8-1.9
		c-0.2-1.3-0.2-2.3,0.2-3c0.4-0.7,1.1-1.2,2.2-1.4c0.5-0.1,1-0.1,1.4,0c0.4,0.1,0.8,0.3,1.1,0.5c0.3,0.3,0.6,0.6,0.8,1.1
		c0.2,0.4,0.4,1,0.5,1.6c0.2,1.3,0.1,2.2-0.3,2.9C-177.4,239-178.1,239.4-179.1,239.6"/>
	<path d="M-179.1,233.7c-0.3-0.4-0.6-0.5-1.1-0.4c-0.3,0-0.6,0.2-0.7,0.4c-0.1,0.2-0.2,0.5-0.2,0.9c0,0.4,0,0.8,0.1,1.4
		c0.2,0.9,0.4,1.5,0.6,1.9c0.3,0.4,0.6,0.5,1.1,0.4c0.5-0.1,0.8-0.4,0.9-0.8c0.1-0.4,0.1-1.1-0.1-2
		C-178.6,234.7-178.8,234.1-179.1,233.7"/>
</g>
</svg>
