<?xml version="1.0" encoding="utf-8"?>
<!-- Generator: Adobe Illustrator 19.1.0, SVG Export Plug-In . SVG Version: 6.00 Build 0)  -->
<svg version="1.1" id="Layer_1" xmlns="http://www.w3.org/2000/svg" xmlns:xlink="http://www.w3.org/1999/xlink" x="0px" y="0px"
	 viewBox="-269 191 100 100" style="enable-background:new -269 191 100 100;" xml:space="preserve">
<g>
	<path d="M-216.9,257.7L-216.9,257.7c0,1.3,1,2.4,2.3,2.4c1.3,0,2.3-1.1,2.3-2.4v-2.6c6.5-0.5,8.3-3.5,8.3-7.4c0-5.4-3-7.1-8.7-7.9
		c-3.1-0.4-4.8-0.7-4.8-2.8c0-1.8,0.6-3.1,4.3-3.1l5.8-0.1c1.3,0,2.4-1,2.4-2.3c0-1.3-1.1-2.3-2.4-2.3h-2v-2.8c0-1.3-1-2.4-2.3-2.4
		c-1.3,0-2.3,1.1-2.3,2.4v2.5c-6.5,0.3-8.5,5-8.5,8.2c0,4.8,2.5,6.8,9,7.6c3.2,0.4,4.4,1,4.4,3.2c0,2.2-1.1,2.8-5.2,2.8h-5.7
		c-1.3,0-2.4,1-2.4,2.3c0,1.3,1.1,2.3,2.4,2.3h3.1V257.7z"/>
	<path d="M-215.6,194.4c-23.9,0-43.9,18.2-46.4,41.7h0c-0.1,0.9-0.2,1.7-0.3,2.6l-2.6,0c-1.7,0-3.1,0.8-3.7,2c-0.9,2,0,3.7,0.7,4.4
		l8.9,8.9c0.5,0.5,1.7,1.8,3.4,1.8c1.7,0,3-1.3,3.4-1.8l8.8-8.8c0.9-0.8,1.5-2.5,0.8-4.3c-0.5-1.4-1.9-2.2-3.8-2.2h-2
		c0.1-0.9,0.3-2.6,0.3-2.6c2.4-16,16.2-28,32.5-28c18.2,0,32.9,14.8,32.9,32.9c0,17.6-13.8,32-31.4,32.8c-0.1,0-0.1,0-0.2,0h-0.4
		l-0.2,0c0,0-0.1,0-0.1,0.1c-1.7,0.3-2.9,1.7-2.9,3.5v6.6c0,1.7,1.3,3.2,2.9,3.5c0.1,0.1,0.1,0.1,0.2,0.1h2c1.3-0.1,2.5-0.2,3.8-0.4
		c22.8-3.3,40-23.1,40-46.2C-169,215.3-189.9,194.4-215.6,194.4"/>
</g>
</svg>
