<?xml version="1.0" encoding="utf-8"?>
<!-- Generator: Adobe Illustrator 19.1.0, SVG Export Plug-In . SVG Version: 6.00 Build 0)  -->
<svg version="1.1" id="Layer_1" xmlns="http://www.w3.org/2000/svg" xmlns:xlink="http://www.w3.org/1999/xlink" x="0px" y="0px"
	 viewBox="-269 191 100 100" style="enable-background:new -269 191 100 100;" xml:space="preserve">
<g>
	<path d="M-219,191c-27.6,0-50,22.4-50,50s22.4,50,50,50c27.6,0,50-22.4,50-50S-191.4,191-219,191 M-216,284.9v-13.4
		c0-1.7-1.3-3-3-3c-1.7,0-3,1.3-3,3v13.4c-21.9-1.5-39.4-19-40.9-40.9h10c1.7,0,3-1.3,3-3c0-1.7-1.3-3-3-3h-10
		c1.5-21.9,19-39.4,40.9-40.9v13.7c0,1.7,1.3,3,3,3c1.7,0,3-1.3,3-3v-13.7c21.9,1.5,39.4,19,40.9,40.9h-10c-1.7,0-3,1.3-3,3
		c0,1.7,1.3,3,3,3h10C-176.6,265.9-194.1,283.4-216,284.9"/>
	<path d="M-205.4,235.4c5.3-5.8,8.8-7.4,8.8-7.4c5-2.3,7.8-1,6.4,3c-1.5,4-2.3,9-2.3,9.6c0,0.6,1.1,4.6,2.5,8.9
		c1.4,4.3-1.6,6-6.6,3.7c0,0-3.5-1.6-8.8-7.4c0,0-8.8,12.2-21.1,12.2c-13.5,0-20.7-11.7-20.7-18.7c0-9.2,11.3-18.5,21.5-18.5
		C-212.2,220.7-205.4,235.4-205.4,235.4 M-234,233.5c-2.1,0-3.8,1.7-3.8,3.8c0,2.1,1.7,3.8,3.8,3.8c2.1,0,3.8-1.7,3.8-3.8
		C-230.2,235.2-231.9,233.5-234,233.5"/>
</g>
</svg>
