<?xml version="1.0" encoding="utf-8"?>
<!-- Generator: Adobe Illustrator 19.1.0, SVG Export Plug-In . SVG Version: 6.00 Build 0)  -->
<svg version="1.1" id="Layer_1" xmlns="http://www.w3.org/2000/svg" xmlns:xlink="http://www.w3.org/1999/xlink" x="0px" y="0px"
	 viewBox="-269 191 100 100" style="enable-background:new -269 191 100 100;" xml:space="preserve">
<g>
	<path d="M-219,191c-27.6,0-50,22.4-50,50s22.4,50,50,50c27.6,0,50-22.4,50-50S-191.4,191-219,191 M-216,284.9v-13.4
		c0-1.7-1.3-3-3-3c-1.7,0-3,1.3-3,3v13.4c-21.9-1.5-39.4-19-40.9-40.9h10.1c1.7,0,3-1.3,3-3c0-1.7-1.3-3-3-3h-10.1
		c1.5-21.9,19-39.4,40.9-40.9v13.7c0,1.7,1.3,3,3,3c1.7,0,3-1.3,3-3v-13.7c21.9,1.5,39.4,19,40.9,40.9h-10c-1.7,0-3,1.3-3,3
		c0,1.7,1.3,3,3,3h10C-176.6,265.9-194.1,283.4-216,284.9"/>
	<path d="M-191.4,237.5c-8.7-10.3-18-15.5-27.6-15.5c-14.8,0-25.5,12.6-27.9,15.8c-0.5,0.5-0.8,1.1-0.9,1.7c0,0.1,0,0.3,0,0.4
		c0,0.4,0,0.8,0.2,1.2c0.2,0.6,0.6,1.1,1,1.4c8.7,10.3,18,15.5,27.6,15.5c14.8,0,25.5-12.6,27.9-15.8c0.5-0.5,0.8-1.1,0.9-1.8
		c0-0.1,0-0.3,0-0.4c0-0.4,0-0.8-0.2-1.2C-190.5,238.4-190.9,237.9-191.4,237.5 M-219.1,252c-7.4,0-14.8-4.1-21.9-12.1
		c3.3-3.9,11.5-11.9,22-11.9c7.4,0,14.8,4.1,21.9,12.1C-200.4,244-208.6,252-219.1,252"/>
	<path d="M-219.2,230.5c-5.1,0-9.2,4.2-9.2,9.3c0,5.2,4.1,9.3,9.2,9.3c5.1,0,9.2-4.2,9.2-9.3C-210,234.7-214.1,230.5-219.2,230.5"/>
</g>
</svg>
