<?xml version="1.0" encoding="utf-8"?>
<!-- Generator: Adobe Illustrator 19.1.0, SVG Export Plug-In . SVG Version: 6.00 Build 0)  -->
<svg version="1.1" id="Layer_1" xmlns="http://www.w3.org/2000/svg" xmlns:xlink="http://www.w3.org/1999/xlink" x="0px" y="0px"
	 viewBox="-269 191 100 100" style="enable-background:new -269 191 100 100;" xml:space="preserve">
<g>
	<path d="M-180.1,237.7c1.8,0,3.3,1.5,3.3,3.3s-1.5,3.3-3.3,3.3c-1.8,0-3.3-1.5-3.3-3.3S-182,237.7-180.1,237.7"/>
	<path d="M-269,212.6v56.7c0,3.8,3.1,6.8,6.8,6.8h0h86.3c3.8,0,6.8-3.1,6.8-6.8v-56.7c0-3.8-3.1-6.8-6.8-6.8h0h-86.3
		C-265.9,205.8-269,208.9-269,212.6 M-175.8,211.3c0.8,0,1.4,0.6,1.4,1.4v56.7c0,0.7-0.6,1.4-1.4,1.4h-86.3c-0.8,0-1.4-0.6-1.4-1.4
		v-56.7c0-0.7,0.6-1.4,1.4-1.4H-175.8z"/>
	<path d="M-257.9,257.8v6.1c0,0.1,0,0.1,0,0.2c0,0,0,0,0,0c0,0.1,0.1,0.3,0.2,0.4c0.2,0.4,0.7,0.7,1.2,0.7h0h36.9v-7.5H-257.9z"/>
	<path d="M-188,230.7v-12.6c0-0.1,0-0.1,0-0.2c0,0,0,0,0-0.1c0-0.1-0.1-0.2-0.1-0.4c-0.2-0.4-0.7-0.7-1.2-0.7h0h-27.5v14H-188z"/>
	<path d="M-216.8,265.3h27.5c0.7,0,1.4-0.6,1.4-1.4v-13.6h-28.9V265.3z"/>
	<rect x="-216.8" y="233.5" width="28.9" height="14"/>
	<path d="M-219.7,216.7h-36.9c-0.7,0-1.4,0.6-1.4,1.4V255h38.3V216.7z M-231.5,232.8L-231.5,232.8l-7.3,7.3l-2,2l-2-2l-3.3-3.3
		c-0.5-0.6-0.5-1.4,0-2c0.5-0.5,1.4-0.5,2,0v0l3.3,3.3l7.3-7.3c0.6-0.5,1.4-0.5,2,0C-231,231.4-231,232.3-231.5,232.8"/>
</g>
</svg>
