<?xml version="1.0" encoding="utf-8"?>
<!-- Generator: Adobe Illustrator 19.1.0, SVG Export Plug-In . SVG Version: 6.00 Build 0)  -->
<svg version="1.1" id="Layer_1" xmlns="http://www.w3.org/2000/svg" xmlns:xlink="http://www.w3.org/1999/xlink" x="0px" y="0px"
	 viewBox="-269 191 100 100" style="enable-background:new -269 191 100 100;" xml:space="preserve">
<g>
	<path d="M-264.8,251.1h39.3c-1.5-1-3-2.2-4.3-3.5c-4.7-4.5-7.5-10.4-8.1-16.8h-26.8c-2.3,0-4.2,1.9-4.2,4.2v11.8
		C-269,249.2-267.1,251.1-264.8,251.1 M-258.9,236.8c2.3,0,4.2,1.9,4.2,4.2c0,2.3-1.9,4.2-4.2,4.2c-2.3,0-4.2-1.9-4.2-4.2
		C-263.1,238.7-261.2,236.8-258.9,236.8"/>
	<path d="M-264.8,225.8h26.8c0.5-6.5,3.4-12.6,8.2-17.3c1.1-1.1,2.3-2.1,3.6-3h-38.6c-2.3,0-4.2,1.9-4.2,4.2v11.8
		C-269,223.9-267.1,225.8-264.8,225.8 M-258.9,211.5c2.3,0,4.2,1.9,4.2,4.2c0,2.3-1.9,4.2-4.2,4.2c-2.3,0-4.2-1.9-4.2-4.2
		C-263.1,213.4-261.2,211.5-258.9,211.5"/>
	<path d="M-170.9,256.8l-19.2-16.2c-0.1-0.1-0.3-0.2-0.5-0.3c5.8-8.7,4.8-20.5-3-28.2c-4.5-4.4-10.4-6.6-16.3-6.6
		c-5.9,0-11.8,2.2-16.3,6.6c-9,8.8-9,23.1,0,31.8c4.5,4.4,10.4,6.6,16.3,6.6c4.4,0,8.7-1.2,12.5-3.6c0.1,0.1,0.2,0.3,0.3,0.4
		l16.6,18.8c1.3,1.3,3,1.9,4.7,1.9c1.7,0,3.4-0.6,4.7-1.9l0.1-0.1C-168.4,263.5-168.4,259.4-170.9,256.8 M-198.1,239.6
		c-3.3,3.2-7.5,4.8-11.8,4.8c-4.3,0-8.6-1.6-11.8-4.8c-6.5-6.4-6.5-16.7,0-23.1c3.3-3.2,7.5-4.8,11.8-4.8c4.3,0,8.6,1.6,11.8,4.8
		C-191.6,222.9-191.6,233.3-198.1,239.6"/>
	<path d="M-209.6,256.2h-55.2c-2.3,0-4.2,1.9-4.2,4.2v11.8c0,2.3,1.9,4.2,4.2,4.2h55.2c2.3,0,4.2-1.9,4.2-4.2v-11.8
		C-205.4,258.1-207.3,256.2-209.6,256.2 M-258.9,270.5c-2.3,0-4.2-1.9-4.2-4.2c0-2.3,1.9-4.2,4.2-4.2c2.3,0,4.2,1.9,4.2,4.2
		C-254.7,268.6-256.6,270.5-258.9,270.5"/>
</g>
</svg>
