<?xml version="1.0" encoding="utf-8"?>
<!-- Generator: Adobe Illustrator 19.1.0, SVG Export Plug-In . SVG Version: 6.00 Build 0)  -->
<svg version="1.1" id="Layer_1" xmlns="http://www.w3.org/2000/svg" xmlns:xlink="http://www.w3.org/1999/xlink" x="0px" y="0px"
	 viewBox="-269 191 100 100" style="enable-background:new -269 191 100 100;" xml:space="preserve">
<g>
	<path d="M-172,236.3c-1.7,0-3-1.3-3-3c0-18.2-14.8-33-33-33c-1.7,0-3-1.3-3-3c0-1.7,1.3-3,3-3c21.5,0,39,17.5,39,39
		C-169,234.9-170.3,236.3-172,236.3"/>
	<path d="M-184,236.3c-1.7,0-3-1.3-3-3c0-11.6-9.4-21-21-21c-1.7,0-3-1.3-3-3c0-1.7,1.3-3,3-3c14.9,0,27,12.1,27,27
		C-181,234.9-182.3,236.3-184,236.3"/>
	<path d="M-196,236.3c-1.7,0-3-1.3-3-3c0-5-4-9-9-9c-1.7,0-3-1.3-3-3c0-1.7,1.3-3,3-3c8.3,0,15,6.7,15,15
		C-193,234.9-194.3,236.3-196,236.3"/>
	<path d="M-237.4,253.1v34.6l26.4-14.4c1.2-0.7,2.2-2.3,2.2-3.7v-32.7L-237.4,253.1z"/>
	<path d="M-269,269.6c0,1.4,1,3,2.2,3.7l26.4,14.4v-34.6l-28.6-16.3V269.6z"/>
	<path d="M-256.9,226.7l-9.8,5.6c-1.2,0.7-1.2,1.8,0,2.5l27.8,15.8l12-6.8l1.7-0.9l-30-17L-256.9,226.7z"/>
	<path d="M-211.1,232.2l-25.6-14.6c-1.2-0.7-3.1-0.7-4.3,0l-11.2,6.4l30,17l11.1-6.3C-209.9,234-209.9,232.9-211.1,232.2"/>
</g>
</svg>
