<?xml version="1.0" encoding="utf-8"?>
<!-- Generator: Adobe Illustrator 19.1.0, SVG Export Plug-In . SVG Version: 6.00 Build 0)  -->
<svg version="1.1" id="Layer_1" xmlns="http://www.w3.org/2000/svg" xmlns:xlink="http://www.w3.org/1999/xlink" x="0px" y="0px"
	 viewBox="-269 191 100 100" style="enable-background:new -269 191 100 100;" xml:space="preserve">
<g>
	<path d="M-170.4,248.4v-12.3l-4.8-17.3c0,0-0.4-1.4-0.5-1.6c-0.2-0.4-0.4-0.8-0.6-1.2c-0.8-1.2-2-2.1-3-2.1h-16.1V206
		c0-2.2-1.7-3.9-3.9-3.9h-15.8h-16.7h-1.2h-1.2h-10.4c-2.1,0-3.9,1.7-3.9,3.9v4.8h18.1h17.5c4.5,0,8.2,3.7,8.2,8.2v4.9h12.6v-6.1
		h11.7l4.2,13.7h-6.3l3.5,12.7l0.6,2.1l1.6,5.7v0.9h5.4c1.3,0,2.3-1,2.3-2.3C-169,249.5-169.6,248.7-170.4,248.4"/>
	<path d="M-197.8,262.6c-4.8,0-8.7,3.9-8.7,8.7c0,0,0,0.1,0,0.1c0,4.8,3.9,8.6,8.7,8.6c4.8,0,8.6-3.8,8.7-8.6c0,0,0-0.1,0-0.1
		C-189.2,266.5-193,262.6-197.8,262.6"/>
	<path d="M-250.2,262.6c-4.8,0-8.7,3.9-8.7,8.7c0,0,0,0.1,0,0.1c0,4.8,3.9,8.6,8.7,8.6c4.8,0,8.6-3.8,8.7-8.6c0,0,0-0.1,0-0.1
		C-241.5,266.5-245.4,262.6-250.2,262.6"/>
	<path d="M-180.6,266.2v-13.7c0,0-5.8-20.8-5.9-21.1c-0.2-0.4-0.4-0.9-0.7-1.3c-0.9-1.3-2.2-2.3-3.4-2.3h-17.9V219
		c0-2.4-1.9-4.3-4.3-4.3h-17.5h-32.8c-2.4,0-4.3,1.9-4.3,4.3v47.2c-0.9,0.4-1.5,1.3-1.5,2.4c0,1.4,1.2,2.6,2.6,2.6h5
		c0-6.2,5.1-11.2,11.3-11.2c6.2,0,11.2,5,11.3,11.2h25.8h4.1c0-6.2,5.1-11.2,11.3-11.2c6.2,0,11.2,5,11.3,11.2h4.9
		c1.4,0,2.6-1.2,2.6-2.6C-179,267.5-179.7,266.6-180.6,266.2 M-227.6,232.4L-227.6,232.4l-10.8,10.8l-2.9,2.9l-2.9-2.9l-4.9-4.9v0
		c-0.8-0.8-0.8-2.1,0-2.9c0.8-0.8,2.1-0.8,2.9,0c0,0,0,0,0,0l4.9,4.9l10.8-10.8c0.8-0.8,2.1-0.8,2.9,0
		C-226.8,230.2-226.8,231.6-227.6,232.4 M-204.7,247.4v-15.3h13l4.7,15.3H-204.7z"/>
</g>
</svg>
