<?xml version="1.0" encoding="utf-8"?>
<!-- Generator: Adobe Illustrator 19.1.0, SVG Export Plug-In . SVG Version: 6.00 Build 0)  -->
<svg version="1.1" id="Layer_1" xmlns="http://www.w3.org/2000/svg" xmlns:xlink="http://www.w3.org/1999/xlink" x="0px" y="0px"
	 viewBox="-269 191 100 100" style="enable-background:new -269 191 100 100;" xml:space="preserve">
<g>
	<path d="M-196.1,191h-45.8c-3.3,0-6,2.7-6,6v82.5c0,3.3,2.7,6,6,6h1.2v1.8c0,2,1.6,3.6,3.6,3.6h36.1c2,0,3.6-1.6,3.6-3.6v-1.8h1.2
		c3.3,0,6-2.7,6-6V197C-190.1,193.7-192.8,191-196.1,191 M-197.3,201.2v15.1h-19.9v-18.1h16.9C-198.7,198.2-197.3,199.6-197.3,201.2
		 M-220.8,259.7h-19.9v-18.1h19.9V259.7z M-240.7,219.9h19.9V238h-19.9V219.9z M-217.2,241.6h19.9v18.1h-19.9V241.6z M-217.2,219.9
		h19.9V238h-19.9V219.9z M-237.7,198.2h16.9v18.1h-19.9v-15.1C-240.7,199.6-239.3,198.2-237.7,198.2 M-200.3,278.3h-37.3
		c-1.7,0-3-1.4-3-3v-8.4h43.4v8.4C-197.3,277-198.7,278.3-200.3,278.3"/>
	<path d="M-222.9,270.3l-9.6-2.2c-0.2,0-0.4,0.1-0.4,0.3l-1.3,5.5c0,0.2,0.1,0.4,0.3,0.4l9.6,2.2c0.2,0,0.4-0.1,0.4-0.3l1.3-5.5
		C-222.6,270.6-222.7,270.4-222.9,270.3"/>
</g>
</svg>
