<?xml version="1.0" encoding="utf-8"?>
<!-- Generator: Adobe Illustrator 19.1.0, SVG Export Plug-In . SVG Version: 6.00 Build 0)  -->
<svg version="1.1" id="Layer_1" xmlns="http://www.w3.org/2000/svg" xmlns:xlink="http://www.w3.org/1999/xlink" x="0px" y="0px"
	 viewBox="-269 191 100 100" style="enable-background:new -269 191 100 100;" xml:space="preserve">
<g>
	<path d="M-184,220.1l-2.2-0.3l-0.4-2.2c-1.5-8.4-8.8-14.6-17.4-14.6c-2.9,0-5.7,0.7-8.3,2.1l-2.2,1.2l-1.7-1.9
		c-4.1-4.7-10-7.4-16.1-7.4c-11.6,0-21,9.1-21.3,20.7l-0.1,2.3l-2.3,0.6c-7.6,2.1-12.9,9.1-12.9,17c0,9,6.8,16.6,15.7,17.6l1,0.1h12
		c0,0,0,0,0,0v-9.9c0-1.6-1.3-3-3-2.9l-1.5,0c-1.6,0.1-2.3-1-1.4-2.4l11.3-17.5c0.9-1.4,2.4-1.4,3.3,0l11.3,17.5
		c0.9,1.4,0.3,2.5-1.4,2.4l-0.9,0c-1.6,0-3,1.3-3,2.9v9.9c0,0,0,0,0,0h12.6v6.1c0,1.6-1.3,2.9-3,2.9l-0.9,0c-1.6-0.1-2.3,1-1.4,2.4
		l11.3,17.5c0.9,1.4,2.4,1.4,3.3,0l11.3-17.5c0.9-1.4,0.3-2.5-1.4-2.4l-1.5,0c-1.6,0-3-1.3-3-2.9v-6.1h11.3c9.8,0,17.7-8,17.7-17.7
		C-169,228.8-175.3,221.4-184,220.1"/>
</g>
</svg>
