<?xml version="1.0" encoding="utf-8"?>
<!-- Generator: Adobe Illustrator 19.1.0, SVG Export Plug-In . SVG Version: 6.00 Build 0)  -->
<svg version="1.1" id="Layer_1" xmlns="http://www.w3.org/2000/svg" xmlns:xlink="http://www.w3.org/1999/xlink" x="0px" y="0px"
	 viewBox="-269 191 100 100" style="enable-background:new -269 191 100 100;" xml:space="preserve">
<g>
	<path d="M-179,200.9c2.2,0,4,1.8,4,4v60c0,2.2-1.8,4-4,4h-80c-2.2,0-4-1.8-4-4v-60c0-2.2,1.8-4,4-4H-179 M-179,194.9h-80
		c-5.5,0-10,4.5-10,10v60c0,5.5,4.5,10,10,10h80c5.5,0,10-4.5,10-10v-60C-169,199.4-173.5,194.9-179,194.9"/>
	<path d="M-172,287.1h-94c-1.6,0-2.9-1.3-2.9-2.9c0-1.6,1.3-2.9,2.9-2.9h94c1.6,0,2.9,1.3,2.9,2.9
		C-169.1,285.8-170.4,287.1-172,287.1"/>
	<path d="M-184,206.9h-70c-1.7,0-3,1.4-3,3v50c0,1.7,1.3,3,3,3h70c1.7,0,3-1.3,3-3v-50C-181,208.3-182.3,206.9-184,206.9
		 M-190.2,252c-4,0-13.9,0.1-24.4,0.2l12.8-23.4c0.8-1.5,0.3-3.3-1.2-4.1c-1.5-0.8-3.3-0.3-4.1,1.2l-14.4,26.3c-10.3,0-20,0-24-0.2
		c-2.1-0.1-2.8-3-2.8-3c0-16.8,13.6-30.4,30.4-30.4s30.4,13.6,30.4,30.4C-187.5,249-188.1,252-190.2,252"/>
</g>
</svg>
