<?xml version="1.0" encoding="utf-8"?>
<!-- Generator: Adobe Illustrator 19.1.0, SVG Export Plug-In . SVG Version: 6.00 Build 0)  -->
<svg version="1.1" id="Layer_1" xmlns="http://www.w3.org/2000/svg" xmlns:xlink="http://www.w3.org/1999/xlink" x="0px" y="0px"
	 viewBox="-269 191 100 100" style="enable-background:new -269 191 100 100;" xml:space="preserve">
<g>
	<path d="M-172.1,227c-1.4,0-2.6-1.1-2.6-2.6c0-15.6-12.7-28.3-28.3-28.3c-1.4,0-2.6-1.1-2.6-2.6c0-1.4,1.2-2.6,2.6-2.6
		c18.4,0,33.5,15,33.5,33.5C-169.5,225.9-170.7,227-172.1,227"/>
	<path d="M-182.4,227c-1.4,0-2.6-1.1-2.6-2.6c0-9.9-8.1-18-18-18c-1.4,0-2.6-1.1-2.6-2.6s1.1-2.6,2.6-2.6
		c12.8,0,23.2,10.4,23.2,23.2C-179.8,225.9-181,227-182.4,227"/>
	<path d="M-192.7,227c-1.4,0-2.6-1.1-2.6-2.6c0-4.3-3.5-7.7-7.7-7.7c-1.4,0-2.6-1.2-2.6-2.6c0-1.4,1.2-2.6,2.6-2.6
		c7.1,0,12.9,5.8,12.9,12.9C-190.1,225.9-191.3,227-192.7,227"/>
	<path d="M-201.6,283.2L-201.6,283.2l-0.1-57.1c0-1.8-1.5-3.3-3.3-3.3H-228c-1.8,0-3.3-0.9-3.3-1.9c0-1.1-1.5-1.9-3.2-1.9h-16.3
		c-1.8,0-3.3,0.9-3.3,1.9c0,1.1-1.5,1.9-3.3,1.9h-4c-1.8,0-3.3,1.5-3.3,3.3v57.1c-2.2,0-3.9,1.7-3.9,3.9c0,0.7,0.2,1.4,0.5,1.9
		c0.7,1.2,1.9,2,3.4,2h63c1.4,0,2.6-0.7,3.3-1.8c0.4-0.6,0.6-1.3,0.6-2.1C-197.7,284.9-199.4,283.2-201.6,283.2 M-246.3,282.4
		c0,0.4-0.4,0.8-0.8,0.8h-7.7c-0.5,0-0.8-0.4-0.8-0.8v-9.7c0-0.4,0.4-0.8,0.8-0.8h7.7c0.5,0,0.8,0.4,0.8,0.8V282.4z M-246.3,263.9
		c0,0.4-0.4,0.8-0.8,0.8h-7.7c-0.5,0-0.8-0.4-0.8-0.8v-9.7c0-0.4,0.4-0.8,0.8-0.8h7.7c0.5,0,0.8,0.4,0.8,0.8V263.9z M-246.3,245.5
		c0,0.4-0.4,0.8-0.8,0.8h-7.7c-0.5,0-0.8-0.4-0.8-0.8v-9.7c0-0.4,0.4-0.8,0.8-0.8h7.7c0.5,0,0.8,0.4,0.8,0.8V245.5z M-228.5,282.4
		c0,0.4-0.4,0.8-0.8,0.8h-7.7c-0.5,0-0.8-0.4-0.8-0.8v-9.7c0-0.4,0.4-0.8,0.8-0.8h7.7c0.5,0,0.8,0.4,0.8,0.8V282.4z M-228.5,263.9
		c0,0.4-0.4,0.8-0.8,0.8h-7.7c-0.5,0-0.8-0.4-0.8-0.8v-9.7c0-0.4,0.4-0.8,0.8-0.8h7.7c0.5,0,0.8,0.4,0.8,0.8V263.9z M-228.5,245.5
		c0,0.4-0.4,0.8-0.8,0.8h-7.7c-0.5,0-0.8-0.4-0.8-0.8v-9.7c0-0.4,0.4-0.8,0.8-0.8h7.7c0.5,0,0.8,0.4,0.8,0.8V245.5z M-210.6,282.4
		c0,0.4-0.4,0.8-0.8,0.8h-7.7c-0.5,0-0.8-0.4-0.8-0.8v-9.7c0-0.4,0.4-0.8,0.8-0.8h7.7c0.4,0,0.8,0.4,0.8,0.8V282.4z M-210.6,263.9
		c0,0.4-0.4,0.8-0.8,0.8h-7.7c-0.5,0-0.8-0.4-0.8-0.8v-9.7c0-0.4,0.4-0.8,0.8-0.8h7.7c0.4,0,0.8,0.4,0.8,0.8V263.9z M-210.6,245.5
		c0,0.4-0.4,0.8-0.8,0.8h-7.7c-0.5,0-0.8-0.4-0.8-0.8v-9.7c0-0.4,0.4-0.8,0.8-0.8h7.7c0.4,0,0.8,0.4,0.8,0.8V245.5z"/>
</g>
</svg>
