<?xml version="1.0" encoding="utf-8"?>
<!-- Generator: Adobe Illustrator 19.1.0, SVG Export Plug-In . SVG Version: 6.00 Build 0)  -->
<svg version="1.1" id="Layer_1" xmlns="http://www.w3.org/2000/svg" xmlns:xlink="http://www.w3.org/1999/xlink" x="0px" y="0px"
	 viewBox="-269 191 100 100" style="enable-background:new -269 191 100 100;" xml:space="preserve">
<g>
	<path d="M-249.9,244.6c-2.4,12.7,4,25.6,15.7,31.2c2.3,1.1,4.7,1.9,7.1,2.4c15.5,2.9,30.6-7.3,33.5-22.8c2.4-12.7-4-25.6-15.7-31.2
		c-2.3-1.1-4.7-1.9-7.1-2.3C-231.9,218.8-246.9,229.1-249.9,244.6 M-217.5,228.2c1.9,0.4,3.8,1,5.5,1.8c9,4.3,14,14.3,12.2,24.1
		c-2.3,12-13.9,19.9-26,17.7c-1.9-0.4-3.8-1-5.5-1.8c-9-4.3-14-14.3-12.1-24.1C-241.2,233.8-229.6,225.9-217.5,228.2"/>
	<path d="M-262.5,281.5c-1.9,1.3-4.5,0.8-5.8-1.1c-0.3-0.4-0.5-0.9-0.6-1.3c-0.4-1.6,0.2-3.4,1.7-4.5l14.9-10.1l4.7,6.9
		L-262.5,281.5z"/>
	<path d="M-218.1,231.1c-1.2-0.2-2.4-0.3-3.6-0.3c-0.9,0-1.8,0.1-2.7,0.2v6.9h-12.2c-2,2.4-3.4,5.3-4,8.5c-0.9,4.6,0,9.1,2.1,13
		h33.5c1-1.8,1.7-3.7,2.1-5.8c1.3-6.9-1.3-13.8-6.4-18.2v1.6c0,0.4-0.3,0.7-0.7,0.7h-6.4c-0.4,0-0.7-0.3-0.7-0.7v-5.6
		C-217.3,231.3-217.7,231.2-218.1,231.1 M-216.3,243.5h6.4c0.4,0,0.7,0.3,0.7,0.7v8.1c0,0.4-0.3,0.7-0.7,0.7h-6.4
		c-0.4,0-0.7-0.3-0.7-0.7v-8.1C-217,243.8-216.7,243.5-216.3,243.5"/>
	<path d="M-172.2,252.9L-172.2,252.9l-0.1-47.2c0-1.5-1.2-2.7-2.7-2.7h-19.1c-1.5,0-2.7-0.7-2.7-1.6c0-0.9-1.2-1.6-2.7-1.6H-213
		c-1.5,0-2.7,0.7-2.7,1.6c0,0.9-1.2,1.6-2.7,1.6h-3.3c-1.5,0-2.7,1.2-2.7,2.7v12.8c0.9-0.1,1.8-0.1,2.7-0.1c1.6,0,3.2,0.1,4.7,0.4
		v-5c0-0.4,0.3-0.7,0.7-0.7h6.4c0.4,0,0.7,0.3,0.7,0.7v7.2c0.4,0.2,0.9,0.4,1.3,0.6c3.6,1.7,6.7,4,9.3,6.8h3.5
		c0.4,0,0.7,0.3,0.7,0.7v4.9c3.9,6.5,5.4,14.3,3.9,22.1c-0.2,1.2-0.5,2.3-0.9,3.5h19.2c1.2,0,2.2-0.6,2.7-1.5
		c0.3-0.5,0.5-1.1,0.5-1.7C-169,254.3-170.5,252.9-172.2,252.9 M-194.5,221.7c0,0.4-0.3,0.7-0.7,0.7h-6.4c-0.4,0-0.7-0.3-0.7-0.7
		v-8.1c0-0.4,0.3-0.7,0.7-0.7h6.4c0.4,0,0.7,0.3,0.7,0.7V221.7z M-179.7,252.2c0,0.4-0.3,0.7-0.7,0.7h-6.4c-0.4,0-0.7-0.3-0.7-0.7
		v-8.1c0-0.4,0.3-0.7,0.7-0.7h6.4c0.4,0,0.7,0.3,0.7,0.7V252.2z M-179.7,236.9c0,0.4-0.3,0.7-0.7,0.7h-6.4c-0.4,0-0.7-0.3-0.7-0.7
		v-8.1c0-0.4,0.3-0.7,0.7-0.7h6.4c0.4,0,0.7,0.3,0.7,0.7V236.9z M-179.7,221.7c0,0.4-0.3,0.7-0.7,0.7h-6.4c-0.4,0-0.7-0.3-0.7-0.7
		v-8.1c0-0.4,0.3-0.7,0.7-0.7h6.4c0.4,0,0.7,0.3,0.7,0.7V221.7z"/>
</g>
</svg>
