<?xml version="1.0" encoding="utf-8"?>
<!-- Generator: Adobe Illustrator 19.1.0, SVG Export Plug-In . SVG Version: 6.00 Build 0)  -->
<svg version="1.1" id="Layer_1" xmlns="http://www.w3.org/2000/svg" xmlns:xlink="http://www.w3.org/1999/xlink" x="0px" y="0px"
	 viewBox="-269 191 100 100" style="enable-background:new -269 191 100 100;" xml:space="preserve">
<g>
	<path d="M-179,200.9c2.2,0,4,1.8,4,4v60c0,2.2-1.8,4-4,4h-80c-2.2,0-4-1.8-4-4v-60c0-2.2,1.8-4,4-4H-179 M-179,194.9h-80
		c-5.5,0-10,4.5-10,10v60c0,5.5,4.5,10,10,10h80c5.5,0,10-4.5,10-10v-60C-169,199.4-173.5,194.9-179,194.9"/>
	<path d="M-184,206.9h-70c-1.7,0-3,1.3-3,3v50c0,1.7,1.3,3,3,3h70c1.7,0,3-1.3,3-3v-50C-181,208.2-182.3,206.9-184,206.9
		 M-218.5,255.3h-1c-2.2-0.5-3.8-2-3.8-4.5c0-3.6,3.5-5.4,6.2-4c0.7,0.4,1.5,1.2,1.9,2C-213.6,251.7-215.8,255-218.5,255.3
		 M-206.7,244.2c-1,1-2.6,1-3.5,0c-4.9-5.1-12.7-5.1-17.6,0c-1,1-2.5,1-3.5,0c-1-1-1-2.7,0-3.7c6.8-7.1,17.9-7.1,24.7,0
		C-205.7,241.6-205.7,243.2-206.7,244.2 M-199.6,236.9c-1,1-2.5,1-3.5,0c-8.8-9.1-22.9-9.1-31.7,0c-1,1-2.6,1-3.5,0
		c-1-1-1-2.6,0-3.7c10.7-11.1,28-11.1,38.7,0C-198.7,234.3-198.7,235.9-199.6,236.9 M-192.6,229.6c-1,1-2.5,1-3.5,0
		c-12.6-13.1-33.1-13.1-45.8,0c-1,1-2.5,1-3.5,0c-1-1-1-2.6,0-3.7c14.6-15.2,38.2-15.2,52.8,0C-191.6,226.9-191.6,228.6-192.6,229.6
		"/>
	<path d="M-172,287.1h-94c-1.6,0-2.9-1.3-2.9-2.9c0-1.6,1.3-2.9,2.9-2.9h94c1.6,0,2.9,1.3,2.9,2.9
		C-169.1,285.8-170.4,287.1-172,287.1"/>
</g>
</svg>
