<?xml version="1.0" encoding="utf-8"?>
<!-- Generator: Adobe Illustrator 19.1.0, SVG Export Plug-In . SVG Version: 6.00 Build 0)  -->
<svg version="1.1" id="Layer_1" xmlns="http://www.w3.org/2000/svg" xmlns:xlink="http://www.w3.org/1999/xlink" x="0px" y="0px"
	 viewBox="-269 191 100 100" style="enable-background:new -269 191 100 100;" xml:space="preserve">
<g>
	<path d="M-182.8,236.7c0.5-1.9,0.8-3.8,0.8-5.8c0-12.7-10.6-23-23.6-23c-9.8,0-18.2,5.8-21.8,14.1c-3.1-3.5-7.6-5.7-12.7-5.7
		c-9.2,0-16.7,7.3-16.7,16.3c0,1.5,0.2,3,0.6,4.5c-7.5,2.7-12.9,9.7-12.9,18c0,10.6,8.8,19.2,19.7,19.2h60.6
		c10.9,0,19.7-8.6,19.7-19.2C-169,246.4-174.8,239.1-182.8,236.7"/>
</g>
</svg>
