<?xml version="1.0" encoding="utf-8"?>
<!-- Generator: Adobe Illustrator 19.1.0, SVG Export Plug-In . SVG Version: 6.00 Build 0)  -->
<svg version="1.1" id="Layer_1" xmlns="http://www.w3.org/2000/svg" xmlns:xlink="http://www.w3.org/1999/xlink" x="0px" y="0px"
	 viewBox="-269 191 100 100" style="enable-background:new -269 191 100 100;" xml:space="preserve">
<g>
	<path d="M-197.4,279.5h-18.1c-1.2,0-2.2,1-2.2,2.2v4c0,1.2,1,2.2,2.2,2.2h18.1c1.2,0,2.2-1,2.2-2.2v-4
		C-195.2,280.5-196.1,279.5-197.4,279.5"/>
	<path d="M-192,252.5c-0.1-0.1-0.2-0.2-0.2-0.3c0-0.1-0.1-0.1-0.2-0.2c-0.1-0.1-0.2-0.2-0.2-0.2c-0.1-0.1-0.2-0.1-0.2-0.2
		c-0.1-0.1-0.2-0.1-0.3-0.2c-0.1-0.1-0.2-0.1-0.3-0.2c-0.1,0-0.2-0.1-0.3-0.1c-0.1-0.1-0.3-0.1-0.4-0.1c-0.1,0-0.1-0.1-0.2-0.1
		c-0.2,0-0.4-0.1-0.7-0.1c-0.2,0-0.5,0-0.7,0.1c-0.1,0-0.1,0-0.2,0.1c-0.1,0-0.3,0.1-0.4,0.1c-0.1,0-0.2,0.1-0.3,0.1
		c-0.1,0.1-0.2,0.1-0.3,0.2c-0.1,0.1-0.2,0.1-0.3,0.2c-0.1,0.1-0.2,0.1-0.2,0.2c-0.1,0.1-0.2,0.2-0.2,0.2c-0.1,0.1-0.1,0.1-0.2,0.2
		c-0.1,0.1-0.2,0.2-0.2,0.3c0,0,0,0.1-0.1,0.1c-0.3,0.5-0.5,1.1-0.5,1.8v-0.8v-1.6c0-2-1.6-3.6-3.6-3.6c-2,0-3.6,1.6-3.6,3.6v-3.5
		c0-2-1.6-3.6-3.6-3.6c-2,0-3.6,1.6-3.6,3.6v-16.6c0-2-1.6-3.6-3.6-3.6c-2,0-3.6,1.6-3.6,3.6v21.7v5.5v3.8c0,0,0,0,0,0
		c0,0.1,0,0.7-0.1,1.6v0c-0.1,2.7,0.1,7.9,1.7,10.5c0.9,1.4,2.5,2.3,4.3,2.3h17.6c0.4,0,0.7,0,1-0.1c2.1-0.4,3.7-2.2,3.9-4.3
		c0-0.2,0-0.4,0-0.6v-5.9v-1.9v-3.3V261v-2v-2.5v-2.2C-191.4,253.7-191.6,253.1-192,252.5C-191.9,252.5-192,252.5-192,252.5"/>
	<path d="M-188,206.1c0-0.1-0.1-0.2-0.1-0.4c-0.2-0.4-0.7-0.7-1.2-0.7h0h-67.2c-0.7,0-1.4,0.6-1.4,1.4v45.8c0,0.1,0,0.1,0,0.2
		c0,0,0,0,0,0.1c0,0.1,0.1,0.3,0.2,0.4c0.2,0.4,0.7,0.7,1.2,0.7h0h31.6v-21.7c0-4.7,3.8-8.6,8.6-8.6c4.7,0,8.6,3.8,8.6,8.6v8.1
		c2.2,0.4,4.2,1.6,5.5,3.4c0.1,0,0.2,0,0.2,0c2.4,0,4.5,1,6,2.5c0.4-0.1,0.7-0.1,1.1-0.1c2.9,0,5.5,1.5,7,3.7v-43.1
		C-188,206.3-188,206.3-188,206.1C-188,206.2-188,206.1-188,206.1"/>
	<path d="M-176.8,229.3c0-1.8-1.5-3.3-3.3-3.3c-1.8,0-3.3,1.5-3.3,3.3c0,1.8,1.5,3.3,3.3,3.3C-178.3,232.6-176.8,231.1-176.8,229.3"
		/>
	<path d="M-175.8,194.1L-175.8,194.1h-86.3c-3.8,0-6.8,3.1-6.8,6.8v56.7c0,3.8,3.1,6.8,6.8,6.8h0h37.1c0-0.7,0-1.4,0.1-1.8V259
		h-37.2c-0.8,0-1.4-0.6-1.4-1.4v-56.7c0-0.7,0.6-1.4,1.4-1.4h86.3c0.8,0,1.4,0.6,1.4,1.4v56.7c0,0.7-0.6,1.4-1.4,1.4h-10.6v2v0.2
		v3.3h10.6c3.8,0,6.8-3.1,6.8-6.8v-56.7v0C-169,197.2-172.1,194.1-175.8,194.1"/>
</g>
</svg>
