<?xml version="1.0" encoding="utf-8"?>
<!-- Generator: Adobe Illustrator 19.1.0, SVG Export Plug-In . SVG Version: 6.00 Build 0)  -->
<svg version="1.1" id="Layer_1" xmlns="http://www.w3.org/2000/svg" xmlns:xlink="http://www.w3.org/1999/xlink" x="0px" y="0px"
	 viewBox="-269 191 100 100" style="enable-background:new -269 191 100 100;" xml:space="preserve">
<g>
	<path d="M-215.9,214h14.7l-19.9-18.3l0.1,13.2C-221.1,211.7-218.8,214-215.9,214"/>
	<path d="M-173.6,283.6l-18.6-32.2c-0.7-1.2-2-2.1-3.4-2.3c-0.3,0-0.5-0.1-0.8-0.1c-1.7,0-3.3,0.9-4.1,2.4l-18.7,32.4
		c-0.9,1.5-0.9,3.3,0,4.8c0.8,1.5,2.4,2.4,4.1,2.4h37.4c2.6,0,4.8-2.1,4.8-4.8C-172.8,285.3-173.1,284.4-173.6,283.6 M-198.9,261.4
		L-198.9,261.4c0-1.4,1.1-2.5,2.5-2.5c0.2,0,0.3,0,0.4,0c0.1,0,0.3,0.1,0.4,0.1c0.9,0.3,1.6,1.2,1.6,2.3v15c0,1.4-1.1,2.5-2.5,2.5
		c-0.6,0-1.1-0.2-1.5-0.5c-0.1-0.1-0.3-0.2-0.4-0.4c0,0,0,0,0,0c-0.1-0.1-0.2-0.2-0.3-0.4c0,0,0-0.1,0-0.1c-0.1-0.1-0.1-0.3-0.1-0.4
		c0,0,0-0.1,0-0.1c0-0.2-0.1-0.3-0.1-0.5V261.4z M-196.4,286.3c-1.5,0-2.7-1.2-2.7-2.7s1.2-2.7,2.7-2.7c1.5,0,2.7,1.2,2.7,2.7
		S-194.9,286.3-196.4,286.3"/>
	<path d="M-225.3,280.3l10.2-17.7H-230c-1.5,0-2.7-1.2-2.7-2.7c0-1.5,1.2-2.7,2.7-2.7h18.1l4.2-7.4c-0.3,0.1-0.7,0.2-1.1,0.2H-230
		c-1.5,0-2.7-1.2-2.7-2.7c0-1.5,1.2-2.7,2.7-2.7h21.3c1.4,0,2.6,1.1,2.7,2.5c2.2-3.2,5.8-5.1,9.7-5.1c0.3,0,0.5,0,0.8,0v-22.5h-20.3
		c-5.7,0-10.4-4.7-10.4-10.4V191h-29.9c-5,0-9,4-9,9v72.2c0,5,4,9,9,9h30.4C-225.6,281-225.4,280.6-225.3,280.3 M-230,232.1h21.3
		c1.5,0,2.7,1.2,2.7,2.7s-1.2,2.7-2.7,2.7H-230c-1.5,0-2.7-1.2-2.7-2.7S-231.5,232.1-230,232.1 M-244.9,260v2.5c0,1.3-1,2.3-2.3,2.3
		c-1.3,0-2.3-1-2.3-2.3v-2.4h-3c-1.3,0-2.3-1-2.3-2.3s1-2.3,2.3-2.3h5.5c3.9,0,5-0.6,5-2.7c0-2.1-1.2-2.7-4.3-3.1
		c-6.3-0.8-8.7-2.7-8.7-7.4c0-3.1,1.9-7.6,8.2-7.9v-2.5c0-1.3,1-2.3,2.3-2.3s2.3,1,2.3,2.3v2.8h2c1.3,0,2.3,1,2.3,2.3
		c0,1.3-1,2.3-2.3,2.3h-5.6v-0.3c-3.6,0-4.2,1.7-4.2,3.4c0,2.1,1.7,2.4,4.7,2.8c5.5,0.7,8.5,2.4,8.5,7.6
		C-236.9,256.7-238.5,259.6-244.9,260"/>
</g>
</svg>
