<?xml version="1.0" encoding="utf-8"?>
<!-- Generator: Adobe Illustrator 19.1.0, SVG Export Plug-In . SVG Version: 6.00 Build 0)  -->
<svg version="1.1" id="Layer_1" xmlns="http://www.w3.org/2000/svg" xmlns:xlink="http://www.w3.org/1999/xlink" x="0px" y="0px"
	 viewBox="-269 191 100 100" style="enable-background:new -269 191 100 100;" xml:space="preserve">
<g>
	<path d="M-195.6,257.5c-4.9,0-8.9,4-8.9,8.9c0,0,0,0,0,0.1c0,4.9,4,8.9,8.9,8.9c4.9,0,8.9-4,8.9-8.9c0,0,0-0.1,0-0.1
		C-186.6,261.5-190.6,257.5-195.6,257.5"/>
	<path d="M-249.6,257.5c-4.9,0-8.9,4-8.9,8.9c0,0,0,0,0,0.1c0,4.9,4,8.9,8.9,8.9c4.9,0,8.9-4,8.9-8.9c0,0,0-0.1,0-0.1
		C-240.6,261.5-244.6,257.5-249.6,257.5"/>
	<path d="M-177.8,261.2v-13.1v-1l-1.5-5.3l-0.6-2.2l-3.5-12.4l-0.2-0.5l-0.2-0.6c-0.1-0.3-0.1-0.5-0.2-0.8c-0.2-0.5-0.4-0.9-0.7-1.3
		c-0.9-1.3-2.3-2.4-3.5-2.4h-0.7h-1.3h-1.3h-15.1v-9.1c0-2.5-2-4.5-4.5-4.5h-18.1h-19.1h-1.3h-1.3h-12c-2.5,0-4.5,2-4.5,4.5v48.7
		c-0.9,0.4-1.6,1.4-1.6,2.4c0,1.5,1.2,2.7,2.7,2.7h3.3h1.8c0-6.4,5.2-11.5,11.6-11.5c6.4,0,11.6,5.2,11.6,11.5h26.6h4.2
		c0.1-6.4,5.2-11.5,11.6-11.5c6.4,0,11.6,5.2,11.6,11.5h4.9h0.2c1.5,0,2.7-1.2,2.7-2.7C-176.2,262.6-176.9,261.6-177.8,261.2
		 M-202.6,241.9v-15.8h13.4l4.8,15.8H-202.6z"/>
	<path d="M-185.5,206.6c-0.7,0-1.3,0.6-1.3,1.3c0,0.7,0.6,1.3,1.3,1.3c7.7,0,13.9,6.3,13.9,14c0,0.7,0.6,1.3,1.3,1.3
		c0.7,0,1.3-0.6,1.3-1.3C-169,214-176.4,206.6-185.5,206.6"/>
	<path d="M-185.5,211.7c-0.7,0-1.3,0.6-1.3,1.3c0,0.7,0.6,1.3,1.3,1.3c4.9,0,8.9,4,8.9,8.9c0,0.7,0.6,1.3,1.3,1.3
		c0.7,0,1.3-0.6,1.3-1.3C-174.1,216.8-179.2,211.7-185.5,211.7"/>
	<path d="M-181.7,223.1c0,0.7,0.6,1.3,1.3,1.3c0.7,0,1.3-0.6,1.3-1.3c0-3.5-2.8-6.3-6.3-6.3c-0.7,0-1.3,0.6-1.3,1.3
		c0,0.7,0.6,1.3,1.3,1.3C-183.4,219.3-181.7,221-181.7,223.1"/>
</g>
</svg>
