<?xml version="1.0" encoding="utf-8"?>
<!-- Generator: Adobe Illustrator 19.1.0, SVG Export Plug-In . SVG Version: 6.00 Build 0)  -->
<svg version="1.1" id="Layer_1" xmlns="http://www.w3.org/2000/svg" xmlns:xlink="http://www.w3.org/1999/xlink" x="0px" y="0px"
	 viewBox="-269 191 100 100" style="enable-background:new -269 191 100 100;" xml:space="preserve">
<g>
	<path d="M-204.7,220.7c-2.4,0-4.3,1.9-4.3,4.3c0,2.4,1.9,4.3,4.3,4.3c2.4,0,4.3-1.9,4.3-4.3C-200.3,222.6-202.3,220.7-204.7,220.7"
		/>
	<path d="M-228.9,234.2c-3.4,0-6.1,2.7-6.1,6.1c0,3.4,2.7,6.1,6.1,6.1c3.4,0,6.1-2.7,6.1-6.1C-222.8,237-225.5,234.2-228.9,234.2"/>
	<path d="M-184,206.9h-70c-1.7,0-3,1.4-3,3v50c0,1.7,1.3,3,3,3h70c1.7,0,3-1.3,3-3v-50C-181,208.3-182.3,206.9-184,206.9
		 M-213.3,241.6c0,0.5-0.4,0.9-0.9,1l-3.3,0.5c-0.3,1.2-0.8,2.4-1.4,3.4l2,2.7c0.3,0.4,0.2,1-0.1,1.3l-1.7,1.8
		c-0.4,0.3-0.9,0.4-1.3,0.1l-2.7-2c-1,0.6-2.2,1.1-3.4,1.4l-0.4,3.3c-0.1,0.5-0.5,0.9-1,0.9h-2.5c-0.5,0-0.9-0.4-1-0.9l-0.5-3.3
		c-1.2-0.3-2.4-0.8-3.4-1.4l-2.7,2c-0.4,0.3-1,0.2-1.3-0.1l-1.7-1.8c-0.3-0.3-0.4-0.9-0.1-1.3l2-2.7c-0.6-1-1.1-2.2-1.4-3.4
		l-3.3-0.5c-0.5-0.1-0.9-0.5-0.9-1v-2.5c0-0.5,0.4-0.9,0.9-1l3.3-0.5c0.3-1.2,0.8-2.4,1.4-3.4l-2-2.7c-0.3-0.4-0.3-1,0.1-1.3
		l1.7-1.7c0.3-0.3,0.9-0.4,1.3-0.1l2.7,2c1-0.6,2.2-1.1,3.4-1.4l0.5-3.3c0.1-0.5,0.5-0.9,1-0.9h2.5c0.5,0,0.9,0.4,1,0.9l0.4,3.3
		c1.2,0.3,2.4,0.8,3.4,1.4l2.7-2c0.4-0.3,1-0.3,1.3,0.1l1.7,1.7c0.3,0.3,0.4,0.9,0.1,1.3l-2,2.7c0.6,1,1.1,2.2,1.4,3.4l3.3,0.5
		c0.5,0.1,0.9,0.5,0.9,1V241.6z M-193.6,225.9c0,0.3-0.3,0.7-0.6,0.7l-2.4,0.3c-0.2,0.9-0.5,1.7-1,2.4l1.5,1.9
		c0.2,0.3,0.2,0.7-0.1,1l-1.2,1.2c-0.2,0.2-0.7,0.3-1,0.1l-1.9-1.5c-0.7,0.5-1.6,0.8-2.4,1l-0.3,2.4c-0.1,0.4-0.4,0.6-0.7,0.6h-1.8
		c-0.4,0-0.7-0.3-0.7-0.6l-0.3-2.4c-0.9-0.2-1.7-0.6-2.4-1l-1.9,1.5c-0.3,0.2-0.7,0.2-0.9-0.1l-1.2-1.2c-0.2-0.3-0.3-0.7-0.1-1
		l1.5-1.9c-0.5-0.7-0.8-1.6-1-2.4l-2.4-0.3c-0.3,0-0.6-0.4-0.6-0.7v-1.8c0-0.3,0.3-0.7,0.6-0.7l2.4-0.3c0.2-0.9,0.5-1.7,1-2.4
		l-1.5-1.9c-0.2-0.3-0.2-0.7,0.1-1l1.2-1.2c0.2-0.2,0.7-0.3,0.9-0.1l1.9,1.5c0.7-0.5,1.6-0.8,2.4-1l0.3-2.4c0-0.3,0.4-0.6,0.7-0.6
		h1.8c0.3,0,0.7,0.3,0.7,0.6l0.3,2.4c0.9,0.2,1.7,0.6,2.4,1l1.9-1.5c0.3-0.2,0.7-0.2,1,0.1l1.2,1.2c0.2,0.2,0.3,0.7,0.1,1l-1.5,1.9
		c0.5,0.7,0.8,1.6,1,2.4l2.4,0.3c0.4,0.1,0.6,0.4,0.6,0.7V225.9z"/>
	<path d="M-179,194.9h-80c-5.5,0-10,4.5-10,10v60c0,5.5,4.5,10,10,10h80c5.5,0,10-4.5,10-10v-60C-169,199.4-173.5,194.9-179,194.9
		 M-175,264.9c0,2.2-1.8,4-4,4h-80c-2.2,0-4-1.8-4-4v-60c0-2.2,1.8-4,4-4h80c2.2,0,4,1.8,4,4V264.9z"/>
	<path d="M-172,281.3h-94c-1.6,0-2.9,1.3-2.9,2.9c0,1.6,1.3,2.9,2.9,2.9h94c1.6,0,2.9-1.3,2.9-2.9
		C-169.1,282.6-170.4,281.3-172,281.3"/>
</g>
</svg>
