<?xml version="1.0" encoding="utf-8"?>
<!-- Generator: Adobe Illustrator 19.1.0, SVG Export Plug-In . SVG Version: 6.00 Build 0)  -->
<svg version="1.1" id="Layer_1" xmlns="http://www.w3.org/2000/svg" xmlns:xlink="http://www.w3.org/1999/xlink" x="0px" y="0px"
	 viewBox="-269 191 100 100" style="enable-background:new -269 191 100 100;" xml:space="preserve">
<g>
	<path d="M-220.7,204c-16.3,0-29.5,13.6-29.5,30.2s13.2,30.2,29.5,30.2c16.3,0,29.5-13.6,29.5-30.2S-204.5,204-220.7,204"/>
	<path d="M-177.1,217.2h-4.5c-0.3,0-0.6,0-0.9,0.1c-6.5-14.7-21.2-24.9-38.3-24.9c-17,0-31.7,10.2-38.3,24.9
		c-0.3-0.1-0.6-0.1-0.9-0.1h-4.5c-2.5,0-4.6,2.1-4.6,4.6v24.9c0,2.5,2.1,4.6,4.6,4.6h4.5c0.3,0,0.6,0,0.9-0.1
		c5,11.2,14.7,19.7,26.5,23.2c0.5,2.1,2.4,3.7,4.7,3.7h13.5c2.7,0,4.8-2.2,4.8-4.8c0-2.7-2.2-4.8-4.8-4.8h-13.5
		c-1.2,0-2.3,0.5-3.1,1.2c-11.3-3.3-20.4-11.8-24.4-22.7c-1.5-4-2.2-8.2-2.2-12.7c0-4.5,0.8-8.7,2.2-12.7
		c5.2-14.1,18.7-24.2,34.6-24.2c15.9,0,29.4,10.1,34.6,24.2c1.5,4,2.3,8.2,2.3,12.7c0,4.5-0.8,8.7-2.3,12.7c0.1,2.4,2.1,4.4,4.6,4.4
		h4.5c2.6,0,4.6-2.1,4.6-4.6v-24.9C-172.5,219.2-174.5,217.2-177.1,217.2"/>
	<path d="M-182.6,266.7l-0.8-0.2c-8.6,9.4-20.8,15.4-34.4,15.4c-13.5,0-25.7-5.8-34.2-15.1c-10.7,3-14.2,7.6-13.4,13.5l1.5,9.4h93.3
		l1.5-9.4C-168.2,274.3-171.8,269.7-182.6,266.7"/>
</g>
</svg>
