<?xml version="1.0" encoding="utf-8"?>
<!-- Generator: Adobe Illustrator 19.1.0, SVG Export Plug-In . SVG Version: 6.00 Build 0)  -->
<svg version="1.1" id="Layer_1" xmlns="http://www.w3.org/2000/svg" xmlns:xlink="http://www.w3.org/1999/xlink" x="0px" y="0px"
	 viewBox="-269 191 100 100" style="enable-background:new -269 191 100 100;" xml:space="preserve">
<g>
	<path d="M-171.7,235.9c0-5.5-4.5-10-9.9-10h-20.1v-25c0-5.5-4.5-9.9-9.9-9.9h-44.8c-5.5,0-9.9,4.5-9.9,9.9v64.7
		c0,5.5,4.5,9.9,9.9,9.9h30v5.5c0,5.5,4.5,9.9,9.9,9.9h34.8c5.5,0,9.9-4.5,9.9-9.9v-5.8c0-2.7-1.1-5.2-2.9-7c1.8-1.8,2.9-4.3,2.9-7
		v-5.8c0-2.7-1.1-5.2-2.9-7c1.8-1.8,2.9-4.3,2.9-7V235.9z M-258.6,221.4v-17.8c0-2.5,2-4.5,4.5-4.5h40.8c2.5,0,4.5,2,4.5,4.5v17.8
		c0,2.5-2,4.5-4.5,4.5h-3.1h-37.8C-256.6,225.9-258.6,223.9-258.6,221.4 M-245.4,267.2c0,0.7-0.6,1.3-1.3,1.3h-5.4
		c-0.7,0-1.3-0.6-1.3-1.3v-5.4c0-0.7,0.6-1.3,1.3-1.3h5.4c0.7,0,1.3,0.6,1.3,1.3V267.2z M-245.4,254.1c0,0.7-0.6,1.3-1.3,1.3h-5.4
		c-0.7,0-1.3-0.6-1.3-1.3v-5.4c0-0.7,0.6-1.4,1.3-1.4h5.4c0.7,0,1.3,0.6,1.3,1.4V254.1z M-245.4,241c0,0.7-0.6,1.3-1.3,1.3h-5.4
		c-0.7,0-1.3-0.6-1.3-1.3v-5.4c0-0.7,0.6-1.3,1.3-1.3h5.4c0.7,0,1.3,0.6,1.3,1.3V241z M-229.3,267.2c0,0.7-0.6,1.3-1.3,1.3h-5.4
		c-0.7,0-1.3-0.6-1.3-1.3v-5.4c0-0.7,0.6-1.3,1.3-1.3h5.4c0.7,0,1.3,0.6,1.3,1.3V267.2z M-229.3,254.1c0,0.7-0.6,1.3-1.3,1.3h-5.4
		c-0.7,0-1.3-0.6-1.3-1.3v-5.4c0-0.7,0.6-1.4,1.3-1.4h5.4c0.7,0,1.3,0.6,1.3,1.4V254.1z M-229.3,241c0,0.7-0.6,1.3-1.3,1.3h-5.4
		c-0.7,0-1.3-0.6-1.3-1.3v-5.4c0-0.7,0.6-1.3,1.3-1.3h5.4c0.7,0,1.3,0.6,1.3,1.3V241z M-177.7,281.1c0,2.2-1.8,4-4,4h-34.8
		c-2.2,0-4-1.8-4-4v-5.8c0-2.2,1.8-4,4-4h34.8c2.2,0,4,1.8,4,4V281.1z M-177.6,261.3c0,2.2-1.8,4-4,4h-34.8c-2.2,0-4-1.8-4-4v-5.8
		c0-2.2,1.8-4,4-4h34.8c2.2,0,4,1.8,4,4V261.3z M-177.6,241.6c0,2.2-1.8,4-4,4h-34.8c-2.2,0-4-1.8-4-4v-5.8c0-2.2,1.8-4,4-4h34.8
		c2.2,0,4,1.8,4,4V241.6z"/>
</g>
</svg>
