<?xml version="1.0" encoding="utf-8"?>
<!-- Generator: Adobe Illustrator 19.1.0, SVG Export Plug-In . SVG Version: 6.00 Build 0)  -->
<svg version="1.1" id="Layer_1" xmlns="http://www.w3.org/2000/svg" xmlns:xlink="http://www.w3.org/1999/xlink" x="0px" y="0px"
	 viewBox="-269 191 100 100" style="enable-background:new -269 191 100 100;" xml:space="preserve">
<g>
	<path d="M-179.2,191h-80c-5.5,0-9.8,6.2-9.8,11.7v80c0,5.5,4.3,8.3,9.8,8.3h80c5.5,0,10.2-3.6,10.2-9.1v-80
		C-169,196.4-173.6,191-179.2,191 M-246.1,221.5c0-1.1,0.9-2,2-2h32.7c1.1,0,2,0.9,2,2v7.2c0,1.1-0.9,2-2,2h-32.7c-1.1,0-2-0.9-2-2
		V221.5z M-225.4,264.7c0,1.1-0.9,2-2,2h-16.7c-1.1,0-2-0.9-2-2v-7.2c0-1.1,0.9-2,2-2h16.7c1.1,0,2,0.9,2,2V264.7z M-195.4,246.7
		c0,1.1-0.9,2-2,2h-46.7c-1.1,0-2-0.9-2-2v-7.2c0-1.1,0.9-2,2-2h46.7c1.1,0,2,0.9,2,2V246.7z"/>
</g>
</svg>
