<?xml version="1.0" encoding="utf-8"?>
<!-- Generator: Adobe Illustrator 19.1.0, SVG Export Plug-In . SVG Version: 6.00 Build 0)  -->
<svg version="1.1" id="Layer_1" xmlns="http://www.w3.org/2000/svg" xmlns:xlink="http://www.w3.org/1999/xlink" x="0px" y="0px"
	 viewBox="-269 191 100 100" style="enable-background:new -269 191 100 100;" xml:space="preserve">
<g>
	<path d="M-202,200h-34v58h34V200z M-217.6,238.9c-1.5,0.7-3.2,0.2-4-1.3c-0.7-1.5-0.2-3.2,1.3-4c1.5-0.7,3.2-0.2,4,1.3
		C-215.6,236.4-216.2,238.2-217.6,238.9 M-212.1,232c-0.7,0.7-1.9,0.7-2.6,0c-1.1-1.1-2.7-1.8-4.3-1.8c-1.6,0-3.1,0.6-4.3,1.8
		c-0.7,0.7-1.9,0.7-2.6,0c-0.7-0.7-0.7-1.9,0-2.6c1.8-1.8,4.3-2.9,6.9-2.9c2.6,0,5.1,1,6.9,2.9c0.4,0.4,0.5,0.8,0.5,1.3
		C-211.6,231.2-211.7,231.6-212.1,232 M-206,226.7c-0.7,0.7-1.8,0.7-2.4,0c-2.8-2.8-6.6-4.4-10.6-4.4c-4,0-7.8,1.6-10.6,4.4
		c-0.7,0.7-1.8,0.7-2.4,0c-0.7-0.7-0.7-1.8,0-2.4c3.5-3.5,8.1-5.4,13-5.4c4.9,0,9.6,1.9,13,5.4c0.3,0.3,0.5,0.8,0.5,1.2
		C-205.4,226-205.6,226.4-206,226.7"/>
	<path d="M-198,191h-42c-2.7,0-5,2.3-5,5v66c0,2.8,2.3,5,5,5h18v18h-9c-1.7,0-3,1.3-3,3c0,1.7,1.3,3,3,3h24c1.7,0,3-1.3,3-3
		c0-1.7-1.3-3-3-3h-9v-18h18c2.8,0,5-2.2,5-5v-66C-193,193.3-195.2,191-198,191 M-199,261h-39.9l-0.1-64h40V261z"/>
</g>
</svg>
