<?xml version="1.0" encoding="utf-8"?>
<!-- Generator: Adobe Illustrator 19.1.0, SVG Export Plug-In . SVG Version: 6.00 Build 0)  -->
<svg version="1.1" id="Layer_1" xmlns="http://www.w3.org/2000/svg" xmlns:xlink="http://www.w3.org/1999/xlink" x="0px" y="0px"
	 viewBox="-269 191 100 100" style="enable-background:new -269 191 100 100;" xml:space="preserve">
<g>
	<path d="M-219,191c-27.6,0-50,22.4-50,50s22.4,50,50,50c27.6,0,50-22.4,50-50S-191.4,191-219,191 M-216,284.9v-13.4
		c0-1.7-1.3-3-3-3c-1.7,0-3,1.3-3,3v13.4c-21.9-1.5-39.4-19-40.9-40.9h10c1.7,0,3-1.3,3-3c0-1.7-1.3-3-3-3h-10
		c1.5-21.9,19-39.4,40.9-40.9v13.7c0,1.7,1.3,3,3,3c1.7,0,3-1.3,3-3v-13.7c21.9,1.5,39.4,19,40.9,40.9h-10c-1.7,0-3,1.3-3,3
		c0,1.7,1.3,3,3,3h10C-176.6,265.9-194.1,283.4-216,284.9"/>
	<path d="M-193.9,234.1c-0.4-0.2-0.6,0-1.2,0.1l-1.2,0.5l-21,7.6c-0.3,0.1-1.1,0.3-1.6,0.3c-0.5,0-1-0.1-1.4-0.2l-21-7.6l-0.2-0.1
		l-1.2-0.5c-0.5-0.1-0.8-0.3-1.2-0.1c-0.4,0.2-0.6,0.6-0.6,1v17.8c0,2.8,2.3,5.1,5.1,5.1h41c2.8,0,5.1-2.3,5.1-5.1V235
		C-193.3,234.6-193.5,234.2-193.9,234.1"/>
	<path d="M-195.8,224.6h-23.1H-242c-1.4,0-2.6,1.2-2.6,2.6v0.7v0.3v1c0,1.9,0.2,1.7,2.9,2.7c0.1,0,2.8,1,2.8,1l18.2,6.6
		c0.6,0.2,1.2,0.4,1.7,0.4c0.6,0,1.2-0.2,1.7-0.4l18.2-6.6c0,0,2.7-1,2.8-1c2.7-1,2.9-0.9,2.9-2.7v-1v-0.3v-0.7
		C-193.3,225.7-194.4,224.6-195.8,224.6"/>
</g>
</svg>
