<?xml version="1.0" encoding="utf-8"?>
<!-- Generator: Adobe Illustrator 19.1.0, SVG Export Plug-In . SVG Version: 6.00 Build 0)  -->
<svg version="1.1" id="Layer_1" xmlns="http://www.w3.org/2000/svg" xmlns:xlink="http://www.w3.org/1999/xlink" x="0px" y="0px"
	 viewBox="-269 191 100 100" style="enable-background:new -269 191 100 100;" xml:space="preserve">
<g>
	<path d="M-219,291c-3.5,0-6.8-1.3-9.2-3.8l-37-37c-5.1-5.1-5.1-13.4,0-18.4l37-37c2.5-2.5,5.7-3.8,9.2-3.8c3.5,0,6.8,1.4,9.2,3.8
		l37,37c2.5,2.5,3.8,5.7,3.8,9.2c0,3.5-1.3,6.8-3.8,9.2l-37,37C-212.2,289.7-215.5,291-219,291 M-219,197c-1.9,0-3.6,0.7-5,2l-37,37
		c-2.7,2.7-2.7,7.2,0,9.9l37,37c1.3,1.3,3.1,2,5,2s3.6-0.7,5-2l37-37c1.3-1.3,2-3.1,2-5s-0.7-3.7-2-5l-37-37
		C-215.4,197.7-217.1,197-219,197"/>
	<path d="M-204.7,218.6c-4.5,0-8.2,3.8-8.2,8.4c0,4.6,3.7,8.4,8.2,8.4c4.5,0,8.2-3.8,8.2-8.4C-196.5,222.3-200.1,218.6-204.7,218.6"
		/>
	<path d="M-235.9,218.3c-4.7,0-8.5,3.9-8.5,8.7c0,4.8,3.8,8.7,8.5,8.7c4.7,0,8.5-3.9,8.5-8.7C-227.5,222.2-231.3,218.3-235.9,218.3"
		/>
	<path d="M-235.9,218.3c-4.7,0-8.5,3.9-8.5,8.7c0,4.8,3.8,8.7,8.5,8.7c4.7,0,8.5-3.9,8.5-8.7C-227.5,222.2-231.3,218.3-235.9,218.3"
		/>
	<path d="M-220.7,229.2c-3.4,0-6.1,2.8-6.1,6.3c0,3.5,2.8,6.3,6.1,6.3c3.4,0,6.1-2.8,6.1-6.3C-214.6,232-217.4,229.2-220.7,229.2"/>
	<path d="M-193.6,238.9c-0.4-2.1-1.7-3.1-3.7-3.7l-1.2-0.3c-1.7,1.4-3.8,2.2-6.1,2.2c-2.3,0-4.4-0.8-6.1-2.2l-1.2,0.3
		c-0.3,0.1-0.6,0.1-0.9,0.2c0,0,0,0.1,0,0.1c0,1.7-0.5,3.3-1.5,4.7c2.1,0.5,3.6,2.3,3.6,4.5v14.5h15.6c2.1,0,3.7-1.7,3.7-3.7
		L-193.6,238.9z"/>
	<path d="M-228.6,235.5c0-0.2,0-0.5,0-0.7c-0.1-0.1-0.3-0.2-0.4-0.3c-1.8,1.7-4.3,2.8-7,2.8c-2.5,0-4.8-0.9-6.6-2.5l-2.7,0.9
		c-3.1,0.9-4.1,2.2-3.9,3.8l2.3,15.7c0.3,2.3,1.7,3.8,3.8,3.8h7.6h0h4.6v-14.5c0-2.2,1.6-4.1,3.6-4.5
		C-228.1,238.8-228.6,237.2-228.6,235.5"/>
	<path d="M-215.4,241.8h-0.5c-1.3,1.1-3,1.7-4.9,1.7c-1.9,0-3.6-0.7-4.9-1.7h-0.5c-1.6,0-2.9,1.3-2.9,2.9v15c0,1.6,1.3,2.9,2.9,2.9
		h10.8c1.6,0,2.9-1.3,2.9-2.9v-15C-212.5,243.1-213.8,241.8-215.4,241.8"/>
</g>
</svg>
