<?xml version="1.0" encoding="utf-8"?>
<!-- Generator: Adobe Illustrator 19.1.0, SVG Export Plug-In . SVG Version: 6.00 Build 0)  -->
<svg version="1.1" id="Layer_1" xmlns="http://www.w3.org/2000/svg" xmlns:xlink="http://www.w3.org/1999/xlink" x="0px" y="0px"
	 viewBox="-269 191 100 100" style="enable-background:new -269 191 100 100;" xml:space="preserve">
<g>
	<path d="M-243.4,279.6c0-2.2-1.8-4-4-4H-269v5.1c0,5.5,4.5,10,10,10h15.2c0.2-0.5,0.4-1.1,0.4-1.7V279.6z"/>
	<path d="M-261.2,267.4V258c0-2.2-1.8-4-4-4h-3.7v17.5h3.7C-263,271.4-261.2,269.6-261.2,267.4"/>
	<path d="M-243.5,204.8v-9.5c0-2.2-1.8-4-4-4h-14.8c-3.9,1.4-6.7,5.1-6.7,9.4v8h21.5C-245.3,208.8-243.5,207-243.5,204.8"/>
	<path d="M-261.3,225.6v-9.5c0-2.2-1.8-4-4-4h-3.7v17.5h3.7C-263.1,229.6-261.3,227.8-261.3,225.6"/>
	<path d="M-194.8,279.6v9.5c0,0.6,0.1,1.2,0.4,1.7h15.5c5.5,0,10-4.5,10-10v-5.1h-21.8C-193,275.6-194.8,277.4-194.8,279.6"/>
	<path d="M-174.8,257.8v9.5c0,2.2,1.8,4,4,4h1.8v-17.5h-1.8C-173,253.8-174.8,255.6-174.8,257.8"/>
	<path d="M-174.8,216.1v9.5c0,2.2,1.8,4,4,4h1.8v-17.5h-1.8C-173,212.1-174.8,213.9-174.8,216.1"/>
	<path d="M-194.8,195.3v9.5c0,2.2,1.8,4,4,4h21.8v-8c0-4.3-2.8-8-6.7-9.4h-15.2C-193,191.3-194.8,193.1-194.8,195.3"/>
	<path d="M-181.8,253.9c-0.7,5.9-3.2,11.8-7.3,17.1c-0.1,0.1-0.1,0.1-0.2,0.2h6.7c2.2,0,4-1.8,4-4v-9.5
		C-178.7,255.9-180,254.3-181.8,253.9"/>
	<path d="M-186.1,233c1.8,3.2,3.4,7.4,4.2,12.7c0.2,1.6,0.4,3.2,0.3,4.8h12.6V233H-186.1z"/>
	<path d="M-182.5,212.1H-203c1.8,3.4,3,7.3,3.5,11.2c0.5-0.5,1.2-0.7,1.9-0.7c0.4,0,0.8,0.1,1.1,0.2c0.3,0.1,4.2,1.8,8,6.7h5.9
		c2.2,0,4-1.8,4-4v-9.5C-178.5,213.9-180.3,212.1-182.5,212.1"/>
	<path d="M-235.8,208.7h10.4c0.2-2.2,0.1-5.9-1.6-10.2c-0.4-1.1-0.2-2.3,0.7-3.2c0.6-0.6,1.3-0.9,2.1-0.9c0.4,0,0.7,0.1,1,0.2
		c0.5,0.2,11.4,4.3,18.2,14.1h2c2.2,0,4-1.8,4-4v-9.5c0-2.2-1.8-4-4-4h-32.8c-2.2,0-4,1.8-4,4v9.5C-239.8,207-238,208.7-235.8,208.7
		"/>
	<path d="M-240.6,229.6c0.8-0.8,1.6-1.6,2.4-2.4c4.7-4.6,9.2-8.9,11.9-15c-0.1,0-0.1,0-0.2,0h-26.7c-2.2,0-4,1.8-4,4v9.5
		c0,2.2,1.8,4,4,4H-240.6z"/>
	<path d="M-252.2,246.3c1.7-4.9,4.4-8.8,7.3-12.2c-0.7-0.6-1.6-1-2.7-1H-269v17.5h15.8C-253,249.1-252.6,247.6-252.2,246.3"/>
	<path d="M-253.4,254c-2.2,0.1-3.9,1.8-3.9,4v9.5c0,2.2,1.8,4,4,4h6.2C-251.1,265.8-253.3,259.7-253.4,254"/>
	<path d="M-211,285.3c-0.2,0.1-1.4,0.6-7.2,0.4c-3.4-0.1-6.3-0.8-8-1.4c0,0-0.1,0-0.1,0c-5.2-1.1-9.6-2.9-13.3-5.4
		c0,0.2-0.1,0.4-0.1,0.7v9.5c0,0.6,0.1,1.2,0.4,1.7h40.3c0.2-0.5,0.4-1.1,0.4-1.7v-8.9C-202.8,282.9-207.1,284.8-211,285.3"/>
	<path d="M-184.9,246.2c-2.5-16.4-12.7-20.6-12.7-20.6s2.1,8.1-1.3,11.8c-2.9,3.1-6.5,3.2-6.9,3.2h0c3.7-3.7,6-16.5,0-27.5
		c-6-11-18.4-15.6-18.4-15.6c3.1,7.9,1.4,14.2,1.4,14.2c-5.7,15.3-21,20.2-26.5,35.5c-2.8,7.8,0,17.6,7.4,25.8c4,4.4,9.8,7,16.1,8.4
		c-3.1-4.8-5.6-11.6-3.9-19.7c3-14.1,11.3-22.3,11.3-22.3c0,0,8.3,8.3,11.3,22.3c1.9,8.6-1.1,15.9-4.5,20.7
		C-200.1,281.1-182,265-184.9,246.2"/>
</g>
</svg>
