<?xml version="1.0" encoding="utf-8"?>
<!-- Generator: Adobe Illustrator 19.1.0, SVG Export Plug-In . SVG Version: 6.00 Build 0)  -->
<svg version="1.1" id="Layer_1" xmlns="http://www.w3.org/2000/svg" xmlns:xlink="http://www.w3.org/1999/xlink" x="0px" y="0px"
	 viewBox="-269 191 100 100" style="enable-background:new -269 191 100 100;" xml:space="preserve">
<g>
	<path d="M-170.4,248.4V237v-0.9l-1.3-4.6l-0.5-1.9l-3-10.8l-0.1-0.5l-0.1-0.5c-0.1-0.2-0.1-0.4-0.2-0.7c-0.2-0.4-0.4-0.8-0.6-1.2
		c-0.8-1.2-2-2.1-3-2.1h-0.6h-1.2h-1.2h-13.2V206c0-2.2-1.7-3.9-3.9-3.9h-15.8h-16.7h-1.2h-1.2h-10.4c-2.1,0-3.9,1.7-3.9,3.9v4.8
		h18.1h17.5c4.5,0,8.2,3.7,8.2,8.2v4.9h10.7h1.3h0.6v-2.8v-3.3h9.7h2l0.2,0.5l0.9,2.8l2.2,7.1l0.4,1.2l0.4,1.2l0.3,1h-4.3h-1.9h-0.1
		l0,0.1l0.1,0.5l3.3,12l0.6,2.1l1.4,5.2l0.1,0.5v0.5v0.3h1h4.3h0.2c1.3,0,2.3-1,2.3-2.3C-169,249.5-169.6,248.7-170.4,248.4"/>
	<path d="M-197.8,262.6c-4.8,0-8.7,3.9-8.7,8.7c0,0,0,0.1,0,0.1c0,4.8,3.9,8.6,8.7,8.6c4.8,0,8.6-3.8,8.7-8.6c0,0,0,0,0-0.1
		C-189.2,266.5-193,262.6-197.8,262.6"/>
	<path d="M-250.2,262.6c-4.8,0-8.7,3.9-8.7,8.7c0,0,0,0.1,0,0.1c0,4.8,3.9,8.6,8.7,8.6c4.8,0,8.6-3.8,8.7-8.6c0,0,0,0,0-0.1
		C-241.5,266.5-245.4,262.6-250.2,262.6"/>
	<path d="M-180.6,266.2v-12.7v-1l-1.4-5.2l-0.6-2.1l-3.3-12l-0.1-0.5l-0.2-0.6c-0.1-0.2-0.1-0.5-0.2-0.7c-0.2-0.4-0.4-0.9-0.7-1.3
		c-0.9-1.3-2.2-2.3-3.4-2.3h-0.6h-1.3h-1.3h-14.6V219c0-2.4-1.9-4.3-4.3-4.3h-17.5h-18.5h-1.3h-1.3h-11.6c-2.4,0-4.3,1.9-4.3,4.3
		v47.2c-0.9,0.4-1.5,1.3-1.5,2.4c0,1.4,1.2,2.6,2.6,2.6h3.2h1.7c0.1-6.2,5.1-11.2,11.3-11.2s11.2,5,11.3,11.2h25.8h4.1
		c0-6.2,5.1-11.2,11.3-11.2c6.2,0,11.2,5,11.3,11.2h4.7h0.2c1.4,0,2.6-1.2,2.6-2.6C-179,267.5-179.7,266.6-180.6,266.2 M-221.5,240
		c0,1.2-1,2.1-2.1,2.1h-6.8v6.8c0,1.2-1,2.1-2.1,2.1h-3.4c-1.2,0-2.1-1-2.1-2.1v-6.8h-6.8c-1.2,0-2.1-1-2.1-2.1v-3.4
		c0-1.2,1-2.1,2.1-2.1h6.8v-6.8c0-1.2,1-2.1,2.1-2.1h3.4c1.2,0,2.1,1,2.1,2.1v6.8h6.8c1.2,0,2.1,1,2.1,2.1V240z M-191.7,247.4h-2.1
		h-1.8h-9.1v-11.6v-3.7h10.8h2.2l0.2,0.6l1,3.2l2.4,7.9l0.4,1.3l0.4,1.3l0.3,1.1H-191.7z"/>
</g>
</svg>
