<?xml version="1.0" encoding="utf-8"?>
<!-- Generator: Adobe Illustrator 19.1.0, SVG Export Plug-In . SVG Version: 6.00 Build 0)  -->
<svg version="1.1" id="Layer_1" xmlns="http://www.w3.org/2000/svg" xmlns:xlink="http://www.w3.org/1999/xlink" x="0px" y="0px"
	 viewBox="-269 191 100 100" style="enable-background:new -269 191 100 100;" xml:space="preserve">
<g>
	<path d="M-214.9,246.6c-0.4-0.3-0.7-0.6-1.1-0.8c-0.1,0.3-0.1,0.6-0.2,0.8c0.2,0.1,0.5,0.2,0.7,0.3
		C-215.3,246.8-215.1,246.7-214.9,246.6"/>
	<path d="M-172.8,234.5c-1.5,0-3,0.4-3.7,0.7c-1.3,0.4-12.1,5.2-12.1,5.2l-34.2-13.5l-2.8,1.2c0,0-1.1,0.5-0.6,1.4
		c0.5,1.1,21.3,17.6,21.3,17.6s1,1-0.7,1.7c-2.1,0.9-6.6,3.2-8.1,3.9c-0.2,0.1-1.2,0.6-1.6,0.7c0,0-0.1,0-0.1,0
		c-0.4,0-0.9-0.3-1.3-0.5c-1.9-0.8-4.9-1.9-6.9-2.6c-0.6-0.2-2-0.5-2.3-0.6c-0.1,0-0.2,0-0.2,0c-0.4,0-0.8,0.2-0.8,0.2l-2.4,2.3
		l9.1,5.6l-2,11.1l3.3-0.2c0,0,0.6-0.2,0.9-0.7c0.2-0.3,0.9-1.6,1.2-2.1c0.9-1.9,2.1-4.9,2.9-6.8c0.2-0.5,0.4-1.1,0.7-1.4
		c0.3-0.2,1.4-0.6,1.6-0.6c1.6-0.5,6.4-2.2,8.4-3.1c0.3-0.1,0.6-0.2,0.8-0.2c0.8,0,0.8,0.9,0.8,0.9s-2.6,26.5-2.2,27.6
		c0.2,0.5,0.6,0.6,0.9,0.6c0.3,0,0.5-0.1,0.5-0.1l2.8-1.2l14-34c0,0,10.9-4.5,12.1-5.1c1.2-0.6,5.4-3.1,4.1-6
		C-169.8,234.9-171.3,234.5-172.8,234.5"/>
	<path d="M-227.5,264.3c-0.6,0.4-1.3,0.9-1.9,1.2v-6.4h0.2l-3.2-2l-6.5-4h-7.5c-1.7-3.9-2.8-8.4-3.1-13.6h14.1v10.1l2-1.9l2.4-2.3
		l0.7-0.6l0.8-0.4l0,0v-4.9h5.7c-7-5.7-7.3-6.4-7.8-7.4c-0.9-1.7-1-3.7-0.3-5.5c0.6-1.5,1.5-2.5,2.4-3.2v-3.6h11.7
		c0.4,0.9,0.7,1.9,1,2.9l6.7,2.6c-0.4-2-0.8-3.8-1.4-5.6h6.6c1.7,2.8,2.9,5.8,3.6,9.1l5.6,2.2c-2.4-18.1-17.9-32-36.6-32
		c-20.4,0-36.9,16.5-36.9,36.9c0,20.4,16.5,36.9,36.9,36.9c1,0,2.1-0.1,3.1-0.1l1-5.2L-227.5,264.3z M-209.4,213.9h-4.6
		c-1.4-2.5-3-4.7-5-6.7C-215.4,208.8-212.1,211.1-209.4,213.9 M-229.4,206.4c3.5,2.1,6.2,4.6,8.4,7.5h-8.4V206.4z M-235.4,233.5
		h-14.2c0.2-5.2,1-9.8,2.6-13.7h11.6V233.5z M-235.4,206.5v7.4h-8.2C-241.5,211-238.8,208.6-235.4,206.5 M-246,207.5
		c-1.8,1.9-3.4,4.1-4.6,6.4h-4.2C-252.3,211.3-249.3,209.1-246,207.5 M-259.4,219.9h6.2c-1.3,4.1-2.1,8.6-2.3,13.7h-8.3
		C-263.4,228.6-261.8,223.9-259.4,219.9 M-258.9,253.1c-2.6-4-4.3-8.7-4.8-13.6h8.2c0.3,5,1.2,9.6,2.6,13.6H-258.9z M-254,259.1h3.9
		c1.2,2,2.6,3.9,4.2,5.6C-248.8,263.3-251.6,261.4-254,259.1 M-235.4,265.5c-2.9-1.7-5.4-3.8-7.4-6.3h7.4V265.5z"/>
	<path d="M-208.8,262.4c-0.5,1.1-1,2.3-1.5,3.5c0.6-0.5,1.2-0.9,1.8-1.4c0.1-0.7,0.1-1.5,0.2-2.3
		C-208.5,262.2-208.7,262.3-208.8,262.4"/>
</g>
</svg>
