<?xml version="1.0" encoding="utf-8"?>
<!-- Generator: Adobe Illustrator 19.1.0, SVG Export Plug-In . SVG Version: 6.00 Build 0)  -->
<svg version="1.1" id="Layer_1" xmlns="http://www.w3.org/2000/svg" xmlns:xlink="http://www.w3.org/1999/xlink" x="0px" y="0px"
	 viewBox="-269 191 100 100" style="enable-background:new -269 191 100 100;" xml:space="preserve">
<g>
	<path d="M-219,191c-27.6,0-50,22.4-50,50c0,27.6,22.4,50,50,50c27.6,0,50-22.4,50-50C-169,213.4-191.4,191-219,191 M-213.3,270.7
		c-0.4-2.4-2.3-4.2-4.6-4.7v-23.8h20c0.4,2.3,2.2,4.2,4.5,4.7c-0.7,9-3.1,17.3-6.6,23.9H-213.3z M-238.1,270.7
		c-4.1-7.7-6.6-17.7-6.8-28.6h24.8v23.8c-2.5,0.4-4.5,2.3-4.9,4.8H-238.1z M-197.9,239.9h-20v-25.1h19.7c2.6,5.9,4.3,12.9,4.9,20.4
		C-195.6,235.7-197.4,237.6-197.9,239.9 M-217.9,212.5v-15.6c1.2,0,2.4,0.1,3.6,0.2c6,2.2,11.2,7.8,15,15.4H-217.9z M-220.1,196.9
		v15.6h-14.7c-0.2-1.4-0.9-2.7-2-3.6c3.5-5.7,8-9.9,13-11.7C-222.5,197-221.3,197-220.1,196.9 M-240.7,219.4c2.8,0,5.2-2,5.8-4.7
		h14.8v25.1h-24.8c0.1-7.4,1.3-14.4,3.4-20.6C-241.3,219.4-241,219.4-240.7,219.4 M-247.1,242.1c0.2,10.7,2.6,20.7,6.6,28.6h-11
		c-6.9-7.6-11.2-17.6-11.5-28.6H-247.1z M-191.1,246.9c2.5-0.4,4.6-2.3,5-4.8h11.2c-0.3,11-4.6,21-11.5,28.6h-11
		C-194.1,264-191.8,255.8-191.1,246.9 M-174.9,239.9h-11.2c-0.5-2.5-2.5-4.4-5-4.8c-0.6-7.4-2.3-14.4-4.8-20.3h12.3
		C-178.3,221.8-175.2,230.5-174.9,239.9 M-196.8,212.5c-2.8-6-6.5-10.9-10.8-14.1c8.8,2.4,16.5,7.4,22.3,14.1H-196.8z M-230.4,198.4
		c-3.1,2.4-5.9,5.6-8.2,9.4c-0.6-0.2-1.4-0.4-2.1-0.4c-3,0-5.5,2.2-5.9,5.1h-6C-246.9,205.8-239.2,200.8-230.4,198.4 M-246.5,214.7
		c0.4,1.7,1.5,3.1,2.9,3.9c-2.1,6.4-3.4,13.6-3.5,21.2h-15.9c0.2-9.4,3.4-18.1,8.7-25.1H-246.5z M-239.4,272.9
		c2.5,4.4,5.6,8.1,9,10.7c-7.2-1.9-13.7-5.7-19-10.7H-239.4z M-236.9,272.9h11.8c0.5,2.5,2.4,4.4,4.9,4.8v7.4
		c-1.2,0-2.4-0.1-3.6-0.2C-228.8,283-233.3,278.7-236.9,272.9 M-217.9,285.1v-7.4c2.3-0.5,4.2-2.4,4.6-4.7h12.1
		c-3.6,5.8-8.1,10.1-13.1,11.9C-215.4,285-216.7,285-217.9,285.1 M-198.6,272.9h10c-5.3,5-11.8,8.7-19,10.7
		C-204.2,281-201.2,277.3-198.6,272.9"/>
</g>
</svg>
