<?xml version="1.0" encoding="utf-8"?>
<!-- Generator: Adobe Illustrator 19.1.0, SVG Export Plug-In . SVG Version: 6.00 Build 0)  -->
<svg version="1.1" id="Layer_1" xmlns="http://www.w3.org/2000/svg" xmlns:xlink="http://www.w3.org/1999/xlink" x="0px" y="0px"
	 viewBox="-269 191 100 100" style="enable-background:new -269 191 100 100;" xml:space="preserve">
<g>
	<path d="M-171.2,221.8l-40.8-17.9c-1.3-0.5-5.9-2.2-7.5-2.2c-1.2,0-6.9,2.3-8,2.7l-39.4,17.4c-2.1,1.2-2.4,2.8-2.1,4.3
		c0.5,1.6,2,2.2,3.9,2.2h6.4l0,46.6c0,0.2,0,0.5,0.1,0.7c0.3,2.4,2.2,4.3,4.6,4.6l69.4,0.1c1.6,0,3.2-0.9,4.1-2
		c0.8-0.9,1.5-2.3,1.5-3.6v-46.4h0.2h5.8c1.9,0,3.4-0.5,3.9-2.2C-168.8,224.6-169.1,223-171.2,221.8 M-196.3,235.1l-12.2,7.5
		c-0.3,0.2-4.1-2.1-4.6-2.6c-1-0.8-14.9,10.3-14.4,11.5c0.3,0.6,1.7,4.8,1.5,5.1l-10,10.3c-1.8,2-11.6-7.1-4.8-15
		c8.8-10.1,19.1-18.3,30.9-24.7C-200.7,222.1-194,233.8-196.3,235.1"/>
</g>
</svg>
