<?xml version="1.0" encoding="utf-8"?>
<!-- Generator: Adobe Illustrator 19.1.0, SVG Export Plug-In . SVG Version: 6.00 Build 0)  -->
<svg version="1.1" id="Layer_1" xmlns="http://www.w3.org/2000/svg" xmlns:xlink="http://www.w3.org/1999/xlink" x="0px" y="0px"
	 viewBox="-269 191 100 100" style="enable-background:new -269 191 100 100;" xml:space="preserve">
<g>
	<path d="M-171.2,221.8l-40.8-17.9c-1.3-0.5-5.9-2.2-7.5-2.2c-1.2,0-6.9,2.3-8,2.7l-39.4,17.4c-2.1,1.2-2.4,2.8-2.1,4.3
		c0.5,1.6,2,2.2,3.9,2.2h6.4l0,46.6c0,0.2,0,0.5,0.1,0.7c0.3,2.4,2.2,4.3,4.6,4.6l69.4,0.1c1.6,0,3.2-0.9,4.1-2
		c0.8-0.9,1.5-2.3,1.5-3.6v-46.4h0.1h5.8c1.9,0,3.4-0.5,3.9-2.2C-168.8,224.6-169.1,223-171.2,221.8 M-238,266.4
		c0,0.6-0.4,0.9-1,0.9h-4c-0.6,0-1-0.3-1-0.9v-6.1c0-0.6,0.4-1,1-1h4c0.6,0,1,0.5,1,1V266.4z M-228,266.4c0,0.6-0.4,0.9-1,0.9h-4
		c-0.6,0-1-0.3-1-0.9v-14.1c0-0.6,0.4-1,1-1h4c0.6,0,1,0.5,1,1V266.4z M-218,266.4c0,0.6-0.5,0.9-1,0.9h-4c-0.6,0-1-0.3-1-0.9v-21.1
		c0-0.6,0.4-1,1-1h4c0.5,0,1,0.5,1,1V266.4z M-208,266.4c0,0.6-0.4,0.9-1,0.9h-4c-0.6,0-1-0.3-1-0.9v-29.1c0-0.6,0.5-1,1-1h4
		c0.6,0,1,0.5,1,1V266.4z M-198,266.4c0,0.6-0.5,0.9-1,0.9h-4c-0.6,0-1-0.3-1-0.9v-36.1c0-0.6,0.4-1,1-1h4c0.5,0,1,0.5,1,1V266.4z"
		/>
</g>
</svg>
