<?xml version="1.0" encoding="utf-8"?>
<!-- Generator: Adobe Illustrator 19.1.0, SVG Export Plug-In . SVG Version: 6.00 Build 0)  -->
<svg version="1.1" id="Layer_1" xmlns="http://www.w3.org/2000/svg" xmlns:xlink="http://www.w3.org/1999/xlink" x="0px" y="0px"
	 viewBox="-269 191 100 100" style="enable-background:new -269 191 100 100;" xml:space="preserve">
<g>
	<path d="M-198.6,266.1c0,1.5-1.2,2.7-2.6,2.7s-2.6-1.2-2.6-2.7c0-1.5,1.2-2.7,2.6-2.7S-198.6,264.6-198.6,266.1"/>
	<path d="M-257.4,290.3c-1.9,1.3-4.5,0.8-5.8-1.1c-0.3-0.4-0.5-0.9-0.6-1.3c-0.4-1.7,0.2-3.5,1.7-4.5l15.1-10.1l4.7,7L-257.4,290.3z
		"/>
	<path d="M-192.5,235c-5.8-5.8-13.8-9.4-22.7-9.4c-8.8,0-16.9,3.6-22.7,9.4c-5.8,5.8-9.4,13.8-9.4,22.7c0,8.9,3.6,16.9,9.4,22.7
		c5.8,5.8,13.8,9.4,22.7,9.4c8.9,0,16.9-3.6,22.7-9.4c5.8-5.8,9.4-13.8,9.4-22.7C-183,248.8-186.6,240.8-192.5,235 M-215.1,282.7
		c-13.8,0-25-11.2-25-25c0-13.8,11.2-25,25-25c13.8,0,25,11.2,25,25C-190.1,271.5-201.3,282.7-215.1,282.7"/>
	<path d="M-215.3,224.1c5.8,0,11.3,1.5,16.1,4.1h7.4c1.3,0,2.3,1,2.3,2.4c0,1.3-1,2.4-2.3,2.4h-0.8c4,3.7,7.1,8.3,9,13.4V204
		c0-1.8-1.4-3.3-3.2-3.3l-28.6,0c-1.8,0-3.3,1.5-3.3,3.3v20.2C-217.6,224.2-216.5,224.1-215.3,224.1 M-210.5,216.2h18.7
		c1.3,0,2.3,1.1,2.3,2.4c0,1.3-1,2.4-2.3,2.4h-18.7c-1.3,0-2.3-1.1-2.3-2.4C-212.8,217.3-211.8,216.2-210.5,216.2"/>
	<path d="M-195.6,244.9h-15c-1.3,0-2.3-1.1-2.3-2.4c0-1.3,1-2.4,2.3-2.4h10.9c-4.2-3.7-9.7-6-15.7-6c-1.2,0-2.3,0.1-3.4,0.2v22.6
		c0,1.8,1.4,3.3,3.2,3.3h23.6c0.1-0.9,0.2-1.8,0.2-2.7C-191.8,253-193.2,248.6-195.6,244.9"/>
	<path d="M-228,238v30.8c0,4.5,3.6,8.2,8.1,8.2h18.2c2.1-1.4,3.9-3.2,5.4-5.2h-23.6c-1.6,0-2.9-1.4-2.9-3.1v-33.3
		C-224.7,236.1-226.4,237-228,238"/>
	<path d="M-182.1,191l-37.7,0c-4.5,0-8.1,3.7-8.1,8.3v27.4c1.7-0.7,3.4-1.2,5.2-1.7v-25.7c0-1.7,1.4-3.1,3-3.1l37.7,0
		c1.6,0,2.9,1.4,2.9,3.1v69.6c0,1.7-1.3,3.1-2.9,3.1h-2.5c-0.8,1.8-1.9,3.5-3,5.2h5.5c4.4,0,8.1-3.7,8.1-8.2v-69.6
		C-174.1,194.7-177.7,191-182.1,191"/>
</g>
</svg>
