<?xml version="1.0" encoding="utf-8"?>
<!-- Generator: Adobe Illustrator 19.1.0, SVG Export Plug-In . SVG Version: 6.00 Build 0)  -->
<svg version="1.1" id="Layer_1" xmlns="http://www.w3.org/2000/svg" xmlns:xlink="http://www.w3.org/1999/xlink" x="0px" y="0px"
	 viewBox="-269 191 100 100" style="enable-background:new -269 191 100 100;" xml:space="preserve">
<path d="M-184.2,201.2c-16.7,0-27.2-5.8-31.9-9.2c-0.1-0.1-0.2-0.2-0.3-0.2c-0.7-0.5-1.6-0.7-2.5-0.7c-0.9,0-1.8,0.3-2.5,0.7
	c-0.1,0.1-0.2,0.1-0.3,0.2c-4.6,3.3-15.1,9.2-31.8,9.2c-2.8,0-5.5,2.3-5.5,5.1v46.7c0,9.4,7,18.7,19.8,27.6
	c8.9,6.2,17.9,10,18.3,10.1c0.6,0.3,1.4,0.4,2.1,0.4c0.7,0,1.4-0.1,2-0.4c0.4-0.2,9.4-3.9,18.3-10.1c12.8-8.9,19.5-18.2,19.5-27.6
	v-46.7C-179,203.4-181.5,201.2-184.2,201.2z M-219,214.9c5.5,0,10,4.6,10,10.2s-4.5,10.2-10,10.2c-5.5,0-10-4.6-10-10.2
	S-224.5,214.9-219,214.9z M-202.8,240.4l-2.7,17.3c-0.4,2.7-2,4.5-4.5,4.5h-8.9h0h-8.9c-2.5,0-4.1-1.8-4.5-4.5l-2.7-17.3
	c-0.3-2,0.9-3.5,4.5-4.5l3.4-0.9c2.2,2,5.1,3.1,8.2,3.2c3.2,0,6-1.2,8.3-3.2l3.4,0.9C-203.7,236.9-202.5,238.4-202.8,240.4z"/>
</svg>
