<?xml version="1.0" encoding="utf-8"?>
<!-- Generator: Adobe Illustrator 19.1.0, SVG Export Plug-In . SVG Version: 6.00 Build 0)  -->
<svg version="1.1" id="Layer_1" xmlns="http://www.w3.org/2000/svg" xmlns:xlink="http://www.w3.org/1999/xlink" x="0px" y="0px"
	 viewBox="-269 191 100 100" style="enable-background:new -269 191 100 100;" xml:space="preserve">
<g>
	<path d="M-171.2,222l-40.8-17.9c-1.3-0.5-5.9-2.2-7.5-2.2c-1.2,0-6.9,2.3-8,2.7l-39.4,17.4c-2.1,1.2-2.4,2.7-2.1,4.1
		c0.5,1.6,2,2,3.9,2h6.4l0,46.8c0,1.3,0.5,2.5,1.3,3.4c0.8,0.9,1.9,1.5,3.1,1.7v0.1h0.8h24h5.7h6.9h29.4h2.8c1.5,0,2.9-0.7,3.9-1.8
		c0.8-0.9,1.3-2.1,1.3-3.4v-46.8h0.6h5.8c1.9,0,3.4-0.4,3.9-2C-168.8,224.7-169.1,223.2-171.2,222 M-219,224.8c5.5,0,10,4.6,10,10.3
		c0,5.7-4.5,10.3-10,10.3c-5.5,0-10-4.6-10-10.3C-229,229.4-224.5,224.8-219,224.8 M-202.7,250.4l-2.7,17.4c-0.4,2.7-2,4.6-4.6,4.6
		h-9h0h-9c-2.5,0-4.1-1.8-4.6-4.6l-2.7-17.4c-0.3-2,0.9-3.5,4.6-4.6l3.4-0.9c2.2,2,5.1,3.2,8.3,3.2c3.2,0,6.1-1.2,8.3-3.2l3.4,0.9
		C-203.6,246.8-202.4,248.4-202.7,250.4"/>
</g>
</svg>
