<?xml version="1.0" encoding="utf-8"?>
<!-- Generator: Adobe Illustrator 19.1.0, SVG Export Plug-In . SVG Version: 6.00 Build 0)  -->
<svg version="1.1" id="Layer_1" xmlns="http://www.w3.org/2000/svg" xmlns:xlink="http://www.w3.org/1999/xlink" x="0px" y="0px"
	 viewBox="-269 191 100 100" style="enable-background:new -269 191 100 100;" xml:space="preserve">
<g>
	<path d="M-196.2,241c0,4.7-1.5,9.1-3.9,12.8l13.4,13.4c1.8-2.2,3.3-4.5,4.6-7c8.2-5,13.2-11.8,13.2-19.1s-5-14.1-13.2-19.1
		c-1.4-2.7-3.1-5.3-5.1-7.6l-13.3,13.3C-197.9,231.4-196.2,236-196.2,241 M-180,226.8c5.1,4.1,8.1,8.9,8.1,14.2
		c0,5.2-3,10.1-8.1,14.2c1.6-4.4,2.5-9.2,2.5-14.2C-177.5,236-178.4,231.3-180,226.8"/>
	<path d="M-231.8,222.2c3.6-2.5,8-3.9,12.8-3.9c4.7,0,9.1,1.4,12.8,3.9l13.4-13.3c-2.2-1.8-4.5-3.3-7-4.6
		c-5-8.2-11.8-13.2-19.1-13.2c-7.4,0-14.1,5-19.1,13.2c-2.5,1.3-4.8,2.9-7,4.6L-231.8,222.2z M-219,193.9c5.2,0,10.1,3,14.2,8.1
		c-4.4-1.6-9.2-2.5-14.2-2.5c-5,0-9.7,0.9-14.2,2.5C-229.1,196.9-224.2,193.9-219,193.9"/>
	<path d="M-241.8,241c0-5,1.6-9.6,4.4-13.4l-13.3-13.3c-2,2.3-3.7,4.9-5.1,7.6c-8.2,5-13.2,11.8-13.2,19.1s5,14.1,13.2,19.1
		c1.3,2.5,2.9,4.8,4.6,7l13.4-13.4C-240.3,250.1-241.8,245.7-241.8,241 M-258,255.2c-5.1-4.1-8.1-8.9-8.1-14.2
		c0-5.3,3-10.1,8.1-14.2c-1.6,4.4-2.5,9.2-2.5,14.2C-260.5,246-259.6,250.8-258,255.2"/>
	<path d="M-205.6,259.4c-3.8,2.7-8.4,4.4-13.4,4.4c-5,0-9.6-1.6-13.4-4.4l-13.3,13.3c2.3,2,4.9,3.7,7.6,5.1
		c5,8.2,11.8,13.2,19.1,13.2c7.4,0,14.1-5,19.1-13.2c2.7-1.4,5.3-3.1,7.6-5.1L-205.6,259.4z M-219,288.1c-5.2,0-10.1-3-14.2-8.1
		c4.4,1.6,9.2,2.5,14.2,2.5c5,0,9.8-0.9,14.2-2.5C-208.9,285.1-213.8,288.1-219,288.1"/>
</g>
</svg>
