<?xml version="1.0" encoding="utf-8"?>
<!-- Generator: Adobe Illustrator 19.1.0, SVG Export Plug-In . SVG Version: 6.00 Build 0)  -->
<svg version="1.1" id="Layer_1" xmlns="http://www.w3.org/2000/svg" xmlns:xlink="http://www.w3.org/1999/xlink" x="0px" y="0px"
	 viewBox="-269 191 100 100" style="enable-background:new -269 191 100 100;" xml:space="preserve">
<g>
	<path d="M-184.2,201.2c-16.7,0-27.2-5.8-31.9-9.2c-0.1-0.1-0.2-0.2-0.3-0.2c-0.7-0.5-1.6-0.7-2.5-0.7c-0.9,0-1.8,0.3-2.5,0.7
		c-0.1,0.1-0.2,0.1-0.3,0.2c-4.6,3.3-15.1,9.2-31.8,9.2c-2.8,0-5.5,2.3-5.5,5.1v46.7c0,9.4,7,18.7,19.8,27.6
		c8.9,6.2,17.9,10,18.3,10.1c0.6,0.3,1.4,0.4,2.1,0.4c0.7,0,1.4-0.1,2-0.4c0.4-0.2,9.4-3.9,18.3-10.1c12.8-8.9,19.5-18.2,19.5-27.6
		v-46.7C-179,203.4-181.4,201.2-184.2,201.2 M-216.5,255.2c-2.6,1.3-5.9,0.3-7.2-2.3c-1.3-2.6-0.3-5.9,2.3-7.2
		c2.6-1.4,5.9-0.3,7.2,2.3C-212.9,250.6-213.9,253.9-216.5,255.2 M-206.5,242.7c-1.3,1.3-3.5,1.3-4.8,0c-2.1-2.1-4.8-3.2-7.7-3.2
		c-2.9,0-5.7,1.1-7.7,3.2c-1.3,1.3-3.4,1.3-4.8,0c-1.3-1.3-1.3-3.5,0-4.8c3.3-3.3,7.8-5.2,12.5-5.2c4.7,0,9.2,1.8,12.5,5.2
		c0.7,0.7,1,1.5,1,2.4S-205.8,242.1-206.5,242.7 M-195.3,233.2c-1.2,1.2-3.2,1.2-4.4,0c-5.1-5.1-12-8-19.2-8c-7.3,0-14.1,2.8-19.2,8
		c-1.2,1.2-3.2,1.2-4.4,0c-1.2-1.2-1.2-3.2,0-4.4c6.3-6.3,14.7-9.8,23.7-9.8c8.9,0,17.3,3.5,23.7,9.8c0.6,0.6,0.9,1.4,0.9,2.2
		C-194.4,231.7-194.7,232.5-195.3,233.2"/>
</g>
</svg>
