<?xml version="1.0" encoding="utf-8"?>
<!-- Generator: Adobe Illustrator 19.1.0, SVG Export Plug-In . SVG Version: 6.00 Build 0)  -->
<svg version="1.1" id="Layer_1" xmlns="http://www.w3.org/2000/svg" xmlns:xlink="http://www.w3.org/1999/xlink" x="0px" y="0px"
	 viewBox="-269 191 100 100" style="enable-background:new -269 191 100 100;" xml:space="preserve">
<g>
	<path d="M-174,263.4h-3c-0.2-8.8-5.5-16.4-13-20v-21c2.3-2.5,3.7-5.8,3.7-9.4c0-7.7-6.2-13.9-13.9-13.9c-0.7,0-1.4,0.1-2,0.2v0
		l-56.3,7.3c-0.1,0-0.2,0-0.3,0l-0.2,0l0,0c-2.9,0.5-5.1,3-5.1,6.1c0,2,1,3.8,2.5,4.9v9.9c-1.5,1.1-2.5,2.9-2.5,4.9l-4.9,4.9v4.9
		l4.9,7.4h2.5V246c-1.5-1.1-2.5-2.9-2.5-4.9c0-3.4,2.8-6.2,6.2-6.2c3.4,0,6.2,2.8,6.2,6.2c0,2-1,3.8-2.5,4.9v3.7h2.5l4.9-7.4v-4.9
		l-4.9-4.9c0-2-1-3.8-2.5-4.9v-9.9c0.5-0.4,0.9-0.8,1.2-1.2h39.3c0.6,2.6,2,4.9,3.9,6.7v20.4c-7.5,3.6-12.7,11.2-12.9,20H-264
		c-2.8,0-5,2.2-5,5v9.5c0,2.8,2.2,5,5,5h90c2.7,0,5-2.2,5-5v-9.5C-169,265.6-171.2,263.4-174,263.4 M-199.9,206.5
		c3.4,0,6.2,2.8,6.2,6.2c0,3.4-2.8,6.2-6.2,6.2c-3.4,0-6.2-2.8-6.2-6.2C-206,209.3-203.3,206.5-199.9,206.5 M-212.2,263.4
		c0-6.8,5.5-12.3,12.3-12.3c6.8,0,12.3,5.5,12.3,12.3H-212.2z"/>
</g>
</svg>
