<?xml version="1.0" encoding="utf-8"?>
<!-- Generator: Adobe Illustrator 19.1.0, SVG Export Plug-In . SVG Version: 6.00 Build 0)  -->
<svg version="1.1" id="Layer_1" xmlns="http://www.w3.org/2000/svg" xmlns:xlink="http://www.w3.org/1999/xlink" x="0px" y="0px"
	 viewBox="-269 191 100 100" style="enable-background:new -269 191 100 100;" xml:space="preserve">
<g>
	<path d="M-184.2,269.5c-3.6,0-6.5,2.9-6.5,6.5c0,0,0,0,0,0.1c0,3.6,2.9,6.4,6.5,6.4c3.6,0,6.5-2.9,6.5-6.4c0,0,0,0,0-0.1
		C-177.7,272.4-180.6,269.5-184.2,269.5"/>
	<path d="M-245.5,269.5c-3.6,0-6.5,2.9-6.5,6.5c0,0,0,0,0,0.1c0,3.6,2.9,6.4,6.5,6.4c3.6,0,6.5-2.9,6.5-6.4c0,0,0,0,0-0.1
		C-239,272.4-241.9,269.5-245.5,269.5"/>
	<path d="M-170.8,270.7l0-48l0-18.2c0-2.8-2.2-5-5-5H-249l-20,11l0,0h0v18c2.8,0,5.3-1.2,7.1-3c0.8,0.9,1.8,1.5,2.9,2v43.2
		c-1,0.5-1.8,1.5-1.8,2.7c0,1.7,1.3,3,3,3h2.7c0-0.1,0-0.2,0-0.3l0-0.1V276c0-5.2,4.3-9.5,9.5-9.5c5.2,0,9.5,4.3,9.5,9.5
		c0,0.1,0,0.1,0,0.1c0,0.1,0,0.2,0,0.4h42.4c0-0.1,0-0.2,0-0.3l0-0.1V276c0-5.2,4.3-9.5,9.5-9.5c5.2,0,9.5,4.3,9.5,9.5
		c0,0,0,0.1,0,0.1c0,0.1,0,0.2,0,0.4h2.5h0.2c1.7,0,3-1.3,3-3C-169,272.3-169.8,271.2-170.8,270.7 M-252.9,247.5v-19.1
		c2.1-0.4,3.9-1.4,5.3-2.8c1.8,1.8,4.3,3,7.1,3s5.3-1.2,7.1-3c1.8,1.8,4.3,3,7.1,3s5.3-1.2,7.1-3c1.8,1.8,4.3,3,7.1,3s5.3-1.2,7.1-3
		c1.8,1.9,4.3,3,7.1,3c2.8,0,5.3-1.2,7.1-3c1.8,1.8,4.3,3,7.1,3c1.4,0,2.7-0.3,3.9-0.8c0.9-0.4,1.8-0.9,2.5-1.6v21.4H-252.9z"/>
</g>
</svg>
