<?xml version="1.0" encoding="utf-8"?>
<!-- Generator: Adobe Illustrator 19.1.0, SVG Export Plug-In . SVG Version: 6.00 Build 0)  -->
<svg version="1.1" id="Layer_1" xmlns="http://www.w3.org/2000/svg" xmlns:xlink="http://www.w3.org/1999/xlink" x="0px" y="0px"
	 viewBox="-269 191 100 100" style="enable-background:new -269 191 100 100;" xml:space="preserve">
<g>
	<path d="M-180.2,237.7c1.8,0,3.3,1.5,3.3,3.3c0,1.8-1.5,3.3-3.3,3.3c-1.8,0-3.3-1.5-3.3-3.3C-183.5,239.2-182,237.7-180.2,237.7"/>
	<path d="M-269,212.6v56.7c0,3.8,3.1,6.8,6.8,6.8h0h86.3c3.8,0,6.8-3.1,6.8-6.8v-56.7c0-3.8-3.1-6.8-6.8-6.8h-86.3
		C-265.9,205.8-269,208.9-269,212.6 M-175.8,211.3c0.8,0,1.4,0.6,1.4,1.4v56.7c0,0.7-0.6,1.4-1.4,1.4h-86.3c-0.8,0-1.4-0.6-1.4-1.4
		v-56.7c0-0.7,0.6-1.4,1.4-1.4H-175.8z"/>
	<path d="M-188,263.9v-45.8c0-0.1,0-0.1,0-0.2c0,0,0,0,0-0.1c0-0.1-0.1-0.2-0.1-0.4c-0.2-0.4-0.7-0.7-1.2-0.7h-67.2
		c-0.7,0-1.4,0.6-1.4,1.4v45.8c0,0.1,0,0.1,0,0.2c0,0,0,0,0,0.1c0,0.1,0.1,0.3,0.1,0.4c0.2,0.4,0.7,0.7,1.2,0.7h0h67.2
		C-188.6,265.3-188,264.6-188,263.9 M-205.1,243.4c0,1.6-1.3,3-3,3h-9.5v9.5c0,1.6-1.3,3-3,3h-4.8c-1.6,0-3-1.3-3-3v-9.5h-9.5
		c-1.6,0-3-1.3-3-3v-4.8c0-1.6,1.3-3,3-3h9.5v-9.5c0-1.6,1.3-3,3-3h4.8c1.6,0,3,1.3,3,3v9.5h9.5c1.6,0,3,1.3,3,3V243.4z"/>
</g>
</svg>
