<?xml version="1.0" encoding="utf-8"?>
<!-- Generator: Adobe Illustrator 19.1.0, SVG Export Plug-In . SVG Version: 6.00 Build 0)  -->
<svg version="1.1" id="Layer_1" xmlns="http://www.w3.org/2000/svg" xmlns:xlink="http://www.w3.org/1999/xlink" x="0px" y="0px"
	 viewBox="-269 191 100 100" style="enable-background:new -269 191 100 100;" xml:space="preserve">
<g>
	<path d="M-219,274.5c-2.1,0-3.8,1.7-3.8,3.8s1.7,3.8,3.8,3.8c2.1,0,3.8-1.7,3.8-3.8S-216.9,274.5-219,274.5"/>
	<path d="M-194,191h-50c-4.3,0-7.8,3.5-7.8,7.8v84.4c0,4.3,3.5,7.8,7.8,7.8h50c4.3,0,7.8-3.5,7.8-7.8v0v-84.4
		C-186.2,194.5-189.7,191-194,191 M-192.4,283.2c0,0.9-0.7,1.6-1.6,1.6h-50c-0.9,0-1.6-0.7-1.6-1.6v-84.4c0-0.9,0.7-1.6,1.6-1.6h50
		c0.9,0,1.6,0.7,1.6,1.6V283.2z"/>
	<path d="M-200.2,203.7h-37.5c-0.1,0-0.2,0-0.2,0c0,0,0,0-0.1,0c-0.2,0-0.3,0.1-0.4,0.2c-0.5,0.3-0.8,0.8-0.8,1.4v0v62.5
		c0,0.9,0.7,1.6,1.6,1.6h37.5c0.1,0,0.2,0,0.2,0c0,0,0,0,0.1,0c0.1,0,0.3-0.1,0.4-0.2c0.5-0.3,0.8-0.8,0.8-1.4v0v-62.5
		C-198.7,204.4-199.4,203.7-200.2,203.7 M-218,252.5v3.2c0,1.6-1.3,2.9-2.9,2.9c-1.6,0-2.9-1.3-2.9-2.9v-3.1h-3.4
		c-1.6,0-2.9-1.3-2.9-2.9c0-1.6,1.3-2.9,2.9-2.9h6.9h0.1c5,0,6.4-0.6,6.4-3.3c0-2.7-1.5-3.4-5.4-3.9c-8-1-10.9-3.4-10.9-9.3
		c0-3.9,1.8-9.6,10.6-10v-3.1c0-1.6,1.3-2.9,2.9-2.9c1.6,0,2.9,1.3,2.9,2.9v3.1h2c1.6,0,2.9,1.3,2.9,2.9c0,1.6-1.3,2.9-2.9,2.9h-6.9
		v0c-4.5,0-5.5,2.1-5.5,4.3c0,2.7,2,3,5.8,3.5c7,0.9,10.6,3.1,10.6,9.7C-207.8,248.3-210.2,251.9-218,252.5"/>
</g>
</svg>
