<?xml version="1.0" encoding="utf-8"?>
<!-- Generator: Adobe Illustrator 19.1.0, SVG Export Plug-In . SVG Version: 6.00 Build 0)  -->
<svg version="1.1" id="Layer_1" xmlns="http://www.w3.org/2000/svg" xmlns:xlink="http://www.w3.org/1999/xlink" x="0px" y="0px"
	 viewBox="-269 191 100 100" style="enable-background:new -269 191 100 100;" xml:space="preserve">
<g>
	<path d="M-189.9,260.4c-5.3,0-9.6,4.3-9.6,9.6c0,0,0,0.1,0,0.1c0.1,5.3,4.3,9.5,9.6,9.5c5.3,0,9.6-4.3,9.6-9.5c0,0,0-0.1,0-0.1
		C-180.2,264.7-184.6,260.4-189.9,260.4"/>
	<path d="M-248.1,260.4c-5.3,0-9.6,4.3-9.6,9.6c0,0,0,0.1,0,0.1c0,5.3,4.3,9.5,9.6,9.5c5.3,0,9.6-4.3,9.6-9.5c0,0,0-0.1,0-0.1
		C-238.4,264.7-242.7,260.4-248.1,260.4"/>
	<path d="M-170.8,264.4v-15.2c0,0-6.5-23.2-6.6-23.4c-0.2-0.5-0.5-1-0.8-1.4c-1-1.4-2.4-2.6-3.8-2.6l9.3,0c2.7,0,4.2-2.1,3.4-4.6
		l-3-10.2c-0.8-2.5-3.5-4.6-6.2-4.6h-84.1c-2.7,0-4.8,2.2-4.8,4.8v57.3c-1,0.5-1.7,1.5-1.7,2.6c0,1.6,1.3,2.9,2.9,2.9h5.5
		c0.1-6.9,5.7-12.4,12.5-12.4c6.9,0,12.5,5.6,12.5,12.4h28.6h4.5c0.1-6.9,5.7-12.4,12.5-12.4c6.9,0,12.5,5.6,12.5,12.4h5.5
		c1.6,0,2.9-1.3,2.9-2.9C-169,265.8-169.7,264.8-170.8,264.4 M-244.7,248.1c-0.5,0.5-1,0.7-1.6,0.7c-0.6,0-1.2-0.2-1.6-0.7
		c-4.7-4.7-7.3-10.9-7.3-17.5c0-6.6,2.6-12.8,7.3-17.5c0.9-0.9,2.4-0.9,3.3,0c0.9,0.9,0.9,2.4,0,3.3c-3.8,3.8-5.9,8.9-5.9,14.2
		s2.1,10.4,5.9,14.2C-243.7,245.8-243.7,247.2-244.7,248.1 M-237.6,236.4c1,1,1,2.6,0,3.5c-0.5,0.5-1.1,0.7-1.8,0.7
		c-0.6,0-1.3-0.2-1.8-0.7c-2.5-2.5-3.8-5.8-3.8-9.3s1.4-6.8,3.8-9.3c1-1,2.6-1,3.5,0c1,1,1,2.6,0,3.5c-1.5,1.5-2.4,3.6-2.4,5.7
		C-240,232.8-239.1,234.8-237.6,236.4 M-230,234.2c-2,1-4.3,0.2-5.3-1.7c-1-2-0.2-4.3,1.7-5.4c1.9-1,4.3-0.2,5.3,1.7
		C-227.3,230.8-228.1,233.2-230,234.2 M-224.4,240.6c-0.6,0-1.3-0.2-1.8-0.7c-1-1-1-2.6,0-3.5c1.5-1.5,2.4-3.6,2.4-5.7
		c0-2.2-0.9-4.2-2.4-5.7c-1-1-1-2.6,0-3.5c1-1,2.6-1,3.5,0c2.5,2.5,3.8,5.8,3.8,9.3s-1.4,6.8-3.8,9.3
		C-223.1,240.4-223.7,240.6-224.4,240.6 M-215.8,248.1c-0.5,0.5-1,0.7-1.6,0.7c-0.6,0-1.2-0.2-1.6-0.7c-0.9-0.9-0.9-2.4,0-3.3
		c3.8-3.8,5.9-8.9,5.9-14.2s-2.1-10.4-5.9-14.2c-0.9-0.9-0.9-2.4,0-3.3c0.9-0.9,2.4-0.9,3.3,0c4.7,4.7,7.3,10.9,7.3,17.5
		C-208.5,237.3-211.1,243.5-215.8,248.1 M-197.5,243.6v-17h14.5l5.2,17H-197.5z"/>
</g>
</svg>
