<?xml version="1.0" encoding="utf-8"?>
<!-- Generator: Adobe Illustrator 19.1.0, SVG Export Plug-In . SVG Version: 6.00 Build 0)  -->
<svg version="1.1" id="Layer_1" xmlns="http://www.w3.org/2000/svg" xmlns:xlink="http://www.w3.org/1999/xlink" x="0px" y="0px"
	 viewBox="-269 191 100 100" style="enable-background:new -269 191 100 100;" xml:space="preserve">
<g>
	<path d="M-180.1,237.7c1.8,0,3.3,1.5,3.3,3.3c0,1.8-1.5,3.3-3.3,3.3c-1.8,0-3.3-1.5-3.3-3.3C-183.5,239.2-182,237.7-180.1,237.7"/>
	<path d="M-269,212.6v56.7v0c0,3.8,3.1,6.8,6.8,6.8h86.3c3.8,0,6.8-3.1,6.8-6.8v-56.7v0c0-3.8-3.1-6.8-6.8-6.8h-86.3
		C-265.9,205.8-269,208.9-269,212.6 M-175.8,211.3c0.8,0,1.4,0.6,1.4,1.4v56.7c0,0.7-0.6,1.4-1.4,1.4h-86.3c-0.8,0-1.4-0.6-1.4-1.4
		v-56.7c0-0.7,0.6-1.4,1.4-1.4H-175.8z"/>
	<path d="M-188,263.9v-45.8c0-0.1,0-0.2,0-0.2c0,0,0,0,0-0.1c0-0.1-0.1-0.2-0.1-0.4c-0.2-0.4-0.7-0.7-1.2-0.7h0h-67.2
		c-0.7,0-1.4,0.6-1.4,1.4v45.8c0,0.1,0,0.2,0,0.2c0,0,0,0,0,0.1c0,0.1,0.1,0.3,0.2,0.4c0.2,0.4,0.7,0.7,1.2,0.7h0h67.2
		C-188.6,265.3-188,264.7-188,263.9 M-207,239.5l-8,5.8l3.1,9.4c1,3.2-0.3,4.2-3,2.2l-8-5.8l-8,5.8c-2.7,2-4.1,1-3-2.2l3.1-9.4
		l-8-5.8c-2.7-2-2.2-3.6,1.2-3.6h9.9l3.1-9.4c1-3.2,2.7-3.2,3.7,0l3.1,9.4h9.9C-204.8,235.9-204.3,237.5-207,239.5"/>
</g>
</svg>
