<?xml version="1.0" encoding="utf-8"?>
<!-- Generator: Adobe Illustrator 19.1.0, SVG Export Plug-In . SVG Version: 6.00 Build 0)  -->
<svg version="1.1" id="Layer_1" xmlns="http://www.w3.org/2000/svg" xmlns:xlink="http://www.w3.org/1999/xlink" x="0px" y="0px"
	 viewBox="-269 191 100 100" style="enable-background:new -269 191 100 100;" xml:space="preserve">
<g>
	<path d="M-215.2,214.6c0-11.6-9.2-21-20.5-21c-11.3,0-20.5,9.4-20.5,21s9.2,21,20.5,21C-224.4,235.6-215.2,226.2-215.2,214.6"/>
	<path d="M-211.7,236.6l-7-1.9c-4.6,4-10.5,6.4-16.9,6.5c-6.5,0-12.4-2.5-16.9-6.5l-7,1.9c-7.5,2.1-9.9,5.2-9.3,9.3l5.6,35.5
		c0.8,5.6,4.2,9.3,9.3,9.3h18.3h0h18.3c5.1,0,8.5-3.7,9.3-9.3l5.6-35.5C-201.8,241.8-204.3,238.7-211.7,236.6 M-215.5,255.1
		L-215.5,255.1l-20.1,20.1l-5.5,5.5l-5.5-5.5l-9.2-9.2v0c-1.5-1.5-1.5-4,0-5.5c0.8-0.8,1.8-1.1,2.8-1.1c1,0,2,0.4,2.7,1.1
		c0,0,0,0,0,0l9.1,9.2l20.1-20.2c0.8-0.8,1.8-1.1,2.8-1.1c1,0,2,0.4,2.7,1.1C-214,251.2-214,253.6-215.5,255.1"/>
	<path d="M-193.1,221.6c8.1,0,14.8-6.8,14.8-15.1c0-8.3-6.6-15.1-14.8-15.1c-8.1,0-14.8,6.8-14.8,15.1
		C-207.9,214.8-201.2,221.6-193.1,221.6"/>
	<path d="M-175.8,222.3l-5.1-1.3c-3.3,2.9-7.5,4.7-12.2,4.7c-4.7,0-8.9-1.8-12.2-4.7l-5.1,1.3c-5.4,1.5-7.2,3.8-6.7,6.7l0.1,0.5
		l6.7,1.8l0,0l0,0c12.3,3.4,14,10.3,13.2,15.4l-2.3,14.6h6.2h0h13.2c3.7,0,6.1-2.7,6.7-6.7l4-25.6
		C-168.6,226-170.4,223.8-175.8,222.3"/>
</g>
</svg>
