<?xml version="1.0" encoding="utf-8"?>
<!-- Generator: Adobe Illustrator 19.1.0, SVG Export Plug-In . SVG Version: 6.00 Build 0)  -->
<svg version="1.1" id="Layer_1" xmlns="http://www.w3.org/2000/svg" xmlns:xlink="http://www.w3.org/1999/xlink" x="0px" y="0px"
	 viewBox="-269 191 100 100" style="enable-background:new -269 191 100 100;" xml:space="preserve">
<g>
	<path d="M-235.1,235.6c11.3,0,20.6-9.5,20.6-21.1c0-11.6-9.2-21.1-20.6-21.1c-11.3,0-20.6,9.5-20.6,21.1
		C-255.7,226.1-246.4,235.6-235.1,235.6"/>
	<path d="M-235.1,241.2c-6.5,0-12.4-2.5-17-6.5l-1,0.3c-0.2,1.2-0.3,2.4-0.3,3.6c0,7.9,12.5,15.8,18.4,18.7
		c5.9-2.9,18.4-10.7,18.4-18.7c0-1.2-0.1-2.5-0.4-3.6l-1-0.3C-222.6,238.7-228.6,241.2-235.1,241.2"/>
	<path d="M-211,236.6l-1.4-0.4c0.1,0.8,0.1,1.6,0.1,2.4c0,12.5-19.8,22.1-21.7,23c-3.8,2.3-13.6,9.3-14.5,14.8
		c-0.2,1.2,0.1,2.2,0.9,3.1c0.7,0.9,1.6,1.3,2.9,1.3c4.2,0.2,10.5-3.8,15.2-7.5c-0.5-1-0.7-2-0.7-3.2c0-4,3.3-7.3,7.3-7.3
		s7.3,3.3,7.3,7.3c0,4-3.3,7.3-7.3,7.3c-1.3,0-2.5-0.4-3.5-0.9c-4.8,3.8-12,8.7-17.9,8.7c-0.2,0-0.3,0-0.5,0c-2.4-0.1-4.5-1.1-6-2.9
		c-1.6-1.9-2.2-4.2-1.8-6.6c1-6.3,8.8-12.5,13.4-15.7c-6.2-3.4-18.4-11.5-18.4-21.3c0-0.8,0-1.6,0.1-2.4l-1.4,0.4
		c-7.5,2.1-10,5.3-9.4,9.4l5.6,35.7c0.8,5.6,4.2,9.4,9.4,9.4h18.4h0h18.4c5.2,0,8.5-3.8,9.4-9.4l5.6-35.7
		C-201,241.8-203.5,238.7-211,236.6"/>
	<path d="M-223.1,273.8c2,0,3.6-1.6,3.6-3.6c0-2-1.6-3.6-3.6-3.6c-2,0-3.6,1.6-3.6,3.6C-226.8,272.1-225.1,273.8-223.1,273.8"/>
	<path d="M-172,227c-1.4,0-2.6-1.2-2.6-2.6c0-15.6-12.7-28.3-28.3-28.3c-1.4,0-2.6-1.1-2.6-2.6c0-1.4,1.1-2.6,2.6-2.6
		c18.4,0,33.4,15,33.4,33.4C-169.4,225.8-170.6,227-172,227"/>
	<path d="M-182.3,227c-1.4,0-2.6-1.2-2.6-2.6c0-9.9-8.1-18-18-18c-1.4,0-2.6-1.1-2.6-2.6c0-1.4,1.2-2.6,2.6-2.6
		c12.8,0,23.1,10.4,23.1,23.1C-179.7,225.8-180.8,227-182.3,227"/>
	<path d="M-192.5,227c-1.4,0-2.6-1.2-2.6-2.6c0-4.3-3.5-7.7-7.7-7.7c-1.4,0-2.6-1.1-2.6-2.6c0-1.4,1.1-2.6,2.6-2.6
		c7.1,0,12.9,5.8,12.9,12.9C-190,225.8-191.1,227-192.5,227"/>
</g>
</svg>
