<?xml version="1.0" encoding="utf-8"?>
<!-- Generator: Adobe Illustrator 19.1.0, SVG Export Plug-In . SVG Version: 6.00 Build 0)  -->
<svg version="1.1" id="Layer_1" xmlns="http://www.w3.org/2000/svg" xmlns:xlink="http://www.w3.org/1999/xlink" x="0px" y="0px"
	 viewBox="-269 191 100 100" style="enable-background:new -269 191 100 100;" xml:space="preserve">
<g>
	<path d="M-219,274.5c-2.1,0-3.8,1.7-3.8,3.8c0,2.1,1.7,3.8,3.8,3.8c2.1,0,3.8-1.7,3.8-3.8C-215.2,276.1-216.9,274.5-219,274.5"/>
	<path d="M-194,191h-50c-4.3,0-7.8,3.5-7.8,7.8v0v84.4c0,4.3,3.5,7.8,7.8,7.8h50c4.3,0,7.8-3.5,7.8-7.8v0v-84.4
		C-186.2,194.5-189.7,191-194,191 M-192.4,283.2c0,0.9-0.7,1.6-1.6,1.6h-50c-0.9,0-1.6-0.7-1.6-1.6v-84.4c0-0.9,0.7-1.6,1.6-1.6h50
		c0.9,0,1.6,0.7,1.6,1.6V283.2z"/>
	<path d="M-200.2,203.7h-37.5c-0.1,0-0.2,0-0.3,0c0,0,0,0-0.1,0c-0.2,0-0.3,0.1-0.4,0.2c-0.5,0.3-0.8,0.8-0.8,1.4v0v62.5
		c0,0.9,0.7,1.6,1.6,1.6h37.5h0c0.1,0,0.2,0,0.2,0c0,0,0,0,0.1,0c0.1,0,0.3-0.1,0.4-0.2c0.5-0.3,0.8-0.8,0.8-1.4v0v-62.5
		C-198.7,204.4-199.4,203.7-200.2,203.7 M-204.6,241.1c0,3.4-2.4,6.7-7.1,10c-3.2,2.2-6.5,3.6-6.6,3.7c-0.2,0.1-0.5,0.1-0.7,0.1
		c-0.2,0-0.5,0-0.8-0.1c-0.1-0.1-3.4-1.4-6.6-3.7c-4.6-3.2-7.2-6.6-7.2-10v-16.9c0-1,1-1.8,2-1.8c6,0,9.8-2.1,11.5-3.3
		c0,0,0.1,0,0.1-0.1c0.3-0.2,0.6-0.3,0.9-0.3c0.3,0,0.6,0.1,0.9,0.3c0,0,0.1,0.1,0.1,0.1c1.7,1.2,5.5,3.3,11.5,3.3
		c1,0,1.9,0.8,1.9,1.8V241.1z"/>
</g>
</svg>
