<?xml version="1.0" encoding="utf-8"?>
<!-- Generator: Adobe Illustrator 19.1.0, SVG Export Plug-In . SVG Version: 6.00 Build 0)  -->
<svg version="1.1" id="Layer_1" xmlns="http://www.w3.org/2000/svg" xmlns:xlink="http://www.w3.org/1999/xlink" x="0px" y="0px"
	 viewBox="-269 191 100 100" style="enable-background:new -269 191 100 100;" xml:space="preserve">
<g>
	<path d="M-189.9,260.4c-5.3,0-9.6,4.3-9.6,9.6c0,0,0,0.1,0,0.1c0.1,5.3,4.3,9.5,9.6,9.5c5.3,0,9.6-4.3,9.6-9.5c0,0,0-0.1,0-0.1
		C-180.2,264.7-184.6,260.4-189.9,260.4"/>
	<path d="M-248.1,260.4c-5.3,0-9.6,4.3-9.6,9.6c0,0,0,0.1,0,0.1c0,5.3,4.3,9.5,9.6,9.5c5.3,0,9.6-4.3,9.6-9.5c0,0,0-0.1,0-0.1
		C-238.4,264.7-242.7,260.4-248.1,260.4"/>
	<path d="M-262.5,202.3c-2.7,0-4.8,2.2-4.8,4.8v57.3c-1,0.5-1.7,1.5-1.7,2.6c0,1.6,1.3,2.9,2.9,2.9h5.5c0.1-6.9,5.7-12.4,12.5-12.4
		c6.9,0,12.5,5.6,12.5,12.4h33.1c0.1-6.9,5.7-12.4,12.5-12.4c6.9,0,12.5,5.6,12.5,12.4h5.5c1.6,0,2.9-1.3,2.9-2.9
		c0-1.2-0.7-2.2-1.8-2.7v-15.2c0,0-6.5-23.2-6.6-23.4c-0.2-0.5-0.5-1-0.8-1.4c-1-1.4-2.4-2.6-3.8-2.6l9.3,0c2.7,0,4.2-2.1,3.4-4.6
		l-3-10.2c-0.8-2.5-3.5-4.6-6.2-4.6H-262.5z M-231.7,239.8l-1.3,3.7h-5.3l1.5-4c-1.4-0.2-2.7-0.4-3.4-0.7V234
		c1.7,0.7,5.6,1.1,7.7,1.1c2.9,0,4.6-0.7,4.6-2.1c0-0.9-1.9-1.3-4.1-1.5c-5.4-0.5-8.6-1.2-8.6-5.5c0-4.1,3-6.6,8.4-6.8l1.3-3.7h5.3
		l-1.5,4c1.2,0.1,2.4,0.4,3.3,0.8v4.6c-2.1-0.8-5.5-1-7.6-1c-2.7,0-4.3,0.7-4.3,1.9c0,0.9,2,1,4.2,1.2c5.4,0.5,8.5,1.4,8.5,6
		C-223.1,236.8-226,239.6-231.7,239.8 M-197.5,243.6v-17h14.5l5.2,17H-197.5z"/>
</g>
</svg>
