<?xml version="1.0" encoding="utf-8"?>
<!-- Generator: Adobe Illustrator 19.1.0, SVG Export Plug-In . SVG Version: 6.00 Build 0)  -->
<svg version="1.1" id="Layer_1" xmlns="http://www.w3.org/2000/svg" xmlns:xlink="http://www.w3.org/1999/xlink" x="0px" y="0px"
	 viewBox="-269 191 100 100" style="enable-background:new -269 191 100 100;" xml:space="preserve">
<g>
	<path d="M-179,200.9c2.2,0,4,1.8,4,4v60c0,2.2-1.8,4-4,4h-80c-2.2,0-4-1.8-4-4v-60c0-2.2,1.8-4,4-4H-179 M-179,194.9h-80
		c-5.5,0-10,4.5-10,10v60c0,5.5,4.5,10,10,10h80c5.5,0,10-4.5,10-10v-60C-169,199.4-173.5,194.9-179,194.9"/>
	<path d="M-172,287.1h-94c-1.6,0-2.9-1.3-2.9-2.9c0-1.6,1.3-2.9,2.9-2.9h94c1.6,0,2.9,1.3,2.9,2.9
		C-169.1,285.8-170.4,287.1-172,287.1"/>
	<path d="M-215.5,247.3h-10c5.2,5,11.7,8.7,18.9,10.6C-210,255.3-213,251.7-215.5,247.3"/>
	<path d="M-201.2,247.3H-213c3.5,5.8,8,10,13.1,11.9c1.2,0.1,2.4,0.2,3.6,0.2v-7.3C-198.8,251.7-200.8,249.7-201.2,247.3"/>
	<path d="M-227.6,245.1h11c-4-7.8-6.4-17.8-6.5-28.5h-15.9C-238.8,227.6-234.5,237.5-227.6,245.1"/>
	<path d="M-201.2,245.1c0.5-2.5,2.4-4.4,4.9-4.8v-23.7H-221c0.2,10.8,2.7,20.8,6.8,28.5H-201.2z"/>
	<path d="M-201.2,247.3H-213c3.5,5.8,8,10,13.1,11.9c1.2,0.1,2.4,0.2,3.6,0.2v-7.3C-198.8,251.7-200.8,249.7-201.2,247.3"/>
	<path d="M-222.7,206.9h-15.5c-0.5,2.4-0.8,4.9-0.9,7.5h15.9C-223.2,211.9-223,209.4-222.7,206.9"/>
	<path d="M-196.3,206.9h-24.2c-0.3,2.4-0.5,4.9-0.5,7.5h24.7V206.9z"/>
	<path d="M-196.3,216.6H-221c0.2,10.8,2.7,20.8,6.8,28.5h13c0.5-2.5,2.4-4.4,4.9-4.8V216.6z"/>
	<path d="M-194.1,214.4h13.1v-4.5c0-1.7-1.3-3-3-3h-10.1V214.4z"/>
	<path d="M-194.1,216.6v23.7c2.3,0.5,4.2,2.4,4.6,4.7h8.5v-28.5H-194.1z"/>
	<path d="M-189.5,247.3c-0.4,2.4-2.3,4.2-4.6,4.7v7.4c1.2,0,2.4-0.1,3.6-0.2c3.5-1.3,6.7-3.7,9.5-7v-4.9H-189.5z"/>
	<path d="M-245,215.5c0-2.9,0.3-5.8,0.8-8.6h-9.8c-1.7,0-3,1.3-3,3v50c0,1.7,1.3,3,3,3h43.6C-230.4,256.5-245,237.7-245,215.5"/>
	<path d="M-216.7,245.1c-4-7.8-6.4-17.8-6.5-28.5h-15.9c0.3,10.9,4.6,20.9,11.5,28.5H-216.7z"/>
	<path d="M-215.5,247.3h-10c5.2,5,11.7,8.7,18.9,10.6C-210,255.3-213,251.7-215.5,247.3"/>
	<path d="M-183.9,257.9c1-0.3,2-0.6,2.9-0.9v-1.7C-181.9,256.3-182.9,257.1-183.9,257.9"/>
</g>
</svg>
