<?xml version="1.0" encoding="utf-8"?>
<!-- Generator: Adobe Illustrator 19.1.0, SVG Export Plug-In . SVG Version: 6.00 Build 0)  -->
<svg version="1.1" id="Layer_1" xmlns="http://www.w3.org/2000/svg" xmlns:xlink="http://www.w3.org/1999/xlink" x="0px" y="0px"
	 viewBox="-269 191 100 100" style="enable-background:new -269 191 100 100;" xml:space="preserve">
<g>
	<path d="M-222.2,264.4c-0.6-0.6-1.3-1.1-2.1-1.3c-0.5-0.2-1-0.3-1.5-0.3c-1.1,0-2.2,0.4-3.1,1.1c-0.1,0.1-0.1,0.1-0.2,0.2l-1.1,1
		c0.3-0.4,0.5-0.9,0.6-1.4c0.4-1.6,0.1-3.3-1.1-4.6c-1-1.1-2.3-1.6-3.6-1.6c-1.2,0-2.4,0.4-3.3,1.3l-0.2,0.2c1.2-1.8,1.1-4.3-0.5-6
		c-1-1.1-2.3-1.6-3.6-1.6c-1.2,0-2.4,0.4-3.3,1.3l-4,3.7l-1.8,1.7c-2,1.8-2.1,4.9-0.3,6.9c1,1.1,2.3,1.6,3.6,1.6
		c1.2,0,2.4-0.4,3.3-1.3l0.2-0.2c-1.2,1.8-1.1,4.3,0.5,6c1,1.1,2.3,1.6,3.6,1.6c1.2,0,2.4-0.4,3.3-1.3l1.1-1c-1.2,1.8-1.1,4.3,0.5,6
		c1,1.1,2.3,1.6,3.6,1.6c1.2,0,2.4-0.4,3.3-1.3l5.9-5.4c0.2-0.2,0.4-0.4,0.6-0.6c1.4-1.8,1.4-4.2,0-6
		C-222.1,264.6-222.1,264.5-222.2,264.4"/>
	<path d="M-192.3,251.1c-1.9-0.8-3.2-1.8-4.1-2.7c-0.5-0.5-0.9-0.9-1.1-1.2l-2.5-3.3l-1.4-1.8l-0.1-0.1l-0.1-0.1l-4.2-5.4l-8-10.5
		l-1.4-1.8c-0.4-0.7-1.5-1.1-2.4-0.7l-15,7.8c-0.1,0-0.1,0.1-0.2,0.1c-0.2,0.1-0.4,0.2-0.6,0.3c-0.8,0.4-1.5,0.7-2.3,1
		c-1,0.4-1.9,0.7-2.5,0.8c-0.4,0.1-0.7,0.1-1.1,0.1c-2,0-4-0.7-4.8-1.1l-0.6-0.3l-0.5-0.4c-0.9-0.8-1.7-1.7-2.3-2.7
		c-1.1-2-1.4-4.3-1-6.6c0-0.2,0.1-0.4,0.1-0.5c-1.5,0.3-2.8,0.5-3.8,0.5c-5.5,0-10.8-2.4-10.8-2.4c-3.3-1.5-6,0.2-6,3.8L-269,251
		c0,3.6,2.9,6.2,6.5,5.7l5.8-0.7c0.4,0,0.8-0.1,1.2-0.1c0.4-0.5,0.8-0.9,1.2-1.4l5.9-5.4c1.8-1.6,4.1-2.5,6.5-2.5
		c2.7,0,5.3,1.1,7.1,3.1c0.8,0.9,1.5,2,1.9,3.1c2.2,0.3,4.2,1.4,5.7,3c0.6,0.7,1.1,1.4,1.5,2.2c2,0,3.9,0.6,5.5,1.8
		c0.5,0.4,1,0.8,1.5,1.3c0.5,0.6,1,1.2,1.3,1.9c1.9,3.6,1.4,8.1-1.4,11.1l1.3,1.5c2,2.3,5.5,2.5,7.8,0.5c2.3-2,2.5-5.5,0.5-7.8
		l-2.4-2.8c0.1-0.2,0.3-0.5,0.5-0.6l2.6,3c2,2.3,5.5,2.5,7.8,0.5c2.3-2,2.5-5.5,0.5-7.8l-1.8-2.1c0-0.4,0.6-1,1-0.7c0,0,0,0,0,0
		l1.5,1.7c2,2.3,5.5,2.5,7.8,0.5c2.3-2,2.7-5.7,0.7-8c0,0-0.2-0.3-0.6-0.6C-192.1,251.2-192.3,251.1-192.3,251.1"/>
	<path d="M-173.8,210.6c-0.5,0-1,0.1-1.6,0.2c0,0-10,2.6-12.5,2.6c-0.1,0-0.1,0-0.2,0c-2.3-0.1-4.8-1.7-6.3-3.1
		c-0.3-0.3-0.6-0.5-0.9-0.8c-0.1-0.1-0.2-0.1-0.3-0.2c-0.2-0.2-0.5-0.4-0.7-0.6c-0.1-0.1-0.2-0.1-0.3-0.2c-0.3-0.2-0.7-0.5-1-0.7
		c-0.1,0-0.1-0.1-0.2-0.1c-0.3-0.2-0.6-0.4-0.9-0.5c-0.1-0.1-0.2-0.1-0.3-0.2c-0.3-0.2-0.6-0.3-0.9-0.5c-0.1,0-0.1-0.1-0.2-0.1
		c-0.4-0.2-0.8-0.4-1.1-0.5c-0.1,0-0.2-0.1-0.3-0.1c-0.3-0.1-0.6-0.2-0.9-0.4c-0.1,0-0.2-0.1-0.3-0.1c-0.4-0.1-0.8-0.3-1.2-0.4
		c0,0,0,0-0.1,0c-0.4-0.1-0.8-0.2-1.2-0.3c-0.1,0-0.2,0-0.4-0.1c-0.3-0.1-0.6-0.1-0.9-0.2c-0.1,0-0.2,0-0.3,0
		c-0.4-0.1-0.8-0.1-1.2-0.1c-0.1,0-0.2,0-0.2,0c-0.2,0-0.4,0-0.6,0c-0.1,0-0.2,0-0.3,0c-0.3,0-0.5,0-0.8,0c-0.2,0-0.4,0-0.6,0.1
		c-0.3,0-0.5,0.1-0.8,0.1c-0.2,0-0.4,0.1-0.5,0.1c-0.3,0.1-0.6,0.2-0.8,0.3c-0.1,0-0.3,0.1-0.4,0.1c-0.4,0.2-0.8,0.3-1.2,0.5
		c-6,3.2-27.3,14.4-27.3,14.4c-0.2,0.1-0.4,0.3-0.6,0.4c-1,0.7-1.6,1.8-1.9,2.9c-0.2,1.1-0.1,2.3,0.5,3.4c0.3,0.6,0.8,1.1,1.2,1.4
		c0.4,0.3,1.7,0.8,2.9,0.7c0.1,0,0.3,0,0.4,0c0.9-0.1,4.2-1.6,7.3-3.3l2.7-1.4l0.8-0.4c0.1-0.1,0.2-0.1,0.4-0.2l8.4-4.4
		c1.6-0.9,3.5-0.9,5.1-0.1c0.8,0.4,1.1,0.7,1.5,1.1c0.1,0.1,0.1,0.1,0.2,0.2c1,1.1,10.7,13.3,10.7,13.3l1.3,1.7l7,9.1
		c0,0,1.9,3,6.7,3c0.7,0,1.4-0.1,2.2-0.2c6.4-1.1,9.3-1.5,9.3-1.5c3.6-0.5,6.5-3.8,6.5-7.4v-22.1C-169,212.6-171,210.6-173.8,210.6"
		/>
</g>
</svg>
