<?xml version="1.0" encoding="utf-8"?>
<!-- Generator: Adobe Illustrator 19.1.0, SVG Export Plug-In . SVG Version: 6.00 Build 0)  -->
<svg version="1.1" id="Layer_1" xmlns="http://www.w3.org/2000/svg" xmlns:xlink="http://www.w3.org/1999/xlink" x="0px" y="0px"
	 viewBox="-269 191 100 100" style="enable-background:new -269 191 100 100;" xml:space="preserve">
<g>
	<path d="M-179,200.9c2.2,0,4,1.8,4,4v60c0,2.2-1.8,4-4,4h-80c-2.2,0-4-1.8-4-4v-60c0-2.2,1.8-4,4-4H-179 M-179,194.9h-80
		c-5.5,0-10,4.5-10,10v60c0,5.5,4.5,10,10,10h80c5.5,0,10-4.5,10-10v-60C-169,199.4-173.5,194.9-179,194.9"/>
	<path d="M-172,287.1h-94c-1.6,0-2.9-1.3-2.9-2.9s1.3-2.9,2.9-2.9h94c1.6,0,2.9,1.3,2.9,2.9C-169.1,285.8-170.4,287.1-172,287.1"/>
	<path d="M-184,206.9h-70c-1.7,0-3,1.3-3,3v50c0,1.7,1.3,3,3,3h70c1.7,0,3-1.3,3-3v-50C-181,208.3-182.3,206.9-184,206.9
		 M-218.5,255.6c-11.4,0-20.7-9.3-20.7-20.7s9.3-20.7,20.7-20.7s20.7,9.3,20.7,20.7S-207,255.6-218.5,255.6"/>
	<path d="M-204.2,233.2l-4.9-8.1c-0.7-1.2-2.3-1.6-3.4-0.8c-1.2,0.7-1.6,2.3-0.8,3.4l2.7,4.5h-20c-1.4,0-2.5,1.1-2.5,2.5
		s1.1,2.5,2.5,2.5h20.2l-3,4.9c-0.7,1.2-0.3,2.7,0.8,3.4c0.4,0.2,0.9,0.4,1.3,0.4c0.8,0,1.7-0.4,2.1-1.2l4.9-8.1
		c0.4-0.5,0.6-1.1,0.6-1.7C-203.5,234.3-203.8,233.7-204.2,233.2"/>
</g>
</svg>
