<?xml version="1.0" encoding="utf-8"?>
<!-- Generator: Adobe Illustrator 19.1.0, SVG Export Plug-In . SVG Version: 6.00 Build 0)  -->
<svg version="1.1" id="Layer_1" xmlns="http://www.w3.org/2000/svg" xmlns:xlink="http://www.w3.org/1999/xlink" x="0px" y="0px"
	 viewBox="-269 191 100 100" style="enable-background:new -269 191 100 100;" xml:space="preserve">
<g>
	<path d="M-180.1,191h-55.7c-6.2,0-11.1,5-11.1,11.1v4.9h50.9c6.1,0,11.1,5,11.1,11.1V269h4.9c6.2,0,11.1-5,11.1-11.1v-55.7
		C-169,196-174,191-180.1,191"/>
	<path d="M-202.1,213h-55.7c-6.2,0-11.1,5-11.1,11.1v55.7c0,6.2,5,11.1,11.1,11.1h55.7c6.2,0,11.1-5,11.1-11.1v-55.7
		C-191,218-196,213-202.1,213 M-251.9,235c0-1.1,0.9-2,2-2h28c1.1,0,2,0.9,2,2v6c0,1.1-0.9,2-2,2h-28c-1.1,0-2-0.9-2-2V235z
		 M-233.9,273c0,1.1-0.9,2-2,2h-14c-1.1,0-2-0.9-2-2v-6c0-1.1,0.9-2,2-2h14c1.1,0,2,0.9,2,2V273z M-205.9,257c0,1.1-0.9,2-2,2h-42
		c-1.1,0-2-0.9-2-2v-6c0-1.1,0.9-2,2-2h42c1.1,0,2,0.9,2,2V257z"/>
</g>
</svg>
