<?xml version="1.0" encoding="utf-8"?>
<!-- Generator: Adobe Illustrator 19.1.0, SVG Export Plug-In . SVG Version: 6.00 Build 0)  -->
<svg version="1.1" id="Layer_1" xmlns="http://www.w3.org/2000/svg" xmlns:xlink="http://www.w3.org/1999/xlink" x="0px" y="0px"
	 viewBox="-269 191 100 100" style="enable-background:new -269 191 100 100;" xml:space="preserve">
<style type="text/css">
	.st0{fill-rule:evenodd;clip-rule:evenodd;}
</style>
<g>
	<path class="st0" d="M-213.5,191c4.2,0.3,8.3,1.2,12.3,2.6l-12.3,12.3V191z M-267.3,255.2c-6.9-25.8,8.4-52.3,34.2-59.2
		c2.9-0.8,5.9-1.3,8.8-1.5v46.7l-33,33C-261.9,268.8-265.4,262.4-267.3,255.2 M-180.7,270c-6.3,9.2-15.8,16.3-27.4,19.4
		c-16,4.3-32.3,0-44-10l32.1-32.1L-180.7,270z M-194.8,196.3c2,1,3.9,2.2,5.7,3.5l-24.3,24.3V215L-194.8,196.3z M-184.1,203.9
		c1.6,1.5,3.1,3.1,4.4,4.7L-210,239l-3.4-2v-3.7L-184.1,203.9z M-175.9,214c1.2,2,2.3,4,3.2,6.2l-25.6,25.6l-5.9-3.4L-175.9,214z
		 M-170.4,227.1c0.7,2.6,1.1,5.2,1.4,7.8l-17.7,17.6l-5.8-3.4L-170.4,227.1z M-169.1,244.1c-0.6,5.6-2.1,11-4.5,16l-7.3-4.2
		L-169.1,244.1z"/>
</g>
</svg>
