<?xml version="1.0" encoding="utf-8"?>
<!-- Generator: Adobe Illustrator 19.1.0, SVG Export Plug-In . SVG Version: 6.00 Build 0)  -->
<svg version="1.1" id="Layer_1" xmlns="http://www.w3.org/2000/svg" xmlns:xlink="http://www.w3.org/1999/xlink" x="0px" y="0px"
	 viewBox="-269 191 100 100" style="enable-background:new -269 191 100 100;" xml:space="preserve">
<g>
	<path d="M-214.1,235.4l2.7,22.6c0,2.4-5,4.4-7.4,4.4c-2.4,0-7.4-2-7.4-4.4l2.7-22.9c-2.4-1.6-4-4.3-4-7.4c0-4.9,4-8.9,8.9-8.9
		c4.9,0,8.9,4,8.9,8.9C-209.7,231-211.4,233.9-214.1,235.4 M-184,201.2c-16.7,0-27.1-5.8-31.7-9.2c-0.1-0.1-0.2-0.2-0.3-0.2
		c-0.7-0.5-1.5-0.7-2.5-0.7c-0.9,0-1.8,0.3-2.5,0.7c-0.1,0.1-0.2,0.1-0.3,0.2c-4.6,3.3-15.3,9.2-32,9.2c-2.8,0-5.8,2.3-5.8,5.1v46.7
		c0,9.4,7.2,18.7,20,27.6c8.9,6.2,18,10,18.4,10.1c0.6,0.3,1.5,0.4,2.2,0.4c0.7,0,1.4-0.1,2.1-0.4c0.4-0.2,9.2-3.9,18.1-10.1
		c12.8-8.9,19.3-18.2,19.3-27.6v-46.7C-179,203.4-181.2,201.2-184,201.2"/>
</g>
</svg>
