<?xml version="1.0" encoding="utf-8"?>
<!-- Generator: Adobe Illustrator 19.1.0, SVG Export Plug-In . SVG Version: 6.00 Build 0)  -->
<svg version="1.1" id="Layer_1" xmlns="http://www.w3.org/2000/svg" xmlns:xlink="http://www.w3.org/1999/xlink" x="0px" y="0px"
	 viewBox="-269 191 100 100" style="enable-background:new -269 191 100 100;" xml:space="preserve">
<g>
	<path d="M-179,200.9c2.2,0,4,1.8,4,4v60c0,2.2-1.8,4-4,4h-80c-2.2,0-4-1.8-4-4v-60c0-2.2,1.8-4,4-4H-179 M-179,194.9h-80
		c-5.5,0-10,4.5-10,10v60c0,5.5,4.5,10,10,10h80c5.5,0,10-4.5,10-10v-60C-169,199.4-173.5,194.9-179,194.9"/>
	<path d="M-172,287.1h-94c-1.6,0-2.9-1.3-2.9-2.9c0-1.6,1.3-2.9,2.9-2.9h94c1.6,0,2.9,1.3,2.9,2.9
		C-169.1,285.8-170.4,287.1-172,287.1"/>
	<path d="M-184,206.9h-70c-1.7,0-3,1.3-3,3v50c0,1.7,1.3,3,3,3h70c1.7,0,3-1.3,3-3v-50C-181,208.2-182.3,206.9-184,206.9
		 M-200.7,253.2c0,2.7-2.2,5-5,5h-26.6c-2.7,0-5-2.3-5-5v-17.4c0-2.6,2-4.7,4.6-5V224c0-7.3,6.2-13.3,13.8-13.3
		c7.6,0,13.8,6,13.8,13.3v6.8c2.5,0.3,4.4,2.4,4.4,4.9V253.2z"/>
	<path d="M-218.9,216.7c4.3,0,7.8,3.3,7.8,7.3v6.8h-15.6V224C-226.7,220-223.3,216.7-218.9,216.7"/>
</g>
</svg>
