<?xml version="1.0" encoding="utf-8"?>
<!-- Generator: Adobe Illustrator 19.1.0, SVG Export Plug-In . SVG Version: 6.00 Build 0)  -->
<svg version="1.1" id="Layer_1" xmlns="http://www.w3.org/2000/svg" xmlns:xlink="http://www.w3.org/1999/xlink" x="0px" y="0px"
	 viewBox="-269 191 100 100" style="enable-background:new -269 191 100 100;" xml:space="preserve">
<path d="M-185.1,201.9c-23.3,0-29-6.9-29.6-7.8c-0.6-2.1-2.6-3-4.8-3h0c-2.2,0-3.9,0.9-4.6,3c-0.6,0.9-6.1,8.1-29.3,8.1
	c-2.7,0-4.9,2-4.9,4.7v46.3c0,9.3,6.3,18.5,19,27.4c8.8,6.1,17.5,9.9,17.8,10.1c0.6,0.3,1.3,0.4,1.9,0.4c0.7,0,1.3-0.1,2-0.4
	c0.4-0.2,9.5-3.9,18.3-10.1c12.7-8.9,19.5-18.1,19.5-27.4v-46.3C-179.7,204.1-182.3,201.9-185.1,201.9z M-200.6,241.2
	c0,1.7-1.4,3.1-3.1,3.1h-9.9v9.9c0,1.7-1.4,3.1-3.1,3.1h-4.9c-1.7,0-3.1-1.4-3.1-3.1v-9.9h-9.9c-1.7,0-3.1-1.4-3.1-3.1v-4.9
	c0-1.7,1.4-3.1,3.1-3.1h9.9v-9.9c0-1.7,1.4-3.1,3.1-3.1h4.9c1.7,0,3.1,1.4,3.1,3.1v9.9h9.9c1.7,0,3.1,1.4,3.1,3.1V241.2z"/>
</svg>
