<?xml version="1.0" encoding="utf-8"?>
<!-- Generator: Adobe Illustrator 19.1.0, SVG Export Plug-In . SVG Version: 6.00 Build 0)  -->
<svg version="1.1" id="Layer_1" xmlns="http://www.w3.org/2000/svg" xmlns:xlink="http://www.w3.org/1999/xlink" x="0px" y="0px"
	 viewBox="-269 191 100 100" style="enable-background:new -269 191 100 100;" xml:space="preserve">
<g>
	<path d="M-215.6,246.1l-30-30l-0.6-6.1l-17.1-11.6l-5.5,5.5l11.6,17.1l6.1,0.6l30,30c-4.3,8.4,1.9,14.6,1.9,14.6
		s14.6,14.6,21.9,21.9c7.4,7.4,16.6-1.5,16.6-1.5s8.9-9.3,1.5-16.6c-7.4-7.4-21.9-21.9-21.9-21.9S-207.2,241.8-215.6,246.1"/>
	<path d="M-226.8,253.4l-10.7-10.7c-0.1-0.1-0.1-0.2-0.2-0.2l-27.4,27.5c-4.7,4.7-4.6,12.3,0.1,17c4.7,4.7,12.3,4.7,17,0.1
		l22.5-22.5C-226.9,261.5-227.7,257.7-226.8,253.4 M-256.9,282.5c-2,0-3.6-1.6-3.6-3.6c0-2,1.6-3.6,3.6-3.6c2,0,3.6,1.6,3.6,3.6
		C-253.3,280.9-254.9,282.5-256.9,282.5"/>
	<path d="M-171.2,208.2c0,0-14.6,14.6-17.1,17.1l-12.8-2.5l-2.4-12.8c2.5-2.5,17.1-17.1,17.1-17.1s-13.7-7.2-27.1,6.3
		c-13.5,13.5,0.1,19.4-9.3,28.8l-1.6,1.6c0.1,0.1,10.6,10.6,10.6,10.6c3.2-0.6,8.1-1.1,12.2,1.4c7.4-3.2,12.6,5.3,24.2-6.2
		C-164,221.8-171.2,208.2-171.2,208.2"/>
</g>
</svg>
