<?xml version="1.0" encoding="utf-8"?>
<!-- Generator: Adobe Illustrator 19.1.0, SVG Export Plug-In . SVG Version: 6.00 Build 0)  -->
<svg version="1.1" id="Layer_1" xmlns="http://www.w3.org/2000/svg" xmlns:xlink="http://www.w3.org/1999/xlink" x="0px" y="0px"
	 viewBox="-269 191 100 100" style="enable-background:new -269 191 100 100;" xml:space="preserve">
<g>
	<path d="M-228.3,272.3c0-1.6-1.3-2.9-2.8-2.9c-1.5,0-2.8,1.3-2.8,2.9s1.3,2.9,2.8,2.9C-229.6,275.2-228.3,273.9-228.3,272.3"/>
	<path d="M-180.2,263.5h-2.3v-6.8c0-7.2-6.1-13.1-13.6-13.1c-2.2,0-4.2,0.5-6.1,1.4c-1,0.5-2,1.1-2.8,1.8v0
		c-0.4,0.3-0.8,0.7-1.1,1.1c0,0-0.1,0.1-0.1,0.1c-2.1,2.3-3.4,5.3-3.4,8.7v6.8h-2.5c-0.1,0-0.1,0-0.2,0c-0.5,0-0.9,0.2-1.2,0.5
		c0,0,0,0,0,0c-0.1,0.1-0.2,0.2-0.3,0.3c0,0,0,0,0,0.1c-0.1,0.1-0.2,0.2-0.2,0.3c0,0,0,0.1-0.1,0.1c0,0.1-0.1,0.2-0.1,0.3
		c0,0.1,0,0.2-0.1,0.2c0,0.1,0,0.1-0.1,0.2c0,0.2,0,0.3,0,0.5v0v13v5v4.7c0,1.3,1.1,2.4,2.4,2.4h31.9c1.3,0,2.4-1.1,2.4-2.4v-22.7
		C-177.8,264.6-178.9,263.5-180.2,263.5 M-188,263.5h-14.2h-2v-6.8c0-0.3,0-0.5,0-0.7c0-0.1,0-0.2,0-0.3c0-0.1,0-0.3,0.1-0.4
		c0-0.1,0.1-0.3,0.1-0.4c0-0.1,0.1-0.2,0.1-0.3c0-0.2,0.1-0.3,0.2-0.4c0-0.1,0.1-0.1,0.1-0.2c0.1-0.2,0.1-0.3,0.2-0.5
		c0,0,0.1-0.1,0.1-0.2c0.1-0.2,0.2-0.3,0.3-0.5c0,0,0-0.1,0.1-0.1c0.1-0.2,0.2-0.3,0.4-0.5c0,0,0,0,0,0c0.1-0.2,0.3-0.3,0.4-0.5
		c1.5-1.6,3.6-2.6,6.1-2.6c4.5,0,8.1,3.4,8.1,7.6V263.5z"/>
	<path d="M-255.1,275.3v-75.6c0-2,1.6-3.6,3.5-3.6l41,0c1.9,0,3.4,1.6,3.4,3.6v42.9c1.5-1.1,3.2-2,5-2.7v-40.2
		c0-4.8-3.8-8.7-8.5-8.7l-41,0c-4.7,0-8.6,3.9-8.6,8.7v75.6c0,4.8,3.8,8.7,8.5,8.7h32.5v-5.1h-32.5
		C-253.6,278.9-255.1,277.3-255.1,275.3"/>
	<path d="M-214.4,256.8c0-3.1,0.8-6.1,2.3-8.6v-43.3c0-2-1.6-3.6-3.5-3.6l-31.1,0c-1.9,0-3.5,1.6-3.5,3.6v57.6c0,2,1.6,3.6,3.5,3.6
		h27.5v-0.2c0-3.1,2-5.8,4.8-6.8V256.8z"/>
</g>
</svg>
