<?xml version="1.0" encoding="utf-8"?>
<!-- Generator: Adobe Illustrator 19.1.0, SVG Export Plug-In . SVG Version: 6.00 Build 0)  -->
<svg version="1.1" id="Layer_1" xmlns="http://www.w3.org/2000/svg" xmlns:xlink="http://www.w3.org/1999/xlink" x="0px" y="0px"
	 viewBox="-269 191 100 100" style="enable-background:new -269 191 100 100;" xml:space="preserve">
<g>
	<path d="M-242.3,274.1c0.1,0,0.2,0,0.3,0h-0.6C-242.5,274-242.4,274.1-242.3,274.1"/>
	<path d="M-242,274c0.1,0,0.2,0,0.3,0L-242,274C-241.9,274-241.9,274-242,274"/>
	<path d="M-238.4,271.7l-0.3,0.4C-238.5,272-238.4,271.9-238.4,271.7"/>
	<polygon points="-242,274 -242,274 -242,274 	"/>
	<path d="M-183,269.6l-5.2,5l-65.9-39.4c-1.2-0.7-2.7-0.3-3.4,0.9l-1.8,3c-0.7,1.2-0.3,2.7,0.9,3.4l19.1,11.9l-4.2,7.3l-1.4,2.4
		h-12.2v-9.4c0-2.7-1.6-4.5-4.3-4.5h-7.6V287h7.6c2.7,0,4.3-2.7,4.3-5.5V274h14.5h0.6c0,0,0,0,0,0c0,0,0,0,0,0h0.3
		c1.3-0.2,2.4-0.9,3.1-1.8l0.3-0.4l0.6-1.1l7-11.6l39.9,23.8c1.2,0.7,2.7,0.3,3.4-0.9l5.4-8.9C-181.4,271.8-181.8,270.3-183,269.6"
		/>
	<path d="M-256.8,230.1l68,40.7l19.1-17.3c-0.3-0.3-0.6-0.5-0.9-0.7l-73.5-43.9c-2.4-1.4-5.4-0.6-6.8,1.7l-7.7,12.8
		C-259.9,225.6-259.1,228.6-256.8,230.1"/>
	<path d="M-170.2,262.8l-1.7-1l-10,16.6l1.7,1c1.2,0.7,2.7,0.3,3.4-0.9l7.4-12.4C-168.6,265-169,263.5-170.2,262.8"/>
	<path d="M-202.2,200.2c15.5,0,28.1,12.6,28.1,28.1c0,1.4,1.1,2.6,2.5,2.6c1.4,0,2.6-1.1,2.6-2.6c0-18.3-14.9-33.2-33.2-33.2
		c-1.4,0-2.6,1.1-2.6,2.5C-204.8,199-203.6,200.2-202.2,200.2"/>
	<path d="M-202.2,210.4c9.9,0,17.9,8,17.9,17.9c0,1.4,1.1,2.5,2.6,2.5c1.4,0,2.6-1.1,2.6-2.5c0-12.7-10.3-23-23-23
		c-1.4,0-2.6,1.1-2.6,2.6C-204.8,209.2-203.6,210.4-202.2,210.4"/>
	<path d="M-202.2,220.6c4.2,0,7.7,3.4,7.7,7.7c0,1.4,1.1,2.6,2.6,2.6c1.4,0,2.5-1.1,2.5-2.6c0-7-5.7-12.8-12.8-12.8
		c-1.4,0-2.6,1.1-2.6,2.6C-204.8,219.4-203.6,220.6-202.2,220.6"/>
</g>
</svg>
