<?xml version="1.0" encoding="utf-8"?>
<!-- Generator: Adobe Illustrator 19.1.0, SVG Export Plug-In . SVG Version: 6.00 Build 0)  -->
<svg version="1.1" id="Layer_1" xmlns="http://www.w3.org/2000/svg" xmlns:xlink="http://www.w3.org/1999/xlink" x="0px" y="0px"
	 viewBox="-269 191 100 100" style="enable-background:new -269 191 100 100;" xml:space="preserve">
<g>
	<path d="M-219,234.2c11.6,0,21.1-9.7,21.1-21.6c0-11.9-9.4-21.6-21.1-21.6c-11.6,0-21.1,9.7-21.1,21.6
		C-240.1,224.5-230.6,234.2-219,234.2"/>
	<path d="M-194.3,235.2l-7.2-1.9c-4.7,4.1-10.8,6.6-17.4,6.7c-6.7,0-12.7-2.5-17.4-6.7l-7.2,1.9c-7.7,2.2-10.2,5.4-9.6,9.6l5.8,36.6
		c0.9,5.7,4.3,9.6,9.6,9.6h18.9h0h18.9c5.3,0,8.8-3.8,9.6-9.6l5.8-36.6C-184.1,240.6-186.6,237.4-194.3,235.2 M-232.6,283.9
		c-0.5,0.5-1.1,0.7-1.7,0.7c-0.6,0-1.3-0.2-1.7-0.7c-5-5-7.7-11.6-7.7-18.6c0-7,2.7-13.7,7.7-18.6c1-1,2.5-1,3.5,0c1,1,1,2.5,0,3.5
		c-4,4-6.3,9.4-6.3,15.1c0,5.7,2.2,11.1,6.3,15.1C-231.6,281.3-231.6,282.9-232.6,283.9 M-225.1,271.4c1,1,1,2.7,0,3.8
		c-0.5,0.5-1.2,0.8-1.9,0.8c-0.7,0-1.4-0.3-1.9-0.8c-2.6-2.6-4.1-6.1-4.1-9.9c0-3.7,1.5-7.2,4.1-9.9c1-1,2.7-1,3.8,0
		c1,1,1,2.7,0,3.8c-1.6,1.6-2.5,3.8-2.5,6.1C-227.6,267.6-226.7,269.7-225.1,271.4 M-217.1,269c-2.1,1.1-4.6,0.3-5.7-1.8
		c-1.1-2.1-0.2-4.6,1.8-5.7c2.1-1.1,4.6-0.3,5.7,1.8C-214.2,265.4-215,267.9-217.1,269 M-211,275.9c-0.7,0-1.4-0.3-1.9-0.8
		c-1-1-1-2.7,0-3.8c1.6-1.6,2.5-3.8,2.5-6.1c0-2.3-0.9-4.5-2.5-6.1c-1-1-1-2.7,0-3.8c1-1,2.7-1,3.8,0c2.6,2.6,4.1,6.1,4.1,9.9
		c0,3.7-1.4,7.2-4.1,9.9C-209.7,275.6-210.3,275.9-211,275.9 M-201.9,283.9c-0.5,0.5-1.1,0.7-1.7,0.7c-0.6,0-1.3-0.2-1.7-0.7
		c-1-1-1-2.5,0-3.5c4-4,6.3-9.4,6.3-15.1c0-5.7-2.2-11.1-6.3-15.1c-1-1-1-2.5,0-3.5c1-1,2.5-1,3.5,0c5,5,7.7,11.6,7.7,18.6
		C-194.2,272.3-196.9,278.9-201.9,283.9"/>
</g>
</svg>
