<?xml version="1.0" encoding="utf-8"?>
<!-- Generator: Adobe Illustrator 19.1.0, SVG Export Plug-In . SVG Version: 6.00 Build 0)  -->
<svg version="1.1" id="Layer_1" xmlns="http://www.w3.org/2000/svg" xmlns:xlink="http://www.w3.org/1999/xlink" x="0px" y="0px"
	 viewBox="-269 191 100 100" style="enable-background:new -269 191 100 100;" xml:space="preserve">
<g>
	<path d="M-185.3,233h-4.9v-14.3c0-15.2-12.9-27.6-28.7-27.6c-15.8,0-28.7,12.4-28.7,27.6V233h-5.2c-2.8,0-5,2.2-5,5v48
		c0,2.8,2.3,5,5,5h67.5c2.8,0,5-2.3,5-5v-48C-180.3,235.2-182.5,233-185.3,233 M-215.7,277v2.9c0,1.4-1.1,2.6-2.6,2.6
		c-1.4,0-2.6-1.2-2.6-2.6v-2.7h-3.4c-1.4,0-2.6-1.1-2.6-2.6c0-1.4,1.2-2.6,2.6-2.6h6.2c4.5,0,5.7-0.6,5.7-3.1s-1.4-3.1-4.9-3.6
		c-7.2-0.9-9.9-3.1-9.9-8.4c0-3.5,2.2-8.6,9.4-9v-2.8c0-1.4,1.1-2.6,2.6-2.6c1.4,0,2.6,1.2,2.6,2.6v3.1h2.2c1.4,0,2.6,1.1,2.6,2.6
		c0,1.4-1.2,2.6-2.6,2.6l-6.3,0.1c-4.1,0-4.8,1.4-4.8,3.4c0,2.4,1.9,2.7,5.3,3.1c6.3,0.8,9.6,2.8,9.6,8.7
		C-206.6,273.1-208.5,276.4-215.7,277 M-201.7,233h-34.2v-14.3c0-8.9,7.7-16.1,17.1-16.1c9.4,0,17.1,7.2,17.1,16.1V233z"/>
</g>
</svg>
