<?xml version="1.0" encoding="utf-8"?>
<!-- Generator: Adobe Illustrator 19.1.0, SVG Export Plug-In . SVG Version: 6.00 Build 0)  -->
<svg version="1.1" id="Layer_1" xmlns="http://www.w3.org/2000/svg" xmlns:xlink="http://www.w3.org/1999/xlink" x="0px" y="0px"
	 viewBox="-269 191 100 100" style="enable-background:new -269 191 100 100;" xml:space="preserve">
<g>
	<path d="M-219.3,265.3c-1.2,0-2.4-0.4-3.3-1.2l-18.5-15.7c-2.1-1.8-2.4-5-0.6-7.1c1.8-2.1,5-2.4,7.2-0.6l13.6,11.5l16.2-32.7
		c1.3-2.5,4.3-3.5,6.8-2.3c2.5,1.2,3.5,4.3,2.3,6.8l-19.1,38.5c-0.7,1.4-2,2.4-3.5,2.7C-218.6,265.3-219,265.3-219.3,265.3"/>
	<path d="M-219,291c-27.6,0-50-22.4-50-50c0-27.6,22.4-50,50-50c27.6,0,50,22.4,50,50C-169,268.6-191.4,291-219,291 M-219,201.1
		c-22,0-39.9,17.9-39.9,39.9c0,22,17.9,39.9,39.9,39.9c22,0,39.9-17.9,39.9-39.9C-179.1,219-197,201.1-219,201.1"/>
</g>
</svg>
