<?xml version="1.0" encoding="utf-8"?>
<!-- Generator: Adobe Illustrator 19.1.0, SVG Export Plug-In . SVG Version: 6.00 Build 0)  -->
<svg version="1.1" id="Layer_1" xmlns="http://www.w3.org/2000/svg" xmlns:xlink="http://www.w3.org/1999/xlink" x="0px" y="0px"
	 viewBox="-269 191 100 100" style="enable-background:new -269 191 100 100;" xml:space="preserve">
<g>
	<path d="M-213.3,287.5h-10.8c-1,0-1.8,0.8-1.8,1.8c0,1,0.8,1.7,1.8,1.7h10.8c1,0,1.8-0.8,1.8-1.7
		C-211.6,288.3-212.4,287.5-213.3,287.5"/>
	<path d="M-210,271.5h-18c-1.7,0-3,1.3-3,3c0,1.7,1.3,3,3,3h18c1.7,0,3-1.3,3-3C-207,272.8-208.3,271.5-210,271.5"/>
	<path d="M-212,279.5h-14c-1.7,0-3,1.3-3,3c0,1.7,1.3,3,3,3h14c1.7,0,3-1.3,3-3C-209,280.8-210.3,279.5-212,279.5"/>
	<path d="M-199,219.5c-9.5,0-17.3,6.9-18.7,16h-2.5c-0.7-4.5-3-8.4-6.3-11.3l28.6-7.8c2.1-0.6,3.4-2.8,2.8-4.9
		c-0.6-2.1-2.8-3.4-4.9-2.8l-40,11c-1.9,0.5-3.2,2.4-2.9,4.4c0.3,2,2,3.5,4,3.5c5,0,9.3,3.4,10.6,8c-1.5,0.2-2.6,1.4-2.6,3h-5
		c-1.7,0-3,1.3-3,3c0,0,0,0.1,0,0.1h0v14.9c0,4,8,9,8,11.5c0,0.8,0.7,1.5,1.5,1.5h21c0.8,0,1.5-0.7,1.5-1.5c0-2.5,8-7.5,8-11.5
		v-14.9h0c0,0,0-0.1,0-0.1c0-1.7-1.3-3-3-3h-5c0-1.5-1.1-2.7-2.6-3c1.3-4.6,5.5-8,10.6-8c2.2,0,4-1.8,4-4
		C-195,221.3-196.8,219.5-199,219.5"/>
	<path d="M-242.9,213.6c0.5,1.8,2.1,2.9,3.9,2.9c0.4,0,0.7,0,1.1-0.1l40-11c2.1-0.6,3.4-2.8,2.8-4.9c-0.6-2.1-2.8-3.4-4.9-2.8
		l-40,11C-242.2,209.2-243.4,211.4-242.9,213.6"/>
	<path d="M-239,205.5c0.3,0,0.7,0,1-0.1l25-6.5c2.1-0.6,3.4-2.7,2.9-4.9c-0.6-2.1-2.7-3.4-4.9-2.9l-25,6.5c-2.1,0.6-3.4,2.7-2.9,4.9
		C-242.4,204.3-240.8,205.5-239,205.5"/>
</g>
</svg>
