<?xml version="1.0" encoding="utf-8"?>
<!-- Generator: Adobe Illustrator 19.1.0, SVG Export Plug-In . SVG Version: 6.00 Build 0)  -->
<svg version="1.1" id="Layer_1" xmlns="http://www.w3.org/2000/svg" xmlns:xlink="http://www.w3.org/1999/xlink" x="0px" y="0px"
	 viewBox="-269 191 100 100" style="enable-background:new -269 191 100 100;" xml:space="preserve">
<g>
	<path d="M-219,238.3c4.7,0,8.5-3.9,8.5-8.7c0-4.8-3.8-8.7-8.5-8.7c-4.7,0-8.5,3.9-8.5,8.7C-227.5,234.3-223.7,238.3-219,238.3"/>
	<path d="M-209.1,238.7l-2.9-0.8c-1.9,1.7-4.3,2.7-7,2.7c-2.7,0-5.1-1-7-2.7l-2.9,0.8c-3.1,0.9-4.1,2.2-3.9,3.9l2.3,14.8
		c0.3,2.3,1.7,3.9,3.9,3.9h7.6h0h7.6c2.1,0,3.5-1.6,3.9-3.9l2.3-14.8C-204.9,240.8-205.9,239.5-209.1,238.7"/>
	<path d="M-176.4,197.2l-5.4,5.4l-1.1,1.1l-1.5,1.5l-1.5-1.4c-9.2-8.3-21.1-12.8-33.4-12.8c-23.7,0-44.2,16.8-49,39.9
		c-0.3,1.4,0,2.9,0.8,4.1c0.8,1.2,2,2.1,3.5,2.3c0.4,0.1,0.7,0.1,1.1,0.1c2.6,0,4.8-1.8,5.4-4.4c3.7-18.1,19.8-31.2,38.2-31.2
		c9.3,0,18.3,3.3,25.4,9.4l1.8,1.5l-1.7,1.7l-5.9,5.9l27.2,6.1L-176.4,197.2z"/>
	<path d="M-170.8,241.6c-0.9-1.1-2.3-1.8-3.7-2c-0.2,0-0.3,0-0.5,0c-2.8,0-5.2,2.1-5.5,5c-1.9,20.2-18.6,35.4-38.9,35.4
		c-9.8,0-19.1-3.6-26.3-10.2l-1.7-1.5l1.6-1.6l6.8-6.8l-27.2-6.1l3.9,29.4l5.4-5.4l0.2-0.2l1.5-1.5l1.5,1.4
		c9.3,8.7,21.4,13.5,34.2,13.5c26,0,47.4-19.5,49.8-45.3C-169.4,244.2-169.9,242.8-170.8,241.6"/>
</g>
</svg>
