<?xml version="1.0" encoding="utf-8"?>
<!-- Generator: Adobe Illustrator 19.1.0, SVG Export Plug-In . SVG Version: 6.00 Build 0)  -->
<svg version="1.1" id="Layer_1" xmlns="http://www.w3.org/2000/svg" xmlns:xlink="http://www.w3.org/1999/xlink" x="0px" y="0px"
	 viewBox="-269 191 100 100" style="enable-background:new -269 191 100 100;" xml:space="preserve">
<g>
	<path d="M-189.9,260.4c-5.3,0-9.6,4.3-9.6,9.6c0,0,0,0.1,0,0.1c0,5.3,4.3,9.6,9.6,9.6c5.3,0,9.6-4.3,9.6-9.6c0,0,0-0.1,0-0.1
		C-180.2,264.7-184.6,260.4-189.9,260.4"/>
	<path d="M-248.1,260.4c-5.3,0-9.6,4.3-9.6,9.6c0,0,0,0.1,0,0.1c0,5.3,4.3,9.6,9.6,9.6c5.3,0,9.6-4.3,9.6-9.6c0,0,0-0.1,0-0.1
		C-238.4,264.7-242.8,260.4-248.1,260.4"/>
	<path d="M-170.8,264.4v-15.2c0,0-7-24.4-7.4-24.9c-1-1.4-2.4-2.6-3.8-2.6l9.3,0c2.6,0,4.2-2.1,3.4-4.6l-3-10.2
		c-0.8-2.5-3.5-4.6-6.2-4.6h-84.1c-2.7,0-4.8,2.2-4.8,4.8v57.3c-1,0.5-1.7,1.5-1.7,2.6c0,1.6,1.3,2.9,2.9,2.9h5.5
		c0.1-6.9,5.6-12.4,12.5-12.4c6.9,0,12.5,5.6,12.5,12.4h33.1c0-6.9,5.6-12.4,12.5-12.4c6.9,0,12.5,5.6,12.5,12.4h5.3h0.2
		c1.6,0,2.9-1.3,2.9-2.9C-169,265.8-169.7,264.8-170.8,264.4 M-197.5,243.6v-17h14.5l5.2,17H-197.5z"/>
</g>
</svg>
