<?xml version="1.0" encoding="utf-8"?>
<!-- Generator: Adobe Illustrator 19.1.0, SVG Export Plug-In . SVG Version: 6.00 Build 0)  -->
<svg version="1.1" id="Layer_1" xmlns="http://www.w3.org/2000/svg" xmlns:xlink="http://www.w3.org/1999/xlink" x="0px" y="0px"
	 viewBox="-269 191 100 100" style="enable-background:new -269 191 100 100;" xml:space="preserve">
<g>
	<path d="M-200.8,197l25.8,25.8v36.5l-25.8,25.8h-36.5l-25.8-25.8v-36.5l25.8-25.8H-200.8z M-198.3,191h-41.4l-29.3,29.3v41.4
		l29.3,29.3h41.4l29.3-29.3v-41.4L-198.3,191z"/>
	<g>
		<path d="M-203.3,203.1h-31.4l-22.2,22.2v31.4l22.2,22.2h31.4l22.2-22.2v-31.4L-203.3,203.1z M-189.7,251.2l-15.4,15.2l0,0
			c-1.8,1.8-4.3,2.9-7,2.9h-14.2c-5.5,0-10-4.5-10-10v-9v-1.8v-7v-3v-15.4c0-2,1.6-3.6,3.6-3.6c2,0,3.6,1.6,3.6,3.6v15.4
			c0,0.5,0.4,0.9,0.9,0.9c0.5,0,0.9-0.4,0.9-0.9v-18.4c0-2,1.6-3.6,3.6-3.6c2,0,3.6,1.6,3.6,3.6v15.4c0,0.5,0.4,0.9,0.9,0.9
			c0.5,0,0.9-0.4,0.9-0.9v-18.4c0-2,1.6-3.6,3.6-3.6c2,0,3.6,1.6,3.6,3.6v18.4l0,0c0,0.5,0.4,0.9,0.9,0.9c0.5,0,0.9-0.4,0.9-0.9
			v-15.4c0-2,1.6-3.6,3.6-3.6c2,0,3.6,1.6,3.6,3.6v15.4v3v10v1.8v3.1l7.3-7.3c1.4-1.4,3.7-1.4,5.1,0
			C-188.2,247.5-188.3,249.8-189.7,251.2"/>
	</g>
</g>
</svg>
