<?xml version="1.0" encoding="utf-8"?>
<!-- Generator: Adobe Illustrator 19.1.0, SVG Export Plug-In . SVG Version: 6.00 Build 0)  -->
<svg version="1.1" id="Layer_1" xmlns="http://www.w3.org/2000/svg" xmlns:xlink="http://www.w3.org/1999/xlink" x="0px" y="0px"
	 viewBox="-269 191 100 100" style="enable-background:new -269 191 100 100;" xml:space="preserve">
<g>
	<path d="M-189.9,258c-5.3,0-9.6,4.3-9.6,9.6c0,0,0,0.1,0,0.1c0,5.3,4.3,9.6,9.6,9.6c5.3,0,9.6-4.3,9.6-9.6c0,0,0-0.1,0-0.1
		C-180.2,262.3-184.6,258-189.9,258"/>
	<path d="M-248.1,258c-5.3,0-9.6,4.3-9.6,9.6c0,0,0,0.1,0,0.1c0,5.3,4.3,9.6,9.6,9.6c5.3,0,9.6-4.3,9.6-9.6c0,0,0-0.1,0-0.1
		C-238.4,262.3-242.7,258-248.1,258"/>
	<path d="M-170.8,262v-14.1v-1.1l-1.6-5.7l-0.6-2.3l-3.7-13.3l-0.2-0.6l-0.2-0.6c-0.1-0.3-0.2-0.5-0.3-0.8c-0.2-0.5-0.5-1-0.8-1.5
		c-1-1.4-2.4-2.6-3.8-2.6h-0.7h-1.4h-1.5h-16.3v-9.8c0-2.7-2.2-4.8-4.8-4.8h-19.5h-20.6h-1.4h-1.4h-12.9c-2.7,0-4.8,2.2-4.8,4.8V262
		c-1,0.5-1.7,1.5-1.7,2.6c0,1.6,1.3,2.9,2.9,2.9h3.6h1.9c0.1-6.9,5.7-12.4,12.5-12.4c6.9,0,12.5,5.6,12.5,12.4h28.6h4.5
		c0.1-6.9,5.7-12.4,12.5-12.4c6.9,0,12.5,5.6,12.5,12.4h5.3h0.2c1.6,0,2.9-1.3,2.9-2.9C-169,263.4-169.7,262.4-170.8,262
		 M-223,224.4L-223,224.4l-12,12l-3.3,3.3l-3.3-3.3l-5.5-5.5c-0.9-0.9-0.9-2.4,0-3.3c0.9-0.9,2.4-0.9,3.3,0c0,0,0,0,0,0l5.4,5.4
		l12-12c0.9-0.9,2.4-0.9,3.3,0C-222.1,222-222.1,223.5-223,224.4 M-183.1,241.1h-2.3h-2h-10.1v-12.9v-4.1h12h2.5l0.2,0.6l1.1,3.5
		l2.7,8.7l0.4,1.5l0.4,1.5l0.4,1.2H-183.1z"/>
</g>
</svg>
