<?xml version="1.0" encoding="utf-8"?>
<!-- Generator: Adobe Illustrator 19.1.0, SVG Export Plug-In . SVG Version: 6.00 Build 0)  -->
<svg version="1.1" id="Layer_1" xmlns="http://www.w3.org/2000/svg" xmlns:xlink="http://www.w3.org/1999/xlink" x="0px" y="0px"
	 viewBox="-269 191 100 100" style="enable-background:new -269 191 100 100;" xml:space="preserve">
<g>
	<path d="M-265.1,251.1c0,0-0.4-1.8,4.6-5.3c0.5-0.3,1.2-1.2,1.2-1.9c0-0.9-1.6-1.9-1.6-1.9l-8-5.6l4-3.8c0,0,1-0.5,1.8-0.3
		c0.6,0.2,2.9,0.7,3.9,1.1c3.3,1.1,8.3,3.1,11.4,4.3c0.8,0.3,1.8,0.9,2.4,0.8c0.6-0.1,2.3-1,2.6-1.2c2.4-1.2,10-5,13.4-6.5
		c2.8-1.2,1.1-2.8,1.1-2.8s-34.6-27.4-35.4-29.2c-0.8-1.6,1-2.3,1-2.3l4.6-2l56.7,22.4c0,0,17.9-7.8,20.1-8.6c2.2-0.7,9.9-2.9,12,2
		c2.1,4.9-4.8,9-6.9,10c-2,1.1-20.1,8.5-20.1,8.5l-23.3,56.3l-4.6,2c0,0-1.8,0.8-2.4-0.9c-0.7-1.8,3.6-45.7,3.6-45.7s0-2.3-2.8-1.1
		c-3.4,1.4-11.4,4.2-13.9,5.1c-0.4,0.1-2.1,0.7-2.7,1c-0.5,0.4-0.8,1.4-1.1,2.2c-1.3,3.1-3.3,8.1-4.8,11.2c-0.4,0.9-1.6,3-1.9,3.5
		c-0.4,0.7-1.5,1.1-1.5,1.1l-5.5,0.3l1.6-9.6c0,0,0.4-1.9-0.2-2.5c-0.5-0.5-1.6-0.6-2.2-0.5C-264,252.6-265.1,251.1-265.1,251.1"/>
</g>
</svg>
