<?xml version="1.0" encoding="utf-8"?>
<!-- Generator: Adobe Illustrator 19.1.0, SVG Export Plug-In . SVG Version: 6.00 Build 0)  -->
<svg version="1.1" id="Layer_1" xmlns="http://www.w3.org/2000/svg" xmlns:xlink="http://www.w3.org/1999/xlink" x="0px" y="0px"
	 viewBox="-269 191 100 100" style="enable-background:new -269 191 100 100;" xml:space="preserve">
<g>
	<path d="M-176.4,270.1c-9.9,9.9-26,9.9-35.9,0l-35.9-35.9c-2.5-2.5-2.5-6.5,0-9c2.5-2.5,6.5-2.5,9,0l35.9,35.9
		c4.9,4.9,13,4.9,17.9,0c4.9-4.9,4.9-13,0-17.9l-23.3-23.3c-2.5-2.5-2.5-6.5,0-9c2.5-2.5,6.5-2.5,9,0l23.3,23.3
		C-166.5,244.2-166.5,260.2-176.4,270.1"/>
	<path d="M-189.9,256.7c-2.5,2.5-6.5,2.5-9,0l-35.9-35.9c-5-4.9-13-4.9-17.9,0c-4.9,4.9-4.9,13,0,17.9l23.3,23.3
		c2.5,2.5,2.5,6.5,0,9c-2.5,2.5-6.5,2.5-9,0l-23.3-23.3c-9.9-9.9-9.9-26,0-35.9c9.9-9.9,26-9.9,35.9,0l35.9,35.9
		C-187.4,250.2-187.4,254.2-189.9,256.7"/>
</g>
</svg>
