<?xml version="1.0" encoding="utf-8"?>
<!-- Generator: Adobe Illustrator 19.1.0, SVG Export Plug-In . SVG Version: 6.00 Build 0)  -->
<svg version="1.1" id="Layer_1" xmlns="http://www.w3.org/2000/svg" xmlns:xlink="http://www.w3.org/1999/xlink" x="0px" y="0px"
	 viewBox="-269 191 100 100" style="enable-background:new -269 191 100 100;" xml:space="preserve">
<g>
	<path d="M-212.9,233.2h-49.9c-3.4,0-6.2,2.8-6.2,6.2v28.1c0,3.4,2.8,6.2,6.2,6.2h3.7v9.1l25.1-9.1h21.2c3.4,0,6.2-2.8,6.2-6.2
		v-28.1C-206.6,236-209.4,233.2-212.9,233.2 M-235.4,260.5h-20.9c-1.3,0-2.4-1.1-2.4-2.4c0-1.3,1.1-2.4,2.4-2.4h20.9
		c1.3,0,2.4,1.1,2.4,2.4C-233,259.4-234.1,260.5-235.4,260.5 M-219.8,250.3h-36.5c-1.3,0-2.4-1.1-2.4-2.4c0-1.3,1.1-2.4,2.4-2.4
		h36.5c1.3,0,2.4,1.1,2.4,2.4C-217.4,249.3-218.5,250.3-219.8,250.3"/>
	<path d="M-169,225c0-14.2-14.8-25.8-33.1-25.8c-18.3,0-33.1,11.6-33.1,25.8c0,0.6,0,1.2,0.1,1.8h22.2c7,0,12.7,5.7,12.7,12.7v13.8
		l15.5,4.8v-11.1l0,0C-175.3,242.4-169,234.3-169,225"/>
</g>
</svg>
