<?xml version="1.0" encoding="utf-8"?>
<!-- Generator: Adobe Illustrator 19.1.0, SVG Export Plug-In . SVG Version: 6.00 Build 0)  -->
<svg version="1.1" id="Layer_1" xmlns="http://www.w3.org/2000/svg" xmlns:xlink="http://www.w3.org/1999/xlink" x="0px" y="0px"
	 viewBox="-269 191 100 100" style="enable-background:new -269 191 100 100;" xml:space="preserve">
<g>
	<path d="M-186.4,235.4v29.5c0,1.9-1.6,3.5-3.5,3.5h-71.4c-1.9,0-3.5-1.6-3.5-3.5V224c0-1.9,1.6-3.5,3.5-3.5h59.5v-3.9H-266
		c-1.7,0-3,1.4-3,3.1v50.7c0,1.7,1.3,3.1,3,3.1h22.7h12.8v2.1h-18.4c-1,0-1.8,0.8-1.8,1.8c0,1,0.8,1.8,1.8,1.8h47.2
		c1,0,1.8-0.8,1.8-1.8c0-1-0.8-1.8-1.8-1.8h-18.9v-2.1h12.9h22.7c1.7,0,3-1.4,3-3.1v-35H-186.4z"/>
	<path d="M-196.3,235.4c-3,0-5.4-2.4-5.4-5.3v-5.8h-59.4v40.5h71.1v-29.3H-196.3z"/>
	<path d="M-173.7,202.7h-20.6c-2.6,0-4.7,2.1-4.7,4.7V228c0,2.6,2.1,4.7,4.7,4.7h20.6c2.6,0,4.7-2.1,4.7-4.7v-20.6
		C-169,204.8-171.1,202.7-173.7,202.7 M-176.3,218.5h-2.8v6.1c0,1.3-1.1,2.5-2.5,2.5h-5c-1.4,0-2.5-1.1-2.5-2.5v-6.1h-2.8
		c-1.4,0-1.7-0.8-0.8-1.8l6.9-7.6c0.9-1,2.4-1,3.3,0l6.9,7.6C-174.5,217.7-174.9,218.5-176.3,218.5"/>
</g>
</svg>
