<?xml version="1.0" encoding="utf-8"?>
<!-- Generator: Adobe Illustrator 19.1.0, SVG Export Plug-In . SVG Version: 6.00 Build 0)  -->
<svg version="1.1" id="Layer_1" xmlns="http://www.w3.org/2000/svg" xmlns:xlink="http://www.w3.org/1999/xlink" x="0px" y="0px"
	 viewBox="-269 191 100 100" style="enable-background:new -269 191 100 100;" xml:space="preserve">
<g>
	<path d="M-205,238.5l-10.7-11.8c-1.9-2.1-4.9-2.1-6.8,0l-10.7,11.8c-1.9,2.1-1.1,3.7,1.7,3.7h4c0,0.2-0.1,0.5-0.1,0.8v10.1
		c0,2.8,2.3,5.1,5.1,5.1h6.9c2.8,0,5.1-2.3,5.1-5.1V243c0-0.3,0-0.5-0.1-0.8h4C-203.8,242.2-203.1,240.5-205,238.5"/>
	<path d="M-219,191c-27.6,0-50,22.4-50,50c0,27.6,22.4,50,50,50s50-22.4,50-50C-169,213.4-191.4,191-219,191 M-183.6,214.8
		c5.2,7.1,8.4,15.7,8.7,25.1h-11.2c-0.5-2.5-2.5-4.4-5-4.8c-0.6-7.4-2.3-14.4-4.8-20.3H-183.6z M-185.4,212.5h-11.5
		c-2.8-6-6.5-10.9-10.8-14.1C-198.8,200.8-191.1,205.8-185.4,212.5 M-217.9,196.9c1.2,0,2.4,0.1,3.6,0.2c6,2.2,11.2,7.8,15,15.4
		h-18.6V196.9z M-220.1,196.9v15.6h-14.7c-0.2-1.4-0.9-2.7-2-3.6c3.5-5.7,8-9.9,13-11.7C-222.6,197-221.3,197-220.1,196.9
		 M-230.4,198.4c-3.1,2.4-5.9,5.6-8.2,9.4c-0.6-0.2-1.4-0.4-2.1-0.4c-3,0-5.5,2.2-5.9,5.1h-6C-246.9,205.8-239.2,200.8-230.4,198.4
		 M-254.4,214.8h7.9c0.4,1.7,1.5,3.1,2.9,3.9c-2.1,6.4-3.4,13.6-3.5,21.2h-15.9C-262.8,230.5-259.6,221.8-254.4,214.8 M-263.1,242.1
		h15.9c0.2,10.8,2.6,20.7,6.6,28.6h-11C-258.5,263.1-262.8,253.1-263.1,242.1 M-249.4,272.9h10c2.5,4.4,5.6,8.1,9,10.7
		C-237.6,281.7-244.1,277.9-249.4,272.9 M-220.1,285.1c-1.2,0-2.4-0.1-3.7-0.2c-5.1-1.9-9.6-6.1-13.1-11.9h11.8
		c0.5,2.5,2.4,4.4,4.9,4.8V285.1z M-220.1,265.9c-2.5,0.4-4.5,2.3-4.9,4.8h-13.1c-4.1-7.7-6.6-17.7-6.8-28.6h9.7
		c-0.7-0.5-0.9-1.3-0.5-2.2h-9.2c0.1-7.4,1.3-14.4,3.4-20.6c0.3,0,0.6,0.1,0.8,0.1c2.9,0,5.2-2,5.8-4.6h14.8v8.9
		c0.7-0.2,1.5-0.2,2.2,0v-8.9h19.7c2.6,5.9,4.3,12.9,4.9,20.4c-2.3,0.5-4.1,2.4-4.5,4.7h-4.4c0.4,0.9,0.2,1.7-0.5,2.2h4.9
		c0.4,2.3,2.2,4.2,4.5,4.7c-0.7,9.1-3.1,17.3-6.6,23.9h-13.4c-0.4-2.4-2.3-4.2-4.6-4.7v-5.4h-2.2V265.9z M-217.9,285.1v-7.4
		c2.3-0.5,4.2-2.4,4.6-4.7h12.1c-3.5,5.8-8.1,10.1-13.1,11.9C-215.5,285-216.7,285-217.9,285.1 M-207.6,283.6
		c3.4-2.6,6.5-6.3,9-10.7h10C-193.9,277.9-200.4,281.7-207.6,283.6 M-186.4,270.7h-11c3.4-6.7,5.6-14.9,6.3-23.8
		c2.5-0.4,4.6-2.3,5-4.8h11.2C-175.2,253.1-179.5,263.1-186.4,270.7"/>
</g>
</svg>
