<?xml version="1.0" encoding="utf-8"?>
<!-- Generator: Adobe Illustrator 19.1.0, SVG Export Plug-In . SVG Version: 6.00 Build 0)  -->
<svg version="1.1" id="Layer_1" xmlns="http://www.w3.org/2000/svg" xmlns:xlink="http://www.w3.org/1999/xlink" x="0px" y="0px"
	 viewBox="-269 191 100 100" style="enable-background:new -269 191 100 100;" xml:space="preserve">
<g>
	<path d="M-180.1,237.7c1.8,0,3.3,1.5,3.3,3.3s-1.5,3.3-3.3,3.3c-1.8,0-3.3-1.5-3.3-3.3S-182,237.7-180.1,237.7"/>
	<path d="M-269,212.6v56.7l0,0c0,3.8,3.1,6.8,6.8,6.8h0h86.3c3.8,0,6.8-3.1,6.8-6.8v-56.7c0-3.8-3.1-6.8-6.8-6.8h0h-86.3
		C-265.9,205.8-269,208.9-269,212.6 M-175.8,211.3c0.8,0,1.4,0.6,1.4,1.4v56.7c0,0.8-0.6,1.4-1.4,1.4h-86.3c-0.8,0-1.4-0.6-1.4-1.4
		v-56.7c0-0.8,0.6-1.4,1.4-1.4H-175.8z"/>
	<path d="M-188,263.9v-45.8c0-0.1,0-0.1,0-0.2c0,0,0,0,0-0.1c0-0.1-0.1-0.2-0.1-0.4c-0.2-0.4-0.7-0.7-1.2-0.7h0h-67.2
		c-0.8,0-1.4,0.6-1.4,1.4v45.8c0,0.1,0,0.1,0,0.2c0,0,0,0,0,0.1c0,0.1,0.1,0.3,0.1,0.4c0.2,0.4,0.7,0.7,1.2,0.7h0h67.2
		C-188.6,265.3-188,264.7-188,263.9 M-209,247.4c-6.4,6.7-12.1,8.6-13.9,9.2c-1.8-0.7-7.5-2.6-13.9-9.2c-9.9-10.3-3.7-22.3,4.8-23.2
		c6.1-0.7,9.1,3.5,9.1,3.5c0,0,3-4.2,9.1-3.5C-205.3,225.1-199.1,237.1-209,247.4"/>
</g>
</svg>
