<?xml version="1.0" encoding="utf-8"?>
<!-- Generator: Adobe Illustrator 19.1.0, SVG Export Plug-In . SVG Version: 6.00 Build 0)  -->
<svg version="1.1" id="Layer_1" xmlns="http://www.w3.org/2000/svg" xmlns:xlink="http://www.w3.org/1999/xlink" x="0px" y="0px"
	 viewBox="-269 191 100 100" style="enable-background:new -269 191 100 100;" xml:space="preserve">
<g>
	<path d="M-190.9,219.1c-12.1,0-21.9,9.8-21.9,21.9c0,4.6,1.4,8.9,3.8,12.4h-20c2.4-3.5,3.8-7.8,3.8-12.4c0-12.1-9.8-21.9-21.9-21.9
		c-12.1,0-21.9,9.8-21.9,21.9c0,12.1,9.8,21.9,21.9,21.9h56.2c12.1,0,21.9-9.8,21.9-21.9C-169,228.9-178.8,219.1-190.9,219.1
		 M-259.5,241c0-6.8,5.6-12.4,12.4-12.4c6.8,0,12.4,5.5,12.4,12.4s-5.6,12.4-12.4,12.4C-253.9,253.4-259.5,247.8-259.5,241
		 M-190.9,253.4c-6.8,0-12.4-5.5-12.4-12.4s5.5-12.4,12.4-12.4c6.8,0,12.4,5.5,12.4,12.4S-184.1,253.4-190.9,253.4"/>
</g>
</svg>
