<?xml version="1.0" encoding="utf-8"?>
<!-- Generator: Adobe Illustrator 19.1.0, SVG Export Plug-In . SVG Version: 6.00 Build 0)  -->
<svg version="1.1" id="Layer_1" xmlns="http://www.w3.org/2000/svg" xmlns:xlink="http://www.w3.org/1999/xlink" x="0px" y="0px"
	 viewBox="-269 191 100 100" style="enable-background:new -269 191 100 100;" xml:space="preserve">
<g>
	<path d="M-204.9,202.3c-0.8,0-1.4,0.6-1.4,1.4c0,0.8,0.6,1.4,1.4,1.4c2.3,0,4.3,1.9,4.3,4.3c0,0.8,0.6,1.4,1.4,1.4
		c0.8,0,1.4-0.6,1.4-1.4C-197.8,205.5-201,202.3-204.9,202.3"/>
	<path d="M-208.5,208h-7.5c1.4,0,2.5-1.1,2.5-2.5v-6c0-1.4-1.1-2.5-2.5-2.5h-23c-1.4,0-2.5,1.1-2.5,2.5v6c0,1.4,1.1,2.5,2.5,2.5
		h-7.5c-2.7,0-5,2.2-5,5v24c0,2.7,2.2,5,5,5v46.5c0,1.4,1.1,2.5,2.5,2.5h33c1.4,0,2.5-1.1,2.5-2.5V242c2.7,0,5-2.3,5-5v-24
		C-203.5,210.3-205.8,208-208.5,208 M-219,235h-5v2h-7v-2h-5v-4h17V235z M-215,228h-25v-14h25V228z"/>
	<path d="M-204.9,196.7c-0.8,0-1.4,0.6-1.4,1.4c0,0.8,0.6,1.4,1.4,1.4c5.5,0,9.9,4.4,9.9,9.9c0,0.8,0.6,1.4,1.4,1.4
		c0.8,0,1.4-0.6,1.4-1.4C-192.2,202.4-197.9,196.7-204.9,196.7"/>
	<path d="M-204.9,191c-0.8,0-1.4,0.6-1.4,1.4c0,0.8,0.6,1.4,1.4,1.4c8.6,0,15.6,7,15.6,15.6c0,0.8,0.6,1.4,1.4,1.4
		c0.8,0,1.4-0.6,1.4-1.4C-186.5,199.3-194.8,191-204.9,191"/>
</g>
</svg>
