<?xml version="1.0" encoding="utf-8"?>
<!-- Generator: Adobe Illustrator 19.1.0, SVG Export Plug-In . SVG Version: 6.00 Build 0)  -->
<svg version="1.1" id="Layer_1" xmlns="http://www.w3.org/2000/svg" xmlns:xlink="http://www.w3.org/1999/xlink" x="0px" y="0px"
	 viewBox="-269 191 100 100" style="enable-background:new -269 191 100 100;" xml:space="preserve">
<g>
	<path d="M-186.8,220.4c6.1,0,11-5.1,11-11.3s-4.9-11.3-11-11.3s-11,5.1-11,11.3C-197.8,215.4-192.9,220.4-186.8,220.4"/>
	<path d="M-174,220.9l-3.8-1c-2.5,2.2-5.6,3.5-9.1,3.5s-6.6-1.3-9.1-3.5l-3.8,1c-4,1.1-5.3,2.8-5,5l3,19.1c0.4,3,2.2,5,5,5h9.9l0,0
		h9.8c2.8,0,4.6-2,5-5l3-19.1C-168.6,223.8-169.9,222.2-174,220.9"/>
	<path d="M-221.2,260.5c6.1,0,11-5.1,11-11.3s-4.9-11.3-11-11.3s-11,5.1-11,11.3C-232.2,255.4-227.2,260.5-221.2,260.5"/>
	<path d="M-208.3,261l-3.8-1c-2.4,2.2-5.6,3.5-9.1,3.5s-6.6-1.3-9.1-3.5l-3.8,1c-4,1.1-5.3,2.8-5,5l3,19.1c0.4,3,2.2,5,5,5h9.9l0,0
		h9.8c2.8,0,4.6-2,5-5l3-19.1C-203,263.8-204.3,262.2-208.3,261"/>
	<path d="M-251,218.6c6.1,0,11-5.1,11-11.3s-4.9-11.3-11-11.3s-11,5.1-11,11.3C-262,213.6-257.1,218.6-251,218.6"/>
	<path d="M-238.1,219.1l-3.8-1c-2.4,2.2-5.6,3.5-9.1,3.5s-6.6-1.3-9.1-3.5l-3.8,1c-4,1.1-5.3,2.8-5,5l3,19.1c0.4,3,2.2,5,5,5h9.9
		l0,0h9.9c2.8,0,4.6-2,5-5l3-19.1C-232.8,221.9-234.1,220.2-238.1,219.1"/>
	<g>
		<path d="M-242.8,275c-2.3-1.6-4.6-3.9-6.7-7l7-3.1l-19.5-14l-2.4,23.9l7.1-3.2c2.9,4.5,6.2,8,9.7,10.4c0.7,0.5,1.6,0.7,2.4,0.7
			c1.3,0,2.7-0.7,3.5-1.8C-240.3,279-240.8,276.2-242.8,275z"/>
		<path d="M-200.5,208l-18-16l-1.6,7.7c-4.3,0-8.5,0.6-13.6,1.4c-2.3,0.4-3.9,2.6-3.5,4.9c0.3,2.1,2.1,3.6,4.2,3.6
			c0.2,0,0.4,0,0.5-0.1c4.2-0.6,7.5-1.1,10.7-1.2l-1.5,7.3L-200.5,208z"/>
		<path d="M-178.9,253.2c-2.2-0.9-4.7,0.1-5.6,2.3c-1.5,3.6-3.3,7.1-5.5,10.3l-5.2-5.5l-6.8,23l23.3-5.6l-5.3-5.6
			c3-4.1,5.5-8.5,7.4-13.3C-175.7,256.7-176.7,254.1-178.9,253.2z"/>
	</g>
</g>
</svg>
