<?xml version="1.0" encoding="utf-8"?>
<!-- Generator: Adobe Illustrator 19.1.0, SVG Export Plug-In . SVG Version: 6.00 Build 0)  -->
<svg version="1.1" id="Layer_1" xmlns="http://www.w3.org/2000/svg" xmlns:xlink="http://www.w3.org/1999/xlink" x="0px" y="0px"
	 viewBox="-269 191 100 100" style="enable-background:new -269 191 100 100;" xml:space="preserve">
<g>
	<path d="M-225,197.6c0,3-2.4,5.5-5.5,5.5c-3,0-5.5-2.5-5.5-5.5c0-3,2.5-5.5,5.5-5.5C-227.4,192.1-225,194.6-225,197.6"/>
	<path d="M-205.4,197.6c0,1.8-1.5,3.3-3.3,3.3c-1.8,0-3.3-1.5-3.3-3.3c0-1.8,1.5-3.3,3.3-3.3C-206.9,194.3-205.4,195.8-205.4,197.6"
		/>
	<path d="M-181.5,197.6c0,3-2.4,5.5-5.5,5.5c-3,0-5.5-2.5-5.5-5.5c0-3,2.5-5.5,5.5-5.5C-184,192.1-181.5,194.6-181.5,197.6"/>
	<path d="M-218.9,276.9h-30.1c-2,0-3.7,1.7-3.7,3.7v6.7c0,2,1.6,3.7,3.7,3.7h30.1c2,0,3.7-1.7,3.7-3.7v-6.7
		C-215.2,278.6-216.8,276.9-218.9,276.9"/>
	<path d="M-209.9,231.5c-0.1-0.2-0.3-0.4-0.4-0.5c-0.1-0.1-0.2-0.2-0.3-0.3c-0.1-0.1-0.3-0.3-0.4-0.4c-0.1-0.1-0.3-0.2-0.4-0.3
		c-0.1-0.1-0.3-0.2-0.4-0.3c-0.2-0.1-0.3-0.2-0.5-0.3c-0.1-0.1-0.3-0.1-0.4-0.2c-0.2-0.1-0.4-0.2-0.7-0.2c-0.1,0-0.2-0.1-0.4-0.1
		c-0.4-0.1-0.7-0.1-1.1-0.1c-0.4,0-0.8,0-1.1,0.1c-0.1,0-0.2,0.1-0.4,0.1c-0.2,0.1-0.5,0.1-0.7,0.2c-0.1,0.1-0.3,0.1-0.4,0.2
		c-0.2,0.1-0.4,0.2-0.5,0.3c-0.1,0.1-0.3,0.2-0.4,0.3c-0.1,0.1-0.3,0.2-0.4,0.3c-0.1,0.1-0.3,0.3-0.4,0.4c-0.1,0.1-0.2,0.2-0.3,0.3
		c-0.1,0.2-0.3,0.3-0.4,0.5c0,0.1-0.1,0.1-0.1,0.2c-0.5,0.9-0.9,1.9-0.9,3v-1.4v-2.7c0-3.3-2.6-6-5.9-6s-5.9,2.7-5.9,6v-5.8
		c0-3.3-2.7-6-5.9-6s-5.9,2.7-5.9,6V197c0-3.3-2.7-6-5.9-6c-3.3,0-5.9,2.7-5.9,6v36.4v9.2v6.4c0,0,0,0,0,0.1c0,0.1-0.1,1.2-0.1,2.7
		v0c-0.1,4.5,0.1,13.3,2.7,17.6c1.6,2.4,4.2,3.9,7.2,3.9h29.2c0.6,0,1.2-0.1,1.7-0.2c3.5-0.7,6.1-3.6,6.6-7.2c0-0.3,0.1-0.7,0.1-1
		v-10v-3.2v-5.6v-0.3v-3.3v-4.2v-3.7c0-1.1-0.3-2.2-0.9-3.1C-209.8,231.6-209.9,231.6-209.9,231.5"/>
</g>
</svg>
