<?xml version="1.0" encoding="utf-8"?>
<!-- Generator: Adobe Illustrator 19.1.0, SVG Export Plug-In . SVG Version: 6.00 Build 0)  -->
<svg version="1.1" id="Layer_1" xmlns="http://www.w3.org/2000/svg" xmlns:xlink="http://www.w3.org/1999/xlink" x="0px" y="0px"
	 viewBox="-269 191 100 100" style="enable-background:new -269 191 100 100;" xml:space="preserve">
<style type="text/css">
	.st0{fill-rule:evenodd;clip-rule:evenodd;}
</style>
<g>
	<path class="st0" d="M-252.6,229.2c0-10.7,0-28.1,0-28.1s-0.2-5.5,3.7-6.9c4.8-1.6,7.7-1.8,12.7-2.4c7.2-0.9,14.5-0.9,21.8-0.8
		c1.4,0,2.7,0.2,4.1,0.2c1.1,0,1.4,0.4,1.4,1.5c0,4.5,0,9,0,13.5c0.1,6.9,0.1,13.8,0.2,20.7c0,0.9-0.3,1.5-1,2.1
		c-3.7,2.9-7.3,5.8-11,8.7c-0.9,0.7-1.3,1.5-1.3,2.6c0.1,9.1,0.2,18.1,0.2,27.2c0,1.6,0,1.6-1.6,1.6c-8.6-0.5-17.1-1.3-25.3-4
		c-0.1,0-0.2,0-0.2-0.1c-3.4-1.2-3.7-1.4-3.7-5c0-10.3,0-20.6,0-30.8H-252.6z"/>
	<path class="st0" d="M-194.8,193.2c2.9,0.5,3.3,0.5,5.7,1.7c3.2,1.6,2.8,7,2.8,7s0.1,7.6,0.2,13.9c0.1,15.9,0.3,31.7,0.5,47.6
		c0,1.3-0.4,2-1.6,2.3c-3.7,0.9-7.4,2.1-11.2,2.5c-6.3,0.6-12.6,0.7-18.9,1.1c-1.2,0.1-1.5-0.4-1.5-1.6c0-8.8-0.1-17.6-0.2-26.3
		c0-0.9,0.3-1.5,1-2.1c7.3-5.7,14.6-11.5,21.9-17.2c1.1-0.9,1.6-1.8,1.5-3.2c-0.1-7.8-0.2-15.7-0.2-23.5
		C-194.8,194.8-194.8,194.1-194.8,193.2"/>
	<path class="st0" d="M-252.3,267.1c22.1,6.3,44.2,6.9,66.6,1.8c0,1,0.2,3.6,0.2,3.6l0.1,9.6c0,0,0,5.2-3.5,6.2
		c-3.4,1.2-6,1.6-10.1,2c-6.2,0.6-12.5,0.8-18.7,0.8c-9.6-0.1-18-0.9-27.3-3.3c-1.8-0.5-2.4-0.8-4.2-1.3c-3.7-1.2-3.1-6.1-3.1-6.1
		l-0.1-12.6C-252.4,267.7-252.3,267.1-252.3,267.1"/>
	<path class="st0" d="M-205.6,225.5c0-0.6-0.1-1.1-0.1-1.5c-0.1-10.2-0.1-20.4-0.2-30.6c0-1.8,0-1.8,1.7-1.7
		c1.7,0.2,3.5,0.4,5.2,0.6c0.8,0.1,1.1,0.4,1.1,1.3c0,8.3,0.1,16.5,0.2,24.8c0,0.5-0.2,1.1-0.5,1.4c-2.2,1.8-4.5,3.6-6.7,5.4
		C-205.1,225.4-205.2,225.4-205.6,225.5"/>
</g>
</svg>
