<?xml version="1.0" encoding="utf-8"?>
<!-- Generator: Adobe Illustrator 19.1.0, SVG Export Plug-In . SVG Version: 6.00 Build 0)  -->
<svg version="1.1" id="Layer_1" xmlns="http://www.w3.org/2000/svg" xmlns:xlink="http://www.w3.org/1999/xlink" x="0px" y="0px"
	 viewBox="-269 191 100 100" style="enable-background:new -269 191 100 100;" xml:space="preserve">
<g>
	<path d="M-253.9,227.7v-2.3c0-1.3-1.7-1.4-2.9-1.4h-10.8c-1.2,0-1.5,0.1-1.5,1.4v31.1c0,1.3,0.2,2.7,1.5,2.7h10.8
		c1.2,0,2.9-1.4,2.9-2.7v-2.3l31.4,28.2c1.1,1.1,2.6,1.6,3.8,1.6v-86.3c-1.3,0-2.7,0.6-3.8,1.6L-253.9,227.7z"/>
	<path d="M-185.3,201.7c-2-2-5.3-2-7.4,0c-2,2-2,5.3,0,7.4c8.5,8.5,13.2,19.9,13.2,31.9c0,12.1-4.7,23.4-13.2,31.9c-2,2-2,5.3,0,7.4
		c1,1,2.3,1.5,3.7,1.5c1.3,0,2.7-0.5,3.7-1.5c10.5-10.5,16.3-24.5,16.3-39.3C-169,226.2-174.8,212.2-185.3,201.7"/>
	<path d="M-200.6,220.2c-2.2-2.2-5.8-2.2-7.9,0c-2.2,2.2-2.2,5.7,0,7.9c3.4,3.4,5.3,8,5.3,12.9c0,4.9-1.9,9.4-5.3,12.9
		c-2.2,2.2-2.2,5.7,0,7.9c1.1,1.1,2.5,1.6,4,1.6c1.4,0,2.9-0.5,4-1.6c5.5-5.6,8.6-13,8.6-20.8C-192,233.1-195,225.8-200.6,220.2"/>
</g>
</svg>
