<?xml version="1.0" encoding="utf-8"?>
<!-- Generator: Adobe Illustrator 19.1.0, SVG Export Plug-In . SVG Version: 6.00 Build 0)  -->
<svg version="1.1" id="Layer_1" xmlns="http://www.w3.org/2000/svg" xmlns:xlink="http://www.w3.org/1999/xlink" x="0px" y="0px"
	 viewBox="-269 191 100 100" style="enable-background:new -269 191 100 100;" xml:space="preserve">
<g>
	<path d="M-218.1,240.2c-6.8,0-12.3-5.5-12.3-12.3v-13.2h-14c-0.8,0-1.4,0.6-1.4,1.4v54.7c0,0.8,0.6,1.4,1.4,1.4h32.8
		c0.8,0,1.4-0.6,1.4-1.4v-30.5H-218.1z"/>
	<path d="M-188.1,191h-30.1c-3.8,0-6.8,3.1-6.8,6.8v30.1c0,3.8,3.1,6.8,6.8,6.8h30.1c3.8,0,6.8-3.1,6.8-6.8v-30.1
		C-181.2,194.1-184.3,191-188.1,191 M-191.6,215h-9.4v9.4c0,1.2-1,2.2-2.2,2.2c-1.2,0-2.1-1-2.1-2.2V215h-9.4c-1.2,0-2.1-1-2.1-2.2
		c0-1.2,1-2.1,2.1-2.1h9.4v-9.4c0-1.2,1-2.1,2.1-2.1c1.2,0,2.2,1,2.2,2.1v9.4h9.4c1.2,0,2.1,1,2.1,2.1
		C-189.4,214-190.4,215-191.6,215"/>
	<path d="M-204.8,240.2v44c0,0.8-0.6,1.4-1.4,1.4h-43.7c-0.8,0-1.4-0.6-1.4-1.4v-73.8c0-0.8,0.6-1.4,1.4-1.4h19.5v-5.5h-19.5
		c-3.8,0-6.8,3.1-6.8,6.8v73.8c0,3.8,3.1,6.8,6.8,6.8h43.7c3.8,0,6.8-3.1,6.8-6.8v-44H-204.8z"/>
	<path d="M-225.7,278.7c0,1.3-1.1,2.4-2.4,2.4c-1.3,0-2.4-1.1-2.4-2.4c0-1.3,1.1-2.4,2.4-2.4C-226.8,276.2-225.7,277.3-225.7,278.7"
		/>
</g>
</svg>
