<?xml version="1.0" encoding="utf-8"?>
<!-- Generator: Adobe Illustrator 19.1.0, SVG Export Plug-In . SVG Version: 6.00 Build 0)  -->
<svg version="1.1" id="Layer_1" xmlns="http://www.w3.org/2000/svg" xmlns:xlink="http://www.w3.org/1999/xlink" x="0px" y="0px"
	 viewBox="-269 191 100 100" style="enable-background:new -269 191 100 100;" xml:space="preserve">
<g>
	<path d="M-222.7,207.8l3.9,17.6c0.1,0.4-4.2,4-4.9,4.5c-1.4,0.9,6.2,22,7.9,21.8c0.8-0.1,6.5,0,6.6,0.3l8.2,16.1
		c1.6,3-13.2,11-19.8-0.4c-8.5-14.6-14-30.3-16.9-47C-240,207.7-223.4,204.5-222.7,207.8"/>
	<path d="M-220.5,289.5c-26.8,0-48.5-21.8-48.5-48.5c0-26.7,21.8-48.5,48.5-48.5c9.4,0,18.6,2.7,26.5,7.9c1.9,1.2,2.4,3.7,1.2,5.6
		c-1.2,1.9-3.7,2.4-5.6,1.2c-6.6-4.3-14.2-6.5-22-6.5c-22.3,0-40.4,18.1-40.4,40.4c0,22.3,18.1,40.4,40.4,40.4
		c22.3,0,40.4-18.1,40.4-40.4c0-4.5-0.7-8.9-2.2-13.1c-0.7-2.1,0.4-4.4,2.5-5.1c2.1-0.7,4.4,0.4,5.1,2.5c1.7,5,2.6,10.3,2.6,15.7
		C-172,267.8-193.7,289.5-220.5,289.5"/>
	<polygon points="-185.9,233.4 -184.7,214.6 -169,225.1 	"/>
</g>
</svg>
