<?xml version="1.0" encoding="utf-8"?>
<!-- Generator: Adobe Illustrator 19.1.0, SVG Export Plug-In . SVG Version: 6.00 Build 0)  -->
<svg version="1.1" id="Layer_1" xmlns="http://www.w3.org/2000/svg" xmlns:xlink="http://www.w3.org/1999/xlink" x="0px" y="0px"
	 viewBox="-269 191 100 100" style="enable-background:new -269 191 100 100;" xml:space="preserve">
<g>
	<path d="M-183.6,205.6c-19.5-19.5-51.2-19.5-70.7,0c-19.5,19.5-19.5,51.2,0,70.7c19.5,19.5,51.2,19.5,70.7,0
		C-164.1,256.8-164.1,225.2-183.6,205.6 M-244.9,215.1c12.7-12.7,32.4-14.1,46.7-4.3l-51,51C-259.1,247.5-257.6,227.8-244.9,215.1
		 M-193.1,266.9c-12.7,12.7-32.4,14.1-46.7,4.3l51-51C-178.9,234.5-180.4,254.2-193.1,266.9"/>
</g>
</svg>
