<?xml version="1.0" encoding="utf-8"?>
<!-- Generator: Adobe Illustrator 19.1.0, SVG Export Plug-In . SVG Version: 6.00 Build 0)  -->
<svg version="1.1" id="Layer_1" xmlns="http://www.w3.org/2000/svg" xmlns:xlink="http://www.w3.org/1999/xlink" x="0px" y="0px"
	 viewBox="-269 191 100 100" style="enable-background:new -269 191 100 100;" xml:space="preserve">
<path d="M-188.6,259.1l-22.3-18.3l22.3-18.3c0.1-0.1,0.2-0.2,0.2-0.2c0.1-0.1,0.2-0.1,0.3-0.2c0,0,0.1-0.1,0.1-0.1
	c0.1-0.1,0.2-0.3,0.3-0.4c0.1-0.1,0.2-0.3,0.3-0.4c0.1-0.1,0.1-0.3,0.2-0.4c0.1-0.1,0.1-0.3,0.2-0.4c0-0.1,0.1-0.3,0.1-0.4
	c0-0.2,0.1-0.3,0.1-0.5c0-0.1,0-0.3,0-0.4c0-0.2,0-0.3,0-0.5c0-0.2,0-0.3-0.1-0.5c0-0.2,0-0.3-0.1-0.5c0-0.1-0.1-0.3-0.2-0.4
	c-0.2-0.4-0.9-1.3-1.5-1.9l-18.1-16.6l-7-6.4c-1.4-1.3-3.9-1.6-5.7-0.9c-1.8,0.8-3.9,2.5-3.9,4.4v6.8v29.6l-20.5-17.6
	c-2.1-1.7-4.1-1.4-5.8,0.7c-1.7,2.1-1.4,5.1,0.7,6.8l22.8,18.7l-23.3,19.1c-2.1,1.7-2.5,4.7-0.8,6.8c0.9,1.2,2.1,1.8,3.5,1.8
	c1.1,0,1.7-0.4,2.6-1.1l20.9-18v30v6.9c0,1.9,2.1,3.6,3.9,4.4s4.3,0.4,5.7-0.9l0.3-0.2c0.1-0.1,0.2-0.1,0.3-0.2l4.9-4.5l1.6-1.4v0
	l18.4-17c1-0.9,1.6-2.3,1.5-3.7C-186.8,261.2-187.5,259.9-188.6,259.1z M-212.7,206.8l12.7,11.7l-12.7,10.4V206.8z M-212.7,274.7
	v-22.1L-200,263L-212.7,274.7z"/>
</svg>
