<?xml version="1.0" encoding="utf-8"?>
<!-- Generator: Adobe Illustrator 19.1.0, SVG Export Plug-In . SVG Version: 6.00 Build 0)  -->
<svg version="1.1" id="Layer_1" xmlns="http://www.w3.org/2000/svg" xmlns:xlink="http://www.w3.org/1999/xlink" x="0px" y="0px"
	 viewBox="-269 191 100 100" style="enable-background:new -269 191 100 100;" xml:space="preserve">
<g>
	<path d="M-178.3,258.6l-27.5,27.3l-0.1-0.1c-3.2,3.2-7.6,5.1-12.5,5.1h-25.4c-9.8,0-17.9-8.1-17.9-17.9v-16.1v-3.2v-12.5v-5.4
		v-19.6c0-3.6,2.9-6.5,6.4-6.5c3.6,0,6.5,2.9,6.5,6.5v19.6c0,0.9,0.7,1.6,1.6,1.6c0.9,0,1.6-0.7,1.6-1.6h0v-33
		c0-3.6,2.9-6.5,6.4-6.5c3.6,0,6.5,2.9,6.5,6.5v27.6c0,0.9,0.7,1.6,1.6,1.6c0.9,0,1.6-0.7,1.6-1.6v-33c0-3.6,2.9-6.5,6.5-6.5
		c3.6,0,6.5,2.9,6.5,6.5v33v0c0,0.9,0.7,1.6,1.6,1.6s1.6-0.7,1.6-1.6v-27.6c0-3.6,2.9-6.5,6.5-6.5c3.6,0,6.5,2.9,6.5,6.5v27.6v5.4
		v17.9v3.2v5.5l13.1-13c2.5-2.5,6.6-2.5,9.1,0.1C-175.7,252-175.7,256.1-178.3,258.6"/>
</g>
</svg>
