<?xml version="1.0" encoding="utf-8"?>
<!-- Generator: Adobe Illustrator 19.1.0, SVG Export Plug-In . SVG Version: 6.00 Build 0)  -->
<svg version="1.1" id="Layer_1" xmlns="http://www.w3.org/2000/svg" xmlns:xlink="http://www.w3.org/1999/xlink" x="0px" y="0px"
	 viewBox="-269 191 100 100" style="enable-background:new -269 191 100 100;" xml:space="preserve">
<g>
	<path d="M-234.6,215.2l-7.4-20.5c0,0-1.2-3-5.2-3l-5.6,0.8c0,0-18.4,2.4-16,24.7c0,0,8.5,53.5,68,71.5c0,0,23.6,8,30.2-11
		c0,0,0.8-3.7,1.6-8.2c0,0,0.7-2.4-2.4-4.4l-18.3-10.5c0,0-3.1-2.3-5.7,0.2c0,0-4,3.2-8.1,8.1l-1.8,2.3c0,0-1,1.3-3.8,0.3
		c0,0-17.9-5.7-34.2-32.8c0,0-1.4-2.1,1.4-4.8c0,0,3.1-2.5,6.7-6.6c0,0,2-1.6,0.9-4.9L-234.6,215.2z"/>
</g>
</svg>
