<?xml version="1.0" encoding="utf-8"?>
<!-- Generator: Adobe Illustrator 19.1.0, SVG Export Plug-In . SVG Version: 6.00 Build 0)  -->
<svg version="1.1" id="Layer_1" xmlns="http://www.w3.org/2000/svg" xmlns:xlink="http://www.w3.org/1999/xlink" x="0px" y="0px"
	 viewBox="-269 191 100 100" style="enable-background:new -269 191 100 100;" xml:space="preserve">
<g>
	<path d="M-235.7,192.8l5.8,26.3c0.1,0.6-6.3,6-7.4,6.6c-2,1.3,9.3,32.9,11.7,32.5c1.2-0.2,9.6-0.1,9.9,0.4l12.2,24
		c2.4,4.5-19.7,16.4-29.5-0.6c-12.6-21.8-20.9-45.2-25.2-70.1C-261.4,192.6-236.6,187.9-235.7,192.8"/>
	<path d="M-180.6,239.5c1.3-1.1,1.3-2.9,0-4l-17.2-14.8v5.9h-1h-10.1c-1.7,0-3.1,1.4-3.1,3.1v15.7c0,1.7,1.4,3.1,3.1,3.1h10.1h1v6
		L-180.6,239.5z"/>
</g>
</svg>
