<?xml version="1.0" encoding="utf-8"?>
<!-- Generator: Adobe Illustrator 19.1.0, SVG Export Plug-In . SVG Version: 6.00 Build 0)  -->
<svg version="1.1" id="Layer_1" xmlns="http://www.w3.org/2000/svg" xmlns:xlink="http://www.w3.org/1999/xlink" x="0px" y="0px"
	 viewBox="-269 191 100 100" style="enable-background:new -269 191 100 100;" xml:space="preserve">
<g>
	<path d="M-245.6,202.5c0,6.4-5.2,11.5-11.5,11.5c-6.4,0-11.5-5.2-11.5-11.5c0-6.4,5.2-11.5,11.5-11.5
		C-250.7,191-245.6,196.2-245.6,202.5"/>
	<path d="M-169.4,202.5c0,6.4-5.2,11.5-11.5,11.5c-6.4,0-11.5-5.2-11.5-11.5c0-6.4,5.2-11.5,11.5-11.5
		C-174.5,191-169.4,196.2-169.4,202.5"/>
	<path d="M-245.6,279.5c0,6.4-5.2,11.5-11.5,11.5c-6.4,0-11.5-5.2-11.5-11.5s5.2-11.5,11.5-11.5
		C-250.7,267.9-245.6,273.1-245.6,279.5"/>
	<path d="M-169.4,279.5c0,6.4-5.2,11.5-11.5,11.5c-6.4,0-11.5-5.2-11.5-11.5s5.2-11.5,11.5-11.5
		C-174.5,267.9-169.4,273.1-169.4,279.5"/>
	<path d="M-204.4,210h-29.2c-4.4,0-8-3.6-8-8c0-4.4,3.6-8,8-8h29.2c4.4,0,8,3.6,8,8C-196.5,206.5-200,210-204.4,210"/>
	<path d="M-204.6,288.1h-29.2c-4.4,0-7.9-3.6-7.9-7.9c0-4.4,3.6-8,7.9-8h29.2c4.4,0,8,3.6,8,8C-196.7,284.5-200.2,288.1-204.6,288.1
		"/>
	<path d="M-257.4,262.9c-4.4,0-8-3.6-8-7.9v-27.9c0-4.4,3.6-8,8-8c4.4,0,8,3.6,8,8v27.9C-249.4,259.3-253,262.9-257.4,262.9"/>
	<path d="M-180.4,263.3c-4.4,0-7.9-3.6-7.9-7.9v-27.9c0-4.4,3.6-8,7.9-8c4.4,0,8,3.6,8,8v27.9C-172.5,259.7-176,263.3-180.4,263.3"
		/>
</g>
</svg>
