<?xml version="1.0" encoding="utf-8"?>
<!-- Generator: Adobe Illustrator 19.1.0, SVG Export Plug-In . SVG Version: 6.00 Build 0)  -->
<svg version="1.1" id="Layer_1" xmlns="http://www.w3.org/2000/svg" xmlns:xlink="http://www.w3.org/1999/xlink" x="0px" y="0px"
	 viewBox="-269 191 100 100" style="enable-background:new -269 191 100 100;" xml:space="preserve">
<g>
	<path d="M-248.6,277.6l2.4-12.3c-6.1-0.1-9.1-2.5-9.1-7.3c0-2.2,0.8-4,2.3-5.4c1.5-1.4,3.8-2.1,6.7-2.1h3.1l3.8-19.2h-6.9
		c-2.9,0-5.1-0.7-6.6-2.1c-1.6-1.4-2.3-3.2-2.3-5.2c0-2.2,0.8-4,2.3-5.3c1.5-1.3,3.8-2,6.7-2h9.8l3.1-15.1c0.5-2.5,1-4.5,1.6-6
		c0.6-1.5,1.4-2.6,2.4-3.3c1-0.7,2.4-1.1,4.1-1.1c2.3,0,4.1,0.6,5.3,1.8c1.2,1.2,1.8,2.8,1.8,4.8c0,0.4-0.4,2.7-1.1,6.7l-2.4,12.3
		h14.4l3.2-15.1c0.4-2.3,0.9-4.1,1.3-5.5c0.4-1.4,1.1-2.6,2.1-3.6c1-1,2.5-1.5,4.5-1.5c2.3,0,4.1,0.6,5.3,1.8
		c1.3,1.2,1.9,2.8,1.9,4.8c0,0.9-0.1,1.8-0.2,2.7c-0.1,0.9-0.3,1.7-0.4,2.5c-0.2,0.8-0.3,1.3-0.3,1.6l-2.4,12.4
		c6.3,0.1,9.4,2.6,9.4,7.3c0,2.2-0.8,4-2.2,5.3c-1.5,1.3-3.7,2-6.7,2h-3.4l-4,19.2h7.3c2.9,0,5.2,0.7,6.7,2.1
		c1.5,1.4,2.2,3.2,2.2,5.3c0,2.2-0.7,3.9-2.2,5.2c-1.5,1.3-3.7,2-6.7,2h-10.2l-3.1,15.2c-0.5,2.4-0.9,4.3-1.3,5.6
		c-0.4,1.3-1.1,2.5-2.1,3.5c-1.1,1-2.6,1.5-4.6,1.5c-2.2,0-3.9-0.6-5.2-1.8c-1.3-1.2-1.9-2.8-1.9-4.8c0-1.8,0.3-4,0.9-6.7l2.4-12.3
		h-14.6l-3.1,15.2c-0.8,3.7-1.6,6.4-2.5,8.1c-0.9,1.6-2.7,2.5-5.5,2.5c-2.2,0-4-0.6-5.3-1.8c-1.3-1.2-1.9-2.8-1.9-4.8
		c0-1,0.1-2.1,0.4-3.4C-248.9,279.7-248.7,278.6-248.6,277.6 M-210,231.4h-14.6l-3.9,19.2h14.7L-210,231.4z"/>
</g>
</svg>
