<?xml version="1.0" encoding="utf-8"?>
<!-- Generator: Adobe Illustrator 19.1.0, SVG Export Plug-In . SVG Version: 6.00 Build 0)  -->
<svg version="1.1" id="Layer_1" xmlns="http://www.w3.org/2000/svg" xmlns:xlink="http://www.w3.org/1999/xlink" x="0px" y="0px"
	 viewBox="-269 191 100 100" style="enable-background:new -269 191 100 100;" xml:space="preserve">
<g>
	<path d="M-193.7,191h-50.7c-4.4,0-7.7,3.6-7.4,8l6.7,84.1c0.3,4.4,4.2,8,8.6,8h34.7c4.4,0,8.3-3.6,8.6-8l6.7-84.1
		C-186,194.6-189.3,191-193.7,191 M-233,210.3c0-4.1,3.1-5.8,6.9-3.7l19.6,11.1c3.8,2.1,3.8,5.6,0,7.7l-19.6,11.1
		c-3.8,2.1-6.9,0.5-6.9-3.6V210.3z M-223,270.5c0,2.9-2.4,5.3-5.3,5.3c-2.9,0-5.3-2.4-5.3-5.3v-14.7c0-2.9,2.4-5.3,5.3-5.3
		c2.9,0,5.3,2.4,5.3,5.3V270.5z M-204.3,270.5c0,2.9-2.4,5.3-5.3,5.3c-2.9,0-5.3-2.4-5.3-5.3v-14.7c0-2.9,2.4-5.3,5.3-5.3
		c2.9,0,5.3,2.4,5.3,5.3V270.5z"/>
</g>
</svg>
