<?xml version="1.0" encoding="utf-8"?>
<!-- Generator: Adobe Illustrator 19.1.0, SVG Export Plug-In . SVG Version: 6.00 Build 0)  -->
<svg version="1.1" id="Layer_1" xmlns="http://www.w3.org/2000/svg" xmlns:xlink="http://www.w3.org/1999/xlink" x="0px" y="0px"
	 viewBox="-269 191 100 100" style="enable-background:new -269 191 100 100;" xml:space="preserve">
<g>
	<path d="M-169.1,262.2c-2.1-27.5-26.2-48.1-53.7-46c-26.2,2-46.1,23.9-46.1,49.8h15.2h2h20.6h1.8h1.9c0-2.3,0.9-4.3,2.4-5.9
		l0.5-0.4c1.5-1.4,3.5-2.2,5.7-2.2c4.7,0,8.5,3.8,8.5,8.5h1.8h1.6h0.2h13.4h2.2h22.2C-169,264.7-169,263.5-169.1,262.2 M-246,232.2
		c1-0.8,2.5-0.6,3.3,0.4l3.3,4.2c0.8,1,0.6,2.5-0.4,3.3c-0.4,0.3-0.9,0.5-1.4,0.5c-0.7,0-1.4-0.3-1.8-0.9l-3.3-4.2
		C-247.2,234.5-247,233-246,232.2 M-255.5,243.6c0.7-1.1,2.1-1.4,3.2-0.8l4.6,2.8c1.1,0.7,1.4,2.1,0.8,3.2c-0.4,0.7-1.2,1.1-2,1.1
		c-0.4,0-0.8-0.1-1.2-0.3l-4.6-2.8C-255.8,246.1-256.2,244.6-255.5,243.6 M-258.7,260.2c-1.3-0.3-2.1-1.5-1.8-2.7
		c0.3-1.3,1.5-2.1,2.7-1.8l5.3,1.1c1.3,0.3,2.1,1.5,1.8,2.7c-0.2,1.1-1.2,1.9-2.3,1.9c-0.1,0-0.3,0-0.5,0L-258.7,260.2z
		 M-230.1,234.4c-0.2,0.1-0.5,0.1-0.7,0.1c-1,0-1.9-0.6-2.2-1.6l-1.7-5.1c-0.4-1.2,0.3-2.5,1.5-2.9c1.2-0.4,2.5,0.3,2.9,1.5l1.7,5.1
		C-228.2,232.7-228.9,234-230.1,234.4 M-209.2,231.3l2-5c0.5-1.2,1.8-1.8,3-1.3c1.2,0.5,1.8,1.8,1.3,3l-2,5
		c-0.4,0.9-1.2,1.4-2.2,1.4c-0.3,0-0.6-0.1-0.9-0.2C-209.1,233.8-209.7,232.4-209.2,231.3 M-219,232.4c-1.3,0-2.3-1.1-2.2-2.4
		l0.2-5.4c0-1.3,1.1-2.3,2.4-2.2c1.3,0,2.3,1.1,2.2,2.4l-0.2,5.4C-216.7,231.4-217.7,232.4-219,232.4L-219,232.4z M-207.1,263.4
		c-1.1-5.4-5.9-9.5-11.5-9.6l22.7-21.8c1.8-1.7,4.6-1.6,6.2,0.1c1.5,1.5,1.6,3.9,0.5,5.6L-207.1,263.4z M-188.9,249.8
		c-0.8,0-1.6-0.5-2.1-1.2c-0.6-1.1-0.2-2.5,1-3.1l4.8-2.5c1.1-0.6,2.5-0.2,3.1,1c0.6,1.1,0.1,2.5-1,3.1l-4.8,2.5
		C-188.2,249.7-188.5,249.8-188.9,249.8 M-179.2,260.4l-5.3,0.7c-0.1,0-0.2,0-0.3,0c-1.1,0-2.1-0.8-2.3-2c-0.2-1.3,0.7-2.4,2-2.6
		l5.3-0.7c1.3-0.2,2.4,0.7,2.6,2C-177,259.1-177.9,260.2-179.2,260.4"/>
</g>
</svg>
