<?xml version="1.0" encoding="utf-8"?>
<!-- Generator: Adobe Illustrator 19.1.0, SVG Export Plug-In . SVG Version: 6.00 Build 0)  -->
<svg version="1.1" id="Layer_1" xmlns="http://www.w3.org/2000/svg" xmlns:xlink="http://www.w3.org/1999/xlink" x="0px" y="0px"
	 viewBox="-269 191 100 100" style="enable-background:new -269 191 100 100;" xml:space="preserve">
<g>
	<path d="M-187.5,208.5h-38.3h-38.3c-2.3,0-4.3,1.9-4.3,4.2v3.5c0,3,0.3,2.8,4.8,4.5c0.2,0.1,34.9,12.4,34.9,12.4
		c0.9,0.3,1.9,0.6,2.8,0.6c0.9,0,1.9-0.4,2.8-0.6c0,0,34.7-12.3,34.9-12.4c4.6-1.6,4.8-1.4,4.8-4.5v-3.5
		C-183.3,210.4-185.2,208.5-187.5,208.5"/>
	<path d="M-170.8,253.3h-1.7v-5c0-5.3-4.5-9.6-10-9.6c-1.6,0-3.1,0.4-4.5,1c-0.8,0.4-1.5,0.8-2.1,1.3h0c-0.3,0.2-0.6,0.5-0.8,0.8
		c0,0-0.1,0.1-0.1,0.1c-1.6,1.7-2.5,3.9-2.5,6.4v5h-1.8c0,0-0.1,0-0.1,0c-0.3,0-0.7,0.1-0.9,0.3c0,0,0,0,0,0
		c-0.1,0.1-0.2,0.1-0.2,0.2c0,0,0,0,0,0c-0.1,0.1-0.1,0.1-0.2,0.2c0,0,0,0.1-0.1,0.1c0,0.1-0.1,0.1-0.1,0.2c0,0.1,0,0.1-0.1,0.2
		c0,0,0,0.1,0,0.1c0,0.1,0,0.2,0,0.3v0v9.6v3.7v3.4c0,1,0.8,1.7,1.7,1.7h23.6c1,0,1.8-0.8,1.8-1.7V255
		C-169,254-169.8,253.3-170.8,253.3 M-176.5,253.3H-187h-1.5v-5c0-0.2,0-0.4,0-0.5c0-0.1,0-0.2,0-0.2c0-0.1,0-0.2,0.1-0.3
		c0-0.1,0-0.2,0.1-0.3c0-0.1,0-0.2,0.1-0.2c0-0.1,0.1-0.2,0.1-0.3c0-0.1,0-0.1,0.1-0.2c0-0.1,0.1-0.2,0.2-0.3c0,0,0-0.1,0-0.1
		c0.1-0.1,0.1-0.2,0.2-0.4c0,0,0,0,0-0.1c0.1-0.1,0.2-0.2,0.3-0.4c0,0,0,0,0,0c0.1-0.1,0.2-0.2,0.3-0.4c1.1-1.2,2.7-1.9,4.5-1.9
		c3.3,0,6,2.5,6,5.6V253.3z"/>
	<path d="M-200.3,252.7c0-1,1-1.7,1.9-1.7h2v-5c0-3.3,1.6-6.3,4.3-8c2.2-1.7,4.8-2.8,7.8-2.8h0.6h0.2v-8.8c0-0.7-0.6-1.3-1.2-1.6
		c-0.7-0.3-1.2,0-2.1,0.2l-37.1,13c-0.5,0.2-1.8,0.5-2.6,0.5c-0.8,0-1.6-0.1-2.4-0.4L-266,225c-0.9-0.2-1.3-0.5-2-0.2
		c-0.6,0.3-1,0.9-1,1.6v28.9c0,4.6,3.8,9.6,8.5,9.6h60.1V252.7z"/>
</g>
</svg>
