<?xml version="1.0" encoding="utf-8"?>
<!-- Generator: Adobe Illustrator 19.1.0, SVG Export Plug-In . SVG Version: 6.00 Build 0)  -->
<svg version="1.1" id="Layer_1" xmlns="http://www.w3.org/2000/svg" xmlns:xlink="http://www.w3.org/1999/xlink" x="0px" y="0px"
	 viewBox="-269 191 100 100" style="enable-background:new -269 191 100 100;" xml:space="preserve">
<g>
	<path d="M-200.9,234.2l-3.3,0l-2.8,13.4h3.8c1.6,0,9.1-1,9.4-7.9C-193.5,234.8-199.5,234.2-200.9,234.2"/>
	<path d="M-169,220l-70.5,0c-17.6,0-29.4,9.3-29.5,24.6l0,17.5l70.5,0c17.6,0,29.4-9.3,29.5-24.6L-169,220z M-223.6,252.9h-9.2
		l2-9.4h-11.5l-2,9.4h-9.2l5.1-23.8h9.2l-2,9.3h11.5l1.9-9.3h9.2L-223.6,252.9z M-202.5,252.9c-8,0-14.7,0-14.7,0l4.9-23.8h15.6
		c2.6,0,12.8,1.2,12.8,9.9C-183.9,247.6-194.5,252.9-202.5,252.9"/>
</g>
</svg>
