<?xml version="1.0" encoding="utf-8"?>
<!-- Generator: Adobe Illustrator 19.1.0, SVG Export Plug-In . SVG Version: 6.00 Build 0)  -->
<svg version="1.1" id="Layer_1" xmlns="http://www.w3.org/2000/svg" xmlns:xlink="http://www.w3.org/1999/xlink" x="0px" y="0px"
	 viewBox="-269 191 100 100" style="enable-background:new -269 191 100 100;" xml:space="preserve">
<g>
	<path d="M-244.3,261c-1.4,1.3-1.4,3.3,0,4.6l19.6,16.9v-8.8h1.2h24.5c1.9,0,3.5-1.6,3.5-3.5v-13.8c0-1.9-1.6-3.5-3.5-3.5h-24.5
		h-1.2v-8.9L-244.3,261z"/>
	<path d="M-194.3,221c1.4-1.3,1.4-3.3,0-4.6l-19.6-16.9v8.8h-1.2h-24.5c-1.9,0-3.5,1.6-3.5,3.5v13.8c0,1.9,1.6,3.5,3.5,3.5h24.5h1.2
		v8.9L-194.3,221z"/>
	<path d="M-249.9,218.7c0,5.3-4.3,9.5-9.5,9.5c-5.3,0-9.5-4.3-9.5-9.5c0-5.3,4.3-9.5,9.5-9.5C-254.2,209.2-249.9,213.4-249.9,218.7"
		/>
	<path d="M-169,263.3c0,5.3-4.3,9.5-9.5,9.5c-5.3,0-9.5-4.3-9.5-9.5c0-5.3,4.3-9.5,9.5-9.5C-173.3,253.7-169,258-169,263.3"/>
</g>
</svg>
