<?xml version="1.0" encoding="utf-8"?>
<!-- Generator: Adobe Illustrator 19.1.0, SVG Export Plug-In . SVG Version: 6.00 Build 0)  -->
<svg version="1.1" id="Layer_1" xmlns="http://www.w3.org/2000/svg" xmlns:xlink="http://www.w3.org/1999/xlink" x="0px" y="0px"
	 viewBox="-269 191 100 100" style="enable-background:new -269 191 100 100;" xml:space="preserve">
<path d="M-179,191h-80c-5.5,0-10,4.5-10,10v80c0,5.5,4.5,10,10,10h80c5.5,0,10-4.5,10-10v-80C-169,195.5-173.5,191-179,191z
	 M-248.5,264.7c-1.4,0-2.5-1.1-2.5-2.5s1.1-2.5,2.5-2.5c1.4,0,2.5,1.1,2.5,2.5S-247.1,264.7-248.5,264.7z M-248.5,256.2
	c-1.4,0-2.5-1.1-2.5-2.5c0-1.4,1.1-2.5,2.5-2.5c1.4,0,2.5,1.1,2.5,2.5C-245.9,255.1-247.1,256.2-248.5,256.2z M-248.5,247.8
	c-1.4,0-2.5-1.1-2.5-2.5s1.1-2.5,2.5-2.5c1.4,0,2.5,1.1,2.5,2.5S-247.1,247.8-248.5,247.8z M-248.5,239.3c-1.4,0-2.5-1.1-2.5-2.5
	s1.1-2.5,2.5-2.5c1.4,0,2.5,1.1,2.5,2.5S-247.1,239.3-248.5,239.3z M-248.5,230.8c-1.4,0-2.5-1.1-2.5-2.5c0-1.4,1.1-2.5,2.5-2.5
	c1.4,0,2.5,1.1,2.5,2.5C-245.9,229.7-247.1,230.8-248.5,230.8z M-248.5,222.4c-1.4,0-2.5-1.1-2.5-2.5s1.1-2.5,2.5-2.5
	c1.4,0,2.5,1.1,2.5,2.5S-247.1,222.4-248.5,222.4z M-239.9,273.2c-1.4,0-2.5-1.1-2.5-2.5c0-1.4,1.1-2.5,2.5-2.5
	c1.4,0,2.5,1.1,2.5,2.5C-237.4,272-238.5,273.2-239.9,273.2z M-239.9,264.7c-1.4,0-2.5-1.1-2.5-2.5s1.1-2.5,2.5-2.5
	c1.4,0,2.5,1.1,2.5,2.5S-238.5,264.7-239.9,264.7z M-239.9,256.2c-1.4,0-2.5-1.1-2.5-2.5c0-1.4,1.1-2.5,2.5-2.5
	c1.4,0,2.5,1.1,2.5,2.5C-237.4,255.1-238.5,256.2-239.9,256.2z M-239.9,247.8c-1.4,0-2.5-1.1-2.5-2.5s1.1-2.5,2.5-2.5
	c1.4,0,2.5,1.1,2.5,2.5S-238.5,247.8-239.9,247.8z M-239.9,239.3c-1.4,0-2.5-1.1-2.5-2.5s1.1-2.5,2.5-2.5c1.4,0,2.5,1.1,2.5,2.5
	S-238.5,239.3-239.9,239.3z M-239.9,230.8c-1.4,0-2.5-1.1-2.5-2.5c0-1.4,1.1-2.5,2.5-2.5c1.4,0,2.5,1.1,2.5,2.5
	C-237.4,229.7-238.5,230.8-239.9,230.8z M-239.9,222.4c-1.4,0-2.5-1.1-2.5-2.5s1.1-2.5,2.5-2.5c1.4,0,2.5,1.1,2.5,2.5
	S-238.5,222.4-239.9,222.4z M-239.9,213.9c-1.4,0-2.5-1.1-2.5-2.5c0-1.4,1.1-2.5,2.5-2.5c1.4,0,2.5,1.1,2.5,2.5
	C-237.4,212.8-238.5,213.9-239.9,213.9z M-231.5,273.2c-1.4,0-2.5-1.1-2.5-2.5c0-1.4,1.1-2.5,2.5-2.5c1.4,0,2.5,1.1,2.5,2.5
	C-229,272-230.1,273.2-231.5,273.2z M-231.5,264.7c-1.4,0-2.5-1.1-2.5-2.5s1.1-2.5,2.5-2.5c1.4,0,2.5,1.1,2.5,2.5
	S-230.1,264.7-231.5,264.7z M-231.5,256.2c-1.4,0-2.5-1.1-2.5-2.5c0-1.4,1.1-2.5,2.5-2.5c1.4,0,2.5,1.1,2.5,2.5
	C-229,255.1-230.1,256.2-231.5,256.2z M-231.5,247.8c-1.4,0-2.5-1.1-2.5-2.5s1.1-2.5,2.5-2.5c1.4,0,2.5,1.1,2.5,2.5
	S-230.1,247.8-231.5,247.8z M-231.5,239.3c-1.4,0-2.5-1.1-2.5-2.5s1.1-2.5,2.5-2.5c1.4,0,2.5,1.1,2.5,2.5S-230.1,239.3-231.5,239.3z
	 M-231.5,230.8c-1.4,0-2.5-1.1-2.5-2.5c0-1.4,1.1-2.5,2.5-2.5c1.4,0,2.5,1.1,2.5,2.5C-229,229.7-230.1,230.8-231.5,230.8z
	 M-231.5,222.4c-1.4,0-2.5-1.1-2.5-2.5s1.1-2.5,2.5-2.5c1.4,0,2.5,1.1,2.5,2.5S-230.1,222.4-231.5,222.4z M-231.5,213.9
	c-1.4,0-2.5-1.1-2.5-2.5c0-1.4,1.1-2.5,2.5-2.5c1.4,0,2.5,1.1,2.5,2.5C-229,212.8-230.1,213.9-231.5,213.9z M-223.1,273.2
	c-1.4,0-2.5-1.1-2.5-2.5c0-1.4,1.1-2.5,2.5-2.5c1.4,0,2.5,1.1,2.5,2.5C-220.5,272-221.7,273.2-223.1,273.2z M-223.1,264.7
	c-1.4,0-2.5-1.1-2.5-2.5s1.1-2.5,2.5-2.5c1.4,0,2.5,1.1,2.5,2.5S-221.7,264.7-223.1,264.7z M-223.1,256.2c-1.4,0-2.5-1.1-2.5-2.5
	c0-1.4,1.1-2.5,2.5-2.5c1.4,0,2.5,1.1,2.5,2.5C-220.5,255.1-221.7,256.2-223.1,256.2z M-223.1,247.8c-1.4,0-2.5-1.1-2.5-2.5
	s1.1-2.5,2.5-2.5c1.4,0,2.5,1.1,2.5,2.5S-221.7,247.8-223.1,247.8z M-223.1,239.3c-1.4,0-2.5-1.1-2.5-2.5s1.1-2.5,2.5-2.5
	c1.4,0,2.5,1.1,2.5,2.5S-221.7,239.3-223.1,239.3z M-223.1,230.8c-1.4,0-2.5-1.1-2.5-2.5c0-1.4,1.1-2.5,2.5-2.5
	c1.4,0,2.5,1.1,2.5,2.5C-220.5,229.7-221.7,230.8-223.1,230.8z M-223.1,222.4c-1.4,0-2.5-1.1-2.5-2.5s1.1-2.5,2.5-2.5
	c1.4,0,2.5,1.1,2.5,2.5S-221.7,222.4-223.1,222.4z M-223.1,213.9c-1.4,0-2.5-1.1-2.5-2.5c0-1.4,1.1-2.5,2.5-2.5
	c1.4,0,2.5,1.1,2.5,2.5C-220.5,212.8-221.7,213.9-223.1,213.9z M-214.6,273.2c-1.4,0-2.5-1.1-2.5-2.5c0-1.4,1.1-2.5,2.5-2.5
	c1.4,0,2.5,1.1,2.5,2.5C-212.1,272-213.2,273.2-214.6,273.2z M-214.6,264.7c-1.4,0-2.5-1.1-2.5-2.5s1.1-2.5,2.5-2.5
	c1.4,0,2.5,1.1,2.5,2.5S-213.2,264.7-214.6,264.7z M-214.6,256.2c-1.4,0-2.5-1.1-2.5-2.5c0-1.4,1.1-2.5,2.5-2.5
	c1.4,0,2.5,1.1,2.5,2.5C-212.1,255.1-213.2,256.2-214.6,256.2z M-214.6,247.8c-1.4,0-2.5-1.1-2.5-2.5s1.1-2.5,2.5-2.5
	c1.4,0,2.5,1.1,2.5,2.5S-213.2,247.8-214.6,247.8z M-214.6,239.3c-1.4,0-2.5-1.1-2.5-2.5s1.1-2.5,2.5-2.5c1.4,0,2.5,1.1,2.5,2.5
	S-213.2,239.3-214.6,239.3z M-214.6,230.8c-1.4,0-2.5-1.1-2.5-2.5c0-1.4,1.1-2.5,2.5-2.5c1.4,0,2.5,1.1,2.5,2.5
	C-212.1,229.7-213.2,230.8-214.6,230.8z M-214.6,222.4c-1.4,0-2.5-1.1-2.5-2.5s1.1-2.5,2.5-2.5c1.4,0,2.5,1.1,2.5,2.5
	S-213.2,222.4-214.6,222.4z M-214.6,213.9c-1.4,0-2.5-1.1-2.5-2.5c0-1.4,1.1-2.5,2.5-2.5c1.4,0,2.5,1.1,2.5,2.5
	C-212.1,212.8-213.2,213.9-214.6,213.9z M-206.2,273.2c-1.4,0-2.5-1.1-2.5-2.5c0-1.4,1.1-2.5,2.5-2.5c1.4,0,2.5,1.1,2.5,2.5
	C-203.7,272-204.8,273.2-206.2,273.2z M-206.2,264.7c-1.4,0-2.5-1.1-2.5-2.5s1.1-2.5,2.5-2.5c1.4,0,2.5,1.1,2.5,2.5
	S-204.8,264.7-206.2,264.7z M-206.2,256.2c-1.4,0-2.5-1.1-2.5-2.5c0-1.4,1.1-2.5,2.5-2.5c1.4,0,2.5,1.1,2.5,2.5
	C-203.7,255.1-204.8,256.2-206.2,256.2z M-206.2,247.8c-1.4,0-2.5-1.1-2.5-2.5s1.1-2.5,2.5-2.5c1.4,0,2.5,1.1,2.5,2.5
	S-204.8,247.8-206.2,247.8z M-206.2,239.3c-1.4,0-2.5-1.1-2.5-2.5s1.1-2.5,2.5-2.5c1.4,0,2.5,1.1,2.5,2.5S-204.8,239.3-206.2,239.3z
	 M-206.2,230.8c-1.4,0-2.5-1.1-2.5-2.5c0-1.4,1.1-2.5,2.5-2.5c1.4,0,2.5,1.1,2.5,2.5C-203.7,229.7-204.8,230.8-206.2,230.8z
	 M-206.2,222.4c-1.4,0-2.5-1.1-2.5-2.5s1.1-2.5,2.5-2.5c1.4,0,2.5,1.1,2.5,2.5S-204.8,222.4-206.2,222.4z M-206.2,213.9
	c-1.4,0-2.5-1.1-2.5-2.5c0-1.4,1.1-2.5,2.5-2.5c1.4,0,2.5,1.1,2.5,2.5C-203.7,212.8-204.8,213.9-206.2,213.9z M-197.8,273.2
	c-1.4,0-2.5-1.1-2.5-2.5c0-1.4,1.1-2.5,2.5-2.5c1.4,0,2.5,1.1,2.5,2.5C-195.3,272-196.4,273.2-197.8,273.2z M-197.8,264.7
	c-1.4,0-2.5-1.1-2.5-2.5s1.1-2.5,2.5-2.5c1.4,0,2.5,1.1,2.5,2.5S-196.4,264.7-197.8,264.7z M-197.8,256.2c-1.4,0-2.5-1.1-2.5-2.5
	c0-1.4,1.1-2.5,2.5-2.5c1.4,0,2.5,1.1,2.5,2.5C-195.3,255.1-196.4,256.2-197.8,256.2z M-197.8,247.8c-1.4,0-2.5-1.1-2.5-2.5
	s1.1-2.5,2.5-2.5c1.4,0,2.5,1.1,2.5,2.5S-196.4,247.8-197.8,247.8z M-197.8,239.3c-1.4,0-2.5-1.1-2.5-2.5s1.1-2.5,2.5-2.5
	c1.4,0,2.5,1.1,2.5,2.5S-196.4,239.3-197.8,239.3z M-197.8,230.8c-1.4,0-2.5-1.1-2.5-2.5c0-1.4,1.1-2.5,2.5-2.5
	c1.4,0,2.5,1.1,2.5,2.5C-195.3,229.7-196.4,230.8-197.8,230.8z M-197.8,222.4c-1.4,0-2.5-1.1-2.5-2.5s1.1-2.5,2.5-2.5
	c1.4,0,2.5,1.1,2.5,2.5S-196.4,222.4-197.8,222.4z M-197.8,213.9c-1.4,0-2.5-1.1-2.5-2.5c0-1.4,1.1-2.5,2.5-2.5
	c1.4,0,2.5,1.1,2.5,2.5C-195.3,212.8-196.4,213.9-197.8,213.9z M-189.5,264.7c-1.4,0-2.5-1.1-2.5-2.5s1.1-2.5,2.5-2.5
	c1.4,0,2.5,1.1,2.5,2.5S-188.1,264.7-189.5,264.7z M-189.5,256.2c-1.4,0-2.5-1.1-2.5-2.5c0-1.4,1.1-2.5,2.5-2.5
	c1.4,0,2.5,1.1,2.5,2.5C-187,255.1-188.1,256.2-189.5,256.2z M-189.5,247.8c-1.4,0-2.5-1.1-2.5-2.5s1.1-2.5,2.5-2.5
	c1.4,0,2.5,1.1,2.5,2.5S-188.1,247.8-189.5,247.8z M-189.5,239.3c-1.4,0-2.5-1.1-2.5-2.5s1.1-2.5,2.5-2.5c1.4,0,2.5,1.1,2.5,2.5
	S-188.1,239.3-189.5,239.3z M-189.5,230.8c-1.4,0-2.5-1.1-2.5-2.5c0-1.4,1.1-2.5,2.5-2.5c1.4,0,2.5,1.1,2.5,2.5
	C-187,229.7-188.1,230.8-189.5,230.8z M-189.5,222.4c-1.4,0-2.5-1.1-2.5-2.5s1.1-2.5,2.5-2.5c1.4,0,2.5,1.1,2.5,2.5
	S-188.1,222.4-189.5,222.4z"/>
</svg>
