<?xml version="1.0" encoding="utf-8"?>
<!-- Generator: Adobe Illustrator 19.1.0, SVG Export Plug-In . SVG Version: 6.00 Build 0)  -->
<svg version="1.1" id="Layer_1" xmlns="http://www.w3.org/2000/svg" xmlns:xlink="http://www.w3.org/1999/xlink" x="0px" y="0px"
	 viewBox="-269 191 100 100" style="enable-background:new -269 191 100 100;" xml:space="preserve">
<g>
	<path d="M-241.5,192.8l5.8,26.3c0.1,0.6-6.3,6-7.4,6.6c-2,1.3,9.3,32.8,11.7,32.5c1.2-0.2,9.6-0.1,9.9,0.4l12.2,24
		c2.4,4.5-19.7,16.4-29.5-0.6c-12.6-21.8-20.9-45.2-25.2-70C-267.2,192.6-242.4,187.9-241.5,192.8"/>
	<path d="M-199.6,204.9c-14.2,0-25.8,11.6-25.8,25.8c0,14.2,11.6,25.8,25.8,25.8c14.2,0,25.8-11.6,25.8-25.8
		C-173.8,216.4-185.4,204.9-199.6,204.9 M-196.7,245.9c-0.2-1.2-1.2-2.2-2.4-2.4v-12.3h10.3c0.2,1.2,1.2,2.2,2.3,2.4
		c-0.4,4.7-1.6,8.9-3.4,12.3H-196.7z M-209.5,245.9c-2.1-4-3.4-9.1-3.5-14.7h12.8v12.3c-1.3,0.2-2.3,1.2-2.5,2.5H-209.5z
		 M-188.7,230.1H-199v-13h10.1c1.3,3,2.2,6.6,2.5,10.5C-187.5,227.9-188.5,228.9-188.7,230.1 M-199,216v-8c0.6,0,1.3,0.1,1.9,0.1
		c3.1,1.1,5.8,4,7.7,7.9H-199z M-200.2,207.9v8h-7.6c-0.1-0.7-0.5-1.4-1-1.9c1.8-3,4.1-5.1,6.7-6.1
		C-201.4,208-200.8,207.9-200.2,207.9 M-210.8,219.5c1.5,0,2.7-1,3-2.4h7.6v13H-213c0.1-3.8,0.7-7.4,1.7-10.6
		C-211.1,219.5-210.9,219.5-210.8,219.5 M-214.1,231.2c0.1,5.5,1.3,10.7,3.4,14.7h-5.7c-3.6-3.9-5.8-9.1-5.9-14.7H-214.1z
		 M-185.2,233.7c1.3-0.2,2.3-1.2,2.6-2.5h5.7c-0.1,5.7-2.4,10.8-5.9,14.7h-5.7C-186.7,242.5-185.6,238.3-185.2,233.7 M-176.9,230.1
		h-5.7c-0.2-1.3-1.3-2.3-2.6-2.5c-0.3-3.8-1.2-7.4-2.5-10.5h6.3C-178.6,220.7-177,225.2-176.9,230.1 M-188.2,216
		c-1.5-3.1-3.4-5.6-5.6-7.3c4.5,1.2,8.5,3.8,11.5,7.3H-188.2z M-205.5,208.7c-1.6,1.2-3,2.9-4.2,4.8c-0.3-0.1-0.7-0.2-1.1-0.2
		c-1.6,0-2.8,1.1-3.1,2.6h-3.1C-214,212.5-210,209.9-205.5,208.7 M-213.8,217.1c0.2,0.9,0.8,1.6,1.5,2c-1.1,3.3-1.8,7-1.8,11h-8.2
		c0.1-4.8,1.8-9.3,4.5-13H-213.8z M-210.1,247.1c1.3,2.3,2.9,4.2,4.6,5.5c-3.7-1-7.1-2.9-9.8-5.5H-210.1z M-208.8,247.1h6.1
		c0.2,1.3,1.3,2.3,2.5,2.5v3.8c-0.6,0-1.3-0.1-1.9-0.1C-204.7,252.3-207,250.1-208.8,247.1 M-199,253.4v-3.8
		c1.2-0.3,2.2-1.2,2.4-2.5h6.3c-1.8,3-4.2,5.2-6.8,6.1C-197.8,253.3-198.4,253.3-199,253.4 M-189.1,247.1h5.2
		c-2.7,2.6-6.1,4.5-9.8,5.5C-192,251.3-190.4,249.4-189.1,247.1"/>
</g>
</svg>
