<?xml version="1.0" encoding="utf-8"?>
<!-- Generator: Adobe Illustrator 19.1.0, SVG Export Plug-In . SVG Version: 6.00 Build 0)  -->
<svg version="1.1" id="Layer_1" xmlns="http://www.w3.org/2000/svg" xmlns:xlink="http://www.w3.org/1999/xlink" x="0px" y="0px"
	 viewBox="-269 191 100 100" style="enable-background:new -269 191 100 100;" xml:space="preserve">
<g>
	<path d="M-205,222.1h7.2c-3.6-4.3-8.5-7.4-14-8.9C-209.1,215.2-206.8,218.3-205,222.1z"/>
	<path d="M-232.7,226.4c-0.2,0-0.4,0-0.5,0c-1.3,3.9-2,8.3-2.1,13h15.6v-15.8h-9.3C-229.4,225.1-230.9,226.4-232.7,226.4z"/>
	<path d="M-222.8,260.1h-7.5c2.2,3.7,5.1,6.3,8.3,7.5c0.8,0.1,1.5,0.1,2.3,0.1v-4.6C-221.3,262.9-222.5,261.7-222.8,260.1z"/>
	<path d="M-230.2,219.8c0.7,0.6,1.1,1.4,1.2,2.3h9.3v-9.8c-0.8,0-1.5,0.1-2.3,0.1C-225.1,213.5-228,216.2-230.2,219.8z"/>
	<path d="M-231,258.7h8.2c0.3-1.6,1.5-2.8,3.1-3v-15h-15.6C-235.2,247.6-233.6,253.9-231,258.7z"/>
	<path d="M-234.5,225.9c-0.9-0.5-1.6-1.4-1.8-2.5h-5c-3.3,4.5-5.3,9.9-5.5,15.8h10C-236.6,234.5-235.9,229.9-234.5,225.9z"/>
	<path d="M-231.8,260.1h-6.3c3.3,3.2,7.4,5.5,12,6.7C-228.3,265.2-230.2,262.9-231.8,260.1z"/>
	<path d="M-232.7,218.8c0.5,0,0.9,0.1,1.3,0.2c1.5-2.4,3.3-4.4,5.2-5.9c-5.5,1.5-10.4,4.6-14,8.9h3.8
		C-236.1,220.2-234.6,218.8-232.7,218.8z"/>
	<path d="M-236.7,240.7h-10c0.2,6.9,2.9,13.2,7.2,18h6.9C-235.1,253.8-236.6,247.5-236.7,240.7z"/>
	<path d="M-216,212.4c-0.8-0.1-1.5-0.1-2.3-0.1v9.8h11.7C-208.9,217.3-212.2,213.8-216,212.4z"/>
	<path d="M-184.2,201.2c-16.7,0-27.2-5.8-31.9-9.2c-0.1-0.1-0.2-0.2-0.3-0.2c-0.7-0.5-1.6-0.7-2.5-0.7c-0.9,0-1.8,0.3-2.5,0.7
		c-0.1,0.1-0.2,0.1-0.3,0.2c-4.6,3.4-15.1,9.2-31.8,9.2c-2.8,0-5.5,2.3-5.5,5.1v46.7c0,9.4,7,18.7,19.8,27.6
		c8.9,6.2,17.9,10,18.3,10.1c0.6,0.3,1.4,0.4,2.1,0.4c0.7,0,1.4-0.1,2-0.4c0.4-0.2,9.4-3.9,18.3-10.1c12.8-8.9,19.5-18.2,19.5-27.6
		v-46.7C-179,203.4-181.4,201.2-184.2,201.2z M-219,271.5c-17.4,0-31.5-14.1-31.5-31.5c0-17.4,14.1-31.5,31.5-31.5
		c17.4,0,31.5,14.1,31.5,31.5C-187.5,257.4-201.6,271.5-219,271.5z"/>
	<path d="M-201.4,236.3c1.6,0.2,2.9,1.5,3.2,3h7c-0.1-5.9-2.2-11.4-5.5-15.8h-7.7C-202.8,227.2-201.8,231.6-201.4,236.3z"/>
	<path d="M-202.8,236.3c-0.4-4.7-1.5-9.1-3.1-12.9h-12.4v15.8h12.6C-205.4,237.8-204.3,236.7-202.8,236.3z"/>
	<path d="M-201.4,243.7c-0.4,5.6-1.9,10.8-4,15h6.9c4.4-4.8,7.1-11.1,7.2-18h-7C-198.6,242.3-199.8,243.5-201.4,243.7z"/>
	<path d="M-215.4,258.7h8.4c2.2-4.1,3.7-9.3,4.1-15c-1.5-0.3-2.6-1.5-2.9-3h-12.6v15C-216.8,256-215.7,257.2-215.4,258.7z"/>
	<path d="M-211.8,266.8c4.6-1.2,8.6-3.6,12-6.7h-6.3C-207.8,262.9-209.7,265.2-211.8,266.8z"/>
	<path d="M-207.7,260.1h-7.6c-0.3,1.5-1.4,2.7-2.9,3v4.7c0.8,0,1.5-0.1,2.3-0.1C-212.8,266.4-210,263.8-207.7,260.1z"/>
</g>
</svg>
