<?xml version="1.0" encoding="utf-8"?>
<!-- Generator: Adobe Illustrator 19.1.0, SVG Export Plug-In . SVG Version: 6.00 Build 0)  -->
<svg version="1.1" id="Layer_1" xmlns="http://www.w3.org/2000/svg" xmlns:xlink="http://www.w3.org/1999/xlink" x="0px" y="0px"
	 viewBox="-269 191 100 100" style="enable-background:new -269 191 100 100;" xml:space="preserve">
<g>
	<path d="M-232.4,254.6c2.9,0,5.3-2.4,5.3-5.3c0-2.9-2.4-5.3-5.3-5.3c-2.9,0-5.3,2.4-5.3,5.3C-237.7,252.2-235.3,254.6-232.4,254.6"
		/>
	<path d="M-219,275.1c3.7,0,7.5-0.6,11.2-1.9c17.8-6.2,27.2-25.7,21-43.5c-4.9-14.1-18.1-22.9-32.3-22.9c-3.7,0-7.5,0.6-11.2,1.9
		c-17.8,6.2-27.2,25.7-21,43.5C-246.4,266.3-233.1,275.1-219,275.1 M-228.5,213.7c3.1-1.1,6.3-1.6,9.5-1.6c6.4,0,12.5,2.1,17.4,5.8
		c-0.7-0.1-1.4-0.2-2.1-0.2c-7.2,0-13.1,5.9-13.1,13.1c0,7.2,5.9,13.1,13.1,13.1c6.2,0,11.4-4.3,12.7-10.1c1.7,6.6,1,13.4-2,19.6
		c-3.4,7-9.2,12.2-16.5,14.7c-3.1,1.1-6.3,1.6-9.5,1.6c-12.3,0-23.3-7.8-27.3-19.4C-251.5,235.5-243.5,219-228.5,213.7"/>
	<path d="M-219,291c5.6,0,11.1-0.9,16.4-2.8c12.6-4.4,22.7-13.4,28.5-25.5c5.8-12,6.6-25.6,2.2-38.2c-7-20.1-26-33.6-47.3-33.6
		c-5.6,0-11.1,0.9-16.4,2.8c-26,9.1-39.8,37.6-30.8,63.6C-259.2,277.5-240.2,291-219,291 M-232.6,202.1c4.5-1.6,9-2.3,13.5-2.3
		c17.1,0,33.1,10.7,39,27.7c7.5,21.5-3.9,45-25.4,52.5c-4.5,1.6-9,2.3-13.5,2.3c-17.1,0-33-10.7-39-27.7
		C-265.4,233.1-254,209.5-232.6,202.1"/>
</g>
</svg>
