<?xml version="1.0" encoding="utf-8"?>
<!-- Generator: Adobe Illustrator 19.1.0, SVG Export Plug-In . SVG Version: 6.00 Build 0)  -->
<svg version="1.1" id="Layer_1" xmlns="http://www.w3.org/2000/svg" xmlns:xlink="http://www.w3.org/1999/xlink" x="0px" y="0px"
	 viewBox="-269 191 100 100" style="enable-background:new -269 191 100 100;" xml:space="preserve">
<g>
	<path d="M-197,291H-241c-5.2,0-9.4-4.3-9.4-9.6v-80.8c0-5.3,4.2-9.6,9.4-9.6l43.9,0c5.2,0,9.4,4.3,9.4,9.6v80.9
		C-187.7,286.7-191.9,291-197,291 M-240.9,197c-1.9,0-3.4,1.6-3.4,3.6v80.8c0,2,1.5,3.6,3.4,3.6h43.9c1.9,0,3.4-1.6,3.4-3.6v-80.9
		c0-2-1.5-3.6-3.4-3.6L-240.9,197z"/>
	<path d="M-216,278.3c0,1.7-1.3,3.1-3,3.1c-1.7,0-3-1.4-3-3.1c0-1.7,1.4-3.1,3-3.1C-217.3,275.2-216,276.6-216,278.3"/>
	<path d="M-202.4,202.3l-33.2,0c-2,0-3.8,1.8-3.8,3.9v61.6c0,2.1,1.7,3.8,3.7,3.8h33.3c2.1,0,3.7-1.7,3.7-3.8v-61.7
		C-198.6,204-200.3,202.3-202.4,202.3 M-210.9,238.3c0.8,0.8,0.8,2.1,0,2.8c-0.4,0.4-0.9,0.6-1.4,0.6s-1-0.2-1.4-0.6l-5.2-5.2
		l-5.2,5.2c-0.4,0.4-0.9,0.6-1.4,0.6c-0.5,0-1-0.2-1.4-0.6c-0.8-0.8-0.8-2,0-2.8l5.2-5.2l-5.2-5.2c-0.8-0.8-0.8-2,0-2.8
		c0.8-0.8,2-0.8,2.8,0l5.2,5.2l5.2-5.2c0.8-0.8,2-0.8,2.8,0c0.8,0.8,0.8,2,0,2.8l-5.2,5.2L-210.9,238.3z"/>
</g>
</svg>
