<?xml version="1.0" encoding="utf-8"?>
<!-- Generator: Adobe Illustrator 19.1.0, SVG Export Plug-In . SVG Version: 6.00 Build 0)  -->
<svg version="1.1" id="Layer_1" xmlns="http://www.w3.org/2000/svg" xmlns:xlink="http://www.w3.org/1999/xlink" x="0px" y="0px"
	 viewBox="-269 191 100 100" style="enable-background:new -269 191 100 100;" xml:space="preserve">
<g>
	<path d="M-199.6,234c0-2.2-0.7-4.4-5.1-4.4h-5.9v8.7h6.2C-200.6,238.4-199.6,236.2-199.6,234"/>
	<path d="M-204.4,242.5h-6.2v9.8h6.1c4.9,0,5.8-2.5,5.8-4.9C-198.6,244.1-200.2,242.5-204.4,242.5"/>
	<path d="M-195.1,191h-56.3c-9.7,0-17.6,7.8-17.6,17.4v65c0,9.6,7.9,17.6,17.6,17.6h64.7c9.7,0,17.7-8,17.7-17.6v-56.3L-195.1,191z
		 M-221.9,255.1c-2.3,1.1-5.5,1.9-9.7,1.9c-9.4,0-12.3-7.2-12.3-16c0-8.8,3-16,12.3-16c4.2,0,7.1,0.9,9,1.8v4.4
		c-3.7-1.5-6-2.1-9-2.1c-5.9,0-7.9,5.2-7.9,11.8c0,6.7,2,11.8,7.9,11.8c1.8,0,4.1-0.2,5.4-0.6v-8.6h-6.1v-4.1h10.4V255.1z
		 M-204.6,256.4h-10.3v-30.9h10.1c7.4,0,9.9,3.8,9.9,8.5c0,2.3-1,4.7-3,6.1c2.8,1.4,4,4.3,4,7.3C-194,252.4-196.7,256.4-204.6,256.4
		"/>
</g>
</svg>
