<?xml version="1.0" encoding="utf-8"?>
<!-- Generator: Adobe Illustrator 19.1.0, SVG Export Plug-In . SVG Version: 6.00 Build 0)  -->
<svg version="1.1" id="Layer_1" xmlns="http://www.w3.org/2000/svg" xmlns:xlink="http://www.w3.org/1999/xlink" x="0px" y="0px"
	 viewBox="-269 191 100 100" style="enable-background:new -269 191 100 100;" xml:space="preserve">
<g>
	<path d="M-179,201.2h-80c-5.5,0-10,4.5-10,10v45c0,5.5,4.5,10,10,10h5.8v14.6l40.2-14.6h33.9c5.5,0,10-4.5,10-10v-45
		C-169,205.7-173.5,201.2-179,201.2 M-215.1,244.9h-33.5c-2.1,0-3.8-1.7-3.8-3.8c0-2.1,1.7-3.8,3.8-3.8h33.5c2.1,0,3.8,1.7,3.8,3.8
		C-211.3,243.2-213,244.9-215.1,244.9 M-190.1,228.7h-58.6c-2.1,0-3.8-1.7-3.8-3.8c0-2.1,1.7-3.8,3.8-3.8h58.6
		c2.1,0,3.8,1.7,3.8,3.8C-186.3,227-188,228.7-190.1,228.7"/>
</g>
</svg>
