<?xml version="1.0" encoding="utf-8"?>
<!-- Generator: Adobe Illustrator 19.1.0, SVG Export Plug-In . SVG Version: 6.00 Build 0)  -->
<svg version="1.1" id="Layer_1" xmlns="http://www.w3.org/2000/svg" xmlns:xlink="http://www.w3.org/1999/xlink" x="0px" y="0px"
	 viewBox="-269 191 100 100" style="enable-background:new -269 191 100 100;" xml:space="preserve">
<g>
	<path d="M-221.2,234.3l12.6-12.6l-12.6-12.6c-2.4-2.4-2.4-6.3,0-8.6c2.4-2.4,6.3-2.4,8.6,0l12.6,12.6l12.6-12.6
		c2.4-2.4,6.3-2.4,8.6,0c2.4,2.4,2.4,6.3,0,8.6l-12.6,12.6l12.6,12.6c2.4,2.4,2.4,6.3,0,8.6c-2.4,2.4-6.3,2.4-8.6,0l-12.6-12.6
		l-12.6,12.6c-2.4,2.4-6.3,2.4-8.6,0C-223.6,240.5-223.5,236.7-221.2,234.3"/>
	<path d="M-171.5,265l-18.3-10.5c0,0-3.1-2.3-5.7,0.2c0,0-4,3.2-8.1,8.1l-1.8,2.3c0,0-1,1.3-3.8,0.3c0,0-17.9-5.7-34.2-32.8
		c0,0-1.4-2.1,1.4-4.8c0,0,3.1-2.5,6.7-6.6c0,0,2-1.6,0.9-4.9l-0.3-1.2l-7.4-20.5c0,0-1.2-3-5.2-3l-5.6,0.8c0,0-18.4,2.4-16,24.7
		c0,0,8.5,53.5,68,71.5c0,0,23.6,8,30.2-11c0,0,0.8-3.7,1.6-8.2C-169.1,269.5-168.4,267.1-171.5,265"/>
</g>
</svg>
