<?xml version="1.0" encoding="utf-8"?>
<!-- Generator: Adobe Illustrator 19.1.0, SVG Export Plug-In . SVG Version: 6.00 Build 0)  -->
<svg version="1.1" id="Layer_1" xmlns="http://www.w3.org/2000/svg" xmlns:xlink="http://www.w3.org/1999/xlink" x="0px" y="0px"
	 viewBox="-269 191 100 100" style="enable-background:new -269 191 100 100;" xml:space="preserve">
<g>
	<path d="M-204.5,222.2l-5.2-4.1c-0.7,0.9-1.4,1.8-2.1,2.8l5.4,3.7C-205.7,223.8-205.1,223-204.5,222.2"/>
	<path d="M-200.6,218.3l-3.7-5.5c-1,0.7-2,1.5-3,2.5l4.7,4.6C-201.9,219.3-201.2,218.7-200.6,218.3"/>
	<path d="M-254.3,245.6l-5.9,3c0.5,1,1.1,2,1.6,3l5.8-3.1C-253.3,247.6-253.8,246.6-254.3,245.6"/>
	<path d="M-197.1,217.6l2-6.3c-1-0.3-2-0.5-2.9-0.5c-0.7,0-1.3,0.1-2,0.2l1.3,6.5C-198.2,217.4-197.7,217.4-197.1,217.6"/>
	<path d="M-208,227.3l-5.6-3.5c-0.6,0.9-1.2,1.9-1.7,2.9l5.7,3.3C-209.1,229.1-208.6,228.2-208,227.3"/>
	<path d="M-186.3,230.7l5.7-3.2c-0.6-1-1.1-2-1.7-2.9l-5.6,3.4C-187.4,228.8-186.8,229.7-186.3,230.7"/>
	<path d="M-183.2,236.4l5.9-3c-0.5-1-1-2-1.6-3l-5.8,3.1C-184.2,234.4-183.7,235.4-183.2,236.4"/>
	<path d="M-193.3,220.4l4.8-4.5c-1-1-1.9-1.9-2.9-2.6l-4,5.3C-194.6,219.1-194,219.7-193.3,220.4"/>
	<path d="M-189.6,225.3l5.5-3.6c-0.7-1-1.4-2-2-2.9l-5.3,4C-190.8,223.5-190.2,224.3-189.6,225.3"/>
	<path d="M-247.9,256.7l-5.5,3.6c0.7,1,1.4,2,2,2.9l5.3-4C-246.7,258.5-247.3,257.7-247.9,256.7"/>
	<path d="M-229.5,254.7l5.6,3.5c0.6-0.9,1.2-1.9,1.7-2.9l-5.7-3.3C-228.4,252.9-229,253.8-229.5,254.7"/>
	<path d="M-233,259.8l5.2,4.1c0.7-0.8,1.4-1.8,2.1-2.8l-5.4-3.7C-231.8,258.2-232.4,259-233,259.8"/>
	<path d="M-237,263.7l3.7,5.5c1-0.7,2-1.5,3-2.5l-4.7-4.6C-235.7,262.7-236.3,263.3-237,263.7"/>
	<path d="M-251.2,251.3l-5.7,3.2c0.6,1,1.1,2,1.7,2.9l5.7-3.4C-250.2,253.2-250.7,252.3-251.2,251.3"/>
	<path d="M-244.3,261.6l-4.8,4.5c1,1,1.9,1.9,2.9,2.6l4-5.3C-242.9,262.9-243.6,262.3-244.3,261.6"/>
	<path d="M-240.4,264.4l-2,6.3c1,0.3,1.9,0.5,2.9,0.5c0.7,0,1.3-0.1,2-0.2l-1.4-6.5C-239.3,264.6-239.8,264.6-240.4,264.4"/>
	<path d="M-170.8,238.8h-3.9c-0.4-0.9-0.8-1.7-1.2-2.5l-5,2.5h-33.5c0-0.1,0.1-0.1,0.1-0.2l-1.7-0.9c-0.5-1.4-1-3-1.6-4.6l4.8,2.5
		c0.5-1,1-1.9,1.5-2.9l-5.8-3.2c-0.4,0.7-0.8,1.4-1.1,2.1c-4-9.9-10.8-21-21-20.9c-9.6,0.1-18,10.2-23.2,27.9h-4.9
		c-1,0-1.8,0.8-1.8,1.8c0,1,0.8,1.8,1.8,1.8h4.8l-0.7,0.3c0.5,1,1,2,1.5,3l5.9-3c-0.1-0.1-0.1-0.2-0.2-0.4h33.2
		c-0.2,0.3-0.3,0.7-0.5,1l2,1c0.6,1.6,1.1,3.2,1.7,4.6l-5.2-2.7c-0.5,1-1,1.9-1.5,2.9l5.8,3.2c0.4-0.8,0.9-1.6,1.3-2.4
		c6.9,17.1,14.7,21,20.4,21h0.1c9.2,0,17.3-9.9,23.5-28.5h4.5c1,0,1.8-0.8,1.8-1.8C-169,239.6-169.8,238.8-170.8,238.8 M-255,238.8
		c4.1-12.9,10.1-20.8,15.9-20.8h0.1c5.7,0,11.6,7.7,16,20.8H-255z M-198.8,263.9L-198.8,263.9c-5.3,0-11.1-8-15.7-21.5h31.8
		C-189.7,262.2-196.7,263.9-198.8,263.9"/>
</g>
</svg>
