<?xml version="1.0" encoding="utf-8"?>
<!-- Generator: Adobe Illustrator 19.1.0, SVG Export Plug-In . SVG Version: 6.00 Build 0)  -->
<svg version="1.1" id="Layer_1" xmlns="http://www.w3.org/2000/svg" xmlns:xlink="http://www.w3.org/1999/xlink" x="0px" y="0px"
	 viewBox="-269 191 100 100" style="enable-background:new -269 191 100 100;" xml:space="preserve">
<g>
	<path d="M-188.6,236.2c-6.9-0.9-10.7-1.5-10.7-6.4c0-4.1,1.8-7.9,10.1-8l12.7,0c3,0,5.4-2.3,5.4-5.3c0-3-2.4-5.4-5.4-5.4
		c0,0-12.6,0-12.6,0c-17.9,0-21.4,11.1-21.4,18.6c0,10.9,5.5,15.4,20.2,17.2c7.2,0.9,10,2.2,10,7.2c0,5-2.7,6.1-11.8,6.1h-0.1v0
		h-12.7c-3,0-5.4,2.4-5.4,5.4c0,3,2.4,5.4,5.4,5.4h12.8v0c17.9,0,23.3-7.3,23.3-16.8C-169,241.9-175.7,237.9-188.6,236.2"/>
	<path d="M-238.4,221.9c8,0,10.9,8.5,10.9,19.4c0.2,9.6-2.1,18.7-11.1,18.8h-8.5c-8.9-0.2-11.2-9.3-11.1-18.8
		c0-10.9,2.9-19.4,10.9-19.4H-238.4 M-238.4,211h-0.2h-3.9h-0.5h-3.9h-0.2c-7.9,0-14.5,4.2-18.1,11.6c-2.4,4.8-3.6,11-3.6,18.5
		c-0.5,27.2,16.5,29.7,21.7,29.8l0.1,0h0.1h4h0.5h4h0.1l0.1,0c5.2-0.1,22.2-2.6,21.7-29.8C-216.8,213.2-233.3,211-238.4,211"/>
</g>
</svg>
