<?xml version="1.0" encoding="utf-8"?>
<!-- Generator: Adobe Illustrator 19.1.0, SVG Export Plug-In . SVG Version: 6.00 Build 0)  -->
<svg version="1.1" id="Layer_1" xmlns="http://www.w3.org/2000/svg" xmlns:xlink="http://www.w3.org/1999/xlink" x="0px" y="0px"
	 viewBox="-269 191 100 100" style="enable-background:new -269 191 100 100;" xml:space="preserve">
<g>
	<path d="M-264.4,223.6c0.2,0.1,32.9,11.9,32.9,11.9c0.9,0.2,1.8,0.6,2.7,0.6c0.9,0,1.8-0.4,2.7-0.6c0,0,32.7-11.8,32.9-11.9
		c4.3-1.6,4.6-1.3,4.6-4.3V216c0-2.2-1.8-4-4-4h-36.1H-265c-2.2,0-4,1.8-4,4v3.3C-269,222.3-268.7,222.1-264.4,223.6"/>
	<path d="M-169.6,266.2c-0.2-0.2-2.2-2.3-5.3-4.9c1.2-4.3,0.6-11.9-8.8-16.7c-2.3-1.2-4.4-2-6.6-2.5c0,0,0,0,0,0
		c-0.5-0.1-0.9-0.2-1.4-0.3c-0.1,0-0.1,0-0.2,0c-0.4-0.1-0.9-0.1-1.3-0.1c-0.1,0-0.2,0-0.2,0c-0.5,0-1-0.1-1.5-0.1
		c-4,0-8.3,1.1-14,3.2c-1.6,0.6-3.3,1.3-5.1,2.1l-5.2,2.3l5.4,1.9c0,0,4.1,1.5,12.3,11.5c0.3,0.4,0.7,0.8,1,1.2
		c0.1,0.1,0.1,0.1,0.2,0.2c3.6,3.8,8,5.8,12.5,5.8c1.8,0,3.7-0.3,5.5-1c2.1-0.8,3.9-2,5.2-3.4c2.6,2.3,4.2,4,4.3,4
		c0.4,0.5,1,0.7,1.6,0.7c0.3,0,0.5,0,0.8-0.1c0.3-0.1,0.5-0.2,0.7-0.5C-168.8,268.5-168.8,267.1-169.6,266.2"/>
	<path d="M-215.3,254.6l-5.2-1.9c-1.5-0.5-2.5-1.9-2.6-3.5c-0.1-1.6,0.9-3.1,2.3-3.7l5.2-2.3c1.9-0.8,3.6-1.5,5.3-2.1
		c6.3-2.4,11-3.4,15.3-3.4c2.1,0,4.1,0.2,6.2,0.8v-9.3c0-0.6-0.4-1.2-1-1.5c-0.6-0.3-1,0-1.9,0.2l-34.8,12.5
		c-0.5,0.2-1.7,0.5-2.4,0.5c-0.8,0-1.5-0.1-2.2-0.4l-35-12.6c-0.9-0.2-1.3-0.5-1.9-0.2c-0.6,0.3-0.9,0.9-1,1.5v27.8c0,4.4,3.6,8,8,8
		h56.4h0C-211.3,256.8-214.9,254.8-215.3,254.6"/>
</g>
</svg>
