<?xml version="1.0" encoding="utf-8"?>
<!-- Generator: Adobe Illustrator 19.1.0, SVG Export Plug-In . SVG Version: 6.00 Build 0)  -->
<svg version="1.1" id="Layer_1" xmlns="http://www.w3.org/2000/svg" xmlns:xlink="http://www.w3.org/1999/xlink" x="0px" y="0px"
	 viewBox="-269 191 100 100" style="enable-background:new -269 191 100 100;" xml:space="preserve">
<g>
	<path d="M-179,201.2h-80c-5.5,0-10,4.5-10,10v45c0,5.5,4.5,10,10,10h5.9v14.6l40.2-14.6h33.9c5.5,0,10-4.5,10-10v-45
		C-169,205.7-173.5,201.2-179,201.2 M-227.1,211c3.4,0,6.1,2.7,6.1,6.1c0,3.4-2.7,6.1-6.1,6.1c-3.4,0-6.1-2.7-6.1-6.1
		C-233.2,213.7-230.5,211-227.1,211 M-233.1,253.8L-233.1,253.8h-18.6l18.4-27.1l9.4,13.5l13.9-20.5l23.5,34L-233.1,253.8z"/>
</g>
</svg>
