<?xml version="1.0" encoding="utf-8"?>
<!-- Generator: Adobe Illustrator 19.1.0, SVG Export Plug-In . SVG Version: 6.00 Build 0)  -->
<svg version="1.1" id="Layer_1" xmlns="http://www.w3.org/2000/svg" xmlns:xlink="http://www.w3.org/1999/xlink" x="0px" y="0px"
	 viewBox="-269 191 100 100" style="enable-background:new -269 191 100 100;" xml:space="preserve">
<g>
	<path d="M-190.4,205c-4.7-8.3-14.1-14-30-14h-24.3c-3.9,0-7,3.2-7,7v86c0,3.9,3.1,7,7,7s7-3.2,7-7v-31.7h17.3
		c25.3,0,34-14.6,34-30.7C-186.3,215.7-187.6,209.9-190.4,205 M-220,239.1h-17.7V205v-0.9h17.7c2.7,0,4.8,0.4,6.8,0.9
		c9.6,2.4,11.8,10,11.8,16.6C-201.4,229.5-204.3,239.1-220,239.1"/>
</g>
</svg>
