<?xml version="1.0" encoding="utf-8"?>
<!-- Generator: Adobe Illustrator 19.1.0, SVG Export Plug-In . SVG Version: 6.00 Build 0)  -->
<svg version="1.1" id="Layer_1" xmlns="http://www.w3.org/2000/svg" xmlns:xlink="http://www.w3.org/1999/xlink" x="0px" y="0px"
	 viewBox="-269 191 100 100" style="enable-background:new -269 191 100 100;" xml:space="preserve">
<g>
	<path d="M-199.3,274.8h-58.1v-35.2l-2.7-2.7c-3-3-4.5-6.9-4.4-11.2c0.1-3.9,1.7-7.6,4.4-10.4c2.9-2.9,6.7-4.5,10.8-4.5
		c4.1,0,7.9,1.6,10.8,4.5l1.4,1.4h25.2l11.8-11.7H-269v81.4h81.4v-51l-11.7,11.6V274.8z"/>
	<path d="M-171.5,198c-1.7-1.6-3.8-2.5-6-2.5c-2.2,0-4.3,0.8-6,2.5l-7.1,7l-11.8,11.7l-14.7,14.6l-7.7,7.6l-9.3-9.4l-4.4-4.4l-4.9-5
		c-1.7-1.7-3.8-2.5-6-2.5c-2.2,0-4.3,0.8-6,2.5c-1,1-1.7,2.2-2.1,3.4c-0.2,0.8-0.4,1.6-0.4,2.3c0,0.9,0.1,1.9,0.4,2.8
		c0.4,1.3,1.1,2.5,2.1,3.4l24.5,24.6l0.6,0.6c1.5,1.3,3.4,2.1,5.5,2.1c0.1,0,0.3,0,0.4,0c1.9-0.1,3.6-0.8,5-2l1.1-1.1l18.9-18.8
		l11.7-11.6l16.1-16C-168.2,206.7-168.2,201.3-171.5,198"/>
</g>
</svg>
