<?xml version="1.0" encoding="utf-8"?>
<!-- Generator: Adobe Illustrator 19.1.0, SVG Export Plug-In . SVG Version: 6.00 Build 0)  -->
<svg version="1.1" id="Layer_1" xmlns="http://www.w3.org/2000/svg" xmlns:xlink="http://www.w3.org/1999/xlink" x="0px" y="0px"
	 viewBox="-269 191 100 100" style="enable-background:new -269 191 100 100;" xml:space="preserve">
<g>
	<path d="M-200.5,191h-37c-8.2,0-14.8,5.9-14.8,13.1V263c0,0.6,0.1,1.2,0.2,1.8c1.2,14.6,15.5,26.2,33.1,26.2
		c17.4,0,31.6-11.3,33.1-25.7c0.2-0.7,0.2-1.5,0.2-2.3v-58.9C-185.7,196.9-192.3,191-200.5,191 M-223.4,203.9c0-0.7,0.7-1.3,1.5-1.3
		h5.9c0.8,0,1.5,0.6,1.5,1.3v5.2c0,0.7-0.7,1.3-1.5,1.3h-5.9c-0.8,0-1.5-0.6-1.5-1.3V203.9z M-223.4,219c0-0.7,0.7-1.3,1.5-1.3h5.9
		c0.8,0,1.5,0.6,1.5,1.3v5.2c0,0.7-0.7,1.3-1.5,1.3h-5.9c-0.8,0-1.5-0.6-1.5-1.3V219z M-223.4,234.2c0-0.7,0.7-1.3,1.5-1.3h5.9
		c0.8,0,1.5,0.6,1.5,1.3v5.2c0,0.7-0.7,1.3-1.5,1.3h-5.9c-0.8,0-1.5-0.6-1.5-1.3V234.2z M-232.3,239.4c0,0.7-0.7,1.3-1.5,1.3h-5.9
		c-0.8,0-1.5-0.6-1.5-1.3v-5.2c0-0.7,0.7-1.3,1.5-1.3h5.9c0.8,0,1.5,0.6,1.5,1.3V239.4z M-232.3,224.3c0,0.7-0.7,1.3-1.5,1.3h-5.9
		c-0.8,0-1.5-0.6-1.5-1.3V219c0-0.7,0.7-1.3,1.5-1.3h5.9c0.8,0,1.5,0.6,1.5,1.3V224.3z M-232.3,209.1c0,0.7-0.7,1.3-1.5,1.3h-5.9
		c-0.8,0-1.5-0.6-1.5-1.3v-5.2c0-0.7,0.7-1.3,1.5-1.3h5.9c0.8,0,1.5,0.6,1.5,1.3V209.1z M-210.3,266.4h-4.9v4.3
		c0,1.9-1.7,3.4-3.8,3.4h0c-2.1,0-3.8-1.5-3.8-3.4v-4.3l-4.9,0h0c-2.1,0-3.8-1.5-3.8-3.4c0-1.9,1.7-3.4,3.8-3.4h4.9v-4.3
		c0-1.9,1.7-3.4,3.8-3.4h0c2.1,0,3.8,1.5,3.8,3.4l0,4.3h4.9c2.1,0,3.8,1.5,3.8,3.4C-206.4,264.8-208.1,266.4-210.3,266.4
		 M-196.8,239.4c0,0.7-0.7,1.3-1.5,1.3h-5.9c-0.8,0-1.5-0.6-1.5-1.3v-5.2c0-0.7,0.7-1.3,1.5-1.3h5.9c0.8,0,1.5,0.6,1.5,1.3V239.4z
		 M-196.8,224.3c0,0.7-0.7,1.3-1.5,1.3h-5.9c-0.8,0-1.5-0.6-1.5-1.3V219c0-0.7,0.7-1.3,1.5-1.3h5.9c0.8,0,1.5,0.6,1.5,1.3V224.3z
		 M-196.8,209.1c0,0.7-0.7,1.3-1.5,1.3h-5.9c-0.8,0-1.5-0.6-1.5-1.3v-5.2c0-0.7,0.7-1.3,1.5-1.3h5.9c0.8,0,1.5,0.6,1.5,1.3V209.1z"
		/>
</g>
</svg>
