<?xml version="1.0" encoding="utf-8"?>
<!-- Generator: Adobe Illustrator 19.1.0, SVG Export Plug-In . SVG Version: 6.00 Build 0)  -->
<svg version="1.1" id="Layer_1" xmlns="http://www.w3.org/2000/svg" xmlns:xlink="http://www.w3.org/1999/xlink" x="0px" y="0px"
	 viewBox="-269 191 100 100" style="enable-background:new -269 191 100 100;" xml:space="preserve">
<g>
	<path d="M-223.1,290.9L-223.1,290.9l-21.5,0.1c-5,0-9-4-9-9c0-4.9,4-9,9-9h21.2v0c0.1,0,0.2,0,0.2,0c15.3,0,19.8-1.9,19.8-10.3
		c0-8.3-4.6-10.5-16.7-12c-24.6-3.1-33.7-10.6-33.7-28.8c0-12.5,5.9-31.1,35.8-31.1c0.1,0,0.2,0,0.3,0v0h20.9c5,0,9,4,9,9
		c0,4.9-4,9-9,9h-21.2v-0.1c-13.9,0-16.9,6.5-16.9,13.3c0,8.2,6.3,9.3,17.9,10.8c21.7,2.8,32.8,9.5,32.8,29.8
		C-184.2,278.7-193.1,290.9-223.1,290.9"/>
</g>
</svg>
