<?xml version="1.0" encoding="utf-8"?>
<!-- Generator: Adobe Illustrator 19.1.0, SVG Export Plug-In . SVG Version: 6.00 Build 0)  -->
<svg version="1.1" id="Layer_1" xmlns="http://www.w3.org/2000/svg" xmlns:xlink="http://www.w3.org/1999/xlink" x="0px" y="0px"
	 viewBox="-269 191 100 100" style="enable-background:new -269 191 100 100;" xml:space="preserve">
<g>
	<path d="M-237.5,219L-237.5,219c-5.3,0.1-10.8,7.3-14.5,19h29.2C-226.9,226-232.3,219-237.5,219"/>
	<path d="M-179,191h-80c-5.5,0-10,4.5-10,10v80c0,5.5,4.5,10,10,10h80c5.5,0,10-4.5,10-10v-80C-169,195.5-173.5,191-179,191
		 M-219.3,245.9l5.4-2.8c0.5,0.9,0.9,1.8,1.4,2.6l-5.4,2.8C-218.3,247.7-218.8,246.8-219.3,245.9 M-216.3,251.3l5.3-3
		c0.5,0.9,1,1.7,1.5,2.5l-5.2,3.1C-215.2,253.1-215.8,252.2-216.3,251.3 M-213,256.6l5.1-3.3c0.6,0.8,1.1,1.6,1.7,2.3l-4.9,3.6
		C-211.7,258.4-212.4,257.6-213,256.6 M-209,261.8l4.5-4.1c0.6,0.7,1.3,1.2,1.8,1.7l-3.7,4.8C-207.2,263.5-208.1,262.7-209,261.8
		 M-200,266.4c-0.9,0-1.8-0.1-2.7-0.4l1.8-5.7c0.5,0.2,1,0.2,1.5,0.1l1.2,5.9C-198.7,266.4-199.4,266.4-200,266.4 M-194.3,264.6
		l-3.4-5c0.6-0.4,1.2-0.9,1.9-1.5l4.4,4.2C-192.4,263.2-193.3,264-194.3,264.6 M-189.2,259.8l-4.8-3.7c0.5-0.7,1.1-1.4,1.7-2.3
		l5.1,3.4C-188,258.1-188.6,259-189.2,259.8 M-185.5,254.6l-5.2-3.2c0.5-0.8,1-1.6,1.5-2.5l5.3,3
		C-184.5,252.8-185,253.7-185.5,254.6 M-182.4,249.2l-5.4-2.9c0.5-0.8,0.9-1.7,1.4-2.6l5.4,2.8
		C-181.4,247.5-181.9,248.3-182.4,249.2 M-175.2,241.2h-3c-0.5,0.9-0.9,1.8-1.3,2.6l-5.2-2.6h-31.9l-4,2c-0.3-0.6-0.7-1.3-1-2h-41.5
		c-0.9,0-1.6-0.7-1.6-1.6c0-0.9,0.7-1.6,1.6-1.6h4.4c4.7-16.1,12.4-25.3,21.1-25.4h0.1c11.6,0,18.3,15.6,21.4,25.4h41
		c0.9,0,1.6,0.7,1.6,1.6C-173.6,240.5-174.3,241.2-175.2,241.2"/>
</g>
</svg>
