<?xml version="1.0" encoding="utf-8"?>
<!-- Generator: Adobe Illustrator 19.1.0, SVG Export Plug-In . SVG Version: 6.00 Build 0)  -->
<svg version="1.1" id="Layer_1" xmlns="http://www.w3.org/2000/svg" xmlns:xlink="http://www.w3.org/1999/xlink" x="0px" y="0px"
	 viewBox="-269 191 100 100" style="enable-background:new -269 191 100 100;" xml:space="preserve">
<g>
	<path d="M-250,225.6V223c0-1.5-1.2-2.1-2.6-2.1H-265c-1.4,0-3.3,0.6-3.3,2.1V259c0,1.5,1.9,3.4,3.3,3.4h12.5c1.4,0,2.6-1.8,2.6-3.4
		v-2.6l36.2,32.7c1.3,1.3,3,1.9,4.2,1.9V191c-1.2,0-2.9,0.6-4.2,1.9L-250,225.6z"/>
	<path d="M-174.6,236.7H-198c-2.8,0-5,2.1-5,4.9c0,2.7,2.2,4.9,5,4.9h23.3c2.7,0,5-2.1,5-4.9C-169.7,238.9-171.9,236.7-174.6,236.7"
		/>
	<path d="M-198,224.6c1.3,0,2.6-0.5,3.5-1.5l22.3-22.3c2-1.9,2-5.1,0-7c-1.9-2-5.1-2-7,0l-22.3,22.3c-1.9,2-1.9,5.1,0,7.1
		C-200.5,224.1-199.3,224.6-198,224.6"/>
	<path d="M-194.5,259.2c-1.9-1.9-5.1-1.9-7,0c-2,2-2,5.1,0,7l21.8,21.8c1,1,2.3,1.5,3.5,1.5c1.3,0,2.6-0.5,3.5-1.5
		c2-1.9,2-5.1,0-7.1L-194.5,259.2z"/>
</g>
</svg>
