<?xml version="1.0" encoding="utf-8"?>
<!-- Generator: Adobe Illustrator 19.1.0, SVG Export Plug-In . SVG Version: 6.00 Build 0)  -->
<svg version="1.1" id="Layer_1" xmlns="http://www.w3.org/2000/svg" xmlns:xlink="http://www.w3.org/1999/xlink" x="0px" y="0px"
	 viewBox="-269 191 100 100" style="enable-background:new -269 191 100 100;" xml:space="preserve">
<g>
	<path d="M-210.4,220.7c-1.1,1-0.8,1.8,0.7,1.8h6.9c1.5,0,2.2,1.1,1.5,2.4l-10,19.7c-0.7,1.3-0.3,1.6,0.8,0.6l33-28.9
		c1.1-1,0.8-1.8-0.7-1.8h-6.9c-1.5,0-2.2-1.1-1.5-2.4l10-19.7c0.7-1.3,0.3-1.6-0.8-0.6L-210.4,220.7z"/>
	<path d="M-241.7,192.1l13.7,26c0.3,0.5-5,8.1-5.9,9.1c-1.8,1.9,19.2,31.9,21.6,30.9c1.2-0.5,10.1-2.8,10.5-2.4l19.7,21.7
		c3.8,4-16,22.9-31.2,7.8c-19.5-19.3-34.9-41.6-46.5-66.5C-268.9,199.3-244.2,187.2-241.7,192.1"/>
</g>
</svg>
