<?xml version="1.0" encoding="utf-8"?>
<!-- Generator: Adobe Illustrator 19.1.0, SVG Export Plug-In . SVG Version: 6.00 Build 0)  -->
<svg version="1.1" id="Layer_1" xmlns="http://www.w3.org/2000/svg" xmlns:xlink="http://www.w3.org/1999/xlink" x="0px" y="0px"
	 viewBox="-269 191 100 100" style="enable-background:new -269 191 100 100;" xml:space="preserve">
<g>
	<path d="M-252.9,247.5c-0.4,2-0.3,3.5,0.5,4.4c0.8,1,2,1.5,4,1.5c3.2,0,6.8-0.8,7.4-3.7c0.1-0.7,0-1.2-0.3-1.7
		c-1.6-2.3-18.7-4-22.6-8.3c-1.6-1.7-1.7-4.3-1.2-6.4c1.7-8,9.8-11.6,24.4-11.6c15.5,0,19.3,4.3,17.9,11.8h-15.1c0.3-2,0-3.3-1-4
		c-0.9-0.8-2.4-1-4.3-1c-3.2,0-5.2,1.2-5.6,3.1c-0.1,0.6,0,1.3,0.3,1.7c1.9,2.3,18.4,3.9,22.3,8.2c1.2,1.3,2.2,3.2,1.5,6.8
		c-1.5,7.2-8.9,11.9-25.5,11.9c-19.8,0-19.5-5.9-18.4-12.7H-252.9z"/>
	<path d="M-212.3,222.8h19.6c10.8,0,17.5,1,21.5,6c2.1,2.7,2.9,7.1,1.8,12.5c-1.1,5.4-4,10.6-7.7,13.1c-5,3.4-9.4,4.9-20.6,4.9
		h-22.2L-212.3,222.8z M-202.9,251h4.2c7,0,11.8-3.1,13.3-10c1.4-6.8-2.1-10-9-10h-4.3L-202.9,251z"/>
</g>
</svg>
