<?xml version="1.0" encoding="utf-8"?>
<!-- Generator: Adobe Illustrator 19.1.0, SVG Export Plug-In . SVG Version: 6.00 Build 0)  -->
<svg version="1.1" id="Layer_1" xmlns="http://www.w3.org/2000/svg" xmlns:xlink="http://www.w3.org/1999/xlink" x="0px" y="0px"
	 viewBox="-269 191 100 100" style="enable-background:new -269 191 100 100;" xml:space="preserve">
<g>
	<path d="M-219,274.4c-20.9,0-37.8-17-37.8-37.8c0-14.2,7.8-27,20.3-33.5c2.3-1.2,5.1-0.3,6.3,2c1.2,2.3,0.3,5.2-2,6.4
		c-9.4,4.9-15.2,14.5-15.2,25.2c0,15.7,12.8,28.4,28.4,28.4c15.7,0,28.4-12.8,28.4-28.4c0-10.7-5.8-20.3-15.2-25.2
		c-2.3-1.2-3.2-4-2-6.3c1.2-2.3,4-3.2,6.3-2c12.5,6.5,20.3,19.4,20.3,33.6C-181.2,257.5-198.1,274.4-219,274.4"/>
	<path d="M-218.6,191.1l-0.7-0.1c-2.4,0-4.3,1.9-4.3,4.3V224c0,2.4,2,4.4,4.3,4.4l0.7,0.1c2.4,0,4.3-2,4.3-4.4v-28.7
		C-214.4,193-216.3,191.1-218.6,191.1"/>
	<path d="M-187.4,286.7l0.1-0.7c0-2.4-1.9-4.3-4.3-4.3h-54.6c-2.4,0-4.4,2-4.4,4.3l-0.1,0.7c0,2.4,2,4.3,4.4,4.3h54.6
		C-189.3,291-187.4,289.1-187.4,286.7"/>
</g>
</svg>
