<?xml version="1.0" encoding="utf-8"?>
<!-- Generator: Adobe Illustrator 19.1.0, SVG Export Plug-In . SVG Version: 6.00 Build 0)  -->
<svg version="1.1" id="Layer_1" xmlns="http://www.w3.org/2000/svg" xmlns:xlink="http://www.w3.org/1999/xlink" x="0px" y="0px"
	 viewBox="-269 191 100 100" style="enable-background:new -269 191 100 100;" xml:space="preserve">
<g>
	<path d="M-210.1,197.1c0-4.8,3.2-6.1,6.2-6.1c3,0,6.2,1.3,6.2,6.1c0,4.7-3.2,6.1-6.2,6.1C-206.9,203.2-210.1,201.8-210.1,197.1
		 M-206.6,197.1c0,2.1,1.1,2.8,2.8,2.8c1.7,0,2.8-0.8,2.8-2.8c0-2.1-1.1-2.8-2.8-2.8C-205.5,194.3-206.6,195-206.6,197.1"/>
	<path d="M-214.5,257.4v-64.2c0-1.2-1.3-1.7-2.5-1.7h-11.5c-1.2,0-2,0.5-2,1.7v64.2c-6,2.9-9.9,8.9-9.9,15.9
		c0,9.8,7.9,17.7,17.7,17.7c9.8,0,17.9-8,17.9-17.7C-204.8,266.3-208.5,260.3-214.5,257.4 M-227.2,197.5h4c0.8,0,1.5,0.7,1.5,1.5
		c0,0.8-0.7,1.5-1.5,1.5h-4c-0.8,0-1.5-0.7-1.5-1.5C-228.7,198.2-228,197.5-227.2,197.5 M-227.2,204.5h4c0.8,0,1.5,0.7,1.5,1.5
		c0,0.8-0.7,1.5-1.5,1.5h-4c-0.8,0-1.5-0.7-1.5-1.5C-228.7,205.2-228,204.5-227.2,204.5 M-227.2,211.5h4c0.8,0,1.5,0.7,1.5,1.5
		c0,0.8-0.7,1.5-1.5,1.5h-4c-0.8,0-1.5-0.7-1.5-1.5C-228.7,212.2-228,211.5-227.2,211.5 M-223.2,250.5h-4c-0.8,0-1.5-0.7-1.5-1.5
		c0-0.8,0.7-1.5,1.5-1.5h4c0.8,0,1.5,0.7,1.5,1.5C-221.7,249.8-222.4,250.5-223.2,250.5 M-223.2,243.5h-4c-0.8,0-1.5-0.7-1.5-1.5
		c0-0.8,0.7-1.5,1.5-1.5h4c0.8,0,1.5,0.7,1.5,1.5C-221.7,242.8-222.4,243.5-223.2,243.5 M-223.2,236.5h-4c-0.8,0-1.5-0.7-1.5-1.5
		c0-0.8,0.7-1.5,1.5-1.5h4c0.8,0,1.5,0.7,1.5,1.5C-221.7,235.8-222.4,236.5-223.2,236.5 M-223.2,229.5h-4c-0.8,0-1.5-0.7-1.5-1.5
		c0-0.8,0.7-1.5,1.5-1.5h4c0.8,0,1.5,0.7,1.5,1.5C-221.7,228.8-222.4,229.5-223.2,229.5 M-219.9,221.5h-7.3c-0.8,0-1.5-0.7-1.5-1.5
		c0-0.8,0.7-1.5,1.5-1.5h7.3c0.8,0,1.5,0.7,1.5,1.5C-218.4,220.8-219.1,221.5-219.9,221.5"/>
</g>
</svg>
