<?xml version="1.0" encoding="utf-8"?>
<!-- Generator: Adobe Illustrator 19.1.0, SVG Export Plug-In . SVG Version: 6.00 Build 0)  -->
<svg version="1.1" id="Layer_1" xmlns="http://www.w3.org/2000/svg" xmlns:xlink="http://www.w3.org/1999/xlink" x="0px" y="0px"
	 viewBox="-269 191 100 100" style="enable-background:new -269 191 100 100;" xml:space="preserve">
<g>
	<path d="M-228.9,224.6c-4.9,4.9-5.5,12.5-1.8,18.1l19.9-19.9C-216.4,219.1-224,219.7-228.9,224.6"/>
	<path d="M-226.7,246.7c5.6,3.7,13.2,3.1,18.1-1.8c4.9-4.9,5.5-12.5,1.8-18.1L-226.7,246.7z"/>
	<path d="M-179,201.2h-80c-5.5,0-10,4.5-10,10v45c0,5.5,4.5,10,10,10h5.9v14.6l40.2-14.6h33.9c5.5,0,10-4.5,10-10v-45
		C-169,205.7-173.5,201.2-179,201.2 M-204.6,248.8c-7.8,7.8-20.4,7.8-28.2,0c-7.8-7.8-7.8-20.4,0-28.2c7.8-7.8,20.4-7.8,28.2,0
		C-196.9,228.4-196.9,241.1-204.6,248.8"/>
</g>
</svg>
