<?xml version="1.0" encoding="utf-8"?>
<!-- Generator: Adobe Illustrator 19.1.0, SVG Export Plug-In . SVG Version: 6.00 Build 0)  -->
<svg version="1.1" id="Layer_1" xmlns="http://www.w3.org/2000/svg" xmlns:xlink="http://www.w3.org/1999/xlink" x="0px" y="0px"
	 viewBox="-269 191 100 100" style="enable-background:new -269 191 100 100;" xml:space="preserve">
<g>
	<path d="M-242.5,192.8l5.8,26.3c0.1,0.6-6.3,6-7.4,6.6c-2,1.3,9.3,32.8,11.7,32.5c1.2-0.2,9.6-0.1,9.9,0.4l12.2,24
		c2.4,4.5-19.7,16.4-29.5-0.6c-12.6-21.8-20.9-45.2-25.2-70C-268.2,192.6-243.4,187.9-242.5,192.8"/>
	<path d="M-187.4,249.6H-211c-8,0-14.6-6.5-14.6-14.5v-23.7c0-8,6.5-14.5,14.6-14.5h23.7c8,0,14.5,6.5,14.5,14.5v23.7
		C-172.8,243.1-179.3,249.6-187.4,249.6 M-211,202.2c-5,0-9.1,4.1-9.1,9.1v23.7c0,5,4.1,9.1,9.1,9.1h23.7c5,0,9.1-4.1,9.1-9.1v-23.7
		c0-5-4.1-9.1-9.1-9.1H-211z"/>
	<path d="M-216.1,218.9c0-0.7,0.2-1.4,0.6-2c0.4-0.6,0.9-1.1,1.7-1.5c0.7-0.4,1.6-0.5,2.6-0.5c0.8,0,1.6,0.1,2.2,0.3
		c0.6,0.2,1.2,0.5,1.6,0.9c0.4,0.4,0.7,0.8,0.9,1.3c0.2,0.5,0.3,1,0.3,1.5c0,0.7-0.2,1.3-0.5,1.8c-0.4,0.5-0.9,1-1.6,1.3
		c0.6,0.2,1.1,0.5,1.5,0.9c0.4,0.4,0.7,0.8,0.9,1.3c0.2,0.5,0.3,1,0.3,1.6c0,0.9-0.2,1.7-0.6,2.4c-0.4,0.7-1.1,1.3-1.9,1.7
		c-0.8,0.4-1.8,0.6-2.9,0.6c-1.2,0-2.1-0.2-3-0.6c-0.8-0.4-1.4-1-1.9-1.7c-0.4-0.7-0.6-1.5-0.6-2.4c0-1.9,0.9-3.1,2.6-3.8
		C-215.4,221.4-216.1,220.3-216.1,218.9 M-208.6,225.8c0-0.5-0.1-1-0.3-1.4c-0.2-0.4-0.5-0.7-0.9-0.9c-0.4-0.2-0.9-0.3-1.4-0.3
		c-0.7,0-1.3,0.2-1.8,0.7c-0.5,0.5-0.7,1.1-0.7,2c0,0.5,0.1,1,0.3,1.4c0.2,0.4,0.5,0.7,0.9,1c0.4,0.2,0.8,0.3,1.3,0.3
		s0.9-0.1,1.3-0.3c0.4-0.2,0.7-0.6,0.9-1C-208.7,226.8-208.6,226.3-208.6,225.8 M-211.2,216.9c-0.7,0-1.2,0.2-1.6,0.6
		c-0.4,0.4-0.6,0.9-0.6,1.6c0,0.6,0.2,1.1,0.6,1.5c0.4,0.4,0.9,0.6,1.6,0.6c0.3,0,0.6,0,0.9-0.1c0.3-0.1,0.5-0.3,0.7-0.4
		c0.2-0.2,0.3-0.4,0.4-0.7c0.1-0.3,0.2-0.5,0.2-0.8c0-0.4-0.1-0.8-0.3-1.1c-0.2-0.3-0.4-0.6-0.8-0.8
		C-210.4,217-210.8,216.9-211.2,216.9"/>
	<path d="M-194.1,222.8c0,1.1-0.1,2.1-0.2,2.9s-0.4,1.6-0.8,2.2c-0.5,0.8-1.1,1.5-1.8,1.9c-0.8,0.4-1.6,0.7-2.5,0.7
		c-1.1,0-2-0.3-2.8-0.9c-0.8-0.6-1.5-1.4-1.9-2.5c-0.2-0.6-0.4-1.2-0.5-1.9c-0.1-0.7-0.2-1.5-0.2-2.3c0-1.1,0.1-2,0.2-2.8
		c0.1-0.8,0.3-1.6,0.5-2.2c0.4-1,1-1.8,1.8-2.3c0.8-0.5,1.7-0.8,2.8-0.8c0.7,0,1.4,0.1,2,0.4c0.6,0.2,1.1,0.6,1.5,1
		c0.4,0.4,0.8,1,1.1,1.7C-194.3,219.1-194.1,220.7-194.1,222.8 M-196.9,222.6c0-1.3-0.1-2.3-0.2-3.1c-0.2-0.8-0.4-1.4-0.8-1.8
		c-0.4-0.4-0.9-0.6-1.5-0.6c-0.9,0-1.6,0.5-1.9,1.4c-0.4,0.9-0.5,2.4-0.5,4.3c0,1.3,0.1,2.4,0.2,3.2c0.1,0.8,0.4,1.5,0.8,1.9
		c0.4,0.4,0.9,0.6,1.5,0.6c0.6,0,1.1-0.2,1.5-0.7c0.4-0.4,0.6-1.1,0.8-1.9C-197,225-196.9,223.9-196.9,222.6"/>
	<path d="M-182.3,222.8c0,1.1-0.1,2.1-0.2,2.9c-0.1,0.8-0.4,1.6-0.8,2.2c-0.5,0.8-1.1,1.5-1.8,1.9c-0.8,0.4-1.6,0.7-2.5,0.7
		c-1.1,0-2-0.3-2.8-0.9c-0.8-0.6-1.5-1.4-1.9-2.5c-0.2-0.6-0.4-1.2-0.5-1.9c-0.1-0.7-0.2-1.5-0.2-2.3c0-1.1,0.1-2,0.2-2.8
		c0.1-0.8,0.3-1.6,0.5-2.2c0.4-1,1-1.8,1.8-2.3c0.8-0.5,1.7-0.8,2.8-0.8c0.7,0,1.4,0.1,1.9,0.4c0.6,0.2,1.1,0.6,1.5,1
		c0.4,0.4,0.8,1,1.1,1.7C-182.5,219.1-182.3,220.7-182.3,222.8 M-185.2,222.6c0-1.3-0.1-2.3-0.2-3.1c-0.1-0.8-0.4-1.4-0.8-1.8
		c-0.4-0.4-0.9-0.6-1.5-0.6c-0.9,0-1.6,0.5-1.9,1.4c-0.4,0.9-0.5,2.4-0.5,4.3c0,1.3,0.1,2.4,0.2,3.2c0.2,0.8,0.4,1.5,0.8,1.9
		c0.4,0.4,0.8,0.6,1.5,0.6c0.6,0,1.1-0.2,1.5-0.7c0.4-0.4,0.6-1.1,0.8-1.9C-185.2,225-185.2,223.9-185.2,222.6"/>
</g>
</svg>
