<?xml version="1.0" encoding="utf-8"?>
<!-- Generator: Adobe Illustrator 19.1.0, SVG Export Plug-In . SVG Version: 6.00 Build 0)  -->
<svg version="1.1" id="Layer_1" xmlns="http://www.w3.org/2000/svg" xmlns:xlink="http://www.w3.org/1999/xlink" x="0px" y="0px"
	 viewBox="-269 191 100 100" style="enable-background:new -269 191 100 100;" xml:space="preserve">
<g>
	<path d="M-183.2,261.6c-0.1-19.7-16.1-35.7-35.8-35.7c-19.7,0-35.8,16-35.8,35.7h34.8v17.2c0,3.4-2.8,6.1-6.2,6.1
		c-3.4,0-6.1-2.8-6.1-6.1c0-1.7-1.3-3-3-3c-1.7,0-3,1.3-3,3c0,6.7,5.4,12.2,12.2,12.2c6.7,0,12.2-5.4,12.2-12.2v-17.2L-183.2,261.6z
		"/>
	<path d="M-216.6,191c0,0-10.9,14.3-10.9,20.4c0,6,4.9,10.8,10.9,10.8c6,0,10.9-4.8,10.9-10.8C-205.7,205.4-216.6,191-216.6,191
		 M-218.8,214.1c-2,0-3.6-1.6-3.6-3.6c0-2,3.6-6.8,3.6-6.8s3.6,4.8,3.6,6.8C-215.2,212.5-216.8,214.1-218.8,214.1"/>
</g>
</svg>
