<?xml version="1.0" encoding="utf-8"?>
<!-- Generator: Adobe Illustrator 19.1.0, SVG Export Plug-In . SVG Version: 6.00 Build 0)  -->
<svg version="1.1" id="Layer_1" xmlns="http://www.w3.org/2000/svg" xmlns:xlink="http://www.w3.org/1999/xlink" x="0px" y="0px"
	 viewBox="-269 191 100 100" style="enable-background:new -269 191 100 100;" xml:space="preserve">
<g>
	<path d="M-175.8,240.8c-1.9-8-7.8-13.8-15.2-13.8h-13.1c1.9-2.9,3.1-6.3,3.1-10c0-10-8.1-18.1-18.1-18.1c-10,0-18.1,8.1-18.1,18.1
		c0,3.7,1.1,7.2,3.1,10h-12.4c-7.4,0-13.3,5.8-15.2,13.8l-7.4,42.2h50h50L-175.8,240.8z M-229.1,217c0-5.5,4.5-10,10-10
		c5.5,0,10,4.5,10,10s-4.5,10-10,10C-224.6,227-229.1,222.5-229.1,217"/>
</g>
</svg>
