<?xml version="1.0" encoding="utf-8"?>
<!-- Generator: Adobe Illustrator 19.1.0, SVG Export Plug-In . SVG Version: 6.00 Build 0)  -->
<svg version="1.1" id="Layer_1" xmlns="http://www.w3.org/2000/svg" xmlns:xlink="http://www.w3.org/1999/xlink" x="0px" y="0px"
	 viewBox="-269 191 100 100" style="enable-background:new -269 191 100 100;" xml:space="preserve">
<g>
	<path d="M-217.8,278.5h-1.8c-4-0.9-7-3.6-7-8.2c0-6.6,6.5-10,11.5-7.4c1.3,0.7,2.7,2.1,3.5,3.6C-208.8,271.9-212.9,278-217.8,278.5
		 M-196.3,258.2c-1.8,1.8-4.7,1.8-6.5,0c-9-9.3-23.5-9.3-32.5,0c-1.8,1.8-4.7,1.8-6.5,0c-1.8-1.9-1.8-4.9,0-6.8
		c12.5-13,32.9-13,45.4,0C-194.5,253.3-194.5,256.3-196.3,258.2 M-183.3,244.7c-1.8,1.8-4.7,1.8-6.5,0c-16.1-16.8-42.2-16.8-58.4,0
		c-1.8,1.8-4.7,1.8-6.5,0c-1.8-1.9-1.8-4.9,0-6.8c19.7-20.5,51.7-20.5,71.3,0C-181.5,239.8-181.5,242.8-183.3,244.7 M-170.3,231.2
		c-1.8,1.8-4.7,1.8-6.5,0c-23.3-24.2-61-24.2-84.3,0c-1.8,1.8-4.7,1.8-6.5,0c-1.8-1.8-1.8-4.9,0-6.7c26.9-27.9,70.4-27.9,97.3,0
		C-168.6,226.3-168.6,229.3-170.3,231.2"/>
</g>
</svg>
