<?xml version="1.0" encoding="utf-8"?>
<!-- Generator: Adobe Illustrator 19.1.0, SVG Export Plug-In . SVG Version: 6.00 Build 0)  -->
<svg version="1.1" id="Layer_1" xmlns="http://www.w3.org/2000/svg" xmlns:xlink="http://www.w3.org/1999/xlink" x="0px" y="0px"
	 viewBox="-269 191 100 100" style="enable-background:new -269 191 100 100;" xml:space="preserve">
<g>
	<path d="M-179,191h-80c-5.5,0-10,4.5-10,10v80c0,5.5,4.5,10,10,10h80c5.5,0,10-4.5,10-10v-80C-169,195.5-173.5,191-179,191
		 M-202.7,250.4v9.6h-6.8v9.7c0,0.6-0.5,1.1-1.1,1.1h-3.9c-0.6,0-1.1-0.5-1.1-1.1V260h-7.2v9.7c0,0.6-0.5,1.1-1.1,1.1h-3.9
		c-0.6,0-1.1-0.5-1.1-1.1V260h-6.8v-9.7h0l0,0c3.8-2.9,8.4-5.2,14.6-5.6c7.8-0.5,13.7,2.1,18.2,5.6h0.1v0
		C-202.7,250.3-202.6,250.3-202.7,250.4L-202.7,250.4z M-192.7,244.3c-0.7,0.8-1.6,1.2-2.6,1.2c-0.8,0-1.6-0.3-2.2-0.8
		c-6-5.1-13.7-7.9-21.6-7.9h-0.1c-7.8,0-15.3,2.8-21.2,7.8c-1.5,1.2-3.6,1-4.8-0.4c-1.2-1.5-1-3.6,0.4-4.8c7.2-6,16.3-9.3,25.6-9.4
		c9.6,0,18.9,3.4,26.1,9.5C-191.6,240.7-191.4,242.9-192.7,244.3 M-182.1,232.7c-0.7,0.8-1.6,1.2-2.6,1.2c-0.8,0-1.6-0.3-2.3-0.8
		c-8.9-7.7-20.3-12-32.1-12h-0.2c-11.5,0-22.7,4.1-31.4,11.6c-1.4,1.2-3.6,1-4.8-0.4c-1.2-1.4-1-3.6,0.4-4.8
		c10-8.5,22.7-13.1,35.9-13.2h0.2c13.5,0,26.4,4.8,36.6,13.7C-181,229.1-180.9,231.3-182.1,232.7"/>
</g>
</svg>
