<?xml version="1.0" encoding="utf-8"?>
<!-- Generator: Adobe Illustrator 19.1.0, SVG Export Plug-In . SVG Version: 6.00 Build 0)  -->
<svg version="1.1" id="Layer_1" xmlns="http://www.w3.org/2000/svg" xmlns:xlink="http://www.w3.org/1999/xlink" x="0px" y="0px"
	 viewBox="-269 191 100 100" style="enable-background:new -269 191 100 100;" xml:space="preserve">
<g>
	<path d="M-226.3,258.5c-3.7,0-3.7,3.1-3.7,7.5c0,4.5,0,7.5,3.7,7.5c3.6,0,3.7-3,3.7-7.5C-222.6,261.5-222.7,258.5-226.3,258.5"/>
	<path d="M-213.5,258.5c-3.7,0-3.7,3.1-3.7,7.5c0,4.5,0,7.5,3.7,7.5c3.6,0,3.7-3,3.7-7.5C-209.8,261.5-209.9,258.5-213.5,258.5"/>
	<path d="M-200.7,258.5c-3.7,0-3.7,3.1-3.7,7.5c0,4.5,0,7.5,3.7,7.5c3.6,0,3.7-3,3.7-7.5C-197,261.5-197.1,258.5-200.7,258.5"/>
	<path d="M-190.1,191h-58c-5.8,0-10.5,4.8-10.5,10.6v17v54.7L-219,291l39.5-17.7v-54.7v-17C-179.5,195.8-184.3,191-190.1,191
		 M-233.8,274.7h-8v-1.3h3.1v-14.7l-4,0.4v-0.6l4.9-1.4h0.8v16.4h3.1V274.7z M-226.3,275c-5,0-5.4-3.5-5.4-9c0-5.5,0.4-9,5.4-9
		c5,0,5.4,3.5,5.4,9C-221,271.5-221.3,275-226.3,275 M-213.5,275c-5,0-5.4-3.5-5.4-9c0-5.5,0.4-9,5.4-9c5,0,5.4,3.5,5.4,9
		C-208.2,271.5-208.5,275-213.5,275 M-200.7,275c-5,0-5.4-3.5-5.4-9c0-5.5,0.4-9,5.4-9c5,0,5.4,3.5,5.4,9
		C-195.4,271.5-195.7,275-200.7,275 M-205.8,233.7l3.3,18.5l-16.6-9.1l-16.8,8.8l3.6-18.4l-13.6-13.1l18.8-2.3l8.3-16.9l8,17
		l18.8,2.6L-205.8,233.7z"/>
</g>
</svg>
