<?xml version="1.0" encoding="utf-8"?>
<!-- Generator: Adobe Illustrator 19.1.0, SVG Export Plug-In . SVG Version: 6.00 Build 0)  -->
<svg version="1.1" id="Layer_1" xmlns="http://www.w3.org/2000/svg" xmlns:xlink="http://www.w3.org/1999/xlink" x="0px" y="0px"
	 viewBox="-269 191 100 100" style="enable-background:new -269 191 100 100;" xml:space="preserve">
<g>
	<path d="M-212.1,258.5c-3.7,0-3.7,3.1-3.7,7.5c0,4.5,0,7.5,3.7,7.5c3.6,0,3.7-3.1,3.7-7.5C-208.4,261.5-208.5,258.5-212.1,258.5"/>
	<path d="M-224.9,258.5c-3.7,0-3.7,3.1-3.7,7.5c0,4.5,0,7.5,3.7,7.5c3.6,0,3.7-3.1,3.7-7.5C-221.2,261.5-221.3,258.5-224.9,258.5"/>
	<path d="M-190.1,191h-58c-5.8,0-10.5,4.8-10.5,10.6v17v54.7L-219,291l39.5-17.7v-54.7v-17C-179.5,195.8-184.3,191-190.1,191
		 M-239.2,275c-1.7,0-3-0.3-3.8-0.7v-1.4c0.9,0.3,2.1,0.7,3.9,0.7c2,0,4.7-0.6,4.7-4.2c0-3.5-2.4-3.5-4.6-3.5h-3.3v-8.6h9.2v1.4
		h-7.6v5.7c0.7-0.1,1.6-0.1,2.2-0.1c2.8,0,5.8,0.6,5.8,5C-232.7,274.3-236.5,275-239.2,275 M-224.9,275c-5,0-5.4-3.5-5.4-9
		c0-5.5,0.4-9,5.4-9c5,0,5.4,3.5,5.4,9C-219.5,271.5-219.9,275-224.9,275 M-212.1,275c-5,0-5.4-3.5-5.4-9c0-5.5,0.4-9,5.4-9
		c5,0,5.4,3.5,5.4,9C-206.7,271.5-207.1,275-212.1,275 M-199.3,275c-5,0-5.4-3.5-5.4-9c0-5.5,0.4-9,5.4-9c5,0,5.4,3.5,5.4,9
		C-193.9,271.5-194.2,275-199.3,275 M-205.8,233.7l3.3,18.5l-16.6-9.1l-16.8,8.8l3.6-18.4l-13.6-13.1l18.8-2.3l8.3-16.9l8,17
		l18.8,2.6L-205.8,233.7z"/>
	<path d="M-199.3,258.5c-3.7,0-3.7,3.1-3.7,7.5c0,4.5,0.1,7.5,3.7,7.5c3.6,0,3.7-3.1,3.7-7.5C-195.5,261.5-195.6,258.5-199.3,258.5"
		/>
</g>
</svg>
