<?xml version="1.0" encoding="utf-8"?>
<!-- Generator: Adobe Illustrator 19.1.0, SVG Export Plug-In . SVG Version: 6.00 Build 0)  -->
<svg version="1.1" id="Layer_1" xmlns="http://www.w3.org/2000/svg" xmlns:xlink="http://www.w3.org/1999/xlink" x="0px" y="0px"
	 viewBox="-269 191 100 100" style="enable-background:new -269 191 100 100;" xml:space="preserve">
<g>
	<path d="M-219,234.2c11.6,0,21.1-9.7,21.1-21.6c0-11.9-9.5-21.6-21.1-21.6c-11.6,0-21.1,9.7-21.1,21.6
		C-240.1,224.5-230.6,234.2-219,234.2"/>
	<path d="M-194.3,235.2l-7.2-1.9c-4.7,4.1-10.8,6.6-17.4,6.7c-6.7,0-12.7-2.5-17.4-6.7l-7.2,1.9c-7.7,2.1-10.2,5.4-9.6,9.6l5.8,36.6
		c0.8,5.7,4.3,9.6,9.6,9.6h18.9h0h18.9c5.3,0,8.8-3.9,9.6-9.6l5.8-36.6C-184.1,240.6-186.6,237.4-194.3,235.2"/>
</g>
</svg>
