<?xml version="1.0" encoding="utf-8"?>
<!-- Generator: Adobe Illustrator 19.1.0, SVG Export Plug-In . SVG Version: 6.00 Build 0)  -->
<svg version="1.1" id="Layer_1" xmlns="http://www.w3.org/2000/svg" xmlns:xlink="http://www.w3.org/1999/xlink" x="0px" y="0px"
	 viewBox="-269 191 100 100" style="enable-background:new -269 191 100 100;" xml:space="preserve">
<g>
	<path d="M-218.5,213.7l-0.7-0.1c-2.3,0-4.2,1.9-4.2,4.2v29.6l-12,16.7c-1.4,1.9-0.9,4.6,1,5.9l0.5,0.4c1.9,1.3,4.5,0.8,5.9-1.1
		l12.8-17.9c0.4-0.6,0.6-1.2,0.7-1.9c0.1-0.3,0.2-0.7,0.2-1.1v-30.6C-214.3,215.6-216.1,213.7-218.5,213.7"/>
	<path d="M-219,201.8c-24.6,0-44.6,20-44.6,44.6c0,24.6,20,44.6,44.6,44.6c24.6,0,44.6-20,44.6-44.6
		C-174.4,221.8-194.4,201.8-219,201.8 M-219,283.6c-20.5,0-37.3-16.7-37.3-37.3c0-20.5,16.7-37.3,37.3-37.3
		c20.5,0,37.3,16.7,37.3,37.3C-181.7,266.9-198.5,283.6-219,283.6"/>
	<path d="M-235,197c-4-6.1-11.6-7.7-17.9-4l-2.1,1.2c-6,4-7.7,12.2-3.7,18.2L-235,197z"/>
	<path d="M-182.5,194.1l-2.1-1.2c-6.3-3.7-13.9-2-17.9,4l23.7,15.4C-174.8,206.3-176.5,198.1-182.5,194.1"/>
</g>
</svg>
