<?xml version="1.0" encoding="utf-8"?>
<!-- Generator: Adobe Illustrator 19.1.0, SVG Export Plug-In . SVG Version: 6.00 Build 0)  -->
<svg version="1.1" id="Layer_1" xmlns="http://www.w3.org/2000/svg" xmlns:xlink="http://www.w3.org/1999/xlink" x="0px" y="0px"
	 viewBox="-269 191 100 100" style="enable-background:new -269 191 100 100;" xml:space="preserve">
<g>
	<path d="M-170.7,269.8l-39.5-68.4c-1.8-3.1-5.2-5.1-8.8-5.1c-3.6,0-7,1.9-8.8,5.1l-39.8,69c-1.8,3.1-1.8,7,0,10.2
		c1.8,3.1,5.2,5.1,8.8,5.1h79.7c5.6,0,10.2-4.6,10.2-10.2C-169,273.5-169.6,271.5-170.7,269.8 M-224.4,222.7L-224.4,222.7
		c0-2.9,2.3-5.2,5.2-5.2c2.9,0,5.2,2.3,5.2,5.2v32c0,2.9-2.3,5.2-5.2,5.2c-2.9,0-5.2-2.3-5.2-5.2V222.7z M-219.2,275.7
		c-3.2,0-5.8-2.6-5.8-5.8c0-3.2,2.6-5.8,5.8-5.8c3.2,0,5.8,2.6,5.8,5.8C-213.4,273.1-216,275.7-219.2,275.7"/>
</g>
</svg>
