<?xml version="1.0" encoding="utf-8"?>
<!-- Generator: Adobe Illustrator 19.1.0, SVG Export Plug-In . SVG Version: 6.00 Build 0)  -->
<svg version="1.1" id="Layer_1" xmlns="http://www.w3.org/2000/svg" xmlns:xlink="http://www.w3.org/1999/xlink" x="0px" y="0px"
	 viewBox="-269 191 100 100" style="enable-background:new -269 191 100 100;" xml:space="preserve">
<g>
	<path d="M-201.1,226.7c-1-1.4-3-1.7-4.4-0.6l-12,9v-20.7c0-1.7-1.4-3.2-3.2-3.2h-2.3c-1.7,0-3.2,1.4-3.2,3.2V244
		c0,1.7,1.4,3.2,3.2,3.2h2.3c0.3,0,0.6-0.1,0.9-0.2c0.5-0.1,0.9-0.2,1.3-0.5l18-13.5c1.4-1,1.7-3,0.6-4.4L-201.1,226.7z"/>
	<path d="M-183.6,205.6c-19.5-19.5-51.3-19.5-70.8,0c-19.5,19.5-19.5,51.3,0,70.8c19,19,49.6,19.4,69.2,1.4l2.6-2.6
		C-164.2,255.7-164.5,224.8-183.6,205.6 M-190.4,269.6c-15.8,15.8-41.4,15.8-57.1,0c-15.7-15.7-15.7-41.4,0-57.1
		c15.7-15.7,41.4-15.7,57.1,0C-174.7,228.2-174.7,253.8-190.4,269.6"/>
</g>
</svg>
