<?xml version="1.0" encoding="utf-8"?>
<!-- Generator: Adobe Illustrator 19.1.0, SVG Export Plug-In . SVG Version: 6.00 Build 0)  -->
<svg version="1.1" id="Layer_1" xmlns="http://www.w3.org/2000/svg" xmlns:xlink="http://www.w3.org/1999/xlink" x="0px" y="0px"
	 viewBox="-269 191 100 100" style="enable-background:new -269 191 100 100;" xml:space="preserve">
<g>
	<polygon points="-195.7,254 -199.6,265 -191.8,265 -195.6,254 	"/>
	<g>
		<path d="M-175,232h-30v10.1c0,7.6-5.7,13.9-13.3,13.9h-6.7v25.8c0,3.8,3.2,7.2,7,7.2h43c3.8,0,6-3.4,6-7.2v-43
			C-169,235-171.2,232-175,232 M-185,277.3c-1.4,0-2.6-0.9-3-2.2l0,0.4l-2-5.5h-11.3l-2.1,5.5l0-0.2c-0.4,1.3-1.6,2.1-3,2.1
			c-1.7,0-3.1-1.5-3.1-3.2c0-0.4,0.1-0.7,0.2-1.1l0,0l10.4-27.5l0,0c0.6-1.3,1.9-1.7,3.4-1.7c1.7,0,3.1,1.1,3.6,3.1h0l10,26.2
			c0,0,0-0.2,0-0.2l0-0.1V273c0.1,0.4,0.2,0.7,0.2,1.1C-181.7,275.8-183.2,277.3-185,277.3"/>
		<path d="M-239.7,209.3c-2.7,0-4.8,0.8-6.4,2.6c-1.6,1.7-2.4,4.5-2.4,8.3c0,3.1,0.8,5.7,2.3,7.5c1.5,1.8,3.7,2.7,6.6,2.7
			c0.7,0,1.4-0.1,2-0.2c0,0,0,0,0.1,0l-0.4-0.3l0,0c-0.5-0.4-0.8-1.1-0.8-1.8c0-1.3,1.1-2.4,2.5-2.4c0.5,0,1,0.2,1.4,0.4l0.3,0.3
			c0,0,0,0,0,0l1.1,0.9c0.7-1,1.3-2.2,1.6-3.4c0.4-1.6,0.6-3.1,0.6-4.5c0-3.1-0.8-5.5-2.3-7.4C-234.9,210.2-237,209.3-239.7,209.3"
			/>
		<path d="M-218.3,193h-43c-3.8,0-7.7,2.3-7.7,6.1v43c0,3.8,3.9,6.9,7.7,6.9h43c3.8,0,6.3-3.1,6.3-6.9v-43
			C-212,195.3-214.5,193-218.3,193 M-226.8,232.4c0.1,0,0.1,0.1,0.2,0.1l0.1,0.1h0c0.5,0.4,0.8,1.1,0.8,1.8c0,1.4-1.1,2.4-2.5,2.4
			c-0.7,0-1.3-0.3-1.8-0.8l-2.9-2.2c-0.9,0.5-1.9,0.9-3,1.2c-1.3,0.4-2.7,0.6-4.2,0.6c-4.5,0-8.2-1.6-10.8-4.6
			c-2.3-3-3.4-6.7-3.4-11c0-4,1-7.4,2.9-10.3c2.5-3.7,6.3-5.6,11.3-5.6c5.2,0,9,1.7,11.5,5.1c1.9,2.6,2.9,6,2.9,10.1
			c0,1.9-0.2,3.7-0.7,5.4c-0.6,2.3-1.6,4.3-2.9,5.9L-226.8,232.4z"/>
	</g>
</g>
</svg>
