<?xml version="1.0" encoding="utf-8"?>
<!-- Generator: Adobe Illustrator 19.1.0, SVG Export Plug-In . SVG Version: 6.00 Build 0)  -->
<svg version="1.1" id="Layer_1" xmlns="http://www.w3.org/2000/svg" xmlns:xlink="http://www.w3.org/1999/xlink" x="0px" y="0px"
	 viewBox="-269 191 100 100" style="enable-background:new -269 191 100 100;" xml:space="preserve">
<g>
	<path d="M-180.9,191H-237c-6.2,0-11.1,4.5-11.1,10.7v4.6h46.7c9.6,0,17.6,7.4,17.6,17v46.3h2.9c6.2,0,11.4-5.7,11.4-11.9v-56.1
		C-169.5,195.5-174.7,191-180.9,191"/>
	<path d="M-201.4,212.4h-56.1c-6.2,0-11,4.6-11,10.8v56.1c0,6.2,4.8,11.7,11,11.7h56.1c6.2,0,11.5-5.5,11.5-11.7v-56.1
		C-189.9,217.1-195.2,212.4-201.4,212.4 M-210.2,256.3h-14.5v14.2c0,2.7-2.4,4.9-5.1,4.9c-2.7,0-5.1-2.2-5.1-4.9v-14.2h-13.9
		c-2.7,0-4.9-1.9-4.9-4.6c0-2.7,2.2-4.6,4.9-4.6h13.9V232c0-2.7,2.4-4.9,5.1-4.9c2.7,0,5.1,2.2,5.1,4.9v15.1h14.5
		c2.7,0,4.9,1.9,4.9,4.6C-205.2,254.4-207.4,256.3-210.2,256.3"/>
</g>
</svg>
