<?xml version="1.0" encoding="utf-8"?>
<!-- Generator: Adobe Illustrator 19.1.0, SVG Export Plug-In . SVG Version: 6.00 Build 0)  -->
<svg version="1.1" id="Layer_1" xmlns="http://www.w3.org/2000/svg" xmlns:xlink="http://www.w3.org/1999/xlink" x="0px" y="0px"
	 viewBox="-269 191 100 100" style="enable-background:new -269 191 100 100;" xml:space="preserve">
<g>
	<path d="M-244.7,291c-3,0-6.1-1.2-8.4-3.5l-7.5-7.5c-4.6-4.6-4.7-12.1-0.2-16.8l39.2-40.8c2.2-2.3,5.2-3.6,8.3-3.6
		c3.1,0,6.1,1.2,8.3,3.4c2.2,2.2,3.4,5.2,3.4,8.3c0,3.1-1.3,6.1-3.5,8.3l-26.8,26.8c-1.5,1.5-4,1.5-5.6,0c-1.5-1.5-1.5-4,0-5.6
		l26.8-26.8c0.7-0.8,1.2-1.7,1.2-2.8c0-1-0.4-2-1.1-2.7c-0.7-0.7-1.6-1-2.6-1.1c-1,0-2,0.4-2.7,1.2l-39.2,40.8
		c-1.5,1.6-1.5,4.2,0.1,5.7l7.5,7.5c1.5,1.5,4,1.5,5.6,0l59-59c0.7-0.7,1.2-1.7,1.2-2.8c0-1.1-0.4-2.1-1.2-2.8l-17.4-17.4
		c-0.7-0.7-1.7-1.1-2.7-1.1c-1,0-1.9,0.4-2.7,1.2l-43.6,46.1c-1.5,1.6-4,1.7-5.6,0.2c-1.6-1.5-1.7-4-0.2-5.6l43.6-46.1
		c2.2-2.3,5.1-3.6,8.3-3.6c3.2-0.1,6.1,1.2,8.4,3.4l17.4,17.4c2.2,2.2,3.5,5.2,3.5,8.4c0,3.2-1.2,6.1-3.5,8.4l-59,58.9
		C-238.6,289.8-241.7,291-244.7,291"/>
</g>
</svg>
