<?xml version="1.0" encoding="utf-8"?>
<!-- Generator: Adobe Illustrator 19.1.0, SVG Export Plug-In . SVG Version: 6.00 Build 0)  -->
<svg version="1.1" id="Layer_1" xmlns="http://www.w3.org/2000/svg" xmlns:xlink="http://www.w3.org/1999/xlink" x="0px" y="0px"
	 viewBox="0 0 16 16" style="enable-background:new 0 0 16 16;" xml:space="preserve">
<style type="text/css">
	.st0{fill:#ED3436;}
</style>
<g>
	<path class="st0" d="M13.7,2.3c-3.1-3.1-8.2-3.1-11.3,0c-3.1,3.1-3.1,8.2,0,11.3c3,3,7.9,3.1,11.1,0.2l0.4-0.4
		C16.8,10.4,16.7,5.4,13.7,2.3 M12.6,12.6c-2.5,2.5-6.6,2.5-9.2,0c-2.5-2.5-2.5-6.6,0-9.1c2.5-2.5,6.6-2.5,9.1,0
		C15.1,6,15.1,10.1,12.6,12.6"/>
</g>
<g>
	<path class="st0" d="M11.4,7.5c0,0-1-1.4-3.9-1.7V4.7c0-0.6-0.4-0.8-0.9-0.4L3.8,6.5C3.5,6.8,3.3,7.1,3.4,7.4l0,0
		c0.1,0.2,0.2,0.3,0.3,0.4L6.6,10c0.5,0.4,0.9,0.2,0.9-0.4v-1c0,0,4.2-1.1,4.9,3.3c0,0.1,0,0.1,0,0.1c0,0,0,0,0-0.1
		C12.5,11.1,12.7,8.8,11.4,7.5"/>
</g>
</svg>
