<?xml version="1.0" encoding="utf-8"?>
<!-- Generator: Adobe Illustrator 19.1.0, SVG Export Plug-In . SVG Version: 6.00 Build 0)  -->
<svg version="1.1" id="Layer_1" xmlns="http://www.w3.org/2000/svg" xmlns:xlink="http://www.w3.org/1999/xlink" x="0px" y="0px"
	 viewBox="-269 191 100 100" style="enable-background:new -269 191 100 100;" xml:space="preserve">
<g>
	<path d="M-179.7,211.8h-70.8c-5.9,0-10.6,4.7-10.6,10.6v6.7h-5.1c-1.5,0-2.7,1.3-2.7,2.8v18.3c0,1.5,1.2,2.8,2.7,2.8h5.1v6.6
		c0,5.8,4.8,10.7,10.6,10.7h70.8c5.9,0,10.8-4.8,10.8-10.7v-37.1C-169,216.6-173.9,211.8-179.7,211.8 M-176.3,259.5
		c0,1.8-1.6,3.4-3.5,3.4h-70.8c-1.8,0-3.4-1.6-3.4-3.4v-37.1c0-1.8,1.5-3.3,3.4-3.3h70.8c1.9,0,3.5,1.5,3.5,3.3V259.5z"/>
</g>
</svg>
