<?xml version="1.0" encoding="utf-8"?>
<!-- Generator: Adobe Illustrator 19.1.0, SVG Export Plug-In . SVG Version: 6.00 Build 0)  -->
<svg version="1.1" id="Layer_1" xmlns="http://www.w3.org/2000/svg" xmlns:xlink="http://www.w3.org/1999/xlink" x="0px" y="0px"
	 viewBox="-269 191 100 100" style="enable-background:new -269 191 100 100;" xml:space="preserve">
<g>
	<path d="M-172.9,198.9c0,0-15.8-3.6-47.4-3.1c-31.6,0.5-44.8,3.2-44.8,3.2c-2.8,0.6-4.4,3.3-3.8,6c0,0,4.2,16.8,17.5,39.8
		c13.3,23,28.9,40,28.9,40c1.9,2.1,5,2,6.8-0.1c0,0,18.7-21.1,29-39.4c13.3-23.5,17.5-40.3,17.5-40.3
		C-168.5,202.2-170.2,199.5-172.9,198.9 M-216.8,259.2v4.9c0,2.4-1.9,4.4-4.4,4.4c-2.4,0-4.4-2-4.4-4.4v-4.6h-5.8
		c-2.4,0-4.4-1.9-4.4-4.4c0-2.4,2-4.4,4.4-4.4h10.6c7.6,0,9.7-1.1,9.7-5.2c0-4.1-2.3-5.3-8.3-6c-12.1-1.5-16.8-5.2-16.8-14.2
		c0-6,3.7-14.7,15.9-15.3v-4.7c0-2.4,1.9-4.4,4.3-4.4c2.4,0,4.4,2,4.4,4.4v5.3h3.8c2.5,0,4.4,1.9,4.4,4.4c0,2.4-2,4.3-4.4,4.3
		l-10.7,0.2c-7,0-8.1,2.4-8.1,5.8c0,4,3.3,4.6,9,5.3c10.7,1.4,16.3,4.7,16.3,14.7C-201.3,252.6-204.6,258.2-216.8,259.2"/>
</g>
</svg>
