<?xml version="1.0" encoding="utf-8"?>
<!-- Generator: Adobe Illustrator 19.1.0, SVG Export Plug-In . SVG Version: 6.00 Build 0)  -->
<svg version="1.1" id="Layer_1" xmlns="http://www.w3.org/2000/svg" xmlns:xlink="http://www.w3.org/1999/xlink" x="0px" y="0px"
	 viewBox="-269 191 100 100" style="enable-background:new -269 191 100 100;" xml:space="preserve">
<g>
	<path d="M-189,191h-60.2c-6,0-10.9,5-10.9,11.1v17.7V291l41-19l41,18.9v-71.2v-17.7C-178,196-183,191-189,191 M-200.1,239.2h-14.1
		v14.1c0,2.7-2.2,4.8-4.8,4.8c-2.7,0-4.8-2.2-4.8-4.8v-14.1h-14.1c-2.7,0-4.8-2.2-4.8-4.8c0-2.7,2.2-4.8,4.8-4.8h14.1v-14.1
		c0-2.7,2.2-4.8,4.8-4.8c2.7,0,4.8,2.2,4.8,4.8v14.1h14.1c2.7,0,4.8,2.2,4.8,4.8C-195.3,237-197.5,239.2-200.1,239.2"/>
</g>
</svg>
