<?xml version="1.0" encoding="utf-8"?>
<!-- Generator: Adobe Illustrator 19.1.0, SVG Export Plug-In . SVG Version: 6.00 Build 0)  -->
<svg version="1.1" id="Layer_1" xmlns="http://www.w3.org/2000/svg" xmlns:xlink="http://www.w3.org/1999/xlink" x="0px" y="0px"
	 viewBox="-269 191 100 100" style="enable-background:new -269 191 100 100;" xml:space="preserve">
<g>
	<path d="M-208.6,250.7c3.2,0,4.4-2.5,4.4-4.3c0-1.8-0.8-4.3-4.4-4.3c-3.6,0-4.4,2.4-4.4,4.3C-213,248.2-211.8,250.7-208.6,250.7"/>
	<path d="M-208.6,256.3c-3.5,0-5.3,2-5.3,4.9c0,2,1.2,4.8,5.3,4.8c4.1,0,5.3-2.8,5.3-4.8C-203.3,258.3-205.1,256.3-208.6,256.3"/>
	<path d="M-269,225.5v48c0,5.5,4.5,10,10,10h80c5.5,0,10-4.5,10-10v-48H-269z M-223.3,270.3h-17c-1.6,0-2.9-1.3-2.9-2.9
		c0-0.8,0.3-1.5,0.8-2l12.9-15.9c1-1.2,1.3-2,1.3-3.2c0-2-0.8-3.8-4.7-3.8c-2.2,0-2.7-0.3-5.8,0.9c-0.4,0.3-1,0.5-1.5,0.5
		c-1.5,0-2.7-1.2-2.7-2.7c0-1,0.6-1.9,1.5-2.4l0,0c2.2-1,5.1-1.8,8.5-1.8c9.2,0,10.5,5.4,10.5,9.1c0,2.9-1.4,5.4-3.9,8.2l-9.2,10.2
		h11.9c0.1,0,0.2,0,0.3,0c1.5,0,2.8,1.2,2.8,2.8C-220.6,269.1-221.8,270.3-223.3,270.3 M-208.6,271.5c-8.4,0-11.4-5-11.4-10.3
		c0-2.8,1.2-6.5,3.6-8.1c-1.6-1.6-2.6-4.4-2.6-6.6c0-4.9,2.6-9.8,10.4-9.8c7.8,0,10.4,4.9,10.4,9.8c0,2.2-1.1,5-2.6,6.6
		c2.4,1.6,3.6,5.3,3.6,8.1C-197.3,266.5-200.2,271.5-208.6,271.5"/>
	<path d="M-179,198.5h-80c-5.5,0-10,4.5-10,10v14h100v-14C-169,203-173.5,198.5-179,198.5 M-240.3,216.3c-2.8,0-5.1-2.2-5.1-5.1
		c0-2.8,2.3-5.1,5.1-5.1c2.8,0,5.1,2.2,5.1,5.1C-235.3,214-237.5,216.3-240.3,216.3 M-197.6,216.1c-2.8,0-5.1-2.3-5.1-5.1
		c0-2.8,2.3-5.1,5.1-5.1c2.8,0,5.1,2.3,5.1,5.1C-192.5,213.8-194.8,216-197.6,216.1"/>
</g>
</svg>
