<?xml version="1.0" encoding="utf-8"?>
<!-- Generator: Adobe Illustrator 19.1.0, SVG Export Plug-In . SVG Version: 6.00 Build 0)  -->
<svg version="1.1" id="Layer_1" xmlns="http://www.w3.org/2000/svg" xmlns:xlink="http://www.w3.org/1999/xlink" x="0px" y="0px"
	 viewBox="-269 191 100 100" style="enable-background:new -269 191 100 100;" xml:space="preserve">
<g>
	<path d="M-179,198.5h-80c-5.5,0-10,4.5-10,10v65c0,5.5,4.5,10,10,10h80c5.5,0,10-4.5,10-10v-65C-169,203-173.5,198.5-179,198.5z
		 M-243,275.5c0,0.6-0.4,1-1,1h-17c-0.6,0-1-0.4-1-1v-13c0-0.5,0.4-1,1-1h17c0.6,0,1,0.5,1,1V275.5z M-243,257.5c0,0.6-0.4,1-1,1
		h-17c-0.6,0-1-0.4-1-1v-13c0-0.5,0.4-1,1-1h17c0.6,0,1,0.5,1,1V257.5z M-243,239.5c0,0.5-0.4,1-1,1h-17c-0.6,0-1-0.5-1-1v-13
		c0-0.6,0.4-1,1-1h17c0.6,0,1,0.4,1,1V239.5z M-245.1,211.2c0-2.8,2.2-5,5-5c2.8,0,5,2.2,5,5c0,2.8-2.2,5-5,5
		C-242.9,216.2-245.1,213.9-245.1,211.2z M-220,275.5c0,0.6-0.4,1-1,1h-17c-0.6,0-1-0.4-1-1v-13c0-0.5,0.4-1,1-1h17c0.6,0,1,0.5,1,1
		V275.5z M-220,257.5c0,0.6-0.4,1-1,1h-17c-0.6,0-1-0.4-1-1v-13c0-0.5,0.4-1,1-1h17c0.6,0,1,0.5,1,1V257.5z M-220,239.5
		c0,0.5-0.4,1-1,1h-17c-0.6,0-1-0.5-1-1v-13c0-0.6,0.4-1,1-1h17c0.6,0,1,0.4,1,1V239.5z M-198,275.5c0,0.6-0.4,1-1,1h-17
		c-0.6,0-1-0.4-1-1v-13c0-0.5,0.4-1,1-1h17c0.6,0,1,0.5,1,1V275.5z M-198,257.5c0,0.6-0.4,1-1,1h-17c-0.6,0-1-0.4-1-1v-13
		c0-0.5,0.4-1,1-1h17c0.6,0,1,0.5,1,1V257.5z M-198,239.5c0,0.5-0.4,1-1,1h-17c-0.6,0-1-0.5-1-1v-13c0-0.6,0.4-1,1-1h17
		c0.6,0,1,0.4,1,1V239.5z M-202.8,211.2c0-2.8,2.2-5,5-5c2.8,0,5,2.2,5,5c0,2.8-2.2,5-5,5C-200.5,216.2-202.8,213.9-202.8,211.2z
		 M-176,275.5c0,0.6-0.4,1-1,1h-17c-0.5,0-1-0.4-1-1v-13c0-0.5,0.4-1,1-1h17c0.6,0,1,0.5,1,1V275.5z M-176,257.5c0,0.6-0.4,1-1,1
		h-17c-0.5,0-1-0.4-1-1v-13c0-0.5,0.4-1,1-1h17c0.6,0,1,0.5,1,1V257.5z M-176,239.5c0,0.5-0.4,1-1,1h-17c-0.5,0-1-0.5-1-1v-13
		c0-0.6,0.4-1,1-1h17c0.6,0,1,0.4,1,1V239.5z"/>
</g>
</svg>
