<?xml version="1.0" encoding="utf-8"?>
<!-- Generator: Adobe Illustrator 19.1.0, SVG Export Plug-In . SVG Version: 6.00 Build 0)  -->
<svg version="1.1" id="Layer_1" xmlns="http://www.w3.org/2000/svg" xmlns:xlink="http://www.w3.org/1999/xlink" x="0px" y="0px"
	 viewBox="-269 191 100 100" style="enable-background:new -269 191 100 100;" xml:space="preserve">
<g>
	<path d="M-229,261.3c-5.4,0-9.7,4.4-9.7,9.7c0,5.4,4.4,9.7,9.7,9.7c5.4,0,9.7-4.4,9.7-9.7C-219.2,265.7-223.6,261.3-229,261.3"/>
	<path d="M-190.9,261.3c-5.4,0-9.7,4.4-9.7,9.7c0,5.4,4.4,9.7,9.7,9.7c5.4,0,9.7-4.4,9.7-9.7C-181.2,265.7-185.6,261.3-190.9,261.3"
		/>
	<path d="M-180,259.7h-56.1c-1.2,0-2.3-0.8-2.7-1.9l-19.1-50.7h-8.1c-1.6,0-2.9-1.3-2.9-2.9c0-1.6,1.3-2.9,2.9-2.9h10.1
		c1.2,0,2.3,0.8,2.7,1.9l19.1,50.7h54.1c1.6,0,2.9,1.3,2.9,2.9C-177.1,258.3-178.4,259.7-180,259.7"/>
	<path d="M-173.4,209.9h-72.3c0,0,13.1,34.8,13.3,35.5c1,2.9,2.3,3.4,4.8,3.4h48.4c0,0,4.6-16.3,9.7-31.8c0.2-0.5,0.5-2.1,0.5-2.5
		C-169,212-170.9,209.9-173.4,209.9"/>
</g>
</svg>
