<?xml version="1.0" encoding="utf-8"?>
<!-- Generator: Adobe Illustrator 19.1.0, SVG Export Plug-In . SVG Version: 6.00 Build 0)  -->
<svg version="1.1" id="Layer_1" xmlns="http://www.w3.org/2000/svg" xmlns:xlink="http://www.w3.org/1999/xlink" x="0px" y="0px"
	 viewBox="-269 191 100 100" style="enable-background:new -269 191 100 100;" xml:space="preserve">
<g>
	<path d="M-177.5,196.2H-220c-4.7,0-8.5,4.7-8.5,10.4v4.5h38.8c4.7,0,8.5,4.7,8.5,10.4v47.6h3.7c4.7,0,8.5-4.7,8.5-10.4v-52.2
		C-169,200.8-172.8,196.2-177.5,196.2"/>
	<path d="M-194.3,216.8h-42.5c-4.7,0-8.5,4.7-8.5,10.4v52.2c0,5.8,3.8,10.4,8.5,10.4h42.5c4.7,0,8.5-4.7,8.5-10.4v-52.2
		C-185.8,221.4-189.6,216.8-194.3,216.8 M-232.2,237.4c0-1,0.7-1.9,1.5-1.9h21.4c0.8,0,1.5,0.8,1.5,1.9v5.6c0,1-0.7,1.9-1.5,1.9
		h-21.4c-0.8,0-1.5-0.8-1.5-1.9V237.4z M-218.5,273c0,1-0.7,1.9-1.5,1.9h-10.7c-0.8,0-1.5-0.8-1.5-1.9v-5.6c0-1,0.7-1.9,1.5-1.9
		h10.7c0.8,0,1.5,0.8,1.5,1.9V273z M-197.1,258c0,1-0.7,1.9-1.5,1.9h-32c-0.8,0-1.5-0.8-1.5-1.9v-5.6c0-1,0.7-1.9,1.5-1.9h32
		c0.8,0,1.5,0.8,1.5,1.9V258z"/>
	<path d="M-256.1,261.7c-11.3-9.2-15.9-27.1-10.8-42.7c2.7-8.1,7.7-14.7,14-18.5l-0.3-1l-2.5-7.3l20.3,4.5l-11.4,21.1l-2.7-7.7
		c-4.3,2.7-7.7,7.3-9.5,12.8c-3.6,11-0.4,23.6,7.6,30.1c1.7,1.4,2.3,4,1.6,6.3c-0.1,0.3-0.2,0.6-0.4,0.9
		C-251.5,262.6-254.2,263.2-256.1,261.7"/>
</g>
</svg>
