<?xml version="1.0" encoding="utf-8"?>
<!-- Generator: Adobe Illustrator 19.1.0, SVG Export Plug-In . SVG Version: 6.00 Build 0)  -->
<svg version="1.1" id="Layer_1" xmlns="http://www.w3.org/2000/svg" xmlns:xlink="http://www.w3.org/1999/xlink" x="0px" y="0px"
	 viewBox="364.5 443.8 16 15.9" style="enable-background:new 364.5 443.8 16 15.9;" xml:space="preserve">
<style type="text/css">
	.st0{fill:#ED3436;}
	.st1{fill:#EA2629;}
</style>
<g>
	<path class="st0" d="M378.1,446.1c-3.1-3.1-8.2-3.1-11.3,0c-3.1,3.1-3.1,8.2,0,11.3c3,3,7.9,3.1,11.1,0.2l0.4-0.4
		C381.2,454.1,381.2,449.1,378.1,446.1 M377,456.3c-2.5,2.5-6.6,2.5-9.2,0c-2.5-2.5-2.5-6.6,0-9.1s6.6-2.5,9.1,0
		C379.5,449.7,379.5,453.8,377,456.3"/>
</g>
<g>
	<path class="st1" d="M375.5,452.5h-2.3v2.3c0,0.4-0.4,0.8-0.8,0.8s-0.8-0.4-0.8-0.8v-2.3h-2.3c-0.4,0-0.8-0.4-0.8-0.8
		s0.4-0.8,0.8-0.8h2.3v-2.3c0-0.4,0.4-0.8,0.8-0.8s0.8,0.4,0.8,0.8v2.3h2.3c0.4,0,0.8,0.4,0.8,0.8
		C376.3,452.2,375.9,452.5,375.5,452.5"/>
</g>
</svg>
