<?xml version="1.0" encoding="utf-8"?>
<!-- Generator: Adobe Illustrator 19.1.0, SVG Export Plug-In . SVG Version: 6.00 Build 0)  -->
<svg version="1.1" id="Layer_1" xmlns="http://www.w3.org/2000/svg" xmlns:xlink="http://www.w3.org/1999/xlink" x="0px" y="0px"
	 viewBox="-269 191 100 100" style="enable-background:new -269 191 100 100;" xml:space="preserve">
<g>
	<path d="M-265.1,268.4l27.4-27.4l-27.4-27.4c-5.2-5.2-5.2-13.6,0-18.8c5.2-5.2,13.6-5.2,18.8,0l27.4,27.4l27.4-27.4
		c5.2-5.2,13.6-5.2,18.8,0c5.2,5.2,5.2,13.6,0,18.8l-27.4,27.4l27.4,27.4c5.2,5.2,5.2,13.6,0,18.8c-5.2,5.2-13.6,5.2-18.8,0
		l-27.4-27.4l-27.4,27.4c-5.2,5.2-13.6,5.2-18.8,0C-270.3,281.9-270.3,273.5-265.1,268.4"/>
</g>
</svg>
