<?xml version="1.0" encoding="utf-8"?>
<!-- Generator: Adobe Illustrator 19.1.0, SVG Export Plug-In . SVG Version: 6.00 Build 0)  -->
<svg version="1.1" id="Layer_1" xmlns="http://www.w3.org/2000/svg" xmlns:xlink="http://www.w3.org/1999/xlink" x="0px" y="0px"
	 viewBox="-269 191 100 100" style="enable-background:new -269 191 100 100;" xml:space="preserve">
<g>
	<polygon points="-226.3,237.8 -215.8,248.3 -177.3,209.8 -187.8,199.3 	"/>
	<polygon points="-229.2,240.6 -240.5,262.5 -218.6,251.2 	"/>
	<path d="M-170.2,197l-4.9-4.9c-1.6-1.6-4.1-1.6-5.7,0l-4.2,4.3l10.6,10.6l4.3-4.3C-168.6,201.2-168.6,198.6-170.2,197z"/>
	<path d="M-191.7,273.7c0,3.7-3,6.7-6.7,6.7h-53.3c-3.7,0-6.7-3-6.7-6.7v-53.3c0-3.7,3-6.7,6.7-6.7h38.1l10.7-10.7h-48.8
		c-9.6,0-17.3,7.8-17.3,17.3v53.3c0,9.6,7.8,17.3,17.3,17.3h53.3c9.6,0,17.3-7.8,17.3-17.3v-48.8l-10.7,10.7V273.7z"/>
</g>
</svg>
