<?xml version="1.0" encoding="utf-8"?>
<!-- Generator: Adobe Illustrator 19.1.0, SVG Export Plug-In . SVG Version: 6.00 Build 0)  -->
<svg version="1.1" id="Layer_1" xmlns="http://www.w3.org/2000/svg" xmlns:xlink="http://www.w3.org/1999/xlink" x="0px" y="0px"
	 viewBox="-269 191 100 100" style="enable-background:new -269 191 100 100;" xml:space="preserve">
<g>
	<path d="M-211.9,191c-9.8,0-17.7,8.1-17.7,18.2c0,10,7.9,18.2,17.7,18.2c9.8,0,17.7-8.1,17.7-18.2
		C-194.2,199.1-202.2,191-211.9,191"/>
	<path d="M-187.9,235.5c-0.8-4.6-3.6-8.1-8.1-8.1h-1.4c-4,3.3-9,5.3-14.5,5.3c-5.5,0-10.6-2-14.5-5.3h-1.4c-4.5,0-7.3,3.2-8.1,8.1
		l-3.3,21.9c10.1,0.2,18.2,8.4,18.2,18.5h23.8h6.1c4.5,0,8.1-3.6,8.1-8.1L-187.9,235.5z"/>
	<path d="M-239.9,260.9c-8.3,0-15,6.7-15,15c0,8.3,6.7,15,15,15c8.3,0,15-6.7,15-15C-224.8,267.7-231.6,260.9-239.9,260.9
		 M-235.9,275.9h-2.6v9.3h-3.9v-9.3h-1.8v-3.3h1.8v-2.1c0-1.5,0.7-3.9,3.9-3.9l2.9,0v3.2h-2.1c-0.3,0-0.8,0.2-0.8,0.9v1.9h2.9
		L-235.9,275.9z"/>
</g>
</svg>
