<?xml version="1.0" encoding="utf-8"?>
<!-- Generator: Adobe Illustrator 19.1.0, SVG Export Plug-In . SVG Version: 6.00 Build 0)  -->
<svg version="1.1" id="Layer_1" xmlns="http://www.w3.org/2000/svg" xmlns:xlink="http://www.w3.org/1999/xlink" x="0px" y="0px"
	 viewBox="-269 191 100 100" style="enable-background:new -269 191 100 100;" xml:space="preserve">
<g>
	<path d="M-185.1,202.5h-19l-2.8-9.9c-0.4-1-1.3-1.6-2.4-1.6h-19.6c-1.1,0-2,0.7-2.4,1.6l-2.7,9.9h-19c-2.6,0-4.7,2.1-4.7,4.7
		c0,2.6,2.1,4.7,4.7,4.7h67.9c2.6,0,4.7-2.1,4.7-4.7C-180.3,204.7-182.4,202.5-185.1,202.5 M-228.5,202.5l1.5-6.5h16.1l1.5,6.5
		H-228.5z"/>
	<path d="M-252.9,285.9c0,2.8,2.3,5.1,5.1,5.1h57.7c2.8,0,5.1-2.3,5.1-5.1v-66.2h-67.9V285.9z M-203,233.3c0-2.1,1.7-3.7,3.8-3.7
		c2.1,0,3.8,1.7,3.8,3.7V277c0,2.1-1.7,3.7-3.8,3.7c-2.1,0-3.8-1.7-3.8-3.7V233.3z M-222.8,233.3c0-2.1,1.7-3.7,3.8-3.7
		c2.1,0,3.8,1.7,3.8,3.7V277c0,2.1-1.7,3.7-3.8,3.7c-2.1,0-3.8-1.7-3.8-3.7V233.3z M-242.6,233.3c0-2.1,1.7-3.7,3.8-3.7
		c2.1,0,3.8,1.7,3.8,3.7V277c0,2.1-1.7,3.7-3.8,3.7c-2.1,0-3.8-1.7-3.8-3.7V233.3z"/>
</g>
</svg>
