<?xml version="1.0" encoding="utf-8"?>
<!-- Generator: Adobe Illustrator 19.1.0, SVG Export Plug-In . SVG Version: 6.00 Build 0)  -->
<svg version="1.1" id="Layer_1" xmlns="http://www.w3.org/2000/svg" xmlns:xlink="http://www.w3.org/1999/xlink" x="0px" y="0px"
	 viewBox="-269 191 100 100" style="enable-background:new -269 191 100 100;" xml:space="preserve">
<g>
	<path d="M-169,241c0,27.6-22.4,50-50,50s-50-22.4-50-50c0-27.6,22.4-50,50-50S-169,213.4-169,241 M-197.1,254.5
		c0-12.6-7.1-16.8-20.5-18.5c-7.2-0.9-11.3-1.6-11.3-6.7c0-4.2,1.4-7.3,10.2-7.3l13.5-0.3c3.1,0,5.6-2.4,5.6-5.5
		c0-3.1-2.5-5.5-5.6-5.5h-4.7v-6.7c0-3.1-2.4-5.6-5.5-5.6c-3.1,0-5.5,2.5-5.5,5.6v6c-15.4,0.8-20,11.7-20,19.2
		c0,11.3,5.9,15.9,21.1,17.9c7.5,0.9,10.4,2.4,10.4,7.6c0,5.2-2.7,6.5-12.2,6.5h-13.3c-3.1,0-5.6,2.4-5.6,5.5c0,3.1,2.5,5.5,5.6,5.5
		h7.3v5.8v0c0,3.1,2.4,5.6,5.5,5.6c3.1,0,5.5-2.5,5.5-5.6v0v-6.2C-201.2,270.6-197.1,263.5-197.1,254.5"/>
</g>
</svg>
