<?xml version="1.0" encoding="utf-8"?>
<!-- Generator: Adobe Illustrator 19.1.0, SVG Export Plug-In . SVG Version: 6.00 Build 0)  -->
<svg version="1.1" id="Icons" xmlns="http://www.w3.org/2000/svg" xmlns:xlink="http://www.w3.org/1999/xlink" x="0px" y="0px"
	 viewBox="471 382 30 30" style="enable-background:new 471 382 30 30;" xml:space="preserve">
<style type="text/css">
	.st0{fill:#ED3135;}
</style>
<path class="st0" d="M486,382c-8.3,0-15,6.7-15,15s6.7,15,15,15s15-6.7,15-15S494.3,382,486,382z M480.9,394.9h2.4v-1.6V391v-0.1
	l0,0c0.1-0.8,0.7-1.4,1.5-1.4h2.3c0.8,0,1.4,0.6,1.5,1.4l0,0v0.1v2.3v1.6h2.4c0.8,0,1,0.5,0.4,1l-4.4,4.4c-0.6,0.6-1.5,0.6-2.1,0
	l-4.4-4.4C479.9,395.3,480.1,394.9,480.9,394.9z M491.1,404.5h-8h-2.2c-0.4,0-0.8-0.3-0.8-0.8c0-0.4,0.3-0.8,0.8-0.8h2.2h8
	c0.4,0,0.8,0.3,0.8,0.8S491.5,404.5,491.1,404.5z"/>
</svg>
