<?xml version="1.0" encoding="utf-8"?>
<!-- Generator: Adobe Illustrator 19.1.0, SVG Export Plug-In . SVG Version: 6.00 Build 0)  -->
<svg version="1.1" id="Layer_1" xmlns="http://www.w3.org/2000/svg" xmlns:xlink="http://www.w3.org/1999/xlink" x="0px" y="0px"
	 viewBox="-269 191 100 100" style="enable-background:new -269 191 100 100;" xml:space="preserve">
<g>
	<path d="M-185,280.9h-53.1H-253c-2.8,0-5,2.3-5,5.1c0,2.8,2.3,5.1,5,5.1h14.6h53.3c2.8,0,5-2.3,5-5.1
		C-180,283.1-182.3,280.9-185,280.9"/>
	<path d="M-185.3,226.8h-16v-10.7v-15.1v-0.8h0c-0.4-5.2-4.8-9.3-10-9.3h-15.1c-5.3,0-9.6,4.1-10,9.3h0v0.8v15.1v10.7h-16.1
		c-5.5,0-6.9,3-2.9,6.9l29.5,29.4c3.9,3.9,10.3,3.9,14.2-0.1l29.5-29.3C-178.4,229.8-179.8,226.8-185.3,226.8"/>
</g>
</svg>
