<?xml version="1.0" encoding="utf-8"?>
<!-- Generator: Adobe Illustrator 19.1.0, SVG Export Plug-In . SVG Version: 6.00 Build 0)  -->
<svg version="1.1" id="Layer_1" xmlns="http://www.w3.org/2000/svg" xmlns:xlink="http://www.w3.org/1999/xlink" x="0px" y="0px"
	 viewBox="-269 191 100 100" style="enable-background:new -269 191 100 100;" xml:space="preserve">
<g>
	<path d="M-250.3,217.2c0-4,1.3-8,3.8-12.1c2.5-4.1,6.3-7.4,11.1-10.1c4.9-2.7,10.6-4,17.1-4c6.1,0,11.4,1.1,16,3.3
		c4.6,2.2,8.2,5.3,10.7,9.1c2.5,3.8,3.8,8,3.8,12.5c0,3.5-0.7,6.7-2.2,9.3c-1.4,2.7-3.2,5-5.1,6.9c-2,1.9-5.5,5.2-10.7,9.8
		c-1.4,1.3-2.6,2.4-3.4,3.4c-0.9,1-1.5,1.9-1.9,2.7c-0.4,0.8-0.7,1.6-1,2.4c-0.2,0.8-0.6,2.2-1,4.3c-0.8,4.3-3.3,6.5-7.4,6.5
		c-2.2,0-4-0.7-5.5-2.1c-1.5-1.4-2.2-3.5-2.2-6.3c0-3.5,0.5-6.5,1.6-9.1c1.1-2.6,2.5-4.8,4.3-6.8c1.8-1.9,4.2-4.2,7.3-6.9
		c2.7-2.3,4.6-4.1,5.8-5.3c1.2-1.2,2.2-2.5,3-4c0.8-1.5,1.2-3,1.2-4.8c0-3.3-1.2-6.2-3.7-8.5c-2.5-2.3-5.7-3.4-9.6-3.4
		c-4.6,0-8,1.2-10.1,3.5c-2.2,2.3-4,5.7-5.5,10.2c-1.4,4.7-4.1,7.1-8.1,7.1c-2.3,0-4.3-0.8-5.9-2.5
		C-249.5,220.9-250.3,219.1-250.3,217.2 M-219.8,291c-2.5,0-4.8-0.8-6.7-2.5c-1.9-1.6-2.9-4-2.9-6.9c0-2.6,0.9-4.8,2.8-6.6
		c1.8-1.8,4.1-2.7,6.8-2.7c2.6,0,4.8,0.9,6.6,2.7c1.8,1.8,2.7,4,2.7,6.6c0,2.9-0.9,5.2-2.8,6.9C-215.1,290.2-217.3,291-219.8,291"/>
</g>
</svg>
