<?xml version="1.0" encoding="utf-8"?>
<!-- Generator: Adobe Illustrator 19.1.0, SVG Export Plug-In . SVG Version: 6.00 Build 0)  -->
<svg version="1.1" id="Layer_1" xmlns="http://www.w3.org/2000/svg" xmlns:xlink="http://www.w3.org/1999/xlink" x="0px" y="0px"
	 viewBox="-269 191 100 100" style="enable-background:new -269 191 100 100;" xml:space="preserve">
<style type="text/css">
	.st0{fill-rule:evenodd;clip-rule:evenodd;}
</style>
<g>
	<path class="st0" d="M-198.9,216.8c-1.6-1-2.9-1.9-2.9-1.8c0,0-1.3-0.8-2.9-1.9l-5.7-3.9c-1.5-1.1-3.7-0.7-4.7,0.9l-33.8,50.7
		c-1,1.6-0.6,3.7,1,4.7l5.8,3.8c1.6,1,2.8,1.9,2.8,1.9s1.3,0.9,2.8,1.9l2.9,1.9c1.6,1,3.7,0.6,4.8-0.9l33.8-50.7
		c1-1.6,0.6-3.7-1-4.7L-198.9,216.8z"/>
	<path class="st0" d="M-252.7,290.6c-1.6,0.9-2.8,0.2-2.5-1.7l2.5-18.7c0.2-1.9,1.7-2.5,3.3-1.5l13.5,9c1.6,1,1.5,2.7-0.1,3.6
		L-252.7,290.6z"/>
	<path class="st0" d="M-189.3,214.9c-1,1.6-3.2,2-4.7,1l-14.3-9.5c-1.6-1-2-3.2-0.9-4.7l6-9c1-1.6,3.2-2,4.7-1l14.3,9.5
		c1.6,1,2,3.2,1,4.8L-189.3,214.9z"/>
</g>
</svg>
