<?xml version="1.0" encoding="utf-8"?>
<!-- Generator: Adobe Illustrator 19.1.0, SVG Export Plug-In . SVG Version: 6.00 Build 0)  -->
<svg version="1.1" id="Layer_1" xmlns="http://www.w3.org/2000/svg" xmlns:xlink="http://www.w3.org/1999/xlink" x="0px" y="0px"
	 viewBox="-269 191 100 100" style="enable-background:new -269 191 100 100;" xml:space="preserve">
<g>
	<path d="M-245,280c-5.5,0-10-4.5-10-10v-62h-1c-5.5,0-10,4.5-10,10v63c0,5.5,4.5,10,10,10h57c5.5,0,10-4.5,10-10v-1H-245z"/>
	<path d="M-194.4,216.8h16.2l-22-20.4l0,14.6C-200.2,214.2-197.6,216.8-194.4,216.8"/>
	<path d="M-194.4,222.5c-6.4,0-11.5-5.2-11.5-11.5v-19.9l-0.1-0.1h-33c-5.5,0-10,4.5-10,10v63c0,5.5,4.5,10,10,10h57
		c5.5,0,10-4.5,10-10v-41.5H-194.4z M-188.4,258.1h-44.5c-1.7,0-3-1.3-3-3c0-1.7,1.3-3,3-3h44.5c1.7,0,3,1.3,3,3
		C-185.4,256.8-186.8,258.1-188.4,258.1 M-188.4,242.8h-44.5c-1.7,0-3-1.3-3-3c0-1.7,1.3-3,3-3h44.5c1.7,0,3,1.3,3,3
		C-185.4,241.5-186.8,242.8-188.4,242.8"/>
</g>
</svg>
