<?xml version="1.0" encoding="utf-8"?>
<!-- Generator: Adobe Illustrator 19.1.0, SVG Export Plug-In . SVG Version: 6.00 Build 0)  -->
<svg version="1.1" id="Layer_1" xmlns="http://www.w3.org/2000/svg" xmlns:xlink="http://www.w3.org/1999/xlink" x="0px" y="0px"
	 viewBox="-269 191 100 100" style="enable-background:new -269 191 100 100;" xml:space="preserve">
<g>
	<path d="M-170.8,261.2V246l-6.3-22.6c-0.5-2.3-2.8-4.8-4.8-4.8h-19.9v-9.8c0-2.7-2.2-4.8-4.8-4.8h-55.9c-2.7,0-4.8,2.2-4.8,4.8
		v52.5c-1,0.5-1.7,1.5-1.7,2.6c0,1.6,1.3,2.9,2.9,2.9h8.9c0.7-7.1,6.7-12.7,13.9-12.7c7.3,0,13.3,5.6,13.9,12.7h20.7
		c0.6-7.1,6.6-12.7,13.9-12.7c7.3,0,13.3,5.6,13.9,12.7h8.7h0.2c1.6,0,2.9-1.3,2.9-2.9C-169,262.7-169.7,261.6-170.8,261.2
		 M-197.5,240.4v-17h14.5l5.2,17H-197.5z"/>
	<path d="M-233.3,268c0,5.5-4.5,10-10,10c-5.5,0-10-4.5-10-10c0-5.5,4.5-10,10-10C-237.7,258-233.3,262.5-233.3,268"/>
	<path d="M-184.7,268c0,5.5-4.5,10-10,10c-5.5,0-10-4.5-10-10c0-5.5,4.5-10,10-10C-189.2,258-184.7,262.5-184.7,268"/>
</g>
</svg>
