<?xml version="1.0" encoding="utf-8"?>
<!-- Generator: Adobe Illustrator 19.1.0, SVG Export Plug-In . SVG Version: 6.00 Build 0)  -->
<svg version="1.1" id="Layer_1" xmlns="http://www.w3.org/2000/svg" xmlns:xlink="http://www.w3.org/1999/xlink" x="0px" y="0px"
	 viewBox="-269 191 100 100" style="enable-background:new -269 191 100 100;" xml:space="preserve">
<g>
	<path d="M-229,261.3c-5.4,0-9.7,4.4-9.7,9.7c0,5.4,4.4,9.7,9.7,9.7c5.4,0,9.7-4.4,9.7-9.7C-219.2,265.7-223.6,261.3-229,261.3"/>
	<path d="M-190.9,261.3c-5.4,0-9.7,4.4-9.7,9.7c0,5.4,4.4,9.7,9.7,9.7c5.4,0,9.7-4.4,9.7-9.7C-181.2,265.7-185.6,261.3-190.9,261.3"
		/>
	<path d="M-180,259.7h-56.2c-1.2,0-2.3-0.8-2.7-1.9l-19.1-50.7h-8.1c-1.6,0-2.9-1.3-2.9-2.9c0-1.6,1.3-2.9,2.9-2.9h10.1
		c1.2,0,2.3,0.8,2.7,1.9l19.1,50.7h54.1c1.6,0,2.9,1.3,2.9,2.9C-177.1,258.3-178.4,259.7-180,259.7"/>
	<path d="M-169,214.5c0,0.5-0.3,2-0.5,2.5c-5.1,15.5-9.7,31.9-9.7,31.9h-48.4c-2.5,0-3.8-0.5-4.8-3.4c-0.2-0.7-13.3-35.5-13.3-35.5
		h72.3C-170.9,209.9-169,212-169,214.5 M-216.1,223.1c0.5,0.5,1.2,0.8,1.9,0.8c1.3,0,2.2-0.8,2.6-2.3c0.5-1.5,1.1-2.6,1.8-3.3
		c0.7-0.8,1.8-1.1,3.3-1.1c1.3,0,2.3,0.4,3.1,1.1c0.8,0.7,1.2,1.7,1.2,2.8c0,0.6-0.1,1.1-0.4,1.6c-0.3,0.5-0.6,0.9-1,1.3
		c-0.4,0.4-1,1-1.9,1.7c-1,0.9-1.8,1.6-2.4,2.3c-0.6,0.6-1.1,1.4-1.4,2.2c-0.4,0.8-0.5,1.8-0.5,3c0,0.9,0.2,1.6,0.7,2.1
		c0.5,0.5,1.1,0.7,1.8,0.7c1.4,0,2.2-0.7,2.4-2.1c0.2-0.7,0.3-1.1,0.3-1.4c0.1-0.3,0.2-0.5,0.3-0.8c0.1-0.3,0.3-0.6,0.6-0.9
		c0.3-0.3,0.7-0.7,1.1-1.1c1.7-1.5,2.8-2.6,3.5-3.2c0.7-0.6,1.2-1.4,1.7-2.3c0.5-0.9,0.7-1.9,0.7-3c0-1.5-0.4-2.8-1.2-4.1
		c-0.8-1.3-2-2.2-3.5-3c-1.5-0.7-3.3-1.1-5.2-1.1c-2.1,0-4,0.4-5.6,1.3c-1.6,0.9-2.8,2-3.6,3.3c-0.8,1.3-1.2,2.6-1.2,3.9
		C-216.9,222-216.6,222.6-216.1,223.1 M-204.8,244.9c0.6-0.5,0.9-1.3,0.9-2.2c0-0.9-0.3-1.6-0.9-2.2c-0.6-0.6-1.3-0.9-2.2-0.9
		c-0.9,0-1.6,0.3-2.2,0.9c-0.6,0.6-0.9,1.3-0.9,2.2c0,1,0.3,1.7,0.9,2.3c0.6,0.5,1.3,0.8,2.2,0.8
		C-206.1,245.7-205.4,245.5-204.8,244.9"/>
</g>
</svg>
