<?xml version="1.0" encoding="utf-8"?>
<!-- Generator: Adobe Illustrator 19.1.0, SVG Export Plug-In . SVG Version: 6.00 Build 0)  -->
<svg version="1.1" id="Layer_1" xmlns="http://www.w3.org/2000/svg" xmlns:xlink="http://www.w3.org/1999/xlink" x="0px" y="0px"
	 viewBox="-269 191 100 100" style="enable-background:new -269 191 100 100;" xml:space="preserve">
<g>
	<path d="M-219,191c-27.6,0-50,22.4-50,50c0,27.6,22.4,50,50,50s50-22.4,50-50C-169,213.4-191.4,191-219,191 M-220.3,210.2
		c3.8,0,6.8,3.1,6.8,6.8c0,3.8-3.1,6.8-6.8,6.8c-3.8,0-6.8-3.1-6.8-6.8C-227.1,213.3-224.1,210.2-220.3,210.2 M-204.9,267.6h-28.2
		c-2.2,0-4-1.8-4-4c0-2.2,1.8-4,4-4v0h8.9v-23.7h-6.2v0c-2.2,0-4-1.8-4-4c0-2.2,1.8-4,4-4h12.6c2.2,0,4,1.8,4,3.9l0,0v27.6h8.9v0
		c2.2,0,4,1.8,4,4C-201,265.8-202.7,267.6-204.9,267.6"/>
</g>
</svg>
