<?xml version="1.0" encoding="utf-8"?>
<!-- Generator: Adobe Illustrator 19.1.0, SVG Export Plug-In . SVG Version: 6.00 Build 0)  -->
<svg version="1.1" id="Layer_1" xmlns="http://www.w3.org/2000/svg" xmlns:xlink="http://www.w3.org/1999/xlink" x="0px" y="0px"
	 viewBox="-269 191 100 100" style="enable-background:new -269 191 100 100;" xml:space="preserve">
<g>
	<path d="M-203,216.5h16.2l-22-20.3l0.1,14.6C-208.7,214-206.1,216.5-203,216.5"/>
	<path d="M-203,222.5c-6.4,0-11.5-5.2-11.5-11.5v-20h-33.1c-5.5,0-10,4.5-10,10v80c0,5.5,4.5,10,10,10h57.1c5.5,0,10-4.5,10-10
		v-58.4H-203z M-201.3,264.4l-26,19.2c-0.7,0.5-1.6,0.7-2.4,0.5c-0.1,0-0.1,0-0.2-0.1c-0.1,0-0.1,0-0.1-0.1
		c-0.5-0.2-0.9-0.5-1.2-0.9l-6-7.1c-1-1.2-0.8-3.1,0.4-4.1c1.2-1,3.1-0.8,4.1,0.4l4.2,5l23.9-17.6c1.3-0.9,3.1-0.7,4.1,0.6
		C-199.7,261.7-200,263.5-201.3,264.4 M-195,252h-49.7c-1.7,0-3-1.3-3-3c0-1.7,1.3-3,3-3h49.7c1.7,0,3,1.3,3,3
		C-192,250.7-193.4,252-195,252 M-195,238.1h-49.7c-1.7,0-3-1.3-3-3c0-1.7,1.3-3,3-3h49.7c1.7,0,3,1.3,3,3
		C-192,236.7-193.4,238.1-195,238.1"/>
</g>
</svg>
