<?xml version="1.0" encoding="utf-8"?>
<!-- Generator: Adobe Illustrator 19.1.0, SVG Export Plug-In . SVG Version: 6.00 Build 0)  -->
<svg version="1.1" id="Layer_1" xmlns="http://www.w3.org/2000/svg" xmlns:xlink="http://www.w3.org/1999/xlink" x="0px" y="0px"
	 viewBox="-269 191 100 100" style="enable-background:new -269 191 100 100;" xml:space="preserve">
<g>
	<path d="M-218.6,225l12.7-2.8l-20.7-12.2l2.5,11.4C-223.5,224-221.1,225.5-218.6,225"/>
	<path d="M-174.4,199c-2.2-6.3-9.4-9.6-16.1-7.3c-6.7,2.3-10.4,9.3-8.2,15.7c1,3,3.3,5.3,6,6.7l-5.5,19.6l-1.8-8l-17.6,3.8
		c-5,1.1-9.9-2.1-11-7l-3.4-15.7l-0.1,0l-25.9,5.7c-4.3,0.9-7.1,5.2-6.1,9.6l13.8,62.7c0.9,4.3,5.2,7.1,9.6,6.1l44.7-9.8
		c4.3-0.9,7.1-5.2,6.1-9.6l-5.6-25.5l8.6-30.5c1.4,0,2.9-0.2,4.3-0.7C-175.9,212.4-172.2,205.3-174.4,199 M-247.6,250.1
		c-0.4-1.7,0.6-3.3,2.3-3.7l33.3-8c1.7-0.4,3.3,0.6,3.7,2.3c0.4,1.7-0.6,3.3-2.3,3.7l-33.3,8C-245.6,252.8-247.3,251.8-247.6,250.1
		 M-244.4,264.1c-0.4-1.7,0.6-3.3,2.3-3.7l33.3-8c1.7-0.4,3.3,0.6,3.7,2.3c0.4,1.6-0.6,3.3-2.3,3.7l-33.3,8
		C-242.4,266.7-244,265.7-244.4,264.1 M-204.2,272.2l-33.3,8c-1.7,0.4-3.3-0.6-3.7-2.3c-0.4-1.7,0.6-3.3,2.3-3.7l33.3-8
		c1.7-0.4,3.3,0.6,3.7,2.3C-201.5,270.2-202.5,271.9-204.2,272.2"/>
</g>
</svg>
