<?xml version="1.0" encoding="utf-8"?>
<!-- Generator: Adobe Illustrator 19.1.0, SVG Export Plug-In . SVG Version: 6.00 Build 0)  -->
<svg version="1.1" id="Layer_1" xmlns="http://www.w3.org/2000/svg" xmlns:xlink="http://www.w3.org/1999/xlink" x="0px" y="0px"
	 viewBox="-269 191 100 100" style="enable-background:new -269 191 100 100;" xml:space="preserve">
<g>
	<path d="M-186.9,208.5H-250c0.1,0,0.2,0,0.4,0.1c-0.5,0-0.9-0.1-1.4-0.1c-9.9,0-17.9,8-17.9,17.9v0v0v44c0,1.7,1.4,3.1,3.1,3.1
		h27.4h2.2h34.6h14.1h15.5c1.7,0,3.1-1.4,3.1-3.1v-44C-169,216.5-177,208.5-186.9,208.5 M-239.4,267.3h-23.4v-40.9
		c0-6.5,5.3-11.7,11.7-11.7c6.5,0,11.7,5.3,11.7,11.7V267.3z M-181.3,253.9c0,2.3-1.8,4.1-4.1,4.1c-2.3,0-4.1-1.9-4.1-4.1v-10.1
		h-30.6c-2.3,0-4.1-1.9-4.1-4.1c0-2.3,1.9-4.1,4.1-4.1h34.7c2.3,0,4.1,1.9,4.1,4.1V253.9z"/>
</g>
</svg>
