<?xml version="1.0" encoding="utf-8"?>
<!-- Generator: Adobe Illustrator 19.1.0, SVG Export Plug-In . SVG Version: 6.00 Build 0)  -->
<svg version="1.1" id="Layer_1" xmlns="http://www.w3.org/2000/svg" xmlns:xlink="http://www.w3.org/1999/xlink" x="0px" y="0px"
	 viewBox="-269 191 100 100" style="enable-background:new -269 191 100 100;" xml:space="preserve">
<g>
	<path d="M-170.2,227.5c-0.8-0.4-1.2,0-2.3,0.3l-43.4,15.6c-0.6,0.2-2.1,0.6-3,0.6c-1,0-1.9-0.2-2.8-0.5l-43.7-15.7
		c-1.1-0.3-1.6-0.6-2.3-0.3c-0.7,0.4-1.2,1.1-1.2,1.9V264c0,5.5,4.5,10,10,10h80c5.5,0,10-4.5,10-10v-34.6
		C-169,228.6-169.5,227.9-170.2,227.5"/>
	<path d="M-174,208h-45h-45c-2.8,0-5,2.2-5,5v4.2c0,3.6,0.3,3.4,5.7,5.3c0.2,0.1,41,14.8,41,14.8c1.1,0.3,2.3,0.8,3.3,0.8
		c1.1,0,2.3-0.5,3.3-0.8c0,0,40.8-14.8,41-14.8c5.4-1.9,5.7-1.7,5.7-5.3V213C-169,210.2-171.2,208-174,208"/>
</g>
</svg>
