<?xml version="1.0" encoding="utf-8"?>
<!-- Generator: Adobe Illustrator 19.1.0, SVG Export Plug-In . SVG Version: 6.00 Build 0)  -->
<svg version="1.1" id="Layer_1" xmlns="http://www.w3.org/2000/svg" xmlns:xlink="http://www.w3.org/1999/xlink" x="0px" y="0px"
	 viewBox="-269 191 100 100" style="enable-background:new -269 191 100 100;" xml:space="preserve">
<g>
	<path d="M-180.1,191h-55.7c-6.2,0-11.1,5-11.1,11.1v4.9h50.9c6.1,0,11.1,5,11.1,11.1V269h4.9c6.2,0,11.1-5,11.1-11.1v-55.7
		C-169,196-174,191-180.1,191"/>
	<path d="M-202.1,213h-55.7c-6.2,0-11.1,5-11.1,11.1v55.7c0,6.2,5,11.1,11.1,11.1h55.7c6.2,0,11.1-5,11.1-11.1v-55.7
		C-191,218-196,213-202.1,213z M-230,226.5c5.9,0,10.8,4.9,10.8,11c0,6.1-4.8,11-10.8,11s-10.8-4.9-10.8-11
		C-240.8,231.4-235.9,226.5-230,226.5z M-212.5,253.9l-2.9,18.7c-0.4,2.9-2.2,4.9-4.9,4.9h-9.6h0h-9.6c-2.7,0-4.5-2-4.9-4.9
		l-2.9-18.7c-0.3-2.1,1-3.8,4.9-4.9l3.7-1c2.4,2.1,5.5,3.4,8.9,3.4c3.4,0,6.5-1.3,8.9-3.4l3.7,1
		C-213.5,250.1-212.2,251.8-212.5,253.9z"/>
</g>
</svg>
