<?xml version="1.0" encoding="utf-8"?>
<!-- Generator: Adobe Illustrator 19.1.0, SVG Export Plug-In . SVG Version: 6.00 Build 0)  -->
<svg version="1.1" id="Layer_1" xmlns="http://www.w3.org/2000/svg" xmlns:xlink="http://www.w3.org/1999/xlink" x="0px" y="0px"
	 viewBox="-269 191 100 100" style="enable-background:new -269 191 100 100;" xml:space="preserve">
<g>
	<path d="M-233.5,280.8V291h48.8c4.7,0,8.1-3.1,8.1-7.8v-14h-44.9C-222.9,274.4-227.3,279.3-233.5,280.8"/>
	<path d="M-239.7,249.9v-42.7H-252c-4.7,0-9.4,4-9.4,8.7v47.2h9.1C-251.3,255.8-246.9,250.9-239.7,249.9"/>
	<path d="M-195.6,249.4l-4.7,5.8l-4.7-5.8c-2.7-3.2-16.1-19.6-19.2-26.7c-1.7-3.6-2.5-7.5-2.5-11.4c0-1.4,0.1-3,0.3-4.1h-7v43
		c6.2,1.6,11.5,6.7,12.4,12.9h44.5v-40.4C-179.7,229.8-192.9,246.2-195.6,249.4"/>
	<path d="M-256.2,290.1c1.3,0.6,2.7,0.9,4.2,0.9h12.3v-9.9c-2.1-0.3-3.8-1.1-5.5-2.1L-256.2,290.1z"/>
	<path d="M-252,269.3h-9.4v14c0,0.9,0.4,1.7,0.7,2.4l11.1-11C-250.8,273.1-251.5,271.3-252,269.3"/>
	<path d="M-227.1,265.5c0-5.3-4.3-9.6-9.6-9.6c-5.3,0-9.6,4.3-9.6,9.6c0,5.3,4.3,9.6,9.6,9.6C-231.4,275.1-227.1,270.8-227.1,265.5"
		/>
	<path d="M-218.8,220.1c2.8,6.5,18.5,25,18.5,25s15.7-18.3,18.5-25.6h0c1.3-2.1,2-5.3,2-8.5c0-0.5,0-1-0.1-1.5
		c-0.8-10.5-9.5-18.7-20.2-18.7c-9.8,0-18,6.9-19.9,16.2h0c-0.3,1-0.9,2.8-0.9,4.2v0v0C-221.1,214.5-220.1,217.5-218.8,220.1
		 M-200.2,198.9c5.9,0,10.8,3.7,12.7,8.9c0.3,1,0.5,1.9,0.7,2.7c0,0.1,0,0.1,0,0.2c0,0.2,0,0.3,0.1,0.5c0,0.4,0.1,0.9,0.1,1.3
		c0,7.5-6.1,13.6-13.6,13.6c-7.5,0-13.5-6.1-13.6-13.6c0-0.4,0-0.9,0.1-1.3c0-0.1,0-0.3,0.1-0.4c0-0.1,0-0.2,0-0.3
		c0.1-0.8,0.4-1.6,0.7-2.7C-211.1,202.6-206.1,198.9-200.2,198.9"/>
</g>
</svg>
