<?xml version="1.0" encoding="utf-8"?>
<!-- Generator: Adobe Illustrator 19.1.0, SVG Export Plug-In . SVG Version: 6.00 Build 0)  -->
<svg version="1.1" id="Layer_1" xmlns="http://www.w3.org/2000/svg" xmlns:xlink="http://www.w3.org/1999/xlink" x="0px" y="0px"
	 viewBox="-269 191 100 100" style="enable-background:new -269 191 100 100;" xml:space="preserve">
<g>
	<path d="M-169,212.5c0,2.8-2.2,5-5,5h-90c-2.8,0-5-2.2-5-5v-5c0-2.8,2.2-5,5-5h90c2.8,0,5,2.2,5,5V212.5z"/>
	<path d="M-169,243.5c0,2.8-2.2,5-5,5h-90c-2.8,0-5-2.2-5-5v-5c0-2.8,2.2-5,5-5h90c2.8,0,5,2.2,5,5V243.5z"/>
	<path d="M-169,274.5c0,2.8-2.2,5-5,5h-90c-2.8,0-5-2.2-5-5v-5c0-2.8,2.2-5,5-5h90c2.8,0,5,2.2,5,5V274.5z"/>
</g>
</svg>
