<?xml version="1.0" encoding="utf-8"?>
<!-- Generator: Adobe Illustrator 19.1.0, SVG Export Plug-In . SVG Version: 6.00 Build 0)  -->
<svg version="1.1" id="Layer_1" xmlns="http://www.w3.org/2000/svg" xmlns:xlink="http://www.w3.org/1999/xlink" x="0px" y="0px"
	 viewBox="-269 191 100 100" style="enable-background:new -269 191 100 100;" xml:space="preserve">
<g>
	<path d="M-229,261.3c-5.4,0-9.7,4.4-9.7,9.7c0,5.4,4.4,9.7,9.7,9.7c5.4,0,9.7-4.4,9.7-9.7C-219.2,265.7-223.6,261.3-229,261.3"/>
	<path d="M-190.9,261.3c-5.4,0-9.7,4.4-9.7,9.7c0,5.4,4.4,9.7,9.7,9.7c5.4,0,9.7-4.4,9.7-9.7C-181.2,265.7-185.6,261.3-190.9,261.3"
		/>
	<path d="M-180,259.7h-56.2c-1.2,0-2.3-0.8-2.7-1.9l-19.1-50.7h-8.1c-1.6,0-2.9-1.3-2.9-2.9c0-1.6,1.3-2.9,2.9-2.9h10.1
		c1.2,0,2.3,0.8,2.7,1.9l19.1,50.7h54.1c1.6,0,2.9,1.3,2.9,2.9C-177.1,258.3-178.4,259.7-180,259.7"/>
	<path d="M-173.4,209.4h-72.3c0,0,13.1,35,13.3,35.6c1,2.9,2.3,3.5,4.8,3.5h48.4c0,0,4.6-16.2,9.7-31.7c0.2-0.5,0.5-2.3,0.5-2.7
		C-169,211.6-170.9,209.4-173.4,209.4 M-186.9,221.7l-26,19.2c-0.7,0.5-1.6,0.7-2.4,0.5c-0.1,0-0.1,0-0.2-0.1c-0.1,0-0.1,0-0.2-0.1
		c-0.5-0.2-0.9-0.5-1.2-0.9l-6-7.1c-1-1.2-0.8-3.1,0.4-4.1c1.3-1,3.1-0.8,4.1,0.4l4.2,5l23.9-17.7c1.3-0.9,3.1-0.7,4.1,0.6
		C-185.3,218.9-185.6,220.8-186.9,221.7"/>
</g>
</svg>
