<?xml version="1.0" encoding="utf-8"?>
<!-- Generator: Adobe Illustrator 19.1.0, SVG Export Plug-In . SVG Version: 6.00 Build 0)  -->
<svg version="1.1" id="Layer_1" xmlns="http://www.w3.org/2000/svg" xmlns:xlink="http://www.w3.org/1999/xlink" x="0px" y="0px"
	 viewBox="-269 191 100 100" style="enable-background:new -269 191 100 100;" xml:space="preserve">
<style type="text/css">
	.st0{fill-rule:evenodd;clip-rule:evenodd;}
</style>
<g>
	<path class="st0" d="M-246.8,234c0-6.2-0.4-12,0.1-17.7c1.1-13.5,12.3-24.3,25.3-25.2c14.3-0.9,26.7,8,29.5,21.8
		c1,5.1,0.7,10.5,0.9,15.7c0.1,1.7,0,3.4,0,5.4c2.4,0,4.6,0,6.8,0c2.9,0,4,1.1,4,3.9c0,16.4,0,32.9,0,49.3c0,2.9-1,3.9-3.9,3.9
		c-23.3,0-46.5,0-69.8,0c-3,0-4-1-4-4c0-16.3,0-32.6,0-48.8c0-3.1,1-4.1,4.1-4.2C-251.6,233.9-249.4,234-246.8,234 M-235.4,233.8
		h33.9c0-5.3,0.2-10.5,0-15.7c-0.3-8.3-7.3-15.4-15.3-15.9c-8.9-0.6-17.2,4.9-18.4,13.4C-236.1,221.5-235.4,227.6-235.4,233.8"/>
</g>
</svg>
