<?xml version="1.0" encoding="utf-8"?>
<!-- Generator: Adobe Illustrator 19.1.0, SVG Export Plug-In . SVG Version: 6.00 Build 0)  -->
<svg version="1.1" id="Layer_1" xmlns="http://www.w3.org/2000/svg" xmlns:xlink="http://www.w3.org/1999/xlink" x="0px" y="0px"
	 viewBox="-269 191 100 100" style="enable-background:new -269 191 100 100;" xml:space="preserve">
<g>
	<path d="M-255.2,280.1c0,1.3-1,2.3-2.3,2.3h-9.2c-1.3,0-2.3-1.1-2.3-2.3v-11.9c0-1.3,1-2.3,2.3-2.3h9.2c1.3,0,2.3,1,2.3,2.3V280.1z
		"/>
	<path d="M-233.6,280.1c0,1.3-1.1,2.3-2.3,2.3h-9.2c-1.3,0-2.3-1.1-2.3-2.3v-28.5c0-1.3,1.1-2.3,2.3-2.3h9.2c1.3,0,2.3,1,2.3,2.3
		V280.1z"/>
	<path d="M-212.1,280.1c0,1.3-1,2.3-2.3,2.3h-9.2c-1.3,0-2.3-1.1-2.3-2.3v-45c0-1.3,1-2.3,2.3-2.3h9.2c1.3,0,2.3,1,2.3,2.3V280.1z"
		/>
	<path d="M-190.5,280.1c0,1.3-1.1,2.3-2.3,2.3h-9.2c-1.3,0-2.3-1.1-2.3-2.3v-61.6c0-1.3,1.1-2.3,2.3-2.3h9.2c1.3,0,2.3,1,2.3,2.3
		V280.1z"/>
	<path d="M-169,280.1c0,1.3-1,2.3-2.3,2.3h-9.2c-1.3,0-2.3-1.1-2.3-2.3v-78.1c0-1.3,1-2.3,2.3-2.3h9.2c1.3,0,2.3,1,2.3,2.3V280.1z"
		/>
</g>
</svg>
