<?xml version="1.0" encoding="utf-8"?>
<!-- Generator: Adobe Illustrator 19.1.0, SVG Export Plug-In . SVG Version: 6.00 Build 0)  -->
<svg version="1.1" id="Layer_1" xmlns="http://www.w3.org/2000/svg" xmlns:xlink="http://www.w3.org/1999/xlink" x="0px" y="0px"
	 viewBox="-269 191 100 100" style="enable-background:new -269 191 100 100;" xml:space="preserve">
<g>
	<path d="M-219,291c-25,0-45.3-20.3-45.3-45.3c0-17,9.3-32.4,24.3-40.2c2.8-1.4,6.2-0.4,7.6,2.4c1.4,2.8,0.4,6.2-2.4,7.6
		c-11.2,5.9-18.2,17.4-18.2,30.2c0,18.8,15.3,34.1,34.1,34.1c18.8,0,34.1-15.3,34.1-34.1c0-12.8-7-24.4-18.3-30.2
		c-2.8-1.4-3.8-4.8-2.4-7.6c1.4-2.8,4.8-3.8,7.6-2.4c15,7.8,24.4,23.2,24.4,40.2C-173.7,270.7-194,291-219,291"/>
	<path d="M-218.6,191.1l-0.8-0.1c-2.8,0-5.2,2.3-5.2,5.2v34.4c0,2.9,2.3,5.2,5.2,5.2l0.8,0.1c2.8,0,5.1-2.4,5.1-5.2v-34.4
		C-213.5,193.4-215.7,191.1-218.6,191.1"/>
</g>
</svg>
