<?xml version="1.0" encoding="utf-8"?>
<!-- Generator: Adobe Illustrator 19.1.0, SVG Export Plug-In . SVG Version: 6.00 Build 0)  -->
<svg version="1.1" id="Layer_1" xmlns="http://www.w3.org/2000/svg" xmlns:xlink="http://www.w3.org/1999/xlink" x="0px" y="0px"
	 viewBox="-269 191 100 100" style="enable-background:new -269 191 100 100;" xml:space="preserve">
<g>
	<path d="M-208.8,232.8h-35c-1.7,0-3-1.3-3-3c0-1.7,1.3-3,3-3h35c1.7,0,3,1.3,3,3C-205.8,231.5-207.1,232.8-208.8,232.8"/>
	<path d="M-220.2,221.8h-23.5c-1.7,0-3-1.3-3-3c0-1.7,1.3-3,3-3h23.5c1.7,0,3,1.3,3,3C-217.2,220.4-218.6,221.8-220.2,221.8"/>
	<path d="M-179,240.8h-0.2v-16.2l-25.1-23.5h-41.9c-5.5,0-10,4.5-10,10v29.7h-2.8c-5.5,0-10,4.5-10,10v20c0,5.5,4.5,10,10,10h80
		c5.5,0,10-4.5,10-10v-20C-169,245.3-173.5,240.8-179,240.8 M-200.8,211.1l11.9,11.1h-6.9c-2.7,0-5-2.2-5-5V211.1z M-251.2,211.2
		c0-2.8,2.2-5,5-5h40.5v11c0,5.5,4.5,10,10,10h11.5v13.7h-67V211.2z M-196.9,263.5c-1.7,0-3-1.3-3-3c0-1.7,1.3-3,3-3
		c1.7,0,3,1.3,3,3C-193.9,262.1-195.2,263.5-196.9,263.5 M-183.6,263.5c-1.7,0-3-1.3-3-3c0-1.7,1.3-3,3-3c1.7,0,3,1.3,3,3
		C-180.6,262.1-181.9,263.5-183.6,263.5"/>
</g>
</svg>
