<?xml version="1.0" encoding="utf-8"?>
<!-- Generator: Adobe Illustrator 19.1.0, SVG Export Plug-In . SVG Version: 6.00 Build 0)  -->
<svg version="1.1" id="Layer_1" xmlns="http://www.w3.org/2000/svg" xmlns:xlink="http://www.w3.org/1999/xlink" x="0px" y="0px"
	 viewBox="-269 191 100 100" style="enable-background:new -269 191 100 100;" xml:space="preserve">
<g>
	<path d="M-178.3,240.1c-0.6-2.8-3.4-4.5-6.2-3.9c-2.8,0.6-4.5,3.4-3.9,6.2c2.6,11.4-1.3,23.1-10.3,30.8
		c-13.2,11.2-32.9,9.6-44.1-3.6c-11.2-13.2-9.8-32.9,3.3-44.1c5.1-4.4,11.7-6.9,17.5-7.4v16.6c0,0.8,0.9,1.1,1.7,0.5l27.5-20.9
		c0.8-0.6,0.8-1.5,0.1-2.1l-27.6-20.9c-0.8-0.6-1.6-0.4-1.6,0.5v15.9c-8.7,0.5-17.2,3.9-24.3,9.9c-17.5,14.9-19.5,41.2-4.6,58.7
		c14.9,17.5,41.3,19.7,58.8,4.8C-180.1,271-174.8,255.3-178.3,240.1"/>
</g>
</svg>
