<?xml version="1.0" encoding="utf-8"?>
<!-- Generator: Adobe Illustrator 19.1.0, SVG Export Plug-In . SVG Version: 6.00 Build 0)  -->
<svg version="1.1" id="Layer_1" xmlns="http://www.w3.org/2000/svg" xmlns:xlink="http://www.w3.org/1999/xlink" x="0px" y="0px"
	 viewBox="-269 191 100 100" style="enable-background:new -269 191 100 100;" xml:space="preserve">
<g>
	<path d="M-244.9,234.8c0-4,1.9-7.8,5.3-10.5l1.8-1.4v-7c0-4.5-2.9-5.9-6.5-3.2l-22.1,17c-3.6,2.8-3.5,7.2,0.1,9.9l21.9,16.3
		c3.6,2.7,6.6,1.2,6.6-3.3v-6.3l-1.6-1.2C-242.9,242.6-244.9,238.8-244.9,234.8"/>
	<path d="M-177.1,236.9c0,0-7.9-10.6-29.8-12.7v-8.2c0-4.5-2.9-5.9-6.5-3.2l-22.1,17c-2.3,1.8-3.1,4.3-2.4,6.5
		c0.4,1.2,1.2,2.4,2.5,3.4l21.9,16.3c3.6,2.7,6.6,1.2,6.6-3.3v-7.5c0.2-0.1,32.2-8.2,37.1,24.8c0.1,0.4,0.1,0.6,0.2,0.6
		c0,0,0.1,0.1,0.2-0.8C-168.8,264.7-167.7,247.3-177.1,236.9"/>
</g>
</svg>
