<?xml version="1.0" encoding="utf-8"?>
<!-- Generator: Adobe Illustrator 19.1.0, SVG Export Plug-In . SVG Version: 6.00 Build 0)  -->
<svg version="1.1" id="Layer_1" xmlns="http://www.w3.org/2000/svg" xmlns:xlink="http://www.w3.org/1999/xlink" x="0px" y="0px"
	 viewBox="-269 191 100 100" style="enable-background:new -269 191 100 100;" xml:space="preserve">
<g>
	<path d="M-180.7,235c0,0-11.4-15.3-43.1-18.4v-11.9c0-6.5-4.2-8.6-9.4-4.6l-31.9,24.7c-3.3,2.6-4.5,6.2-3.5,9.5l0,0
		c0.6,1.8,1.7,3.5,3.6,4.9l31.7,23.6c5.2,3.9,9.5,1.7,9.5-4.8v-10.8c0.3-0.1,46.6-11.8,53.8,36c0.1,0.6,0.1,0.9,0.2,0.9
		c0,0,0.1,0.1,0.3-1.2C-168.7,275.3-167.1,250.1-180.7,235"/>
</g>
</svg>
