<?xml version="1.0" encoding="utf-8"?>
<!-- Generator: Adobe Illustrator 19.1.0, SVG Export Plug-In . SVG Version: 6.00 Build 0)  -->
<svg version="1.1" id="Layer_1" xmlns="http://www.w3.org/2000/svg" xmlns:xlink="http://www.w3.org/1999/xlink" x="0px" y="0px"
	 viewBox="-269 191 100 100" style="enable-background:new -269 191 100 100;" xml:space="preserve">
<g>
	<path d="M-243.8,231.6c-3.2,16.8,5.3,33.6,20.7,41c3,1.4,6.1,2.5,9.4,3.1c20.4,3.9,40.2-9.6,44.1-30c3.2-16.8-5.3-33.6-20.7-41
		c-3-1.4-6.1-2.5-9.4-3.1C-220.2,197.7-239.9,211.1-243.8,231.6 M-201.3,210c2.5,0.5,5,1.3,7.3,2.4c11.9,5.7,18.5,18.8,16,31.7
		c-3,15.8-18.3,26.2-34.1,23.2c-2.5-0.5-5-1.3-7.3-2.4c-11.9-5.7-18.4-18.8-16-31.7C-232.4,217.4-217.1,207-201.3,210"/>
	<path d="M-260.5,280.2c-2.5,1.7-5.9,1-7.6-1.5c-0.4-0.5-0.6-1.1-0.8-1.7c-0.5-2.2,0.3-4.5,2.2-5.9l19.6-13.2l6.1,9.1L-260.5,280.2z
		"/>
</g>
</svg>
