<?xml version="1.0" encoding="utf-8"?>
<!-- Generator: Adobe Illustrator 19.1.0, SVG Export Plug-In . SVG Version: 6.00 Build 0)  -->
<svg version="1.1" id="Layer_1" xmlns="http://www.w3.org/2000/svg" xmlns:xlink="http://www.w3.org/1999/xlink" x="0px" y="0px"
	 viewBox="-269 191 100 100" style="enable-background:new -269 191 100 100;" xml:space="preserve">
<style type="text/css">
	.st0{fill-rule:evenodd;clip-rule:evenodd;}
</style>
<g>
	<path d="M-266.6,258.9c0,9.1-0.1,17.6,0,26.2c0.1,3.5,2.6,5.6,5.8,5.7c12.5,0.2,25,0.1,37.5,0.1v-32H-266.6z"/>
	<path d="M-214.8,290.9c12.6,0,25,0.3,37.3-0.3c2.1-0.1,5.7-3.4,5.8-5.3c0.6-8.7,0.3-17.4,0.3-26.4h-43.4V290.9z"/>
	<path class="st0" d="M-215,251.8c0-8.4-0.2-16.3,0.1-24.2c0.1-3-1.3-4.8-3.7-4.8c-2.3,0-4.6,1.2-4.5,4.7c0.2,8,0.1,16.1,0.1,24.4
		h-43.6c0-8.9-0.4-17.8,0.2-26.6c0.3-4.6,4.7-5.6,8.6-5.7c6-0.2,12.1,0,17.9,0c-3.1-4.8-6.4-9-8.8-13.8c-2-3.9-2.6-8.5,0.8-12.1
		c3.6-3.8,8.2-2.8,12.5-1.2c7.3,2.7,12.3,8.1,15.9,13.9c4.7-4.2,9-8.8,14-12.3c5.8-4,12.8-4,15.6-0.6c4.3,5.1,2.2,10.4-0.5,15.2
		c-2.1,3.7-4.9,6.9-7.8,10.9c5.6,0,11,0,16.4,0c8.2,0,10.4,2.1,10.4,10.1c0.1,7.3,0,14.5,0,22.1H-215z M-213.3,216
		c8.9-0.2,17.7-9.2,16.6-16.8C-205.3,201.6-210.5,207.2-213.3,216 M-225,216.3c-1-9-9.7-17.2-16.7-16.2
		C-240,208.5-233.2,215.3-225,216.3"/>
	<path class="st0" d="M-266.6,258.9h43.3v32c-12.6,0-25.1,0.1-37.5-0.1c-3.2-0.1-5.7-2.2-5.8-5.7
		C-266.7,276.5-266.6,268-266.6,258.9"/>
	<path class="st0" d="M-214.8,290.9v-32h43.4c0,9,0.4,17.7-0.3,26.4c-0.1,2-3.7,5.3-5.8,5.3C-189.8,291.2-202.2,290.9-214.8,290.9"
		/>
</g>
</svg>
