<?xml version="1.0" encoding="utf-8"?>
<!-- Generator: Adobe Illustrator 19.1.0, SVG Export Plug-In . SVG Version: 6.00 Build 0)  -->
<svg version="1.1" id="Layer_1" xmlns="http://www.w3.org/2000/svg" xmlns:xlink="http://www.w3.org/1999/xlink" x="0px" y="0px"
	 viewBox="-269 191 100 100" style="enable-background:new -269 191 100 100;" xml:space="preserve">
<g>
	<path d="M-200.1,228.6l-7.6-1c-0.7-2.8-1.8-5.4-3.2-7.8l4.6-6.1c0.7-0.9,0.6-2.2-0.2-3l-4-4c-0.4-0.4-0.9-0.6-1.5-0.6
		c-0.6,0-1.1,0.1-1.6,0.4l-6.1,4.6c-2.4-1.5-5-2.6-7.8-3.2l-1-7.6c-0.1-1.1-1.2-2-2.3-2h0h-5.6h0c-1.1,0-2.1,0.9-2.3,2l-1,7.6
		c-2.8,0.7-5.4,1.7-7.8,3.2l-4.1-3.1v0l-2-1.5c-0.9-0.7-2.2-0.6-3,0.2l-4,4c-0.8,0.8-0.9,2.1-0.2,3l4.6,6.1c-1.5,2.4-2.6,5-3.2,7.8
		l-7.6,1c-1.1,0.2-2,1.2-2,2.3v5.6c0,1.1,0.9,2.1,2,2.3l7.6,1c0.7,2.8,1.8,5.4,3.2,7.8l-4.6,6.1c-0.7,0.9-0.6,2.2,0.2,3l4,4
		c0.4,0.4,0.9,0.6,1.5,0.6c0.6,0,1.1-0.1,1.6-0.4l6.1-4.6c2.4,1.5,5,2.6,7.8,3.2l1,7.6c0.1,1.1,1.2,2,2.3,2h0h5.6h0
		c1.1,0,2.1-0.9,2.3-2l1-7.6c2.8-0.7,5.4-1.8,7.8-3.2l4.1,3.1v0l2,1.5c0.9,0.7,2.2,0.6,3-0.2l4-4c0.8-0.8,0.9-2.2,0.2-3l-4.6-6.1
		c1.5-2.4,2.6-5,3.2-7.8l7.6-1c1.1-0.2,2-1.2,2-2.3v-5.6C-198.1,229.7-199,228.7-200.1,228.6 M-235,247.5c-7-0.7-12.4-6.6-12.4-13.8
		c0-7.7,6.2-13.9,13.9-13.9c0.5,0,0.9,0,1.4,0.1c7,0.7,12.4,6.6,12.4,13.8c0,7.7-6.2,13.9-13.9,13.9
		C-234,247.5-234.5,247.5-235,247.5"/>
	<path d="M-169.9,264.8l-3.6-0.5c-0.3-1.3-0.8-2.5-1.5-3.6l2.2-2.8c0.3-0.4,0.3-1.1-0.1-1.4l-1.9-1.9c-0.2-0.2-0.4-0.3-0.7-0.3
		c-0.3,0-0.5,0-0.7,0.2l-2.8,2.2c-1.1-0.7-2.3-1.2-3.6-1.5l-0.5-3.5c-0.1-0.5-0.6-0.9-1.1-0.9h0h-2.6h0c-0.5,0-1,0.4-1.1,0.9
		l-0.5,3.5c-1.3,0.3-2.5,0.8-3.6,1.5l-1.9-1.5v0l-0.9-0.7c-0.4-0.3-1-0.3-1.4,0.1l-1.9,1.9c-0.4,0.4-0.4,1-0.1,1.4l2.2,2.8
		c-0.7,1.1-1.2,2.3-1.5,3.6l-3.5,0.5c-0.5,0.1-0.9,0.5-0.9,1.1v2.6c0,0.5,0.4,1,0.9,1.1l3.5,0.5c0.3,1.3,0.8,2.5,1.5,3.7l-2.2,2.8
		c-0.3,0.4-0.3,1,0.1,1.4l1.9,1.9c0.2,0.2,0.4,0.3,0.7,0.3c0.3,0,0.5,0,0.7-0.2l2.8-2.2c1.1,0.7,2.3,1.2,3.6,1.5l0.5,3.6
		c0.1,0.5,0.6,0.9,1.1,0.9h0h2.6h0c0.5,0,1-0.4,1.1-0.9l0.5-3.5c1.3-0.3,2.5-0.8,3.6-1.5l1.9,1.5v0l0.9,0.7c0.4,0.3,1,0.3,1.4-0.1
		l1.9-1.9c0.4-0.4,0.4-1,0.1-1.4l-2.2-2.8c0.7-1.1,1.2-2.3,1.5-3.7l3.6-0.5c0.5-0.1,0.9-0.5,0.9-1.1v-2.6
		C-169,265.4-169.4,264.9-169.9,264.8 M-186.2,273.7c-3.3-0.3-5.8-3.1-5.8-6.4c0-3.6,2.9-6.5,6.5-6.5c0.2,0,0.4,0,0.6,0
		c3.3,0.3,5.8,3.1,5.8,6.4c0,3.6-2.9,6.5-6.5,6.5C-185.8,273.7-186,273.7-186.2,273.7"/>
</g>
</svg>
