<?xml version="1.0" encoding="utf-8"?>
<!-- Generator: Adobe Illustrator 19.1.0, SVG Export Plug-In . SVG Version: 6.00 Build 0)  -->
<svg version="1.1" id="Layer_1" xmlns="http://www.w3.org/2000/svg" xmlns:xlink="http://www.w3.org/1999/xlink" x="0px" y="0px"
	 viewBox="-269 191 100 100" style="enable-background:new -269 191 100 100;" xml:space="preserve">
<g>
	<path d="M-183.6,205.6c-9.8-9.8-22.6-14.6-35.4-14.6c-12.8,0-25.6,4.9-35.3,14.6c-19.5,19.5-19.5,51.2,0,70.7
		c9.8,9.8,22.6,14.6,35.3,14.6c12.8,0,25.6-4.9,35.4-14.6C-164.1,256.8-164.1,225.2-183.6,205.6 M-214.3,279.8
		c-1.5,1.4-3.4,2.1-5.4,2.1c-2.1,0-3.9-0.7-5.5-2c-1.6-1.4-2.4-3.3-2.4-5.7c0-2.2,0.8-4,2.3-5.5c1.5-1.5,3.4-2.2,5.6-2.2
		c2.2,0,4,0.8,5.5,2.2c1.5,1.5,2.2,3.3,2.2,5.5C-211.9,276.5-212.7,278.4-214.3,279.8 M-196,230.6c-1.1,2.1-2.5,4-4.1,5.5
		c-1.5,1.5-4.3,4.1-8.3,7.6c-1.1,1-2,1.9-2.6,2.6c-0.6,0.7-1.1,1.4-1.4,2c-0.3,0.6-0.5,1.2-0.7,1.8c-0.2,0.6-0.4,1.7-0.8,3.3
		c-0.7,3.6-2.8,5.5-6.3,5.5c-1.8,0-3.4-0.6-4.6-1.8c-1.2-1.2-1.9-3-1.9-5.3c0-2.8,0.4-5.2,1.3-7.3c0.9-2,2-3.8,3.5-5.4
		c1.4-1.5,3.3-3.3,5.7-5.4c2.1-1.8,3.6-3.2,4.5-4.1c0.9-0.9,1.6-1.9,2.2-3c0.6-1,0.9-2.2,0.9-3.4c0-2.5-0.9-4.5-2.7-6.2
		c-1.8-1.7-4.2-2.5-7.1-2.5c-3.4,0-5.9,0.9-7.5,2.5c-1.6,1.7-3,4.3-4.2,7.8c-1.2,3.9-3.4,5.8-6.8,5.8c-1.9,0-3.6-0.7-5-2.1
		c-1.3-1.4-2-2.9-2-4.5c0-3.2,1-6.4,3-9.6c2-3.2,5-5.9,8.8-8c3.8-2.1,8.4-3.2,13.5-3.2c4.8,0,9,0.9,12.7,2.7
		c3.7,1.8,6.5,4.2,8.5,7.2c2,3.1,3,6.4,3,10C-194.3,226-194.9,228.5-196,230.6"/>
</g>
</svg>
