<?xml version="1.0" encoding="utf-8"?>
<!-- Generator: Adobe Illustrator 19.1.0, SVG Export Plug-In . SVG Version: 6.00 Build 0)  -->
<svg version="1.1" id="Layer_1" xmlns="http://www.w3.org/2000/svg" xmlns:xlink="http://www.w3.org/1999/xlink" x="0px" y="0px"
	 viewBox="-269 191 100 100" style="enable-background:new -269 191 100 100;" xml:space="preserve">
<g>
	<path d="M-181.3,211.1h-29.6v-7c0-1.6-1.3-3-3-3h-33.9V194c0-1.6-1.3-3-3-3h-6c-1.6,0-3,1.4-3,3v94c0,1.6,1.4,3,3,3h6
		c1.6,0,3-1.4,3-3v-31.9h16.6v7c0,1.6,1.3,3,3,3h46.8c1.6,0,3-1.3,3-3v-49C-178.3,212.5-179.6,211.1-181.3,211.1"/>
</g>
</svg>
