<?xml version="1.0" encoding="utf-8"?>
<!-- Generator: Adobe Illustrator 19.1.0, SVG Export Plug-In . SVG Version: 6.00 Build 0)  -->
<svg version="1.1" id="Layer_1" xmlns="http://www.w3.org/2000/svg" xmlns:xlink="http://www.w3.org/1999/xlink" x="0px" y="0px"
	 viewBox="-269 191 100 100" style="enable-background:new -269 191 100 100;" xml:space="preserve">
<g>
	<path d="M-228,239.3c0-4.7,3.8-8.5,8.5-8.5h5.1v-11.5c0-2.5-2-4.5-4.5-4.5h-22.2h-1.5v-8.8l-25,21.7c-1.9,1.6-1.9,4.3,0,5.9
		l25,21.5v-8.6h1.5h13.1V239.3z"/>
	<path d="M-195.4,226.8l25,21.5c1.9,1.6,1.9,4.3,0,5.9l-25,21.7v-8.8h-1.5h-22.2c-2.5,0-4.5-2-4.5-4.5v-22.8c0-2.5,2-4.5,4.5-4.5
		h22.2h1.5V226.8"/>
</g>
</svg>
