<?xml version="1.0" encoding="utf-8"?>
<!-- Generator: Adobe Illustrator 19.1.0, SVG Export Plug-In . SVG Version: 6.00 Build 0)  -->
<svg version="1.1" id="Layer_1" xmlns="http://www.w3.org/2000/svg" xmlns:xlink="http://www.w3.org/1999/xlink" x="0px" y="0px"
	 viewBox="-269 191 100 100" style="enable-background:new -269 191 100 100;" xml:space="preserve">
<g>
	<path d="M-268.1,230.9c4.7-23.1,25.3-39.9,49-39.9c12.4,0,24.3,4.6,33.4,12.8l1.1-1.1l7.9-7.9l7.3,35.1l-35.1-7.2l8.4-8.4
		c-6.4-5.5-14.5-8.5-23-8.5c-16.7,0-31.3,11.9-34.6,28.2c-0.7,3.5-3.8,5.9-7.2,5.9c-0.5,0-1-0.1-1.5-0.2
		C-266.3,238.8-268.9,234.9-268.1,230.9 M-219.1,291c-12.8,0-25-4.9-34.2-13.5l-0.2,0.2l-7.9,7.9l-7.3-35.1l35.1,7.2l-9.3,9.3
		c6.5,5.9,14.9,9.3,23.8,9.3c18.3,0,33.5-13.8,35.2-32c0.4-4,3.9-7,8-6.6c4,0.4,7,4,6.6,8C-171.7,271.5-193.1,291-219.1,291"/>
</g>
</svg>
