<?xml version="1.0" encoding="utf-8"?>
<!-- Generator: Adobe Illustrator 19.1.0, SVG Export Plug-In . SVG Version: 6.00 Build 0)  -->
<svg version="1.1" id="Layer_1" xmlns="http://www.w3.org/2000/svg" xmlns:xlink="http://www.w3.org/1999/xlink" x="0px" y="0px"
	 viewBox="-269 191 100 100" style="enable-background:new -269 191 100 100;" xml:space="preserve">
<g>
	<path d="M-249.8,233.4c2.5,0,4.5,2,4.5,4.5v37.2c0,2.5-2,4.5-4.5,4.5h-14.7c-2.5,0-4.5-2-4.5-4.5v-37.2c0-2.5,2-4.5,4.5-4.5H-249.8
		z"/>
	<path d="M-169,236.1c0-4.1-3.3-7.3-7.3-7.3h-32.4v-26.8c0-4-3.3-7.3-7.3-7.3c-4.1,0-7.3,3.3-7.3,7.3v1.8c0,9-3.1,23.8-10.3,28.3v0
		c-2.9,1.9-4.8,5.2-4.8,8.9v36.2c0,0.7,0.1,1.4,0.2,2.1c0.9,4.3,4.4,7.6,8.8,8.1c0.4,0.1,38.1,0.1,38.1,0.1c4.1,0,7.3-3.3,7.3-7.3
		c0-4.1-3.3-7.3-7.3-7.3h5c4,0,7.3-3.3,7.3-7.3c0-4-3.3-7.3-7.3-7.3h7.2c4,0,7.3-3.3,7.3-7.3c0-4-3.3-7.3-7.3-7.3h2.8
		C-172.3,243.4-169,240.1-169,236.1"/>
</g>
</svg>
