<?xml version="1.0" encoding="utf-8"?>
<!-- Generator: Adobe Illustrator 19.1.0, SVG Export Plug-In . SVG Version: 6.00 Build 0)  -->
<svg version="1.1" id="Layer_1" xmlns="http://www.w3.org/2000/svg" xmlns:xlink="http://www.w3.org/1999/xlink" x="0px" y="0px"
	 viewBox="-269 191 100 100" style="enable-background:new -269 191 100 100;" xml:space="preserve">
<g>
	<path d="M-188.2,248.6c-2.5,0-4.5-2-4.5-4.5v-37.2c0-2.5,2-4.5,4.5-4.5h14.7c2.5,0,4.5,2,4.5,4.5v37.2c0,2.5-2,4.5-4.5,4.5H-188.2z
		"/>
	<path d="M-269,245.9c0,4,3.3,7.3,7.3,7.3h32.4v26.8c0,4,3.3,7.3,7.3,7.3s7.3-3.3,7.3-7.3v-1.8c0-9,3.1-23.8,10.3-28.3v0
		c2.9-1.9,4.8-5.2,4.8-8.9v-36.2c0-0.7-0.1-1.4-0.2-2.1c-0.9-4.3-4.4-7.6-8.8-8.1c-0.4,0-0.8-0.1-1.2-0.1h-36.9
		c-4.1,0-7.3,3.3-7.3,7.3c0,4.1,3.3,7.3,7.3,7.3h-5c-4,0-7.3,3.3-7.3,7.3c0,4.1,3.3,7.3,7.3,7.3h-7.1c-4,0-7.3,3.3-7.3,7.3
		c0,4,3.3,7.3,7.3,7.3h-2.8C-265.7,238.6-269,241.9-269,245.9"/>
</g>
</svg>
