<?xml version="1.0" encoding="utf-8"?>
<!-- Generator: Adobe Illustrator 19.1.0, SVG Export Plug-In . SVG Version: 6.00 Build 0)  -->
<svg version="1.1" id="Layer_1" xmlns="http://www.w3.org/2000/svg" xmlns:xlink="http://www.w3.org/1999/xlink" x="0px" y="0px"
	 viewBox="-269 191 100 100" style="enable-background:new -269 191 100 100;" xml:space="preserve">
<g>
	<path d="M-201.6,233.8h-33.9c0-6.2-0.7-12.3,0.2-18.3c1.2-8.5,9.4-14,18.4-13.4c8,0.6,15,7.7,15.3,15.9c0.1,2.1,0.1-0.3,0.1,1.9
		l10.5,0c0-0.9,0-2.9-0.9-7.1c-2.8-13.8-15.2-22.7-29.5-21.8c-13,0.8-24.2,11.7-25.3,25.1c-0.5,5.7-0.1,11.6-0.1,17.8
		c-2.6,0-4.8,0-6.9,0c-3.1,0-4.1,1.1-4.1,4.2c0,16.3,0,32.6,0,48.8c0,3,1,4,4,4c23.3,0,46.5,0,69.8,0c2.9,0,3.9-1,3.9-3.9
		c0-16.4,0-32.9,0-49.3c0-2.8-1.1-3.8-4-3.9c-2.2,0-4.4,0-6.8,0"/>
</g>
</svg>
