<?xml version="1.0" encoding="utf-8"?>
<!-- Generator: Adobe Illustrator 19.1.0, SVG Export Plug-In . SVG Version: 6.00 Build 0)  -->
<svg version="1.1" id="Layer_1" xmlns="http://www.w3.org/2000/svg" xmlns:xlink="http://www.w3.org/1999/xlink" x="0px" y="0px"
	 viewBox="-269 191 100 100" style="enable-background:new -269 191 100 100;" xml:space="preserve">
<g>
	<path d="M-179,213.8h-15.8c-1.4-3.9-5.1-6.7-9.5-6.7h-29.4c-4.4,0-8.1,2.8-9.5,6.7H-259c-5.5,0-10,4.5-10,10V265
		c0,5.5,4.5,10,10,10h79.9c5.5,0,10-4.5,10-10v-41.2C-169,218.3-173.5,213.8-179,213.8 M-218.9,269c-13.9,0-25.1-11.2-25.1-25.1
		c0-13.9,11.2-25.1,25.1-25.1c13.9,0,25.1,11.2,25.1,25.1C-193.8,257.7-205.1,269-218.9,269"/>
	<path d="M-218.5,264.6c-11.4,0-20.7-9.3-20.7-20.8c0-11.4,9.3-20.7,20.7-20.7c11.4,0,20.8,9.3,20.8,20.7
		C-197.7,255.3-207,264.6-218.5,264.6 M-218.5,227.1c-9.2,0-16.7,7.5-16.7,16.7c0,9.2,7.5,16.7,16.7,16.7c9.2,0,16.7-7.5,16.7-16.7
		C-201.7,234.7-209.3,227.1-218.5,227.1"/>
</g>
</svg>
