<?xml version="1.0" encoding="utf-8"?>
<!-- Generator: Adobe Illustrator 19.1.0, SVG Export Plug-In . SVG Version: 6.00 Build 0)  -->
<svg version="1.1" id="Layer_1" xmlns="http://www.w3.org/2000/svg" xmlns:xlink="http://www.w3.org/1999/xlink" x="0px" y="0px"
	 viewBox="-269 191 100 100" style="enable-background:new -269 191 100 100;" xml:space="preserve">
<g>
	<path d="M-169,226c0-15.1-12.2-27.3-27.3-27.3c-9.5,0-17.8,4.8-22.7,12.1c-4.9-7.3-13.2-12.1-22.7-12.1
		c-15.1,0-27.3,12.2-27.3,27.3c0,3.8,0.8,7.4,2.1,10.6c0.6,1.4,1.3,2.7,2.1,4c10.3,21.5,45.8,42.7,45.8,42.7s35.5-21.2,45.8-42.7
		c0.8-1.3,1.5-2.6,2.1-4C-169.8,233.4-169,229.8-169,226"/>
</g>
</svg>
