<?xml version="1.0" encoding="utf-8"?>
<!-- Generator: Adobe Illustrator 19.2.1, SVG Export Plug-In . SVG Version: 6.00 Build 0)  -->
<svg version="1.1" id="Icons" xmlns="http://www.w3.org/2000/svg" xmlns:xlink="http://www.w3.org/1999/xlink" x="0px" y="0px"
	 viewBox="0 0 100 99.6" style="enable-background:new 0 0 100 99.6;" xml:space="preserve">
<style type="text/css">
	.st0{fill:#ED1C24;}
</style>
<g>
	<g>
		<path class="st0" d="M40.5,3.6c-0.7,2-0.2,4.1,1.2,5.5l12.4,12.4L32,43.6c-3.3,3.9-3.1,9.7,0.5,13.4L43,67.4
			c3.6,3.6,9.5,3.8,13.4,0.5l22.1-22.1l12.4,12.4c1.4,1.4,3.5,1.9,5.5,1.2c2.2-0.8,3.6-2.8,3.6-5l0,0l0-43.8C99.9,4.8,95.2,0,89.3,0
			L45.5,0l0,0C43.3,0,41.2,1.4,40.5,3.6z"/>
	</g>
	<path class="st0" d="M100,74.9L100,74.9C99.5,72.1,97,70,94.2,70c-3.2,0-5.8,2.6-5.9,5.8l0,0l0,8.5c-0.1,1.9-1.6,3.5-3.5,3.7
		l-69.3,0c-2,0-3.7-1.6-3.8-3.6l0-68.8c0.1-2,1.6-3.6,3.5-3.7l9.7,0c2.8-0.4,5-3,5-5.9c0-2.9-2.2-5.4-5-5.9L10.7,0h0
		C7.9,0,5.2,1.1,3.2,3.2c-2,2-3.2,4.7-3.2,7.6l0,78.1c0,5.9,4.8,10.7,10.7,10.7h78.5c5.9,0,10.7-4.8,10.7-10.7V75.8L100,74.9z"/>
</g>
</svg>
