<?xml version="1.0" encoding="utf-8"?>
<!-- Generator: Adobe Illustrator 18.1.1, SVG Export Plug-In . SVG Version: 6.00 Build 0)  -->
<svg version="1.1" id="Layer_1" xmlns="http://www.w3.org/2000/svg" xmlns:xlink="http://www.w3.org/1999/xlink" x="0px" y="0px"
	 viewBox="0 0 103.2 103.2" enable-background="new 0 0 103.2 103.2" xml:space="preserve">
<g>
	<circle display="none" fill="#231F20" cx="51.6" cy="51.6" r="73"/>
	<path fill="#231F20" d="M51.6,103.2C23.2,103.2,0,80.1,0,51.6C0,23.2,23.2,0,51.6,0c28.5,0,51.6,23.2,51.6,51.6
		C103.2,80.1,80.1,103.2,51.6,103.2z M51.6,2.8C24.7,2.8,2.8,24.7,2.8,51.6s21.9,48.8,48.8,48.8c26.9,0,48.8-21.9,48.8-48.8
		S78.5,2.8,51.6,2.8z"/>
	<g>
		<circle fill="#231F20" cx="38.9" cy="38.5" r="8.2"/>
		<circle fill="#231F20" cx="64.4" cy="38.5" r="8.2"/>
		<circle fill="#231F20" cx="38.9" cy="64.7" r="8.2"/>
		<circle fill="#231F20" cx="64.4" cy="64.7" r="8.2"/>
	</g>
</g>
</svg>
