<?xml version="1.0" encoding="utf-8"?>
<!-- Generator: Adobe Illustrator 18.1.1, SVG Export Plug-In . SVG Version: 6.00 Build 0)  -->
<svg version="1.1" id="Icons" xmlns="http://www.w3.org/2000/svg" xmlns:xlink="http://www.w3.org/1999/xlink" x="0px" y="0px"
	 viewBox="0 0 114.6 83.7" enable-background="new 0 0 114.6 83.7" xml:space="preserve">
<g>
	<path fill="#CD040B" d="M110.9,3.7c-2.4-2.4-5.6-3.7-9-3.7c-3.4,0-6.6,1.3-9,3.7L43.2,52.9L21.7,31.2c-2.4-2.4-5.6-3.7-9-3.7
		c-3.4,0-6.6,1.3-9,3.7c-1.5,1.5-2.5,3.2-3.1,5.1C0.2,37.5,0,38.6,0,39.8c0,1.4,0.2,2.8,0.6,4.1c0.6,2,1.7,3.7,3.1,5.2l30.4,30.6
		l0.8,0.8l0.1,0.1c2.3,2,5.3,3.1,8.3,3.1c0.2,0,0.4,0,0.6,0c2.8-0.1,5.4-1.2,7.5-3l59.5-59C115.9,16.7,115.9,8.7,110.9,3.7z"/>
</g>
</svg>
