<?xml version="1.0" encoding="utf-8"?>
<!-- Generator: Adobe Illustrator 19.0.0, SVG Export Plug-In . SVG Version: 6.00 Build 0)  -->
<svg version="1.1" id="Layer_1" xmlns="http://www.w3.org/2000/svg" xmlns:xlink="http://www.w3.org/1999/xlink" x="0px" y="0px"
	 viewBox="-297 389.1 16 15.9" style="enable-background:new -297 389.1 16 15.9;" xml:space="preserve">
<style type="text/css">
	.st0{fill:#ED3436;}
	.st1{fill:#EA2629;}
</style>
<g>
	<path class="st0" d="M-289,389.1c-4.4,0-8,3.6-8,8c0,4.4,3.6,8,8,8c4.2,0,7.8-3.4,8-7.7v-0.6C-281.2,392.5-284.7,389-289,389.1
		 M-282.6,397.1c0,3.5-2.9,6.4-6.5,6.5c-3.5,0-6.4-2.9-6.4-6.4s2.9-6.4,6.4-6.4C-285.5,390.6-282.6,393.5-282.6,397.1"/>
</g>
<g>
	<path class="st1" d="M-286.3,395.4l-1.6,1.6l1.6,1.6c0.3,0.3,0.3,0.8,0,1.1s-0.8,0.3-1.1,0l-1.6-1.6l-1.6,1.6
		c-0.3,0.3-0.8,0.3-1.1,0s-0.3-0.8,0-1.1l1.6-1.6l-1.6-1.6c-0.3-0.3-0.3-0.8,0-1.1s0.8-0.3,1.1,0l1.6,1.6l1.6-1.6
		c0.3-0.3,0.8-0.3,1.1,0C-286,394.7-286,395.2-286.3,395.4"/>
</g>
</svg>
