<?xml version="1.0" encoding="utf-8"?>
<!-- Generator: Adobe Illustrator 19.2.1, SVG Export Plug-In . SVG Version: 6.00 Build 0)  -->
<svg version="1.1" id="Isolation_Mode" xmlns="http://www.w3.org/2000/svg" xmlns:xlink="http://www.w3.org/1999/xlink" x="0px"
	 y="0px" viewBox="0 0 11.5 17.2" style="enable-background:new 0 0 11.5 17.2;" xml:space="preserve">
<g>
	<path d="M10.2,4.8c0-0.3-0.1-0.5-0.2-0.7C9.8,3.7,9.4,3.4,8.8,3.4c-0.9,0-1.1-0.9-1.1-1.5C7.7,0.9,6.8,0,5.8,0
		C4.7,0,3.8,0.9,3.8,1.9c0,0.6-0.5,1.5-1.1,1.5c0,0,0,0,0,0h0c-0.4,0-0.9,0.3-1.2,0.7C1.4,4.3,1.3,4.6,1.3,4.8v0.7h9V4.8z M5.8,1.1
		c0.3,0,0.5,0.2,0.5,0.5c0,0.3-0.2,0.5-0.5,0.5c-0.3,0-0.5-0.2-0.5-0.5C5.3,1.3,5.5,1.1,5.8,1.1"/>
	<path d="M10.7,4.2c0.1,0.2,0.1,0.4,0.1,0.6v0.7v0.5h-0.5h-9H0.8V5.6V4.8c0-0.2,0-0.4,0.1-0.6C0.4,4.4,0,4.9,0,5.5v10.2
		c0,0.8,0.6,1.4,1.4,1.4h8.6c0.8,0,1.4-0.6,1.4-1.4V5.5C11.5,5,11.2,4.4,10.7,4.2z M8.7,14.1H2.8c-0.2,0-0.4-0.2-0.4-0.4
		c0-0.2,0.2-0.4,0.4-0.4h5.9c0.2,0,0.4,0.2,0.4,0.4C9.1,13.9,9,14.1,8.7,14.1z M8.7,12.1H2.8c-0.2,0-0.4-0.2-0.4-0.4
		c0-0.2,0.2-0.4,0.4-0.4h5.9c0.2,0,0.4,0.2,0.4,0.4C9.1,11.9,9,12.1,8.7,12.1z M8.7,10.1H2.8c-0.2,0-0.4-0.2-0.4-0.4
		c0-0.2,0.2-0.4,0.4-0.4h5.9c0.2,0,0.4,0.2,0.4,0.4C9.1,9.9,9,10.1,8.7,10.1z"/>
</g>
</svg>
