<?xml version="1.0" encoding="utf-8"?>
<!-- Generator: Adobe Illustrator 18.1.1, SVG Export Plug-In . SVG Version: 6.00 Build 0)  -->
<svg version="1.1" id="Layer_1" xmlns="http://www.w3.org/2000/svg" xmlns:xlink="http://www.w3.org/1999/xlink" x="0px" y="0px"
	 viewBox="0 0 125.9 108" enable-background="new 0 0 125.9 108" xml:space="preserve">
<circle display="none" fill="#FFFFFF" cx="62.4" cy="54" r="108"/>
<rect x="8.4" y="0" fill="none" width="108" height="108"/>
<path fill="#4B4C4C" d="M110.8,52.6c0,0,0.9-19.4-20.9-19c0,0-3.5-21.5-26.5-23.9c0,0-25.5-3.3-31.6,24.9c0,0-19.1-2.1-29,17.1
	C-7,70.8,8.8,105.3,41.6,91.1c0,0,16.5,18.7,33.8,0.2c0,0,17.3,12.1,25.5-5.9c0,0,25.4,8.2,24.9-16.9
	C125.9,68.6,125,54.3,110.8,52.6z M39.6,52c2.1-10.3,11.3-17.8,21.8-17.8c5.5,0,10.8,2.1,14.9,5.7l0.5-0.5l3.5-3.5l3.2,15.6
	l-15.6-3.2l3.7-3.7c-2.8-2.4-6.5-3.8-10.2-3.8C54,40.7,47.5,46,46,53.3c-0.3,1.5-1.7,2.6-3.2,2.6c-0.2,0-0.4,0-0.7-0.1
	C40.4,55.5,39.3,53.7,39.6,52z M61.4,78.7c-5.7,0-11.1-2.2-15.2-6l-0.1,0.1l-3.5,3.5l-3.2-15.6L55,63.9l-4.1,4.1
	c2.9,2.6,6.6,4.1,10.6,4.1c8.2,0,14.9-6.1,15.7-14.3c0.2-1.8,1.8-3.1,3.6-3c1.8,0.2,3.1,1.8,3,3.6C82.5,70,73,78.7,61.4,78.7z"/>
</svg>
