<?xml version="1.0" encoding="utf-8"?>
<!-- Generator: Adobe Illustrator 18.1.1, SVG Export Plug-In . SVG Version: 6.00 Build 0)  -->
<svg version="1.1" id="Layer_1" xmlns="http://www.w3.org/2000/svg" xmlns:xlink="http://www.w3.org/1999/xlink" x="0px" y="0px"
	 viewBox="0 0 58 59" enable-background="new 0 0 58 59" xml:space="preserve">
<g>
	<path fill="#231F20" d="M6.3,29h3.7V16.5h0c2.6-8.3,9.8-13.8,19-13.8c9.2,0,16.4,5.5,19,13.9v10.9c-1.1,2.5-3.9,7.1-9.7,9.5
		c-0.7-1-1.8-1.6-3.1-1.6c-2.1,0-3.8,1.7-3.8,3.8c0,2.1,1.7,3.8,3.8,3.8c2,0,3.6-1.5,3.8-3.4c6.5-2.5,9.8-7.6,11.3-10.6l1.4,0
		c1.8,0,3.2-1.4,3.2-3.2v-6.2c0-1.8-1.4-3.2-3.2-3.2h-0.9C47.9,6.7,39.5,0,28.9,0C18.3,0,9.9,6.7,7.1,16.5H6.3
		c-1.8,0-3.2,1.4-3.2,3.2v6.2C3.1,27.6,4.5,29,6.3,29z"/>
	<path fill="#231F20" d="M35.1,33.5c1,0,1.9,0.2,2.6,0.7c4.6-2.1,6.8-5.8,7.6-7.8v-9.7c-2.6-6.7-9-11.4-16.5-11.4
		c-7.4,0-13.8,4.7-16.5,11.3v0.1V29v1.4c2.7,6.6,9,11.3,16.5,11.3c0.4,0,0.7,0,1.1,0c-0.4-0.8-0.6-1.6-0.6-2.5
		C29.4,36,32,33.5,35.1,33.5z"/>
	<path fill="#231F20" d="M49.9,42.6l-6.1-1.6c-4,3.5-9.1,5.6-14.7,5.6c-5.6,0-10.8-2.1-14.7-5.6l-6.1,1.6c-6.5,1.8-8.6,4.5-8.1,8.1
		L1.4,59h55.3l1.3-8.3C58.5,47.1,56.4,44.4,49.9,42.6z"/>
</g>
</svg>
