<?xml version="1.0" encoding="utf-8"?>
<!-- Generator: Adobe Illustrator 19.1.0, SVG Export Plug-In . SVG Version: 6.00 Build 0)  -->
<svg version="1.1" id="Icons" xmlns="http://www.w3.org/2000/svg" xmlns:xlink="http://www.w3.org/1999/xlink" x="0px" y="0px"
	 viewBox="377.1 451.6 20.8 41.1" style="enable-background:new 377.1 451.6 20.8 41.1;" xml:space="preserve">
<style type="text/css">
	.st0{fill:#EB2026;}
</style>
<path class="st0" d="M388.4,487v3c0,1.5-1.2,2.7-2.7,2.7s-2.7-1.2-2.7-2.7v-2.9h-3.2c-1.5,0-2.7-1.2-2.7-2.7s1.2-2.7,2.7-2.7h6.4
	h0.1c4.6,0,5.9-0.6,5.9-3.1s-1.4-3.1-5-3.6c-7.4-0.9-10.1-3.2-10.1-8.6c0-3.6,1.7-8.9,9.8-9.2v-2.9c0-1.5,1.2-2.7,2.7-2.7
	s2.7,1.2,2.7,2.7v2.8h1.8c1.5,0,2.7,1.2,2.7,2.7s-1.2,2.7-2.7,2.7h-6.3l0,0c-4.2,0-5,1.9-5,4c0,2.4,1.9,2.8,5.3,3.2
	c6.5,0.8,9.8,2.8,9.8,8.9C397.9,483,395.6,486.4,388.4,487"/>
</svg>
