<?xml version="1.0" encoding="utf-8"?>
<!-- Generator: Adobe Illustrator 18.1.1, SVG Export Plug-In . SVG Version: 6.00 Build 0)  -->
<svg version="1.1" id="Layer_1" xmlns="http://www.w3.org/2000/svg" xmlns:xlink="http://www.w3.org/1999/xlink" x="0px" y="0px"
	 viewBox="276.9 367 58 58" enable-background="new 276.9 367 58 58" xml:space="preserve">
<path fill="#4C4C4C" d="M326.8,375.8c-5.4-5.6-12.6-8.7-20.4-8.8c-0.2,0-0.3,0-0.5,0l0,0c-15.7,0-28.7,12.8-29,28.5
	c-0.3,16,12.5,29.2,28.5,29.5c0.2,0,0.3,0,0.5,0c15.7,0,28.7-12.8,29-28.5C335.1,388.7,332.2,381.4,326.8,375.8 M306.4,370.9
	c4.2,0.1,8.1,1.2,11.5,3c-1.7,0.2-3.1,0.9-4.2,2.3c0,0-0.1,0-0.1,0.1c-3.3,1-4.9,3.6-6.2,6.5c-0.2,0.5-0.5,0.9-0.9,1.6
	c-0.5-0.7-0.8-1.2-1.2-1.6c-0.4-0.4-1.3-0.9-1.4-0.7c-1.2,1-2.6,2-3.3,3.3c-0.7,1.2,0.6,2.2,1.5,2.9c1.4,1.1,2.9,1.1,4.3,2.1
	c0.3,0.2,0.8,0.4,1.1,0.3c2.4-1.3,4.2,0.6,5.9,2.4c0.1,0.1,0.3,0.1,0.4,0.2c2.6,1.3,4.4,3.8,7.3,4.7c0.2,0.1,0.4,0.3,0.6,0.5
	c1,1,1.6,2.1,0.6,3.6c-0.6,0.9-0.8,2-1.2,2.9c-0.2,0.4-0.5,0.8-0.8,1.2c-0.6,0.9-1.4,1.6-1.8,2.6c-0.7,1.6-1.6,2.9-3.1,4
	c-0.1,0.1-0.2,0.2-0.4,0.3c-0.2,0.1-0.4,0.1-0.5,0.2c0.1,0,0.1,0,0.2,0.1c-1.3,1.1-1.3,1.9-0.6,3.9c0.3,0.8,0.6,1.5,1,2.3
	c-0.3,0.1-0.6,0.2-1,0.3c-1.6-0.7-2.6-1.8-3.1-3.7c-0.8-2.9-0.6-5.7-0.2-8.5c0.2-1.5-0.1-2.8-1.3-3.9c-2-1.8-2.8-4.2-3.3-6.8
	c-0.3-1.4-0.4-2.8,1.1-4c-2-1-2.9-1.4-3.9-1.8c-6.7-3.1-10.6-9.8-7.7-18c3.2-1.4,6.7-2.3,10.3-2.3
	C306.1,370.8,306.3,370.8,306.4,370.9 M287.3,412.8c1,0.2,3.4-2.3,4.4-2.2c2.5,0.2,4.6,0.8,5.4,3.5c0.1,0.3,0.3,0.6,0.5,0.9
	c0.4,0.6-0.8,3.9-0.8,4.4C293.1,417.9,289.9,415.6,287.3,412.8"/>
</svg>
