<?xml version="1.0" encoding="utf-8"?>
<!-- Generator: Adobe Illustrator 18.1.1, SVG Export Plug-In . SVG Version: 6.00 Build 0)  -->
<svg version="1.1" id="Layer_1" xmlns="http://www.w3.org/2000/svg" xmlns:xlink="http://www.w3.org/1999/xlink" x="0px" y="0px"
	 viewBox="0 0 99.2 98.9" enable-background="new 0 0 99.2 98.9" xml:space="preserve">
<circle display="none" fill="#FFFFFF" cx="49.8" cy="48.8" r="47.2"/>
<path fill="#9FD6BE" d="M49.7,0C22.3,0,0,22,0,49.2c0,27.5,22,49.7,49.4,49.7c27.3,0,49.7-22,49.7-49C99.2,22.3,77.2,0,49.7,0z
	 M88.7,28c3.3,5.8,5.1,12.1,5.5,18.8c-4.4,0-14.1,0-18.4,0c-0.1-0.2-2.6-14.9-3.5-19.6c0.9,0,2,0,3.2,0c3.8,0,7.7,0,11.5,0
	C87.6,27.3,88.5,27.6,88.7,28z M60.5,6.4c7.7,0.9,19.6,8.6,24.5,16c-4.9,0-9.6,0-14.2,0c-0.4,0-0.9-0.4-1.1-0.8
	c-2.4-5.4-5.6-10.4-9.2-15C60.5,6.5,60.5,6.4,60.5,6.4z M52.2,5c5.4,5,9.4,10.6,12.5,17.2c-4.3,0-8.3,0-12.5,0
	C52.2,16.6,52.2,11,52.2,5z M52.1,27.3c4.7,0,9.3,0,13.8,0c0.4,0,0.9,0.4,1,0.8c1.1,2.3,3.8,18.5,3.7,18.7c-4.1,0-14.4,0-18.6,0
	C52.1,40.4,52.1,34,52.1,27.3z M52.2,71.7c0,0-0.1-15.4-0.1-19.6c4.1,0,18.6-0.1,18.7,0c-0.2,1.4-1.3,8.5-1.6,9.9
	c-0.5,2.9-1.4,5.7-2.2,8.5c-0.1,0.5-0.7,1.1-1.1,1.2C63.4,71.6,52.2,71.7,52.2,71.7z M33.1,71.6c-0.3,0-0.8-0.5-1-0.9
	c-2.1-6-3.2-12.1-3.4-18.6c6.2,0,12.2,0,18.3,0c0,4.3,0,8.5,0,12.8c0,2.3,0,6.8,0,6.8S35.7,71.6,33.1,71.6z M47,46.9
	c-6.1,0-12.1,0-18.5,0c0.4-3.3,0.7-6.6,1.3-9.8c0.3-1.3,0.6-2.7,0.9-4c0,0,1.6-5.6,1.7-5.8c2.6,0,11.9,0,14.6,0
	C47,34,47,40.4,47,46.9z M47,5c0,5.9,0,11.5,0,17.2c-2.6,0-10.2,0-12.8,0c0-0.2,1.3-2.3,2.5-4.3C39.4,13.2,42.8,8.9,47,5z M38.9,6.1
	c-1.8,2.6-3.6,4.9-5.1,7.3c-0.5,0.8-5.5,8.8-5.7,8.8c-0.7,0-11.2,0.1-14.2,0.1C20.7,14,28.7,8.7,38.9,6.1z M8.5,31.8
	c1.9-4.5,2-4.5,6.7-4.5c2.5,0,9,0,11.4,0c0.1,0.2-0.6,3.4-0.7,4.3c-0.9,5.1-1.8,10.1-2.7,15.3c-5.9,0-12.1,0-18.4,0
	C5.2,41.6,6.5,36.6,8.5,31.8z M10.2,70.6c-3.1-5.7-4.8-11.8-5.3-18.4c6.2,0,12.4,0,18.4,0c1.1,6.4,2.2,12.9,3.4,19.5
	c-4.9,0-10,0-15.1,0C11.2,71.6,10.5,71,10.2,70.6z M14,76.6c5.1,0,9.8,0,14.5,0c0.3,0,0.7,0.4,0.9,0.7c3,5.1,5.9,10.3,8.8,15.3
	C28.7,90.2,20.7,84.9,14,76.6z M34.5,76.7c2.4,0,12.5-0.1,12.5-0.1s0,13,0,17.3C41.6,88.9,37.6,83.3,34.5,76.7z M52.1,93.9
	c0-4.3,0-17.3,0-17.3s10.1,0,12.5,0C61.7,83.3,57.6,88.8,52.1,93.9z M60.8,92.5c2.5-4.1,5.4-8.2,7.6-12.7c1.3-2.6,2.6-3.5,5.5-3.3
	c3.6,0.3,7.2,0.1,10.9,0.1C81.3,83.2,67.6,92,60.8,92.5z M90.6,67.2c-1.9,4.4-1.9,4.4-6.8,4.4c-3.9,0-7.8,0-11.8,0
	c0.8-3.5,1.6-6.6,2.2-9.8c0.2-1.3,1.8-9.6,1.8-9.8c4.3,0,13.7,0,18.1,0C93.9,57.4,92.7,62.4,90.6,67.2z"/>
</svg>
