<?xml version="1.0" encoding="utf-8"?>
<!-- Generator: Adobe Illustrator 18.1.1, SVG Export Plug-In . SVG Version: 6.00 Build 0)  -->
<svg version="1.1" id="Layer_1" xmlns="http://www.w3.org/2000/svg" xmlns:xlink="http://www.w3.org/1999/xlink" x="0px" y="0px"
	 viewBox="0 0 56.4 55.6" enable-background="new 0 0 56.4 55.6" xml:space="preserve">
<circle display="none" fill="#FFFFFF" cx="28.2" cy="27.5" r="60"/>
<rect x="-1.8" y="-2.2" display="none" fill="none" width="60" height="60"/>
<g>
	<path fill="#4B4B4B" d="M19.4,13.2L15.2,1.7c0,0-0.7-1.7-2.9-1.7L9.1,0.4c0,0-10.4,1.3-9,13.9c0,0,4.8,30.1,38.3,40.3
		c0,0,13.3,4.5,17-6.2c0,0,0.4-2.1,0.9-4.6c0,0,0.4-1.3-1.4-2.5l-10.3-5.9c0,0-1.7-1.3-3.2,0.1c0,0-2.2,1.8-4.5,4.5l-1,1.3
		c0,0-0.6,0.7-2.1,0.2c0,0-10.1-3.2-19.3-18.5c0,0-0.8-1.2,0.8-2.7c0,0,1.7-1.4,3.8-3.7c0,0,1.1-0.9,0.5-2.7L19.4,13.2z"/>
	<path fill="#4B4B4B" d="M48.4,7.8c-2.2-2.3-5.2-3.6-8.4-3.6c-0.1,0-0.1,0-0.2,0h0c-6.5,0-11.8,5.3-11.9,11.7
		c-0.1,6.6,5.1,12,11.7,12.1c0.1,0,0.1,0,0.2,0c6.5,0,11.8-5.3,11.9-11.7C51.8,13.1,50.6,10.1,48.4,7.8z M40,5.8
		c1.7,0,3.3,0.5,4.7,1.2C44,7.1,43.5,7.4,43,7.9c0,0,0,0-0.1,0c-1.4,0.4-2,1.5-2.5,2.7c-0.1,0.2-0.2,0.4-0.4,0.7
		c-0.2-0.3-0.3-0.5-0.5-0.7c-0.2-0.1-0.5-0.4-0.6-0.3c-0.5,0.4-1.1,0.8-1.4,1.3c-0.3,0.5,0.2,0.9,0.6,1.2c0.6,0.5,1.2,0.4,1.8,0.9
		c0.1,0.1,0.3,0.2,0.4,0.1c1-0.5,1.7,0.3,2.4,1c0,0,0.1,0.1,0.2,0.1c1.1,0.5,1.8,1.6,3,1.9c0.1,0,0.2,0.1,0.2,0.2
		c0.4,0.4,0.7,0.9,0.3,1.5c-0.2,0.4-0.3,0.8-0.5,1.2c-0.1,0.2-0.2,0.3-0.3,0.5c-0.2,0.4-0.6,0.7-0.7,1.1c-0.3,0.7-0.7,1.2-1.3,1.6
		c-0.1,0-0.1,0.1-0.1,0.1l0,0c-0.1,0-0.1,0-0.2,0.1c0,0,0.1,0,0.1,0c-0.5,0.4-0.5,0.8-0.3,1.6c0.1,0.3,0.2,0.6,0.4,1
		c-0.1,0.1-0.3,0.1-0.4,0.1c-0.7-0.3-1.1-0.7-1.3-1.5c-0.3-1.2-0.2-2.3-0.1-3.5c0.1-0.6-0.1-1.2-0.5-1.6c-0.8-0.8-1.2-1.7-1.4-2.8
		c-0.1-0.6-0.2-1.1,0.5-1.6c-0.8-0.4-1.2-0.6-1.6-0.8c-2.7-1.3-4.4-4-3.2-7.4c1.3-0.6,2.7-0.9,4.2-0.9C39.9,5.8,40,5.8,40,5.8z
		 M32.2,23c0.4,0.1,1.4-1,1.8-0.9c1,0.1,1.9,0.3,2.2,1.4c0,0.1,0.1,0.3,0.2,0.4c0.2,0.2-0.3,1.6-0.3,1.8
		C34.6,25.1,33.2,24.2,32.2,23z"/>
</g>
</svg>
