<?xml version="1.0" encoding="utf-8"?>
<!-- Generator: Adobe Illustrator 19.0.0, SVG Export Plug-In . SVG Version: 6.00 Build 0)  -->
<svg version="1.1" id="Icons" xmlns="http://www.w3.org/2000/svg" xmlns:xlink="http://www.w3.org/1999/xlink" x="0px" y="0px"
	 viewBox="0 0 12.2 16.4" style="enable-background:new 0 0 12.2 16.4;" xml:space="preserve">
<style type="text/css">
	.st0{fill:#231F20;}
</style>
<g>
	<path class="st0" d="M12.2,6.1C12.2,2.7,9.5,0,6.1,0C2.7,0,0,2.7,0,6.1C0,7.1,0.2,8,0.6,8.8h0c0.8,2,5.5,7.6,5.5,7.6
		s4.7-5.7,5.5-7.6h0C12,8,12.2,7.1,12.2,6.1 M6.1,10.5C3.9,10.5,2,8.7,2,6.4c0-2.3,1.8-4.1,4.1-4.1c2.3,0,4.1,1.8,4.1,4.1
		C10.2,8.7,8.4,10.5,6.1,10.5"/>
</g>
</svg>
