<?xml version="1.0" encoding="utf-8"?>
<!-- Generator: Adobe Illustrator 18.1.1, SVG Export Plug-In . SVG Version: 6.00 Build 0)  -->
<svg version="1.1" id="Layer_1" xmlns="http://www.w3.org/2000/svg" xmlns:xlink="http://www.w3.org/1999/xlink" x="0px" y="0px"
	 viewBox="-362.2 187.1 799.7 799.7" enable-background="new -362.2 187.1 799.7 799.7" xml:space="preserve">
<g>
	<path d="M-280.9,505.6h237.1l0-237.1c0-45,36.4-81.4,81.4-81.4s81.4,36.4,81.4,81.4l0,237.1l237.1,0c45,0,81.4,36.4,81.4,81.4
		s-36.4,81.4-81.4,81.4H119l0,237.1c0,45-36.4,81.4-81.4,81.4c-45,0-81.4-36.4-81.4-81.4l0-237.1l-237.1,0
		c-45,0-81.4-36.4-81.4-81.4C-361.8,541.6-325.5,505.2-280.9,505.6"/>
</g>
</svg>
