<?xml version="1.0" encoding="utf-8"?>
<!-- Generator: Adobe Illustrator 19.1.0, SVG Export Plug-In . SVG Version: 6.00 Build 0)  -->
<svg version="1.1" id="Layer_1" xmlns="http://www.w3.org/2000/svg" xmlns:xlink="http://www.w3.org/1999/xlink" x="0px" y="0px"
	 viewBox="265.4 390.4 11.6 12.7" style="enable-background:new 265.4 390.4 11.6 12.7;" xml:space="preserve">
<style type="text/css">
	.st0{fill:#ED3436;}
</style>
<g>
	<path class="st0" d="M265.4,393.6v8.7l0,0c0,0.5,0.4,0.8,0.8,0.8h2.4h4.5c0.5,0,0.8-0.4,0.8-0.8c0-0.5-0.4-0.8-0.8-0.8h-4.4h-1.6
		v-7.9V392h1.6h4.5c0.5,0,0.8-0.4,0.8-0.8c0-0.5-0.4-0.8-0.8-0.8h-4.4h-2.6c-0.5,0-0.8,0.4-0.8,0.8"/>
	<path class="st0" d="M272.9,393.2c0-0.6,0.3-0.7,0.7-0.3l3.1,3.2c0.4,0.4,0.4,1.1,0,1.5l-3.1,3.2c-0.4,0.4-0.7,0.3-0.7-0.3v-1.7
		h-1.1h-1.6h-0.1l0,0c-0.6,0-1-0.5-1-1.1V396c0-0.6,0.4-1,1-1.1l0,0h0.1h1.6h1.1V393.2z"/>
</g>
</svg>
