<?xml version="1.0" encoding="utf-8"?>
<!-- Generator: Adobe Illustrator 18.1.1, SVG Export Plug-In . SVG Version: 6.00 Build 0)  -->
<svg version="1.1" id="Icons" xmlns="http://www.w3.org/2000/svg" xmlns:xlink="http://www.w3.org/1999/xlink" x="0px" y="0px"
	 viewBox="292.3 259.5 12.5 12.5" enable-background="new 292.3 259.5 12.5 12.5" xml:space="preserve">
<path d="M298.6,259.5c-3.5,0-6.3,2.8-6.3,6.3s2.8,6.3,6.3,6.3s6.3-2.8,6.3-6.3C304.8,262.3,302,259.5,298.6,259.5z M295.2,264.5
	c0-0.7,0.5-1.2,1.2-1.2c0.7,0,1.2,0.5,1.2,1.2c0,0.7-0.5,1.2-1.2,1.2C295.7,265.7,295.2,265.2,295.2,264.5z M300.7,269.1
	c-0.5,0.5-1.3,0.9-2.1,0.9s-1.5-0.3-2.1-0.9c-0.1-0.1-0.2-0.2-0.2-0.4s0.1-0.3,0.2-0.4c0.2-0.2,0.5-0.2,0.8,0
	c0.3,0.3,0.8,0.5,1.3,0.5c0.5,0,0.9-0.2,1.3-0.5c0.2-0.2,0.5-0.2,0.8,0C300.8,268.5,300.8,268.9,300.7,269.1z M300.7,265.7
	c-0.7,0-1.2-0.5-1.2-1.2c0-0.7,0.5-1.2,1.2-1.2c0.7,0,1.2,0.5,1.2,1.2C301.9,265.2,301.4,265.7,300.7,265.7z"/>
</svg>
