<svg xmlns="http://www.w3.org/2000/svg" viewBox="0 0 588.82 588.82"><defs><style>.cls-1{fill:#abe0fa;}.cls-2,.cls-3,.cls-5{fill:#f8b094;fill-rule:evenodd;}.cls-3,.cls-4,.cls-5{stroke:#e8e7e5;stroke-width:2px;}.cls-3,.cls-4{stroke-miterlimit:10;}.cls-4{fill:none;}.cls-5{stroke-linecap:round;stroke-linejoin:round;}.cls-6{fill:#f6d05c;}</style></defs><title>Asset 3</title><g id="Layer_2" data-name="Layer 2"><g id="Layer_1-2" data-name="Layer 1"><circle class="cls-1" cx="294.41" cy="294.41" r="294.41"/><path class="cls-2" d="M395.73,345.77,221.62,344.6l9.59,170.06-.83,43,139.39.68c0-52.6,26-50.53,26-103.45Z"/><path class="cls-2" d="M264.63,353.39a21.86,21.86,0,0,1-43.72,0v-124a21.86,21.86,0,0,1,43.72,0Z"/><path class="cls-3" d="M309.28,389.38a21.86,21.86,0,1,1-43.71,0V328.25a21.86,21.86,0,1,1,43.71,0Z"/><path class="cls-3" d="M353.23,389.38a21.86,21.86,0,1,1-43.71,0V328.25a21.86,21.86,0,0,1,43.71,0Z"/><path class="cls-4" d="M344.49,406.86a21.85,21.85,0,0,1-26.24,0l-.64-.5V392a13.76,13.76,0,0,1,27.52,0v14.38Z"/><path class="cls-4" d="M300.39,406.86a21.85,21.85,0,0,1-26.24,0l-.64-.5V392A13.76,13.76,0,0,1,301,392v14.38Z"/><path class="cls-3" d="M396.71,389.38a21.86,21.86,0,1,1-43.71,0V343.13a21.86,21.86,0,1,1,43.71,0Z"/><path class="cls-5" d="M307.28,506.15c0-78.13-70.15-78.6-70.15-78.6v-40l10.63-7.2c24.31-18.06,16.82-35.34,9.95-44.6-.73-1-6-10.3-15.29-3.43,0,0-29.11,20.85-43.66,31.75-16.31,12.21-14.22,22.46-14.22,32.37,0,11.52.46,18.41.46,36,0,57.88,45.31,62.84,45.31,105.83v18.3"/><path class="cls-4" d="M243.1,353.45c-7.23,5.37-16.12,5.75-21.35-1.69l-2.1-2.75c12.05-9,22.77-16.72,22.77-16.72,3.17-2.35,5.87-2.81,8.08-2.35l.08.4C252.2,335.74,253.32,345.86,243.1,353.45Z"/><path class="cls-4" d="M388,406.86a21.85,21.85,0,0,1-26.24,0l-.64-.5V392a13.76,13.76,0,0,1,27.52,0v14.38Z"/><circle class="cls-6" cx="243.13" cy="146.75" r="61.26"/><path class="cls-6" d="M212,161a33.37,33.37,0,0,0,62.28,0"/><path d="M243.14,185.86a37.11,37.11,0,0,1-34.41-23.62l6.54-2.52a29.87,29.87,0,0,0,55.75,0l6.54,2.52A37.11,37.11,0,0,1,243.14,185.86Z"/><line class="cls-6" x1="269.01" y1="159.03" x2="279.22" y2="162.92"/><path d="M279.22,166.42a3.52,3.52,0,0,1-1.25-.23l-10.21-3.89a3.5,3.5,0,0,1,2.49-6.55l10.21,3.89a3.5,3.5,0,0,1-1.25,6.77Z"/><line class="cls-6" x1="217.24" y1="159.03" x2="207.03" y2="162.92"/><path d="M207,166.42a3.5,3.5,0,0,1-1.25-6.77L216,155.76a3.5,3.5,0,0,1,2.49,6.55l-10.21,3.89A3.49,3.49,0,0,1,207,166.42Z"/></g></g></svg>