<svg xmlns="http://www.w3.org/2000/svg" xmlns:xlink="http://www.w3.org/1999/xlink" viewBox="0 0 617.44 658.28"><defs><style>.cls-1{fill:none;}.cls-2{isolation:isolate;}.cls-3{fill:#abe0fa;}.cls-4{clip-path:url(#clip-path);}.cls-5{fill:#e75d3e;}.cls-5,.cls-6,.cls-7,.cls-8,.cls-9{fill-rule:evenodd;}.cls-12,.cls-6{fill:#fff;}.cls-7{fill:#4d4e4e;}.cls-8{fill:#f6d4a8;}.cls-9{fill:#e8e8e8;mix-blend-mode:multiply;}.cls-10{fill:#f6d05c;}.cls-11{fill:#59595c;}</style><clipPath id="clip-path" transform="translate(0 -0.34)"><circle class="cls-1" cx="323.03" cy="294.41" r="294.41"/></clipPath></defs><title>Asset 4</title><g class="cls-2"><g id="Layer_2" data-name="Layer 2"><g id="Layer_1-2" data-name="Layer 1"><circle class="cls-3" cx="323.03" cy="294.41" r="294.41"/><g class="cls-4"><path class="cls-5" d="M331.51,138.22a7.77,7.77,0,0,1,10.58,2.83l109,188.78a7.74,7.74,0,0,1-13.41,7.74l-109-188.78A7.77,7.77,0,0,1,331.51,138.22Z" transform="translate(0 -0.34)"/><path class="cls-6" d="M408.83,256.66a27.11,27.11,0,0,0-24.49-42.43Z" transform="translate(0 -0.34)"/><path class="cls-7" d="M315.28,466.33l5.68-3.28a7.74,7.74,0,1,1,7.74,13.41L323,479.75l-22.86,13.2a15.35,15.35,0,0,1-19.07-2.85l-64.75-78.39-3.09,1.79a15.52,15.52,0,0,1-21.16-5.67h0l13.41-7.74L225,388.81l34.11-19.7Z" transform="translate(0 -0.34)"/><path class="cls-6" d="M136.54,358.08,150,350.34a7.77,7.77,0,0,1,10.58,2.83L176.6,381a7.77,7.77,0,0,1-2.83,10.58l-13.41,7.74a7.76,7.76,0,0,1-10.58-2.83l-16.07-27.83A7.77,7.77,0,0,1,136.54,358.08Z" transform="translate(0 -0.34)"/><path class="cls-5" d="M145,326.35l73.77-42.59,6.71-3.87,47,81.48h0l-6.71,3.87-73.77,42.59a15.52,15.52,0,0,1-21.16-5.67l-31.56-54.66A15.52,15.52,0,0,1,145,326.35Z" transform="translate(0 -0.34)"/><polygon class="cls-6" points="196.47 456.25 191.77 458.97 187.07 461.68 203.35 489.88 219.63 518.09 224.33 515.37 229.03 512.66 212.75 484.45 196.47 456.25"/><path class="cls-8" d="M275.26,404.84l-42.47,24.52-16.45-17.65-5.67,5.1a10.51,10.51,0,0,0-3.59,8L207,450.53a10.6,10.6,0,0,1-5.42,9.37l-2.41,1.39,27.14,47,6.74-3.9a10.49,10.49,0,0,1,8.33-1.06,16.23,16.23,0,0,0,12.5-1.57L281.25,486l30.65-17.69,4.65-2.69,1.34-.77a8.14,8.14,0,1,0-8.14-14.1l-2.6,1.5-1.36-2.35,2.6-1.5a8.14,8.14,0,1,0-8.14-14.1l-2.6,1.5-1.36-2.35,2.6-1.5a8.14,8.14,0,1,0-8.14-14.1l-2.6,1.5L286.79,417l2.6-1.5a8.14,8.14,0,1,0-8.14-14.1Z" transform="translate(0 -0.34)"/><path class="cls-6" d="M249,320.63l-23.52-40.74c45.16-26.07,92.8-82.06,103.15-131.09l54.5,94.39,54.5,94.39C390,322,317.72,335.29,272.56,361.37Z" transform="translate(0 -0.34)"/><path class="cls-9" d="M136.54,358.08l6.71-3.87-3.87-6.71A15.52,15.52,0,0,1,145,326.35l73.77-42.59,6.71-3.87c45.16-26.07,92.8-82.06,103.15-131.09h0a7.74,7.74,0,1,1,13.41-7.74l54.5,94.39L141.74,382.58l-8-13.91a7.77,7.77,0,0,1,2.83-10.58Zm260-122.64L410,227.7a27.1,27.1,0,0,0-25.66-13.47Z" transform="translate(0 -0.34)"/><path class="cls-10" d="M413.87,146.27l4.62-20.66A117.32,117.32,0,0,1,507.3,265.56l-20.66-4.62a96.15,96.15,0,0,0-72.77-114.66Z" transform="translate(0 -0.34)"/><path class="cls-10" d="M440.58,250.64a48.9,48.9,0,0,0-37-58.31l4.62-20.66A69.53,69.53,0,0,1,452,202.49h0a69.54,69.54,0,0,1,9.24,52.77Z" transform="translate(0 -0.34)"/><path class="cls-10" d="M531.8,271C548.91,194.45,500.54,118.23,424,101.11l4.62-20.66c88,19.66,143.54,107.23,123.88,195.2Z" transform="translate(0 -0.34)"/><polygon class="cls-11" points="0 558.01 181.64 452.28 225.06 527.49 0 658.28 0 558.01"/><ellipse class="cls-12" cx="172.49" cy="480.93" rx="7.06" ry="7.1" transform="translate(-204.38 135.6) rotate(-27.8)"/><ellipse class="cls-12" cx="151.92" cy="490.83" rx="7.06" ry="7.1" transform="translate(-211.37 127.15) rotate(-27.8)"/><ellipse class="cls-12" cx="131.84" cy="502.36" rx="7.06" ry="7.1" transform="translate(-219.05 119.11) rotate(-27.8)"/></g></g></g></g></svg>