<svg xmlns="http://www.w3.org/2000/svg" viewBox="0 0 588.82 588.82"><defs><style>.cls-1{isolation:isolate;}.cls-2{fill:#fbd268;}.cls-3{fill:#fff;}.cls-4{fill:#4dbc87;}.cls-5{fill:#6ecc9d;}.cls-6{fill:#8dd8b0;}.cls-7{fill:#b3e8ca;}.cls-8{fill:#b2b2b2;}.cls-9{fill:#111;mix-blend-mode:multiply;}.cls-10,.cls-12{fill:none;}.cls-10,.cls-11,.cls-12{stroke:#fff;}.cls-10,.cls-11{stroke-miterlimit:10;}.cls-10{stroke-width:1.38px;opacity:0.7;}.cls-11{fill:#abe0fa;stroke-width:4px;}.cls-12{stroke-linecap:round;stroke-linejoin:round;stroke-width:3.08px;}</style></defs><title>Asset 2</title><g class="cls-1"><g id="Layer_2" data-name="Layer 2"><g id="Layer_1-2" data-name="Layer 1"><circle class="cls-2" cx="294.41" cy="294.41" r="294.41"/><path class="cls-3" d="M520.25,382.3c0-132.45-106.2-223.35-228.37-223.35A222.56,222.56,0,0,0,68.57,380.49l0,12.08H265a35.58,35.58,0,0,0,53.46,0H520.18Z"/><path class="cls-4" d="M447.52,231.42,336,343a51.14,51.14,0,0,1,8.12,41.63H511A216,216,0,0,0,447.52,231.42Z"/><path class="cls-5" d="M336,343,447.52,231.42A215.93,215.93,0,0,0,294.36,168V321.52A51.09,51.09,0,0,1,336,343Z"/><path class="cls-6" d="M294.36,321.52h0V168A215.93,215.93,0,0,0,141.2,231.43L252.74,343A51.1,51.1,0,0,1,294.36,321.52Z"/><path class="cls-7" d="M243.21,372.68A50.92,50.92,0,0,1,252.74,343L141.2,231.43A215.94,215.94,0,0,0,77.77,384.58H244.62A51.2,51.2,0,0,1,243.21,372.68Z"/><path class="cls-8" d="M466.43,316.32l0,0c.57-.17,1.34.74,1.71,2s.2,2.46-.37,2.64v0L292.73,378.34l-5.67-19.88Z"/><circle class="cls-9" cx="291.53" cy="367.32" r="27.85"/><circle class="cls-8" cx="290.9" cy="367.32" r="8.55"/><path class="cls-10" d="M446.9,315.78S422.31,240.19,340.34,222"/><path class="cls-10" d="M379.26,333.21s-9.54-31.54-46.48-47.38"/><path class="cls-10" d="M367.74,336.13s-6.44-18.75-25.2-28.44"/><path class="cls-10" d="M434.15,320.11s-15.94-49.18-58.06-69.22"/><circle class="cls-11" cx="299.06" cy="165.36" r="47.09"/><polyline class="cls-12" points="298.07 127.43 298.07 171.38 316.21 188.12"/></g></g></g></svg>