<svg xmlns="http://www.w3.org/2000/svg" xmlns:xlink="http://www.w3.org/1999/xlink" viewBox="0 0 188.59 1325.62"><defs><style>.cls-1{fill:none;}.cls-2{clip-path:url(#clip-path);}.cls-3{fill:#ec1c24;}.cls-4{fill:#fff;}.cls-5{fill:#f5c71d;}.cls-6{fill:#8ad6f7;}.cls-7{fill:#00aee6;}.cls-8{fill:#f5f5f6;}.cls-9{fill:#f5b094;}.cls-10{fill:#f7bda5;}.cls-11{fill:#808184;}.cls-12{fill:#a2a4a7;}.cls-13{fill:#8acdab;}.cls-14{fill:#3db886;}.cls-15{fill:#5e5f61;}</style><clipPath id="clip-path" transform="translate(-266.05 -218.74)"><rect class="cls-1" width="721.24" height="1544.36"/></clipPath></defs><title>Asset 5</title><g id="Layer_2" data-name="Layer 2"><g id="Layer_1-2" data-name="Layer 1"><g class="cls-2"><g class="cls-2"><path class="cls-3" d="M341.53,1143.74s36.16-51.11,36.16-80.65a36.16,36.16,0,1,0-72.32,0c0,29.55,36.16,80.65,36.16,80.65" transform="translate(-266.05 -218.74)"/><path class="cls-4" d="M356,1063.08a14.46,14.46,0,1,1-14.46-14.46A14.46,14.46,0,0,1,356,1063.08" transform="translate(-266.05 -218.74)"/><path class="cls-5" d="M369,872.1a31.2,31.2,0,1,1-38.28-21.94A31.19,31.19,0,0,1,369,872.1" transform="translate(-266.05 -218.74)"/><polygon class="cls-5" points="64.13 618.79 58.83 620.23 53.09 599.08 58.74 598.94 64.13 618.79"/><rect class="cls-5" x="350.28" y="921.93" width="5.48" height="20.57" transform="translate(-498 -93.65) rotate(-15.19)"/><rect class="cls-5" x="289.49" y="843.22" width="5.48" height="20.57" transform="translate(-859.66 464.02) rotate(-60.19)"/><rect class="cls-5" x="382.88" y="896.75" width="5.48" height="20.57" transform="translate(-859.14 571.97) rotate(-60.19)"/><rect class="cls-5" x="276.7" y="891.62" width="20.57" height="5.48" transform="translate(-490.38 -112.28) rotate(-15.19)"/><rect class="cls-5" x="380.59" y="863.43" width="20.57" height="5.48" transform="translate(-479.36 -86.05) rotate(-15.19)"/><rect class="cls-5" x="301.88" y="924.22" width="20.57" height="5.48" transform="translate(-913.37 518.25) rotate(-60.19)"/><polygon class="cls-5" points="102.38 604.55 107.96 605.84 96.91 625.12 92.15 622.39 102.38 604.55"/><rect class="cls-6" x="320" y="723.53" width="77.09" height="123.91" transform="translate(-730.95 826.54) rotate(-82.98)"/><path class="cls-4" d="M405.82,766.74l8.52,1.05a3.42,3.42,0,0,0,3.81-3l.24-2a3.42,3.42,0,0,0-3-3.81L406.9,758a3.42,3.42,0,0,0-3.81,3l-.25,2a3.42,3.42,0,0,0,3,3.81" transform="translate(-266.05 -218.74)"/><path class="cls-4" d="M389.37,789a31,31,0,1,1-27-34.58,31,31,0,0,1,27,34.58" transform="translate(-266.05 -218.74)"/><path class="cls-7" d="M381.67,788a23.26,23.26,0,1,1-20.24-25.93A23.26,23.26,0,0,1,381.67,788" transform="translate(-266.05 -218.74)"/><polygon class="cls-7" points="63.9 524.4 44.34 521.97 45.29 514.34 64.79 516.5 63.9 524.4"/><rect class="cls-4" x="272.73" y="942.95" width="132.03" height="83.93" transform="translate(-336.31 -191.7) rotate(-4.14)"/><polygon class="cls-3" points="16.16 731.38 4.81 732.21 8.47 728.76 19.82 727.94 16.16 731.38"/><polygon class="cls-6" points="35.16 730.01 23.81 730.83 27.46 727.38 38.81 726.56 35.16 730.01"/><polygon class="cls-3" points="54.15 728.63 42.8 729.46 46.46 726 57.81 725.18 54.15 728.63"/><polygon class="cls-6" points="73.15 727.26 61.8 728.08 65.45 724.63 76.8 723.81 73.15 727.26"/><polygon class="cls-3" points="92.14 725.88 80.8 726.7 84.45 723.25 95.8 722.43 92.14 725.88"/><polygon class="cls-6" points="111.14 724.5 99.79 725.33 103.45 721.88 114.8 721.06 111.14 724.5"/><polygon class="cls-3" points="130.14 723.13 118.79 723.95 122.44 720.5 133.79 719.68 130.14 723.13"/><polygon class="cls-6" points="22 811.93 10.65 812.75 14.3 809.3 25.65 808.48 22 811.93"/><polygon class="cls-6" points="135.97 803.68 124.62 804.5 128.28 801.05 139.63 800.23 135.97 803.68"/><polygon class="cls-3" points="40.99 810.56 29.64 811.38 33.3 807.93 44.65 807.11 40.99 810.56"/><polygon class="cls-6" points="59.99 809.18 48.64 810 52.29 806.55 63.64 805.73 59.99 809.18"/><polygon class="cls-3" points="78.98 807.8 67.64 808.63 71.29 805.18 82.64 804.36 78.98 807.8"/><polygon class="cls-6" points="97.98 806.43 86.63 807.25 90.28 803.8 101.63 802.98 97.98 806.43"/><polygon class="cls-3" points="116.97 805.05 105.63 805.88 109.28 802.42 120.63 801.6 116.97 805.05"/><polygon class="cls-6" points="133.57 736.88 132.75 725.53 136.2 729.19 137.02 740.54 133.57 736.88"/><polygon class="cls-3" points="134.95 755.88 134.12 744.53 137.57 748.18 138.4 759.53 134.95 755.88"/><polygon class="cls-6" points="136.32 774.87 135.5 763.52 138.95 767.18 139.77 778.53 136.32 774.87"/><polygon class="cls-3" points="137.7 793.87 136.88 782.52 140.33 786.17 141.15 797.52 137.7 793.87"/><polygon class="cls-3" points="11.81 795.48 12.63 806.83 9.18 803.18 8.36 791.83 11.81 795.48"/><polygon class="cls-6" points="10.44 776.49 11.26 787.84 7.81 784.18 6.99 772.84 10.44 776.49"/><polygon class="cls-3" points="9.06 757.49 9.88 768.84 6.43 765.19 5.61 753.84 9.06 757.49"/><polygon class="cls-6" points="7.68 738.5 8.51 749.85 5.06 746.19 4.24 734.84 7.68 738.5"/><rect class="cls-8" x="310.89" y="993.19" width="57.14" height="4.26" transform="translate(-337.19 -191.56) rotate(-4.15)"/><rect class="cls-8" x="310.17" y="982.79" width="57.14" height="4.26" transform="translate(-336.44 -191.64) rotate(-4.15)"/><rect class="cls-8" x="309.45" y="972.39" width="57.14" height="4.26" transform="translate(-335.69 -191.72) rotate(-4.15)"/><path class="cls-9" d="M439.16,1290.69a17.34,17.34,0,0,0-5.75.34,4.63,4.63,0,0,1-5.18-2.71,17.35,17.35,0,0,0-25-8.24,3.42,3.42,0,0,1-4.92-1.46,17.36,17.36,0,0,0-31.62.42h0l-1.62,3.9a2.26,2.26,0,0,1-4.34-.71l-8.7-128.34a10.78,10.78,0,0,0-8.45-10,10.59,10.59,0,0,0-12.7,9.95l-4.63,165.26c-.65,16.3,0,32.62,3.86,48.47l14.2,62.15a56.35,56.35,0,0,1,1.52,16.64l-4.28,97.95h92.84l-3.31-51.7a223,223,0,0,1,7.48-68.09l3.92-14.53c6.93-27,12.32-78.54,12.11-101.42-.08-9-6.58-17-15.48-17.92" transform="translate(-266.05 -218.74)"/><path class="cls-10" d="M349.69,1153.23c0,9.82-3.63,9.1-8.1,9.1s-8.1.72-8.1-9.1a8.1,8.1,0,0,1,16.2,0" transform="translate(-266.05 -218.74)"/></g></g><rect class="cls-4" x="293.52" y="390.64" width="113.65" height="95.89" transform="translate(-476.98 211.04) rotate(-50.48)"/><path class="cls-3" d="M349.52,364.24,277.2,451.92l-6.49-5.35a9.34,9.34,0,0,1-1.26-13.15l60.43-73.26A9.34,9.34,0,0,1,343,358.89Z" transform="translate(-266.05 -218.74)"/><path class="cls-6" d="M350.9,379.52l-58.44,70.85,57.34,47.3,58.44-70.85Zm24.31,25.58-8.43,10.23-10.23-8.43L365,396.66Zm-22.29,27-8.43,10.22-10.22-8.43,8.43-10.23Zm-7.51-11.72,8.43-10.23,10.22,8.44-8.43,10.23Zm-3.63,25.24-8.44,10.23-10.23-8.43,8.43-10.23Zm3.29,2.71,10.23,8.44L346.85,467l-10.23-8.43Zm2.71-3.29,8.43-10.23,10.23,8.43L358,453.49Zm11.15-13.51,8.44-10.23,10.22,8.43L369.14,440Zm-7.45-46,10.22,8.43-8.43,10.22L343,395.74ZM340.33,399l10.22,8.43-8.44,10.23-10.22-8.43Zm-11.15,13.51L339.41,421,331,431.2l-10.23-8.43ZM318,426.05l10.23,8.43-8.44,10.23-10.22-8.43ZM312,460.94l8.44-10.23,10.23,8.43-8.44,10.23Zm13.51,11.15,8.44-10.23,10.23,8.43-8.43,10.23Zm23.74,19.58L339,483.23,347.43,473l10.22,8.43Zm11.15-13.51-10.23-8.43,8.43-10.23,10.23,8.43Zm11.15-13.51-10.22-8.43L369.72,446l10.23,8.43ZM370.07,418l8.43-10.22,10.23,8.43-8.43,10.23Z" transform="translate(-266.05 -218.74)"/><path class="cls-4" d="M280.66,434.39a2.85,2.85,0,1,1-4,.38,2.85,2.85,0,0,1,4-.38" transform="translate(-266.05 -218.74)"/><path class="cls-4" d="M336.59,366.58a2.85,2.85,0,1,1-4,.38,2.85,2.85,0,0,1,4-.38" transform="translate(-266.05 -218.74)"/><path class="cls-11" d="M382.12,329.62c16.8-22.73,19.78-49,6.67-58.71a19.63,19.63,0,0,0-12.67-3.57,12.55,12.55,0,0,1-12-17.45,19.65,19.65,0,0,0,1.26-13.1c-4.29-15.73-29.88-22.46-57.15-15s-45.9,26.22-41.61,42c2.77,10.16,14.42,16.56,29.67,17.82a28.42,28.42,0,0,1,21,12.43l.77,1.12a29.53,29.53,0,0,1,3.79,24.8c-4.06,14.37-2.22,27.2,6.1,33.35,13.12,9.69,37.36-.89,54.16-23.62" transform="translate(-266.05 -218.74)"/><path class="cls-12" d="M370.07,314.71a6.83,6.83,0,1,1,8-5.45,6.83,6.83,0,0,1-8,5.45" transform="translate(-266.05 -218.74)"/><path class="cls-12" d="M349.37,310.84a6.83,6.83,0,1,1,8-5.45,6.83,6.83,0,0,1-8,5.45" transform="translate(-266.05 -218.74)"/><path class="cls-13" d="M406.17,581.52c9.15-25.1-7.07-54.05-36.22-64.67s-60.19,1.11-69.34,26.21,7.07,54.05,36.22,64.67a64,64,0,0,0,20.24,3.88,31.57,31.57,0,0,0,21.78,13,23.76,23.76,0,0,1-1.42-16.08c13.27-4.55,24-14,28.73-27" transform="translate(-266.05 -218.74)"/><path class="cls-14" d="M329.68,568.24a8.26,8.26,0,1,1-4.93-10.59,8.26,8.26,0,0,1,4.93,10.59" transform="translate(-266.05 -218.74)"/><path class="cls-14" d="M355.63,580.27a8.26,8.26,0,1,1-4.93-10.59,8.26,8.26,0,0,1,4.93,10.59" transform="translate(-266.05 -218.74)"/><path class="cls-14" d="M379.9,589.12A8.26,8.26,0,1,1,375,578.53a8.26,8.26,0,0,1,4.93,10.59" transform="translate(-266.05 -218.74)"/><path class="cls-9" d="M428.61,719.38,361.72,745a17.35,17.35,0,0,1-22.41-10l-25.59-66.89a17.35,17.35,0,0,1,10-22.41l66.89-25.59a17.35,17.35,0,0,1,22.41,10L438.62,697a17.35,17.35,0,0,1-10,22.41" transform="translate(-266.05 -218.74)"/><path class="cls-4" d="M415.73,667.39A42.36,42.36,0,1,1,361,643a42.36,42.36,0,0,1,54.7,24.43" transform="translate(-266.05 -218.74)"/><path class="cls-15" d="M379.17,685.26a2,2,0,0,1-.47-.06l-25.52-6.14a2,2,0,0,1,.94-3.9l25.52,6.14a2,2,0,0,1-.47,4" transform="translate(-266.05 -218.74)"/><path class="cls-15" d="M374.87,686.59a1.21,1.21,0,0,1-.53-.12,1.25,1.25,0,0,1-.61-1.66l16.95-36.46a1.25,1.25,0,0,1,2.27,1.06L376,685.86a1.26,1.26,0,0,1-1.14.72" transform="translate(-266.05 -218.74)"/></g></g></svg>