<svg xmlns="http://www.w3.org/2000/svg" viewBox="0 0 1920 1080"><defs><style>.cls-1{fill:#fff;}.cls-2{font-size:124.98px;}.cls-11,.cls-13,.cls-2{fill:#333;}.cls-11,.cls-2{font-family:NHaasGroteskTXStd-75Bd, Neue Haas Grotesk Text Std;font-weight:700;}.cls-3{letter-spacing:-0.02em;}.cls-4{letter-spacing:-0.01em;}.cls-5{letter-spacing:0em;}.cls-6{letter-spacing:0.01em;}.cls-7{letter-spacing:-0.01em;}.cls-8{letter-spacing:0em;}.cls-9{letter-spacing:0em;}.cls-10{letter-spacing:0em;}.cls-11{font-size:46.61px;}.cls-12{letter-spacing:0em;}.cls-13{font-size:37.53px;font-family:NHaasGroteskTXStd-55Rg, Neue Haas Grotesk Text Std;}.cls-14{letter-spacing:-0.02em;}.cls-15{letter-spacing:-0.01em;}.cls-16{letter-spacing:0em;}.cls-17{letter-spacing:0em;}.cls-18{letter-spacing:-0.02em;}.cls-19{letter-spacing:0em;}.cls-20{letter-spacing:-0.01em;}.cls-21{letter-spacing:0.01em;}.cls-22{letter-spacing:-0.06em;}.cls-23{letter-spacing:-0.11em;}.cls-24{fill:none;stroke:#131313;stroke-miterlimit:10;}</style></defs><title>Deliver_screen</title><g id="Layer_2" data-name="Layer 2"><g id="Layer_1-2" data-name="Layer 1"><rect class="cls-1" width="1920" height="1080"/><text class="cls-2" transform="translate(248.19 423.32)">Deli<tspan class="cls-3" x="233.71" y="0">v</tspan><tspan x="299.83" y="0">er</tspan><tspan x="0" y="128.22">the p</tspan><tspan class="cls-4" x="306.7" y="128.22">r</tspan><tspan class="cls-5" x="356.69" y="128.22">omise</tspan></text><text class="cls-2" transform="translate(1174.26 423.32)"><tspan class="cls-6">B<tspan class="cls-7" x="89.98" y="0">e</tspan><tspan class="cls-8" x="163.22" y="0">t</tspan><tspan class="cls-9" x="211.22" y="0">ter</tspan></tspan><tspan x="0" y="128.22">m</tspan><tspan class="cls-10" x="113.73" y="128.22">at</tspan><tspan x="233.59" y="128.22">ters</tspan></text><text class="cls-11" transform="translate(241.93 765.16)">Our Prioritie<tspan class="cls-12" x="276.82" y="0">s</tspan><tspan x="302.17" y="0">:</tspan></text><text class="cls-13" transform="translate(241.93 825.88)">A g<tspan class="cls-14" x="58.51" y="0">r</tspan><tspan x="71.98" y="0">e</tspan><tspan class="cls-15" x="93.63" y="0">a</tspan><tspan x="114.35" y="0">t cu</tspan><tspan class="cls-15" x="179.69" y="0">s</tspan><tspan class="cls-16" x="198.9" y="0">t</tspan><tspan class="cls-17" x="211.89" y="0">omer </tspan><tspan class="cls-18" x="312.01" y="0">e</tspan><tspan class="cls-19" x="332.73" y="0">xperienc</tspan><tspan class="cls-15" x="484.23" y="0">e</tspan><tspan class="cls-17" x="505.51" y="0">. G</tspan><tspan class="cls-14" x="552.9" y="0">r</tspan><tspan class="cls-20" x="566.38" y="0">o</tspan><tspan class="cls-21" x="588.29" y="0">w</tspan><tspan class="cls-19" x="617.98" y="0">th &amp; p</tspan><tspan class="cls-14" x="719.68" y="0">r</tspan><tspan class="cls-20" x="733.15" y="0">o</tspan><tspan x="755.07" y="0">fitabilit</tspan><tspan class="cls-22" x="870.96" y="0">y</tspan><tspan class="cls-17" x="888.18" y="0">. Building our V </tspan><tspan class="cls-23" x="1157.14" y="0">T</tspan><tspan x="1177.56" y="0">eam cultu</tspan><tspan class="cls-14" x="1347.3" y="0">r</tspan><tspan class="cls-15" x="1360.77" y="0">e</tspan><tspan x="1382.05" y="0">.</tspan></text><line class="cls-24" x1="1069.23" y1="276.37" x2="1069.23" y2="637.88"/></g></g></svg>