<?xml version="1.0" encoding="utf-8"?>
<!-- Generator: Adobe Illustrator 19.1.0, SVG Export Plug-In . SVG Version: 6.00 Build 0)  -->
<svg version="1.1" id="Layer_1" xmlns="http://www.w3.org/2000/svg" xmlns:xlink="http://www.w3.org/1999/xlink" x="0px" y="0px"
	 viewBox="-269 191 100 100" style="enable-background:new -269 191 100 100;" xml:space="preserve">
<g>
	<path d="M-219,191c-27.6,0-50,22.4-50,50s22.4,50,50,50c27.6,0,50-22.4,50-50S-191.4,191-219,191 M-217.3,258
		c-0.5,0.3-0.9,0.4-1.4,0.4c-1.1,0-2.1-0.6-2.6-1.6l-13-23.9l-13.4,24c-0.8,1.4-2.6,2-4.1,1.2c-1.4-0.8-2-2.6-1.2-4.1l16.1-28.7
		c0.5-0.9,1.5-1.5,2.6-1.5h0c1.1,0,2.1,0.6,2.6,1.6l15.6,28.7C-215.3,255.4-215.9,257.2-217.3,258 M-184.9,228.1l-16.1,28.7
		c-0.5,0.9-1.5,1.5-2.6,1.5h0c-1.1,0-2.1-0.6-2.6-1.6l-15.6-28.7c-0.8-1.5-0.3-3.3,1.2-4.1c1.5-0.8,3.3-0.3,4.1,1.2l13,23.9l13.4-24
		c0.8-1.4,2.6-1.9,4.1-1.1C-184.7,224.8-184.1,226.7-184.9,228.1"/>
</g>
</svg>
