<?xml version="1.0" encoding="utf-8"?>
<!-- Generator: Adobe Illustrator 19.1.0, SVG Export Plug-In . SVG Version: 6.00 Build 0)  -->
<svg version="1.1" id="Layer_1" xmlns="http://www.w3.org/2000/svg" xmlns:xlink="http://www.w3.org/1999/xlink" x="0px" y="0px"
	 viewBox="-269 191 100 100" style="enable-background:new -269 191 100 100;" xml:space="preserve">
<g>
	<path d="M-184.9,224.1c-0.1-2.4-0.2-4.9-0.2-7.5c0.1-11.3-15.3-21.6-29.2-23.4l-0.8-0.1V191h-7.1v2.2l-0.8,0.1
		c-15.8,2.1-29.8,12.9-30.1,23.3c-0.1,5.3,0.1,11.2,0.6,17.5l0.1,1l0.4,4.7l0,0l0.1,0.7c0.1,0.7,0.2,1.4,0.4,2
		c0.7-3.8,2.9-8.7,8.8-12.2c7.2-4.2,15.5-6.4,23.9-6.4c8.4,0,16.7,2.2,23.9,6.4c5.5,3.2,7.8,7.7,8.6,11.4l1.3-6.4l0,0l0.1-1.1
		C-184.6,230.9-184.7,227.6-184.9,224.1"/>
	<path d="M-182.9,233.7l0,0.6l-0.9,5.6c0.4,0,0.7,0,0.8,0c0.1,0.5,0.1,1.4,0.1,3.1c0,8.2-1.3,10.4-1.7,10.8
		c-0.6-0.1-1.1-0.3-1.7-0.8l-2.2-2c-0.4,0.4-0.8,0.7-1.3,1c-0.4,0.3-0.9,0.5-1.3,0.7l-0.3,2.1c-2.3,14.3-13.6,29.8-27.8,29.8
		c-11.2,0-24.4-11.1-27.3-29.7l-0.3-1.8c-0.7-0.3-1.3-0.7-1.9-1.1c-0.4-0.2-0.7-0.5-1-0.7l-2,1.8c-0.6,0.5-1.2,0.8-1.7,0.8
		c-0.3-0.4-1.6-2.3-1.6-10.2c0-2.3,0.1-3.3,0.2-3.7c0.2,0,0.5-0.1,1.1-0.1l-0.8-6.2c-6.3,0.4-6.9,4.8-6.9,10c0,4.1,0,16.5,7.8,16.5
		c0.6,0,1.1-0.1,1.7-0.2c4,15.8,16.5,30.9,32.7,30.9c13.1,0,28.4-11.5,33.2-30.9c0.6,0.1,1.1,0.2,1.7,0.2c7.8,0,7.8-12.9,7.8-17.1
		C-176.6,237.2-177.6,234.2-182.9,233.7"/>
	<path d="M-250,246.4c0,1.9,0.6,3.3,1.7,3.9c4.3,2.8,8.6,2.5,12.7-0.5c0.6-0.4,1.2-0.8,1.8-1.2c1.9-1.1,3.9-2,5.9-2.7c0,0,0,0,0,0
		c2.8-0.9,5.8-1.4,8.8-1.4c4.5,0,8.9,1,12.8,3c0,0,0.1,0.1,0.2,0.1c0.6,0.3,1.2,0.6,1.8,1c0.6,0.4,1.2,0.8,1.8,1.2
		c4.2,3,8.5,3.2,12.6,0.6c1.2-0.7,1.8-2.1,1.8-4c0-3.7-2.5-9-8.2-12.3c-6.9-4-14.8-6.1-22.8-6.1c-8.1,0-16,2.1-22.9,6.1
		c-5.5,3.2-8,8.1-8.2,11.9C-249.9,246.1-250,246.3-250,246.4"/>
	<path d="M-242.2,252.7L-242.2,252.7c-2.1,0-4.2-0.7-6.3-2c-1.2-0.7-1.9-2.3-1.9-4.3c0-0.1,0-0.2,0-0.3l0-0.2
		c0.2-3.5,2.5-8.8,8.4-12.2c7-4.1,14.9-6.2,23.1-6.2c8.1,0,16.1,2.1,23.1,6.2c5.9,3.4,8.5,8.9,8.4,12.7c0,2.1-0.7,3.6-2.1,4.4
		c-4.2,2.7-8.8,2.6-13.2-0.6c-0.6-0.4-1.2-0.8-1.8-1.2c-0.6-0.3-1.1-0.6-1.7-0.9l0.1-0.5l-0.2,0.4c-3.9-2-8.2-3-12.6-3
		c-3,0-5.9,0.5-8.7,1.3c-2.1,0.7-4,1.6-5.9,2.6c-0.6,0.4-1.2,0.8-1.8,1.2C-237.5,251.9-239.9,252.7-242.2,252.7 M-218.9,228.4
		c-8,0-15.8,2.1-22.6,6.1c-5.6,3.3-7.8,8.2-7.9,11.5c0,0.1,0,0.2,0,0.2c0,0.1,0,0.1,0,0.2c0,1.7,0.6,3,1.5,3.5
		c1.9,1.3,3.9,1.9,5.8,1.9c2.1,0,4.3-0.8,6.4-2.3c0.6-0.4,1.3-0.9,1.9-1.2c1.9-1.1,3.9-2,6-2.7c2.9-0.9,5.9-1.4,9-1.4
		c4.6,0,9,1,13,3l0.1,0.1c0.6,0.3,1.2,0.7,1.8,1c0.7,0.4,1.3,0.8,1.9,1.2c4,2.9,8.2,3.1,12.1,0.6c1-0.6,1.6-1.9,1.6-3.6
		c0-3.6-2.4-8.7-8-11.9C-203.1,230.5-210.9,228.4-218.9,228.4"/>
</g>
</svg>
