<?xml version="1.0" encoding="utf-8"?>
<!-- Generator: Adobe Illustrator 19.1.0, SVG Export Plug-In . SVG Version: 6.00 Build 0)  -->
<svg version="1.1" id="Layer_1" xmlns="http://www.w3.org/2000/svg" xmlns:xlink="http://www.w3.org/1999/xlink" x="0px" y="0px"
	 viewBox="-269 191 100 100" style="enable-background:new -269 191 100 100;" xml:space="preserve">
<g>
	<path d="M-219,191c-27.6,0-50,22.4-50,50s22.4,50,50,50c27.6,0,50-22.4,50-50S-191.4,191-219,191 M-231.3,225.9
		c0.8,0.8,0.9,2,0.1,2.8l-5.7,6.1l-7.4-3.7c-1-0.5-1.4-1.7-0.9-2.7c0.5-1,1.7-1.4,2.7-0.9l4.7,2.4l3.6-3.9
		C-233.4,225.2-232.1,225.2-231.3,225.9 M-235.7,213.5c1,0.5,1.3,1.7,0.8,2.7l-3.9,7.3l-8.1-1.7c-1.1-0.2-1.8-1.3-1.5-2.4
		c0.2-1.1,1.3-1.8,2.4-1.5l5.2,1.1l2.5-4.7C-237.8,213.4-236.6,213-235.7,213.5 M-250.2,208.7l5.3,0.5l1.9-5c0.4-1,1.6-1.5,2.6-1.1
		c1,0.4,1.5,1.6,1.1,2.6l-3,7.7l-8.3-0.7c-1.1-0.1-1.9-1.1-1.8-2.2C-252.3,209.4-251.3,208.6-250.2,208.7 M-241.5,275.5l-8.3,0.2
		l-2.5-7.9c-0.3-1.1,0.2-2.2,1.3-2.5c1-0.3,2.2,0.2,2.5,1.3l1.6,5l5.3-0.1c1.1-0.1,2,0.8,2.1,1.9
		C-239.6,274.5-240.4,275.5-241.5,275.5 M-235.1,265l-8,2.3l-4.4-7c-0.6-0.9-0.3-2.2,0.6-2.7c0.9-0.6,2.2-0.3,2.8,0.6l2.8,4.5
		l5.1-1.4c1.1-0.3,2.2,0.3,2.5,1.4C-233.4,263.6-234,264.7-235.1,265 M-232,253.5l-7.4,3.8l-5.7-6.1c-0.8-0.8-0.7-2.1,0.1-2.8
		c0.8-0.8,2.1-0.7,2.8,0.1l3.6,3.9l4.8-2.4c1-0.5,2.2-0.1,2.7,0.9C-230.7,251.8-231,253-232,253.5 M-230.9,240.9l-6.7,4.9l-6.6-5
		c-0.9-0.7-1-1.9-0.4-2.8c0.7-0.9,1.9-1,2.8-0.4l4.2,3.2l4.3-3.2c0.9-0.7,2.1-0.5,2.8,0.4C-229.8,239-230,240.2-230.9,240.9
		 M-198.2,203.1c1-0.4,2.2,0.1,2.6,1.1l1.9,5l5.3-0.5c1.1-0.1,2.1,0.7,2.2,1.8c0.1,1.1-0.7,2.1-1.8,2.2l-8.3,0.7l-3-7.7
		C-199.7,204.7-199.2,203.5-198.2,203.1 M-202.9,213.5c1-0.5,2.2-0.2,2.7,0.8l2.5,4.7l5.2-1.1c1.1-0.2,2.1,0.5,2.4,1.5
		c0.2,1.1-0.5,2.1-1.5,2.4l-8.1,1.7l-3.9-7.3C-204.3,215.3-203.9,214.1-202.9,213.5 M-207.3,225.9c0.8-0.8,2.1-0.7,2.8,0.1l3.6,3.9
		l4.7-2.4c1-0.5,2.2-0.1,2.7,0.9c0.5,1,0.1,2.2-0.9,2.7l-7.4,3.7l-5.7-6.1C-208.1,227.9-208.1,226.7-207.3,225.9 M-208.1,238.1
		c0.6-0.9,1.9-1.1,2.8-0.4l4.3,3.2l4.2-3.2c0.9-0.7,2.1-0.5,2.8,0.4c0.7,0.9,0.5,2.1-0.4,2.8l-6.6,5l-6.7-4.9
		C-208.6,240.2-208.8,239-208.1,238.1 M-207.5,250.8c0.5-1,1.7-1.4,2.7-0.9l4.7,2.4l3.6-3.9c0.8-0.8,2-0.8,2.8-0.1
		c0.8,0.8,0.9,2,0.1,2.8l-5.7,6.1l-7.4-3.8C-207.5,253-207.9,251.8-207.5,250.8 M-204.9,262.5c0.3-1.1,1.4-1.7,2.5-1.4l5.1,1.4
		l2.8-4.5c0.6-0.9,1.8-1.2,2.8-0.6c0.9,0.6,1.2,1.8,0.6,2.7l-4.4,7l-8-2.3C-204.6,264.7-205.2,263.6-204.9,262.5 M-186.2,267.8
		l-2.5,7.9l-8.3-0.2c-1.1,0-2-0.9-1.9-2.1c0-1.1,0.9-2,2.1-1.9l5.3,0.1l1.6-5c0.3-1,1.5-1.6,2.5-1.3
		C-186.4,265.6-185.9,266.8-186.2,267.8"/>
</g>
</svg>
