<?xml version="1.0" encoding="utf-8"?>
<!-- Generator: Adobe Illustrator 19.1.0, SVG Export Plug-In . SVG Version: 6.00 Build 0)  -->
<svg version="1.1" id="Layer_1" xmlns="http://www.w3.org/2000/svg" xmlns:xlink="http://www.w3.org/1999/xlink" x="0px" y="0px"
	 viewBox="-269 191 100 100" style="enable-background:new -269 191 100 100;" xml:space="preserve">
<g>
	<path d="M-257.5,287.8l0.8,0.8l-2.4,2.4l-9.6-9.6l2.4-2.4l0.6,0.6l21.4-21.4l8.2,8.2L-257.5,287.8z M-233.1,245.3
		c-5.2,6.1-9.8,11.5-9.8,11.5l8.2,8.2l12.5-10.5C-226.9,250.4-231.1,246.9-233.1,245.3 M-216.1,225.3c8.3-8.4,32.1-32.1,33.7-33.7
		c2-2,6.6,2.7,6.6,2.7l3.5,3.5c0,0,5,4.3,2.7,6.6c-2,2-28.1,28.1-34.8,34.8L-216.1,225.3z"/>
	<polygon points="-193.8,258.1 -202,266.4 -180.6,287.8 -181.2,288.4 -178.8,290.8 -169.2,281.2 -171.6,278.8 -172.3,279.6 	"/>
	<path d="M-262.3,194.3l-3.5,3.5c0,0-4.8,4.6-2.7,6.6c2,2,39,39,36.5,36.5c-2.5-2.5,28.6,24,28.6,24l8.2-8.2l-24.2-28.7
		c0,0-34.1-34.1-36.4-36.4C-258,189.3-262.3,194.3-262.3,194.3"/>
</g>
</svg>
