<?xml version="1.0" encoding="utf-8"?>
<!-- Generator: Adobe Illustrator 19.1.0, SVG Export Plug-In . SVG Version: 6.00 Build 0)  -->
<svg version="1.1" id="Layer_1" xmlns="http://www.w3.org/2000/svg" xmlns:xlink="http://www.w3.org/1999/xlink" x="0px" y="0px"
	 viewBox="-269 191 100 100" style="enable-background:new -269 191 100 100;" xml:space="preserve">
<g>
	<path d="M-203,216.5h16.2l-22-20.3l0.1,14.6C-208.7,214-206.1,216.5-203,216.5"/>
	<path d="M-214.5,211v-20h-33.1c-5.5,0-10,4.5-10,10v80c0,5.5,4.5,10,10,10h57.1c5.5,0,10-4.5,10-10v-58.4H-203
		C-209.3,222.5-214.5,217.4-214.5,211 M-235,267.4v2.8c0,1.4-1.1,2.5-2.5,2.5c-1.4,0-2.5-1.1-2.5-2.5v-2.6h-3.3
		c-1.4,0-2.5-1.1-2.5-2.5c0-1.4,1.1-2.5,2.5-2.5h6.1c4.3,0,5.6-0.6,5.6-3c0-2.4-1.3-3-4.8-3.5c-7-0.9-9.6-3-9.6-8.1
		c0-3.4,2.1-8.4,9.1-8.8v-2.7c0-1.4,1.1-2.5,2.5-2.5c1.4,0,2.5,1.1,2.5,2.5v3.1h2.2c1.4,0,2.5,1.1,2.5,2.5s-1.1,2.5-2.5,2.5h-6.2
		v-0.3c-4,0-4.7,1.8-4.7,3.8c0,2.3,1.9,2.6,5.2,3c6.1,0.8,9.4,2.7,9.4,8.5C-226.2,263.7-228,266.9-235,267.4 M-195,270.3h-23.5
		c-1.7,0-3-1.3-3-3c0-1.7,1.3-3,3-3h23.5c1.7,0,3,1.3,3,3C-192,269-193.4,270.3-195,270.3 M-195,256.4h-23.5c-1.7,0-3-1.3-3-3
		c0-1.7,1.3-3,3-3h23.5c1.7,0,3,1.3,3,3C-192,255.1-193.4,256.4-195,256.4 M-192,239.5c0,1.7-1.3,3-3,3h-23.5c-1.7,0-3-1.3-3-3
		c0-1.7,1.3-3,3-3h23.5C-193.4,236.5-192,237.8-192,239.5"/>
</g>
</svg>
