<?xml version="1.0" encoding="utf-8"?>
<!-- Generator: Adobe Illustrator 19.1.0, SVG Export Plug-In . SVG Version: 6.00 Build 0)  -->
<svg version="1.1" id="Layer_1" xmlns="http://www.w3.org/2000/svg" xmlns:xlink="http://www.w3.org/1999/xlink" x="0px" y="0px"
	 viewBox="-269 191 100 100" style="enable-background:new -269 191 100 100;" xml:space="preserve">
<g>
	<path d="M-186.8,257.5c-1.9-4.6-4.8-2.5-6.7,0.4c-4,5.9-7.6,6.3-11.6,0.1c-2.9-4.5-6-3.8-8.7,0.5c-1.7,2.7-3.4,4-5,4.1
		c0,0-0.1,0-0.1,0c0,0-0.1,0-0.1,0c-1.7-0.1-3.4-1.4-5.1-4.1c-2.7-4.3-5.8-5-8.7-0.5c-4,6.2-7.6,5.8-11.6-0.1
		c-1.9-2.8-4.8-5-6.7-0.4c-1.4,3.5-1.1,8.1,0.2,12.5l2.7,11c1.1,5.2,3.3,9.9,7.3,9.9h43.9c4,0,6-4.8,7.3-9.9l2.7-11
		C-185.7,265.7-185.4,261-186.8,257.5"/>
	<path d="M-192.3,233.1c-5.8,0-11.6,0-17.3,0c-2.7,0-5.4,0-8.1,0c-2.7,0-5.4,0-8.1,0c-5.8,0-11.5,0-17.3,0
		c-10.2,0.1-15.4,1.2-14.4,15.5c0.3,4.2,2.5,6.8,5.8,3.2c3.4-3.8,6.3-2.3,8.8,1.5c3,4.6,5.9,5.4,9,0.5c3.8-5.9,7.2-5.3,10.9,0.3
		c0.1,0.1,0.1,0.1,0.1,0.2l0,0.1c1.2,1.9,2.4,2.7,3.6,2.8c0.1,0,0.2,0,0.3,0c0.1,0,0.2,0,0.3,0c1.2-0.1,2.4-0.9,3.6-2.8l0-0.1
		c0-0.1,0.1-0.1,0.1-0.2c3.6-5.5,7.1-6.2,10.9-0.3c3.1,4.9,6.1,4.1,9.1-0.5c2.5-3.9,5.5-5.3,8.8-1.5c3.3,3.7,5.2,0.8,5.5-3.5
		C-179.6,234-182.1,233.1-192.3,233.1"/>
	<path d="M-214.5,224.5c0,2.2-1.4,4.1-3.2,4.1c-1.8,0-3.2-1.8-3.2-4.1v-12.2c0-2.2,1.4-4.1,3.2-4.1c1.8,0,3.2,1.8,3.2,4.1V224.5z"/>
	<path d="M-213.3,199.2c0,3.6-2.3,6.2-4.7,6c-2.3-0.3-4.5-3.4-4-6.1c0.5-2.7,1.9-5,3.4-7.2c0.7-1.1,1.3-1.1,2,0
		C-215.2,194.3-213.5,196.7-213.3,199.2"/>
</g>
</svg>
