<?xml version="1.0" encoding="utf-8"?>
<!-- Generator: Adobe Illustrator 19.1.0, SVG Export Plug-In . SVG Version: 6.00 Build 0)  -->
<svg version="1.1" id="Layer_1" xmlns="http://www.w3.org/2000/svg" xmlns:xlink="http://www.w3.org/1999/xlink" x="0px" y="0px"
	 viewBox="-269 191 100 100" style="enable-background:new -269 191 100 100;" xml:space="preserve">
<g>
	<path d="M-179,268l-0.2-63.1c0-6.6-5.8-13.9-17.9-13.9h-41c-0.3,0-0.6,0-0.8,0c-0.2,0-0.4,0-0.6,0c-10.7,0-19.4,8.7-19.4,19.4
		c0,0.7,0,3,0,3.5l0.2,65c0,6.6,4.4,12,9.8,12h49.1c4.9,0,9-4.4,9.7-10.2c0-0.6,0-1.2,0-1.8l-0.2-65c0-7.3-2-12-9.8-12l-43.3,0
		c-1.5,0-2.7-1.2-2.7-2.7c0-1.5,1.2-2.7,2.7-2.8h0h39.5h0h5c8.1,0,13.9,5.4,13.9,12l0.2,65c0,2.1-0.4,4.2-1.1,6
		C-181.9,277.9-179,273.4-179,268 M-205.8,261h-37.8c-1.5,0-2.7-1.2-2.7-2.7c0-1.5,1.2-2.7,2.7-2.7h37.8c1.5,0,2.7,1.2,2.7,2.7
		C-203.1,259.8-204.3,261-205.8,261 M-205.8,248.3h-37.8c-1.5,0-2.7-1.2-2.7-2.7s1.2-2.7,2.7-2.7h37.8c1.5,0,2.7,1.2,2.7,2.7
		S-204.3,248.3-205.8,248.3 M-243.6,230.3h37.8c1.5,0,2.7,1.2,2.7,2.7c0,1.5-1.2,2.7-2.7,2.7h-37.8c-1.5,0-2.7-1.2-2.7-2.7
		C-246.3,231.5-245.1,230.3-243.6,230.3"/>
</g>
</svg>
