<?xml version="1.0" encoding="utf-8"?>
<!-- Generator: Adobe Illustrator 19.1.0, SVG Export Plug-In . SVG Version: 6.00 Build 0)  -->
<svg version="1.1" id="Layer_1" xmlns="http://www.w3.org/2000/svg" xmlns:xlink="http://www.w3.org/1999/xlink" x="0px" y="0px"
	 viewBox="-269 191 100 100" style="enable-background:new -269 191 100 100;" xml:space="preserve">
<g>
	<path d="M-192.4,213.9c0.3,1,0.5,2.2,0.5,3.4v4.1v2.7h-2.7h-48.7h-2.7v-2.7v-4.1c0-1.2,0.2-2.4,0.7-3.5c-2.9,1.1-5,4-5,7.3v62.1
		c0,4.3,3.5,7.8,7.8,7.8h47c4.3,0,7.8-3.5,7.8-7.8v-62.1C-187.7,217.9-189.6,215.1-192.4,213.9"/>
	<path d="M-194.6,217.3c0-1.5-0.3-2.8-1-4c-1.2-2.2-3.5-3.7-6.8-3.8c-5-0.2-6.2-4.8-6.2-8.1c0-5.7-4.7-10.4-10.4-10.4
		c-5.7,0-10.4,4.7-10.4,10.4c0,3.3-2.5,8.1-6.1,8.1c0,0,0,0-0.1,0h-0.1c-2.3,0-4.9,1.5-6.4,3.8c-0.8,1.2-1.3,2.5-1.3,4v4.1h48.7
		V217.3z M-218.9,197c1.5,0,2.8,1.2,2.8,2.8c0,1.5-1.2,2.8-2.8,2.8c-1.5,0-2.8-1.2-2.8-2.8C-221.7,198.2-220.5,197-218.9,197"/>
</g>
</svg>
