<?xml version="1.0" encoding="utf-8"?>
<!-- Generator: Adobe Illustrator 19.1.0, SVG Export Plug-In . SVG Version: 6.00 Build 0)  -->
<svg version="1.1" id="Layer_1" xmlns="http://www.w3.org/2000/svg" xmlns:xlink="http://www.w3.org/1999/xlink" x="0px" y="0px"
	 viewBox="-269 191 100 100" style="enable-background:new -269 191 100 100;" xml:space="preserve">
<g>
	<path d="M-170.9,230.2h-8.8l-6.8-17.2c-0.8-2-2.1-4.7-5.9-5.8c0,0-10.8-3.3-26.7-3.3c-17.2,0-28,3.3-28,3.3
		c-3.4,1.3-4.5,2.4-5.9,5.8l-6.5,17.2h-7.8c-1,0-1.8,0.8-1.8,1.8v5.2c0,1,0.8,1.8,1.8,1.8h4.9l-2.9,20.9v1v4.2v11c0,1.1,0.9,2,2,2
		h12.6c1.1,0,2-0.9,2-2v-6.1h59.5v6.1c0,1.1,0.9,2,2,2h12.6c1.1,0,2-0.9,2-2v-15.3c0-0.1,0-0.2,0-0.3l0-1.6l-3.9-19.9h5.8
		c1,0,1.9-0.8,1.9-1.9v-5C-169,231-169.8,230.2-170.9,230.2 M-247.4,252.4c-3.6,0-6.6-3-6.6-6.6c0-3.6,3-6.6,6.6-6.6
		c3.6,0,6.6,3,6.6,6.6C-240.8,249.4-243.7,252.4-247.4,252.4 M-219.4,230.2h-31.8l5.9-14.7c0.7-1.6,0.9-1.8,1.6-2c0,0,10-2.9,24.4-3
		c0,0,0.1,0,0.2,0c0.1,0,0.2,0,0.2,0c14.3,0,24.4,3,24.4,3c0.7,0.2,0.9,0.3,1.6,2l5.9,14.7H-219H-219.4z M-187.6,252.8
		c-3.6,0-6.6-3-6.6-6.6c0-3.6,3-6.6,6.6-6.6c3.6,0,6.6,3,6.6,6.6C-181,249.9-184,252.8-187.6,252.8"/>
</g>
</svg>
