<?xml version="1.0" encoding="utf-8"?>
<!-- Generator: Adobe Illustrator 19.1.0, SVG Export Plug-In . SVG Version: 6.00 Build 0)  -->
<svg version="1.1" id="Layer_1" xmlns="http://www.w3.org/2000/svg" xmlns:xlink="http://www.w3.org/1999/xlink" x="0px" y="0px"
	 viewBox="-269 191 100 100" style="enable-background:new -269 191 100 100;" xml:space="preserve">
<path d="M-169.8,231.4c-1.7-3.9-5.9-6.4-11.4-6.7c0.8-3.4,1.3-6.7,1.4-9.7H-269c1,16.9,11.7,42.5,26.5,49c0,0,6,3.4,19,2.9
	c15-0.5,17.2-2.9,17.2-2.9c4.3-1.9,8.3-5.4,11.7-9.8c0.3,0,0.7,0,1,0c3.5,0,7.3-0.8,10.9-2.4C-172.4,247.3-166.8,238.4-169.8,231.4z
	 M-185.1,246.2c-1.7,0.8-3.5,1.3-5.2,1.6c3.1-5.3,5.6-11.2,7.4-17c0.1,0,0.2,0,0.2,0c3.6,0,6.3,1.2,7.2,3.1
	C-174,237.1-177.6,242.9-185.1,246.2z"/>
</svg>
