<?xml version="1.0" encoding="utf-8"?>
<!-- Generator: Adobe Illustrator 19.1.0, SVG Export Plug-In . SVG Version: 6.00 Build 0)  -->
<svg version="1.1" id="Layer_1" xmlns="http://www.w3.org/2000/svg" xmlns:xlink="http://www.w3.org/1999/xlink" x="0px" y="0px"
	 viewBox="-269 191 100 100" style="enable-background:new -269 191 100 100;" xml:space="preserve">
<g>
	<path d="M-179,200.9c2.2,0,4,1.8,4,4v60c0,2.2-1.8,4-4,4h-80c-2.2,0-4-1.8-4-4v-60c0-2.2,1.8-4,4-4H-179 M-179,194.9h-80
		c-5.5,0-10,4.5-10,10v60c0,5.5,4.5,10,10,10h80c5.5,0,10-4.5,10-10v-60C-169,199.4-173.5,194.9-179,194.9"/>
	<path d="M-172,287.1h-94c-1.6,0-2.9-1.3-2.9-2.9c0-1.6,1.3-2.9,2.9-2.9h94c1.6,0,2.9,1.3,2.9,2.9
		C-169.1,285.8-170.4,287.1-172,287.1"/>
	<path d="M-184,206.8h-70c-1.7,0-3,1.3-3,3v50c0,1.7,1.3,3,3,3h70c1.7,0,3-1.3,3-3v-50C-181,208.1-182.3,206.8-184,206.8
		 M-223.9,240.5c-0.6,0.6-1.4,0.9-2.1,0.9s-1.5-0.3-2.1-0.9l-13.1-13.1l-5.3,5.3l-5.4-20.2l20.2,5.4l-5.3,5.3l13.1,13.1
		C-222.7,237.4-222.7,239.3-223.9,240.5"/>
</g>
</svg>
