<?xml version="1.0" encoding="utf-8"?>
<!-- Generator: Adobe Illustrator 19.1.0, SVG Export Plug-In . SVG Version: 6.00 Build 0)  -->
<svg version="1.1" id="Layer_1" xmlns="http://www.w3.org/2000/svg" xmlns:xlink="http://www.w3.org/1999/xlink" x="0px" y="0px"
	 viewBox="-269 191 100 100" style="enable-background:new -269 191 100 100;" xml:space="preserve">
<g>
	<path d="M-211.4,237.1c2.1,4.2,0.5,9.3-3.7,11.5c-4.2,2.1-9.3,0.5-11.5-3.7c-2.1-4.2-0.5-9.3,3.7-11.5
		C-218.7,231.3-213.6,232.9-211.4,237.1"/>
	<path d="M-250,280c-1.3,0-2.5-0.5-3.5-1.5c-10-10-15.5-23.4-15.5-37.5c0-14.2,5.5-27.5,15.5-37.5c1.9-1.9,5.1-1.9,7,0
		c1.9,1.9,1.9,5.1,0,7c-8.1,8.1-12.6,19-12.6,30.5s4.5,22.3,12.6,30.5c1.9,1.9,1.9,5.1,0,7C-247.4,279.5-248.7,280-250,280"/>
	<path d="M-188.1,280c-1.3,0-2.5-0.5-3.5-1.5c-1.9-1.9-1.9-5.1,0-7c8.1-8.1,12.6-19,12.6-30.5s-4.5-22.3-12.6-30.5
		c-1.9-1.9-1.9-5.1,0-7c1.9-1.9,5.1-1.9,7,0c10,10,15.5,23.3,15.5,37.5c0,14.2-5.5,27.5-15.5,37.5C-185.5,279.5-186.8,280-188.1,280
		"/>
	<path d="M-235.1,262.4c-1.4,0-2.7-0.5-3.8-1.6c-5.3-5.3-8.2-12.4-8.2-19.9s2.9-14.6,8.2-19.9c2.1-2.1,5.5-2.1,7.6,0
		c2.1,2.1,2.1,5.5,0,7.6c-3.3,3.3-5.1,7.6-5.1,12.3c0,4.6,1.8,9,5.1,12.3c2.1,2.1,2.1,5.5,0,7.6
		C-232.3,261.9-233.7,262.4-235.1,262.4"/>
	<path d="M-202.9,262.4c-1.4,0-2.7-0.5-3.8-1.6c-2.1-2.1-2.1-5.5,0-7.6c3.3-3.3,5.1-7.6,5.1-12.3c0-4.6-1.8-9-5.1-12.3
		c-2.1-2.1-2.1-5.5,0-7.6c2.1-2.1,5.5-2.1,7.6,0c5.3,5.3,8.2,12.3,8.2,19.9c0,7.5-2.9,14.6-8.2,19.9
		C-200.2,261.9-201.6,262.4-202.9,262.4"/>
</g>
</svg>
