<?xml version="1.0" encoding="utf-8"?>
<!-- Generator: Adobe Illustrator 19.1.0, SVG Export Plug-In . SVG Version: 6.00 Build 0)  -->
<svg version="1.1" id="Layer_1" xmlns="http://www.w3.org/2000/svg" xmlns:xlink="http://www.w3.org/1999/xlink" x="0px" y="0px"
	 viewBox="-269 191 100 100" style="enable-background:new -269 191 100 100;" xml:space="preserve">
<g>
	<path d="M-186.1,208c0,0-18.6-20.8-40.8-10.9c-1.6,0.7-2.6,1.7-2.3,2.1c0.3,0.4,2,0.1,3.7-0.1l2.5-0.4c1.7-0.3,1.8,0.4,0.2,1.1
		l-1.5,0.7c-1.6,0.7-2.6,1.6-2.2,2.1c0.4,0.5,1.9,0.7,3.6,0.4c12.7-2.2,23.8,6.6,18.6,12.9l-17.2,16.7l0,0c-0.6,0.5-1.2,1-1.9,1.4
		c-1.1,0.6-3.2,1.8-4.5,2.9l-39.2,34.9c-2.6,2.3-2.7,6.2-0.2,8.6l5.5,5.3c2.5,2.4,6.4,2.3,8.8-0.2l35.7-38.1
		c1.2-1.3,2.4-3.4,3.1-4.6c0.4-0.7,0.9-1.4,1.5-2c0.2-0.1,0.3-0.3,0.5-0.4l18.4-18c2.4,0,4.9,0.7,6.7,2.5c1.1,1,1.8,2.3,2.2,3.6
		c0.6,1.6,1.5,4.1,2.7,5.3l0.9,0.9c1.2,1.2,3.3,1.2,4.5,0l6.8-6.6c1.2-1.2,1.2-3.2,0-4.4l-0.8-0.8c-1.2-1.2-3.7-2.1-5.4-2.5
		c-1.5-0.4-2.9-1.2-4.1-2.3c-1.2-1.1-1.9-2.5-2.3-3.9c-0.5-1.7-1.1-3.8-2-4.7L-186.1,208z"/>
</g>
</svg>
