<?xml version="1.0" encoding="utf-8"?>
<!-- Generator: Adobe Illustrator 19.1.0, SVG Export Plug-In . SVG Version: 6.00 Build 0)  -->
<svg version="1.1" id="Layer_1" xmlns="http://www.w3.org/2000/svg" xmlns:xlink="http://www.w3.org/1999/xlink" x="0px" y="0px"
	 viewBox="-269 191 100 100" style="enable-background:new -269 191 100 100;" xml:space="preserve">
<g>
	<path d="M-179.3,204.9c0-6.7-5.8-13.9-17.9-13.9h-41c-0.3,0-0.6,0-0.8,0.1c-0.2,0-0.4,0-0.5,0c-10.7,0-19.4,8.7-19.4,19.4
		c0,0.7,0,3,0,3.5l0.2,65c0,6.7,4.4,12,9.8,12h49c4.9,0,9-4.4,9.7-10.2c0-0.6,0-1.2,0-1.8l-0.2-65c0-7.3-2-12-9.8-12l-43.3,0
		c-1.5,0-2.7-1.2-2.7-2.8c0-1.5,1.2-2.7,2.7-2.7c0,0,0,0,0,0h39.5c0,0,0,0,0,0h5c8.1,0,13.9,5.4,13.9,12l0.2,65c0,2.1-0.4,4.2-1.1,6
		c4-1.5,6.9-6.1,6.9-11.5L-179.3,204.9z M-224.7,212.9c7.6,0,13.7,6.3,13.7,14.1s-6.2,14.1-13.7,14.1c-7.6,0-13.7-6.3-13.7-14.1
		S-232.2,212.9-224.7,212.9 M-240.7,241.6l4.7-1.2c3.1,2.7,7,4.3,11.4,4.3c4.3,0,8.3-1.6,11.4-4.3l4.7,1.2c5,1.4,6.7,3.5,6.2,6.2
		l-3.8,23.8c-0.5,3.7-2.8,6.2-6.2,6.2h-12.3h0H-237c-3.4,0-5.7-2.5-6.2-6.2l-3.7-23.8C-247.4,245.1-245.7,243-240.7,241.6"/>
</g>
</svg>
