<?xml version="1.0" encoding="utf-8"?>
<!-- Generator: Adobe Illustrator 19.1.0, SVG Export Plug-In . SVG Version: 6.00 Build 0)  -->
<svg version="1.1" id="Layer_1" xmlns="http://www.w3.org/2000/svg" xmlns:xlink="http://www.w3.org/1999/xlink" x="0px" y="0px"
	 viewBox="-269 191 100 100" style="enable-background:new -269 191 100 100;" xml:space="preserve">
<g>
	<path d="M-183.7,267.6l-0.3-0.1c-6,6.5-13.7,11.4-22.4,13.8c-1.2,2.7-4,4.6-7.2,4.6h-10.9c-3.2,0-6-1.9-7.2-4.6
		c-8.7-2.4-16.4-7.3-22.4-13.8l-0.3,0.1c-11,3.1-14.7,7.7-13.8,13.8l1.5,9.6h95.2l1.5-9.6C-169,275.3-172.6,270.7-183.7,267.6"/>
	<path d="M-226.3,264.4c0.6-0.2,1.2-0.2,1.9-0.2h10.9c0.6,0,1.3,0.1,1.9,0.2c13.1-3.4,22.8-15.5,22.8-29.9c0-17-13.5-30.8-30.1-30.8
		c-16.6,0-30.1,13.8-30.1,30.8C-249.1,248.9-239.4,261.1-226.3,264.4"/>
	<path d="M-174.4,217.1C-174.4,217.1-174.4,217.1-174.4,217.1l-4.6,0c0,0-0.1,0-0.1,0c0,0-0.1,0-0.1,0c-6.7-15.3-22-26.1-39.8-26.1
		c-17.8,0-33.1,10.8-39.8,26.1c0,0-0.1,0-0.1,0h-4.7c-2.6,0-4.6,2.1-4.6,4.7v25.4c0,2.5,1.9,4.4,4.3,4.7h5.2
		c5.8,13.1,17.8,22.8,32.3,25.3v0.9c0,1.1,0.9,2,2,2h10.9c1.1,0,2-0.9,2-2v-0.9c14.5-2.5,26.5-12.2,32.3-25.3h5.2
		c2.4-0.2,4.3-2.2,4.3-4.7v-25.4C-169.8,219.2-171.8,217.1-174.4,217.1 M-211.8,271.2c-0.3-0.6-1-1.1-1.8-1.1h-10.9
		c-0.8,0-1.4,0.4-1.8,1.1c-17.3-3.4-30.3-18.5-30.3-36.8c0-20.7,16.8-37.5,37.5-37.5c20.7,0,37.5,16.8,37.5,37.5
		C-181.5,252.6-194.5,267.8-211.8,271.2"/>
</g>
</svg>
