<?xml version="1.0" encoding="utf-8"?>
<!-- Generator: Adobe Illustrator 19.1.0, SVG Export Plug-In . SVG Version: 6.00 Build 0)  -->
<svg version="1.1" id="Layer_1" xmlns="http://www.w3.org/2000/svg" xmlns:xlink="http://www.w3.org/1999/xlink" x="0px" y="0px"
	 viewBox="-269 191 100 100" style="enable-background:new -269 191 100 100;" xml:space="preserve">
<g>
	<path d="M-242.2,228.1c-1.2,0-2.2,0.5-3,1.7c-0.9,1.2-1.4,2.9-1.4,4.9c0,2.1,0.4,3.7,1.2,4.9c0.7,1.1,1.7,1.6,3.1,1.6
		c1.3,0,2.3-0.2,3.1-0.8c0.8-0.4,1.3-1,1.8-1.7v-4.1c0-2.2-0.5-3.9-1.4-5C-239.5,228.6-240.7,228.1-242.2,228.1"/>
	<path d="M-219,191.1c-27.6,0-50,22.4-50,49.9c0,27.5,22.4,49.9,50,49.9c27.6,0,50-22.4,50-49.9C-169,213.5-191.4,191.1-219,191.1
		 M-228.3,246.4c0,4.7-1.4,8.5-4.2,11.2c-2.8,2.7-6.4,4.1-10.7,4.1c-1.4,0-2.9-0.1-4.3-0.4c-1.5-0.3-2.9-0.7-4.2-1.3l-1-0.4l1.6-7.5
		l1.5,0.7c1,0.5,2,0.8,3,1c1,0.2,2.1,0.3,3.4,0.3c1.8,0,3.2-0.6,4.3-1.8c1-1.2,1.6-2.9,1.7-5.1c-0.3,0.2-0.7,0.4-1.1,0.6
		c-1.3,0.7-2.9,1-4.5,1c-3.9,0-7.1-1.3-9.4-3.8c-2.2-2.5-3.4-5.9-3.4-10.2c0-4.1,1.3-7.5,3.7-10.2c2.5-2.7,5.7-4.1,9.5-4.1
		c4.1,0,7.5,1.4,10.1,4.1c2.6,2.7,3.9,6.5,3.9,11.2V246.4z M-207.2,261.2h-9v-31.7h-8v-7.5l16.9-1.6V261.2z M-191.4,261.2v-31.7
		h-7.9v-7.5l16.9-1.6v40.9H-191.4z"/>
</g>
</svg>
