<?xml version="1.0" encoding="utf-8"?>
<!-- Generator: Adobe Illustrator 19.1.0, SVG Export Plug-In . SVG Version: 6.00 Build 0)  -->
<svg version="1.1" id="Layer_1" xmlns="http://www.w3.org/2000/svg" xmlns:xlink="http://www.w3.org/1999/xlink" x="0px" y="0px"
	 viewBox="-269 191 100 100" style="enable-background:new -269 191 100 100;" xml:space="preserve">
<g>
	<path d="M-231.6,231.8c1-0.7,0.8-1.2-0.4-1.2H-245c-1.2,0-2.2,1-2.2,2.2v5.9c0,1.2,0.5,2.2,1.1,2.2c0.6,0,1.9-0.6,2.9-1.2
		L-231.6,231.8z"/>
	<path d="M-217.3,245.6c0,0-0.2-0.1-0.5-0.1c-0.3,0-0.5,0.1-0.6,0.1l-6.6,3.2l-1.8,39.1c-0.1,1.7,1.2,3,2.9,3h8.1c1.7,0,3-1.4,2.9-3
		l-1.9-41.2L-217.3,245.6z"/>
	<path d="M-185.2,247.7l-24.3-15.9c-0.9-0.6-1.8-2-1.8-3.1l-2.3-35.7c-0.1-1.1-1-2-2.2-2h-4c-1.1,0-2.1,0.9-2.2,2l-2.3,35.6
		c-0.1,1.1-0.9,2.5-1.8,3.1l-26.7,17.9c-0.9,0.6-1.2,1.9-0.7,2.9l2,3.5c0.4,0.7,1.2,1.1,1.9,1.1c0.3,0,0.6-0.1,0.9-0.2l28.9-14
		c0.5-0.3,1.2-0.4,1.9-0.4c0.6,0,1.3,0.1,1.8,0.3l26.6,12.1c0.3,0.1,0.6,0.2,0.9,0.2c0.8,0,1.6-0.4,2-1.1l2-3.5
		C-184,249.6-184.3,248.3-185.2,247.7 M-217.8,237.7c-1.6,0-2.9-1.3-2.9-2.9c0-1.6,1.3-2.9,2.9-2.9c1.6,0,2.9,1.3,2.9,2.9
		C-214.8,236.3-216.2,237.7-217.8,237.7"/>
</g>
</svg>
