<?xml version="1.0" encoding="utf-8"?>
<!-- Generator: Adobe Illustrator 19.1.0, SVG Export Plug-In . SVG Version: 6.00 Build 0)  -->
<svg version="1.1" id="Layer_1" xmlns="http://www.w3.org/2000/svg" xmlns:xlink="http://www.w3.org/1999/xlink" x="0px" y="0px"
	 viewBox="-269 191 100 100" style="enable-background:new -269 191 100 100;" xml:space="preserve">
<g>
	<path d="M-184.4,199.1c-12.2,14.5-25.1,52.6-44.1,61.7c-2.1-1-3.1-1.9-4.1-1.8c-21.4,3-37.3,4.2-36.3,11.5c0.4,2.7,3.5,4.9,8.9,6.8
		c1.9,0.7,4.1,1.4,6.7,2c2.3,0.6,4.8,1.2,7.5,1.8c5.4,1.2,10.5,1.8,15,2c5.5,0.3,10,0,12.7-0.8c3.9-1.2,7.8-4.6,10.4-10.4
		c4.6-10.3,8.6-26.2,17.7-29.3c13.4-4.5,9,37,9,37h5c0,0,0.2-17.8,0.8-26.3c0.7-8.7,2.2-17.5,5.5-30.2
		C-165.1,205.2-182.6,196.9-184.4,199.1"/>
</g>
</svg>
