<?xml version="1.0" encoding="utf-8"?>
<!-- Generator: Adobe Illustrator 19.1.0, SVG Export Plug-In . SVG Version: 6.00 Build 0)  -->
<svg version="1.1" id="Layer_1" xmlns="http://www.w3.org/2000/svg" xmlns:xlink="http://www.w3.org/1999/xlink" x="0px" y="0px"
	 viewBox="-269 191 100 100" style="enable-background:new -269 191 100 100;" xml:space="preserve">
<g>
	<path d="M-192.8,269.4c-0.1-0.3-0.2-0.5-0.3-0.8c0,0,0-0.1-0.1-0.1c-0.1-0.2-0.3-0.5-0.4-0.7c0,0,0,0-0.1-0.1
		c-0.2-0.2-0.4-0.5-0.6-0.7l0,0c-0.2-0.2-0.5-0.4-0.8-0.6c0,0,0,0,0,0c-0.3-0.2-0.6-0.4-0.9-0.5c0,0,0,0-0.1,0
		c-0.3-0.1-0.6-0.3-1-0.4c0,0,0,0-0.1,0c-0.4-0.1-0.7-0.2-1.1-0.2c-0.1,0-0.3,0-0.4,0c-0.3,0-0.6-0.1-0.9-0.1h-2.5h-58.3h-1.7
		c-0.3,0-0.5,0-0.8,0c0,0,0,0-0.1,0c-0.3,0-0.5,0.1-0.8,0.1c0,0-0.1,0-0.1,0c-1.1,0.2-2,0.7-2.8,1.3c0,0,0,0,0,0
		c-0.2,0.2-0.5,0.4-0.7,0.6c0,0,0,0-0.1,0.1c-0.4,0.4-0.7,0.9-1,1.4c0,0,0,0.1-0.1,0.1c-0.1,0.2-0.2,0.5-0.2,0.8c0,0,0,0.1,0,0.1
		c-0.1,0.3-0.1,0.5-0.1,0.8c0,0.3,0,0.6,0.1,0.8c0,0,0,0.1,0,0.1c0.1,0.3,0.1,0.5,0.2,0.8c0,0,0,0.1,0.1,0.1c0.2,0.5,0.6,1,1,1.4
		c0,0,0,0,0.1,0.1c0.2,0.2,0.4,0.4,0.7,0.6c0,0,0,0,0,0c0.8,0.6,1.7,1,2.8,1.3c0.6,0.1,1.2,0.2,1.8,0.2h62.4c0.4,0,0.8,0,1.3-0.1
		c0.4-0.1,0.7-0.1,1.1-0.2c0,0,0,0,0.1,0c0.3-0.1,0.7-0.2,1-0.4c0,0,0,0,0.1,0c0.3-0.1,0.6-0.3,0.9-0.5c0,0,0,0,0,0
		c0.3-0.2,0.5-0.4,0.8-0.6l0,0c0.2-0.2,0.4-0.5,0.6-0.7c0,0,0-0.1,0.1-0.1c0.2-0.2,0.3-0.5,0.4-0.7c0,0,0-0.1,0.1-0.1
		c0.1-0.3,0.2-0.5,0.3-0.8c0,0,0-0.1,0-0.1c0.1-0.3,0.1-0.6,0.1-0.9c0-0.3,0-0.6-0.1-0.9C-192.8,269.4-192.8,269.4-192.8,269.4"/>
	<path d="M-200.8,261.8c0.4-1.4,0.6-2.9,0.6-4.4c0-13-13.9-23.6-30.9-23.6s-30.9,10.6-30.9,23.6c0,1.5,0.3,3,0.7,4.4H-200.8z"/>
	<path d="M-199.4,278.9h-62.4c-0.5,0-1,0-1.5-0.1c1.2,7,6.3,12.2,12.4,12.2h40.1c6.1,0,11.2-5.2,12.4-12.1
		C-198.7,278.9-199.1,278.9-199.4,278.9"/>
	<path d="M-196.6,257.4c0,1.5-0.2,3-0.5,4.5c4.9,0.5,8.7,4.1,8.7,8.5c0,4.7-4.4,8.6-9.8,8.6h-2.9c1.1,1.2,2.7,2.1,4.4,2.1h16
		c2.9,0,5.5-2.4,5.8-5.3l5.5-55c0.3-2.9-1.9-5.3-4.8-5.3h-29.4c-2.9,0-5,2.4-4.7,5.3l1.9,17.8C-200.4,243.4-196.6,250-196.6,257.4"
		/>
	<path d="M-174.4,212.4l2.1-17.9c0.2-1.7-1-3.3-2.7-3.5c-1.7-0.2-3.3,1-3.5,2.7l-2.2,18.6H-174.4z"/>
</g>
</svg>
