<?xml version="1.0" encoding="utf-8"?>
<!-- Generator: Adobe Illustrator 19.1.0, SVG Export Plug-In . SVG Version: 6.00 Build 0)  -->
<svg version="1.1" id="Layer_1" xmlns="http://www.w3.org/2000/svg" xmlns:xlink="http://www.w3.org/1999/xlink" x="0px" y="0px"
	 viewBox="-269 191 100 100" style="enable-background:new -269 191 100 100;" xml:space="preserve">
<g>
	<path d="M-175.1,291h-87.7c-3.4,0-6.1-2.7-6.1-6.1c0-3.4,2.7-6.1,6.1-6.1h87.7c3.4,0,6.1,2.7,6.1,6.1
		C-169,288.3-171.8,291-175.1,291"/>
	<path d="M-252.9,270.9c-3.4,0-6.1-2.7-6.1-6.1v-23.7c0-3.4,2.7-6.1,6.1-6.1c3.4,0,6.1,2.7,6.1,6.1v23.7
		C-246.8,268.2-249.5,270.9-252.9,270.9"/>
	<path d="M-230.3,270.9c-3.4,0-6.1-2.7-6.1-6.1v-23.7c0-3.4,2.7-6.1,6.1-6.1s6.1,2.7,6.1,6.1v23.7
		C-224.2,268.2-226.9,270.9-230.3,270.9"/>
	<path d="M-207.6,270.9c-3.4,0-6.1-2.7-6.1-6.1v-23.7c0-3.4,2.7-6.1,6.1-6.1c3.4,0,6.1,2.7,6.1,6.1v23.7
		C-201.5,268.2-204.3,270.9-207.6,270.9"/>
	<path d="M-185,270.9c-3.4,0-6.1-2.7-6.1-6.1v-23.7c0-3.4,2.7-6.1,6.1-6.1c3.4,0,6.1,2.7,6.1,6.1v23.7
		C-178.9,268.2-181.6,270.9-185,270.9"/>
	<path d="M-174.1,227.2c1.5,0,2.8-1.3,3.9-2.8c1.6-2.3,1.5-6.1,0.1-7.9c-0.9-1.1-1.9-2.2-3-2.9l-40.5-21.1c-3-1.8-7.7-1.8-10.7,0
		l-40.5,21.1c-1.1,0.7-2.2,1.8-3,2.9c-1.4,1.8-1.6,5.7,0.1,7.9c1.1,1.5,2.4,2.8,3.9,2.8H-174.1z"/>
</g>
</svg>
