<?xml version="1.0" encoding="utf-8"?>
<!-- Generator: Adobe Illustrator 19.1.0, SVG Export Plug-In . SVG Version: 6.00 Build 0)  -->
<svg version="1.1" id="Layer_1" xmlns="http://www.w3.org/2000/svg" xmlns:xlink="http://www.w3.org/1999/xlink" x="0px" y="0px"
	 viewBox="-269 191 100 100" style="enable-background:new -269 191 100 100;" xml:space="preserve">
<g>
	<path d="M-219.7,262.4l-1.4,7c-0.3,1.6-1.3,1.8-2.1,0.3l-3-5.3c-0.3-0.5-0.9-0.8-1.5-0.8l-6.1,0.7c-1.7,0.2-2.1-0.6-0.9-1.9
		l4.1-4.5c0.4-0.4,0.5-1.1,0.3-1.6l-2.5-5.5c-0.7-1.5,0-2.2,1.5-1.5l5.5,2.6c0.5,0.2,1.2,0.1,1.7-0.3l4.5-4.1c1.2-1.1,2.1-0.7,1.9,1
		l-0.7,6.1c-0.1,0.6,0.3,1.2,0.8,1.5l5.3,3c1.4,0.8,1.3,1.7-0.3,2.1L-219.7,262.4 M-205.9,226.8c0,2.1,1.7,3.8,3.8,3.8
		c2,0,3.5-0.7,2.8,0.7c-2.4,4.7-8.2,6.6-12.9,4.2c-4.7-2.4-6.6-8.2-4.2-12.9c0.4-0.7,0.8-1.4,1.4-2c0.7-0.8,1.5-2.3,1.5-3.4v-6.1
		c0-1.1-0.9-2.1-2-2.3c-2.8-0.3-5.6-0.3-8.4,0c-1.7,0.2-3.6,1.6-4.3,3.1l-26.2,51.8c-0.7,1.5-0.8,3.9,0.1,5.3
		c8.2,14,24,22,40.2,20.3c1.7-0.2,3.6-1.6,4.3-3.1l26.2-51.8c0.7-1.5,0.8-3.9-0.1-5.3c-3.6-6.1-8.6-11-14.4-14.6v-19.9
		c0-2.1-1.7-3.8-3.8-3.8c-2.1,0-3.8,1.7-3.8,3.8V226.8z M-202.4,288.7c-0.7,1.5,0,2.6,1.6,2.3c5.7-1,11.3-3.2,16.3-6.5
		c0.9-0.6,1.6-2.1,1.6-3.2V255c0-2.8-1-3-2.3-0.5L-202.4,288.7z"/>
</g>
</svg>
