<?xml version="1.0" encoding="utf-8"?>
<!-- Generator: Adobe Illustrator 19.1.0, SVG Export Plug-In . SVG Version: 6.00 Build 0)  -->
<svg version="1.1" id="Layer_1" xmlns="http://www.w3.org/2000/svg" xmlns:xlink="http://www.w3.org/1999/xlink" x="0px" y="0px"
	 viewBox="-269 191 100 100" style="enable-background:new -269 191 100 100;" xml:space="preserve">
<g>
	<path d="M-169.6,248.1c-0.5-0.1-0.8,0-1.4,0.6l-5.5,4.7h-7.1v-7.2c0-1.5-1.1-2.6-2.5-2.6h-75.1c-1.4,0-2.5,1.2-2.5,2.6v34.3
		c0,1.5,1.1,2.6,2.5,2.6h75.1c1.4,0,2.5-1.2,2.5-2.6v-7.3h6.6l6.1,4.8c0.5,0.5,0.9,0.6,1.4,0.5c0.5-0.1,0.6-0.6,0.6-1.2v-1.9v-24.1
		v-0.2v-1.8C-169,248.7-169.1,248.3-169.6,248.1"/>
	<path d="M-248.2,198.9c-11.5,0-20.8,8.9-20.8,19.9s9.3,19.9,20.8,19.9c11.5,0,20.8-8.9,20.8-19.9S-236.7,198.9-248.2,198.9
		 M-248.2,227.1c-4.8,0-8.6-3.7-8.6-8.3c0-4.6,3.9-8.3,8.6-8.3c4.8,0,8.6,3.7,8.6,8.3C-239.5,223.4-243.4,227.1-248.2,227.1"/>
	<path d="M-198.8,198.9c-11.5,0-20.8,8.9-20.8,19.9s9.3,19.9,20.8,19.9c11.5,0,20.8-8.9,20.8-19.9S-187.3,198.9-198.8,198.9
		 M-198.8,227.1c-4.8,0-8.7-3.7-8.7-8.3c0-4.6,3.9-8.3,8.7-8.3c4.8,0,8.6,3.7,8.6,8.3C-190.2,223.4-194.1,227.1-198.8,227.1"/>
</g>
</svg>
