<?xml version="1.0" encoding="utf-8"?>
<!-- Generator: Adobe Illustrator 19.1.0, SVG Export Plug-In . SVG Version: 6.00 Build 0)  -->
<svg version="1.1" id="Layer_1" xmlns="http://www.w3.org/2000/svg" xmlns:xlink="http://www.w3.org/1999/xlink" x="0px" y="0px"
	 viewBox="-269 191 100 100" style="enable-background:new -269 191 100 100;" xml:space="preserve">
<g>
	<path d="M-269,286.2c0,1.1,0.9,2,2,2h96c1.1,0,2-0.9,2-2v-2c0-1.1-0.9-2-2-2h-96c-1.1,0-2,0.9-2,2V286.2z"/>
	<path d="M-199,275.6c0,0.9,0.7,1.6,1.6,1.6h24.8c0.9,0,1.6-0.7,1.6-1.6v-41.4c0-0.9-0.7-1.6-1.6-1.6h-24.8c-0.9,0-1.6,0.7-1.6,1.6
		V275.6z"/>
	<path d="M-233,275.5c0,0.9,0.8,1.7,1.7,1.7h24.6c0.9,0,1.7-0.8,1.7-1.7v-47.4c0-0.9-0.8-1.7-1.7-1.7h-24.6c-0.9,0-1.7,0.8-1.7,1.7
		V275.5z"/>
	<path d="M-267,275.8c0,0.8,0.6,1.4,1.4,1.4h25.1c0.8,0,1.4-0.6,1.4-1.4v-32.3c0-0.8-0.6-1.4-1.4-1.4h-25.1c-0.8,0-1.4,0.6-1.4,1.4
		V275.8z"/>
	<path d="M-264.2,233.7c1,0,2-0.3,2.8-1l29.1-22.8l37.2,13.7c1.8,0.7,3.7,0.1,5-1.3l7-8l6.8,5.9l5.2-26.4l-25.5,8.7l6.8,5.9l-5,5.7
		l-36.6-13.5c-1.5-0.5-3.1-0.3-4.3,0.7l-31,24.4c-2,1.5-2.3,4.4-0.8,6.3C-266.9,233.1-265.5,233.7-264.2,233.7"/>
</g>
</svg>
