<?xml version="1.0" encoding="utf-8"?>
<!-- Generator: Adobe Illustrator 19.1.0, SVG Export Plug-In . SVG Version: 6.00 Build 0)  -->
<svg version="1.1" id="Layer_1" xmlns="http://www.w3.org/2000/svg" xmlns:xlink="http://www.w3.org/1999/xlink" x="0px" y="0px"
	 viewBox="-269 191 100 100" style="enable-background:new -269 191 100 100;" xml:space="preserve">
<g>
	<g>
		<path d="M-195,253.3c-0.2-4-2.5-7.5-5.8-9.5v24.6c0,7.1-5.8,12.8-12.8,12.8h-11.4c-7.1,0-12.8-5.8-12.8-12.8v-24.1
			c-2.9,2-4.9,5.3-5.1,9l-1.2,26.6c-0.3,6.1,4.5,11.2,10.7,11.2h29.1c6.1,0,11-5,10.7-11.2L-195,253.3z"/>
	</g>
	<path d="M-207.6,202.9c-3-1.9-7.2-3.1-11.8-3.1c-2.1,0-4,0.3-5.8,0.7V193c0-1.1-0.9-2-2-2c-1.1,0-2,0.9-2,2v8.9
		c-0.9,0.4-1.7,0.9-2.5,1.4c0,0,0,0,0,0c-1.7,1.1-2.7,2.9-2.7,5.5v59.3c0,5.2,4.2,9.4,9.5,9.4h11.4c5.2,0,9.5-4.2,9.5-9.4v-59.3
		C-204.1,205.9-205.5,204-207.6,202.9z M-225.3,265.1c0,1-0.8,1.8-1.7,1.8h-2.6c-0.9,0-1.7-0.8-1.7-1.8v-1.5c0-1,0.8-1.8,1.7-1.8
		h2.6c1,0,1.7,0.8,1.7,1.8V265.1z M-225.3,257.2c0,1-0.8,1.8-1.7,1.8h-2.6c-0.9,0-1.7-0.8-1.7-1.8v-1.5c0-1,0.8-1.8,1.7-1.8h2.6
		c1,0,1.7,0.8,1.7,1.8V257.2z M-225.3,249.3c0,1-0.8,1.8-1.7,1.8h-2.6c-1,0-1.7-0.8-1.7-1.8v-1.5c0-1,0.8-1.8,1.7-1.8h2.6
		c0.9,0,1.7,0.8,1.7,1.8V249.3z M-216,265c0,1-0.8,1.8-1.7,1.8h-2.6c-1,0-1.7-0.8-1.7-1.8v-1.5c0-1,0.8-1.8,1.7-1.8h2.6
		c1,0,1.7,0.8,1.7,1.8V265z M-216,257.1c0,1-0.8,1.8-1.7,1.8h-2.6c-1,0-1.7-0.8-1.7-1.8v-1.5c0-1,0.8-1.8,1.7-1.8h2.6
		c1,0,1.7,0.8,1.7,1.8V257.1z M-216,249.3c0,1-0.8,1.8-1.7,1.8h-2.6c-1,0-1.7-0.8-1.7-1.8v-1.5c0-1,0.8-1.8,1.7-1.8h2.6
		c1,0,1.7,0.8,1.7,1.8V249.3z M-215.9,241.5c0,1-0.8,1.8-1.7,1.8h-2.6c-0.9,0-1.7-0.8-1.7-1.8v-1.5c0-1,0.8-1.8,1.7-1.8h2.6
		c0.9,0,1.7,0.8,1.7,1.8V241.5z M-207.3,265c0,1-0.8,1.8-1.7,1.8h-2.6c-1,0-1.7-0.8-1.7-1.8v-1.5c0-1,0.8-1.8,1.7-1.8h2.6
		c1,0,1.7,0.8,1.7,1.8V265z M-207.3,257.1c0,1-0.8,1.8-1.7,1.8h-2.6c-1,0-1.7-0.8-1.7-1.8v-1.5c0-1,0.8-1.8,1.7-1.8h2.6
		c1,0,1.7,0.8,1.7,1.8V257.1z M-207.3,249.3c0,1-0.8,1.8-1.7,1.8h-2.6c-1,0-1.7-0.8-1.7-1.8v-1.5c0-1,0.8-1.8,1.7-1.8h2.6
		c1,0,1.7,0.8,1.7,1.8V249.3z M-207,229.7c0,2.2-1.8,4-4,4h-16.7c-2.2,0-4-1.8-4-4v-16c0-2.2,1.8-4,4-4h16.7c2.2,0,4,1.8,4,4V229.7z
		"/>
</g>
</svg>
