<?xml version="1.0" encoding="utf-8"?>
<!-- Generator: Adobe Illustrator 19.1.0, SVG Export Plug-In . SVG Version: 6.00 Build 0)  -->
<svg version="1.1" id="Layer_1" xmlns="http://www.w3.org/2000/svg" xmlns:xlink="http://www.w3.org/1999/xlink" x="0px" y="0px"
	 viewBox="-269 191 100 100" style="enable-background:new -269 191 100 100;" xml:space="preserve">
<g>
	<path d="M-254.8,237.1c-1-2.6-3.9-3.9-6.5-3c-2.6,0.9-4,3.8-3,6.4l10.9,29.7c1,2.6,3.9,4,6.5,3c2.6-1,4-3.8,3-6.4L-254.8,237.1z"/>
	<path d="M-262,253.6c-0.7-1.9-2.8-2.8-4.6-2.1c-1.9,0.7-2.8,2.7-2.2,4.6l1.9,5.2c0.7,1.9,2.8,2.8,4.7,2.2c1.9-0.7,2.8-2.7,2.2-4.6
		L-262,253.6z"/>
	<path d="M-198.9,209.4c-1-2.7-3.9-4-6.6-3l-2.6,0.9c-2.7,1-4.1,3.9-3.1,6.6l6,16.4l-31.4,11.3l-6-16.4c-1-2.7-3.9-4-6.6-3.1
		l-2.6,0.9c-2.7,1-4.1,3.9-3.1,6.6l15.8,43.1c1,2.7,3.9,4,6.6,3.1l2.6-0.9c2.7-1,4.1-3.9,3.1-6.6l-5.3-14.5l31.4-11.3l5.3,14.5
		c1,2.7,3.9,4,6.6,3.1l2.6-0.9c2.7-1,4.1-3.9,3.1-6.6L-198.9,209.4z"/>
	<path d="M-184.6,211.8c-1-2.6-3.9-4-6.5-3c-2.6,0.9-4,3.8-3,6.4l10.9,29.7c1,2.6,3.9,4,6.5,3c2.6-1,4-3.8,3-6.5L-184.6,211.8z"/>
	<path d="M-169.2,226l-1.9-5.2c-0.7-1.9-2.8-2.8-4.7-2.1c-1.9,0.7-2.8,2.7-2.2,4.6l1.9,5.2c0.7,1.9,2.8,2.8,4.6,2.1
		C-169.5,229.9-168.5,227.8-169.2,226"/>
</g>
</svg>
