<?xml version="1.0" encoding="utf-8"?>
<!-- Generator: Adobe Illustrator 19.1.0, SVG Export Plug-In . SVG Version: 6.00 Build 0)  -->
<svg version="1.1" id="Layer_1" xmlns="http://www.w3.org/2000/svg" xmlns:xlink="http://www.w3.org/1999/xlink" x="0px" y="0px"
	 viewBox="-269 191 100 100" style="enable-background:new -269 191 100 100;" xml:space="preserve">
<g>
	<path d="M-256.8,229.2c-6.8,0-12.2,5.5-12.2,12.2c0,6.8,5.5,12.2,12.2,12.2c6.8,0,12.2-5.5,12.2-12.2
		C-244.5,234.6-250,229.2-256.8,229.2"/>
	<path d="M-169.6,279.6l-19.9-39.6c0-0.1,0-0.1,0-0.1l-2.4-4.9c-3.1-6.1-4.1-9.2-9.2-9.2h-21.6l16.4-22.4c1.9-2.6,1.3-6.2-1.2-8
		c-2.6-1.9-6.2-1.3-8,1.3l-23.3,31.9c-1.7,1.7-2.7,4-2.7,6.5v9v0V278c0,3.2,2.6,5.8,5.7,5.8c3.2,0,5.7-2.6,5.7-5.8v-30h20.6
		l-15.8,31.5c-1.4,2.8-0.3,6.3,2.6,7.7c0.8,0.4,1.7,0.6,2.6,0.6c2.1,0,4.1-1.2,5.1-3.2l17.5-35l17.6,35c1,2,3,3.2,5.1,3.2
		c0.9,0,1.7-0.2,2.6-0.6C-169.3,285.8-168.2,282.4-169.6,279.6"/>
</g>
</svg>
