<?xml version="1.0" encoding="utf-8"?>
<!-- Generator: Adobe Illustrator 19.1.0, SVG Export Plug-In . SVG Version: 6.00 Build 0)  -->
<svg version="1.1" id="Layer_1" xmlns="http://www.w3.org/2000/svg" xmlns:xlink="http://www.w3.org/1999/xlink" x="0px" y="0px"
	 viewBox="-269 191 100 100" style="enable-background:new -269 191 100 100;" xml:space="preserve">
<g>
	<path d="M-219.7,291c2.9,0,5.3-2.1,5.3-4.7l-1.8-17.4c0-2.6-0.6-4.7-3.6-4.7c-2.9,0-3.6,2.1-3.6,4.7l-1.8,17.4
		C-225,288.9-222.6,291-219.7,291"/>
	<path d="M-199.2,263.8c-5.8,3.1-9.6,8.5-11,14.4c5.7,2,12.3,1.7,18.1-1.4c5.8-3.1,9.6-8.5,11-14.4
		C-186.8,260.4-193.4,260.7-199.2,263.8"/>
	<path d="M-184.3,221.3c0-8.5-6.9-15.4-15.4-15.3c-1.9,0-3.7,0.4-5.4,1c0-0.2,0-0.4,0-0.6c0-8.5-6.9-15.4-15.4-15.3
		c-8.5,0-15.4,6.9-15.3,15.4c0,0.3,0,0.6,0,0.8c-1.8-0.7-3.6-1.1-5.6-1.1c-8.5,0-15.4,6.9-15.3,15.4c0,7.1,4.9,13.1,11.5,14.8
		c-2.2,2.7-3.5,6.1-3.5,9.8c0,8.5,6.9,15.4,15.4,15.3c5.5,0,10.3-2.9,13-7.2c2.8,4.2,7.5,7,12.9,6.9c8.5,0,15.4-6.9,15.3-15.4
		c0-3.7-1.3-7.1-3.5-9.7C-189.2,234.4-184.3,228.4-184.3,221.3 M-218.8,249.8c-0.6,0-1.2-0.1-1.8-0.2c-0.6,0.1-1.2,0.2-1.8,0.2
		c-9.4,0-17.1-12.8-18.2-29.3c2.6,0.3,7.2,1.4,11.3,4.9c2.3-7.9,8.7-13.6,8.7-13.6s6.5,5.8,8.7,13.6c4.1-3.4,8.7-4.6,11.3-4.9
		C-201.7,237-209.5,249.8-218.8,249.8"/>
</g>
</svg>
