<?xml version="1.0" encoding="utf-8"?>
<!-- Generator: Adobe Illustrator 19.1.0, SVG Export Plug-In . SVG Version: 6.00 Build 0)  -->
<svg version="1.1" id="Layer_1" xmlns="http://www.w3.org/2000/svg" xmlns:xlink="http://www.w3.org/1999/xlink" x="0px" y="0px"
	 viewBox="-269 191 100 100" style="enable-background:new -269 191 100 100;" xml:space="preserve">
<g>
	<path d="M-219,191c-27.6,0-50,22.4-50,50c0,27.6,22.4,50,50,50s50-22.4,50-50C-169,213.4-191.4,191-219,191 M-220.9,225.6v4.9v0.2
		c0,3.9-2.5,7.2-6,8.5v41.1h-6v-41.1c-3.5-1.2-6-4.6-6-8.5v-0.8v-4.3v-14.5c0-0.6,0.5-1.1,1.1-1.1h1.8c0.6,0,1.1,0.5,1.1,1.1v14.5h3
		v-14.6c0-0.6,0.5-1.1,1.1-1.1h1.8c0.6,0,1.1,0.5,1.1,1.1v14.6h3v-14.5c0-0.6,0.5-1.1,1.1-1.1h1.8c0.6,0,1.1,0.5,1.1,1.1V225.6z
		 M-200.4,250.3h-6.7v30h-6v-32v-36v-2h2h4h0.7c1.1,0,2,0.9,2,2l6,36C-198.4,249.4-199.3,250.3-200.4,250.3"/>
</g>
</svg>
