<?xml version="1.0" encoding="utf-8"?>
<!-- Generator: Adobe Illustrator 19.1.0, SVG Export Plug-In . SVG Version: 6.00 Build 0)  -->
<svg version="1.1" id="Layer_1" xmlns="http://www.w3.org/2000/svg" xmlns:xlink="http://www.w3.org/1999/xlink" x="0px" y="0px"
	 viewBox="-269 191 100 100" style="enable-background:new -269 191 100 100;" xml:space="preserve">
<g>
	<path d="M-169.5,258.7c-0.6-0.9-1.6-1.4-2.6-1.4H-195l0.1-23.6h13.7c1.7,0,3.1-1.4,3.1-3.2c0-1.7-1.4-3.1-3.1-3.1c0,0-8.3,0-8.4,0
		c-0.7,0-7.5-0.3-10.4,0.6c-5.3,1.6-27.5,10.9-27.5,32.5c0,1.7,1.4,3.1,3.2,3.1h22.9l-0.1,22.9c0,0.8,0.3,1.6,0.9,2.2
		c0.6,0.6,1.4,0.9,2.2,0.9c19,0,28.5-26.7,29-28C-168.8,260.6-168.9,259.5-169.5,258.7 M-201.3,257.3h-19.6
		c0.9-6.9,4.8-12.8,11.7-17.6c2.3-1.6,4.9-3.1,8-4.4L-201.3,257.3z M-181.3,272.6c-3.7,5.2-9.1,9.7-13.7,10.3l0.1-19.4h17.9
		C-177.6,266.6-178.8,269.1-181.3,272.6"/>
	<path d="M-196.7,222h13.8c-5.3-18.3-22.2-29.7-42.2-29.7c-24.2,0-43.9,19.7-43.9,43.9c0,0.5,3.2,30.6,3.2,30.6c0,3.7,3,6.7,6.7,6.7
		h6.7c5,4,9,7.3,14.2,8.2c2.5,0.5,10.2,0.2,13.8,0.2c5.4,0,11.2,0,11.2-3.4c0-3.1-19.1-9.8-19.1-20.6
		C-232.3,235.8-208.7,222-196.7,222z M-247,260.6c-4.6,0-8.3-3.7-8.3-8.3c0-4.6,3.7-8.3,8.3-8.3c4.6,0,8.3,3.7,8.3,8.3
		C-238.8,256.9-242.5,260.6-247,260.6z"/>
</g>
</svg>
