<?xml version="1.0" encoding="utf-8"?>
<!-- Generator: Adobe Illustrator 19.1.0, SVG Export Plug-In . SVG Version: 6.00 Build 0)  -->
<svg version="1.1" id="Layer_1" xmlns="http://www.w3.org/2000/svg" xmlns:xlink="http://www.w3.org/1999/xlink" x="0px" y="0px"
	 viewBox="-269 191 100 100" style="enable-background:new -269 191 100 100;" xml:space="preserve">
<g>
	<path d="M-174,193.6h-40.2c-2.8,0-5,2.3-5,5v28.5l16.7,16.7h28.5c2.8,0,5-2.3,5-5v-40.2C-169,195.8-171.3,193.6-174,193.6
		 M-196.2,229.3c-2.4,2.4-6.2,2.4-8.5,0c-2.4-2.4-2.4-6.2,0-8.5c2.4-2.4,6.2-2.4,8.5,0C-193.8,223.1-193.8,226.9-196.2,229.3
		 M-181.6,214.7c-2.4,2.4-6.2,2.4-8.5,0c-2.4-2.4-2.4-6.2,0-8.5c2.4-2.4,6.2-2.4,8.5,0C-179.2,208.5-179.2,212.3-181.6,214.7"/>
	<path d="M-203.5,251.4L-232,223c-1-1-2.3-1.5-3.6-1.5c-1.3,0-2.6,0.5-3.6,1.5l-28.5,28.4c-2,2-2,5.2,0,7.1l28.5,28.5
		c1,1,2.3,1.5,3.6,1.5c1.3,0,2.6-0.5,3.6-1.5l28.4-28.5C-201.5,256.6-201.5,253.4-203.5,251.4 M-244.5,258.7c-2.3,2.3-6.2,2.4-8.5,0
		c-2.4-2.4-2.4-6.2,0-8.5c2.4-2.4,6.2-2.4,8.5,0C-242.1,252.5-242.1,256.4-244.5,258.7 M-240.3,237.5c2.3-2.4,6.2-2.4,8.5,0
		c2.4,2.3,2.4,6.2,0,8.5c-2.3,2.4-6.2,2.4-8.5,0C-242.7,243.7-242.7,239.8-240.3,237.5 M-230.7,272.5c-2.3,2.4-6.2,2.4-8.5,0
		c-2.4-2.4-2.4-6.2,0-8.5c2.4-2.4,6.2-2.4,8.5,0C-228.4,266.3-228.4,270.1-230.7,272.5 M-218,259.8c-2.4,2.4-6.2,2.4-8.5,0
		c-2.4-2.4-2.4-6.2,0-8.5c2.4-2.4,6.2-2.4,8.5,0C-215.7,253.6-215.7,257.4-218,259.8"/>
</g>
</svg>
