<?xml version="1.0" encoding="utf-8"?>
<!-- Generator: Adobe Illustrator 19.1.0, SVG Export Plug-In . SVG Version: 6.00 Build 0)  -->
<svg version="1.1" id="Layer_1" xmlns="http://www.w3.org/2000/svg" xmlns:xlink="http://www.w3.org/1999/xlink" x="0px" y="0px"
	 viewBox="-269 191 100 100" style="enable-background:new -269 191 100 100;" xml:space="preserve">
<g>
	<path d="M-177.8,257.2h-82.4c-1.7,0-3.1,1.4-3.1,3.1c0,1.7,1.4,3.1,3.1,3.1h82.4c1.7,0,3.1-1.4,3.1-3.1
		C-174.7,258.6-176.1,257.2-177.8,257.2"/>
	<path d="M-176.9,266.5c2.8,0,5.9,2.2,6.8,4.9l0.9,2.6c0.9,2.7-0.7,4.9-3.5,4.9h-92.7c-2.8,0-4.3-2.1-3.2-4.8l1.2-2.8
		c1.1-2.6,4.3-4.8,7.1-4.8H-176.9z"/>
	<path d="M-213.9,213.3c0-0.1,0-0.2,0-0.3c0-2.3-1.5-4.2-3.6-4.9v-1.8h1c0.8,0,1.5-0.7,1.5-1.5c0-0.9-0.7-1.5-1.5-1.5h-5.2
		c-0.9,0-1.5,0.7-1.5,1.5c0,0.9,0.7,1.5,1.5,1.5h1v1.8c-2.1,0.7-3.6,2.6-3.6,4.9c0,0.1,0,0.2,0,0.3c-20.3,2.5-36.1,19.9-36.1,40.9
		h82.4C-177.8,233.1-193.5,215.8-213.9,213.3"/>
</g>
</svg>
