<?xml version="1.0" encoding="utf-8"?>
<!-- Generator: Adobe Illustrator 19.1.0, SVG Export Plug-In . SVG Version: 6.00 Build 0)  -->
<svg version="1.1" id="Layer_1" xmlns="http://www.w3.org/2000/svg" xmlns:xlink="http://www.w3.org/1999/xlink" x="0px" y="0px"
	 viewBox="-269 191 100 100" style="enable-background:new -269 191 100 100;" xml:space="preserve">
<g>
	<path d="M-169,247.7c0,4.6-3.8,8.3-8.3,8.3H-204v26.7c0,4.6-3.7,8.3-8.3,8.3h-13.3c-4.6,0-8.3-3.8-8.3-8.3V256h-26.7
		c-4.6,0-8.3-3.8-8.3-8.3v-13.3c0-4.6,3.7-8.3,8.3-8.3h26.7v-26.7c0-4.6,3.7-8.3,8.3-8.3h13.3c4.6,0,8.3,3.7,8.3,8.3V226h26.7
		c4.6,0,8.3,3.7,8.3,8.3V247.7z"/>
</g>
</svg>
