<?xml version="1.0" encoding="utf-8"?>
<!-- Generator: Adobe Illustrator 19.1.0, SVG Export Plug-In . SVG Version: 6.00 Build 0)  -->
<svg version="1.1" id="Layer_1" xmlns="http://www.w3.org/2000/svg" xmlns:xlink="http://www.w3.org/1999/xlink" x="0px" y="0px"
	 viewBox="-269 191 100 100" style="enable-background:new -269 191 100 100;" xml:space="preserve">
<g>
	<path d="M-264.9,240.3l34.8,0l3-9.5c0.4-1.3,1.6-2.2,2.9-2.1c1.3,0,2.5,1,2.8,2.3l4.3,16.9l6.1-25.3c0.3-1.3,1.5-2.3,2.8-2.3
		c1.4-0.1,2.6,0.8,3,2.1l6.4,20.9l0.6-1.3c0.5-1,1.5-1.7,2.7-1.7h22.4c0.8-1.2,1.4-2.5,2-3.8c1.4-3.3,2.1-6.9,2.1-10.6
		c0-15.1-12.2-27.3-27.3-27.3c-9.5,0-17.8,4.8-22.7,12.1c-4.9-7.3-13.2-12.1-22.7-12.1c-15.1,0-27.3,12.2-27.3,27.3
		c0,3.8,0.8,7.4,2.1,10.6C-266.3,237.9-265.6,239.2-264.9,240.3"/>
	<path d="M-193.6,246.4l-3.2,6.3c-0.5,1.1-1.7,1.7-2.9,1.6c-1.2-0.1-2.3-0.9-2.6-2.1l-5.4-17.5l-6.3,26.4c-0.3,1.3-1.5,2.3-2.9,2.3
		h0c-1.4,0-2.6-0.9-2.9-2.3l-4.7-18.4l-0.5,1.5c-0.4,1.2-1.6,2.1-2.9,2.1h0l-33.5,0c13.1,19.4,42.4,37,42.4,37s29.3-17.6,42.4-36.9
		H-193.6z"/>
</g>
</svg>
