<?xml version="1.0" encoding="utf-8"?>
<!-- Generator: Adobe Illustrator 19.1.0, SVG Export Plug-In . SVG Version: 6.00 Build 0)  -->
<svg version="1.1" id="Layer_1" xmlns="http://www.w3.org/2000/svg" xmlns:xlink="http://www.w3.org/1999/xlink" x="0px" y="0px"
	 viewBox="-269 191 100 100" style="enable-background:new -269 191 100 100;" xml:space="preserve">
<g>
	<path d="M-189,240.2l-29.7,11.4c-0.1,0-0.2,0.1-0.4,0.1c-0.1,0-0.2,0-0.4-0.1l-29.7-11.4v20.6h0c0,0.2,0,0.4,0,0.6
		c0,8,13.4,14.6,30,14.6c16.6,0,30-6.5,30-14.6c0-0.2,0-0.4,0-0.6h0V240.2z"/>
	<path d="M-169.6,223.9l-49-17.8c-0.1,0-0.2-0.1-0.3-0.1c-0.1,0-0.2,0-0.3,0.1l-49,17.8c-0.4,0.1-0.6,0.5-0.6,0.9
		c0,0.4,0.3,0.8,0.6,0.9l2.8,1.1v15h-1.5c-0.8,0-1.4,0.6-1.4,1.4v20.8c0,0.8,0.6,1.4,1.4,1.4h9c0.8,0,1.4-0.6,1.4-1.4v-20.8
		c0-0.8-0.6-1.4-1.4-1.4h-1.6v-12.7l40.4,15.5c0.1,0,0.2,0.1,0.4,0.1c0.1,0,0.2,0,0.3-0.1l49-18.8c0.4-0.1,0.6-0.5,0.6-0.9
		C-169,224.4-169.3,224.1-169.6,223.9"/>
</g>
</svg>
