<?xml version="1.0" encoding="utf-8"?>
<!-- Generator: Adobe Illustrator 19.1.0, SVG Export Plug-In . SVG Version: 6.00 Build 0)  -->
<svg version="1.1" id="Layer_1" xmlns="http://www.w3.org/2000/svg" xmlns:xlink="http://www.w3.org/1999/xlink" x="0px" y="0px"
	 viewBox="-269 191 100 100" style="enable-background:new -269 191 100 100;" xml:space="preserve">
<g>
	<path d="M-221.6,273.2v-0.2c0-1.1-0.9-2.2-1.9-2.4l-8.1-2.4c-1-0.4-2.3,0-2.9,0.9l-0.7,1.1c0,0,0,0,0,0l-7.2,12.2c0,0,0,0,0,0
		l-0.3,0.5c-0.5,0.9-0.2,2,0.7,2.4c0,0,0,0.1,0,0.1c5.6,2.9,11.8,4.7,18.4,5.3c0,0,0.1-0.1,0.1-0.1c0.8,0,1.4-0.6,1.6-1.4
		c0,0,0,0,0,0V289v0l0-3.7L-221.6,273.2"/>
	<path d="M-197.4,283.9l-0.3-0.6c0,0,0,0,0,0l-8.1-14.3c-0.1,0.1-0.1,0.1-0.2,0.1c-0.3-0.3-0.8-0.4-1.2-0.5c0-0.1-0.1-0.1-0.1-0.2
		c-0.2,0.1-0.3,0.1-0.5,0.2c-0.1,0-0.3,0.1-0.4,0.1l-8.4,1.9c-0.2,0-0.3,0.1-0.5,0.1c0,0-0.1,0-0.1,0c0,0,0,0,0,0
		c-0.8,0.4-1.4,1.2-1.4,2.1l-0.1,9.5l-0.1,6.5v0c0,0.7,0.3,1.3,0.9,1.6c0,0.1,0.1,0.2,0.1,0.4c7.1-0.2,13.7-1.8,19.8-4.6
		c0,0,0-0.1,0-0.1C-197.2,285.8-196.9,284.8-197.4,283.9"/>
	<path d="M-246.9,254.5c0.2-0.3,0.3-0.6,0.4-0.9c0.1-0.1,0.1-0.2,0.2-0.2c-0.1-0.2-0.1-0.3-0.2-0.5c0-0.2-0.1-0.3-0.1-0.5l-2.1-8
		c-0.2-1.1-1.2-2-2.3-2l-0.6,0c0,0,0,0,0-0.1l-16.1-0.1c-0.1,0.1-0.1,0.1-0.2,0.2c-0.6,0.3-0.9,0.8-0.9,1.5
		c-0.1,0.1-0.1,0.2-0.2,0.3c0.4,6.5,2.1,12.8,4.8,18.4c0,0,0.1,0,0.1,0c0,0,0,0,0,0c0.5,0.8,1.5,1.1,2.3,0.6l14-7.9
		c0.1-0.1,0.3-0.2,0.4-0.3l0.4-0.2C-246.9,254.7-246.9,254.6-246.9,254.5"/>
	<path d="M-247.3,226.8c0,0,0-0.1,0-0.1l-13.5-8c0,0,0,0,0,0l-0.6-0.4c-0.9-0.5-1.9-0.2-2.3,0.6c-0.1,0-0.1,0-0.2,0
		c-2.6,5.4-4.3,11.4-4.9,17.7c0.1,0.1,0.1,0.2,0.2,0.2l-0.1,0.4c-0.2,1.1,0.6,2,1.7,2l16,0.1c1.1,0,2.2-0.9,2.3-2l2.1-8.1
		C-246.3,228.5-246.6,227.4-247.3,226.8"/>
	<path d="M-197,196.2c0-0.1,0-0.2,0-0.2c-5.5-2.7-11.6-4.4-18.1-4.9c-0.1,0.1-0.2,0.2-0.3,0.3l-0.4-0.1c-1-0.1-1.8,0.5-2,1.4
		c0,0,0,0,0,0v0.3c0,0,0,0,0,0l-0.2,16c0,1.1,0.9,2.1,2,2.3l8.6,2.2c1,0.4,2.3-0.1,2.9-1l8.2-13.8
		C-195.8,197.7-196.1,196.6-197,196.2"/>
	<path d="M-220.9,201.7l0.1-8.8c0-1-0.7-1.7-1.7-1.7c0-0.1-0.1-0.2-0.1-0.2c-6.8,0.5-13.1,2.3-18.9,5.2c0,0.1,0,0.1,0,0.2
		c-0.8,0.5-1,1.5-0.6,2.3l7.9,14c0.5,1,1.8,1.4,2.8,1l8.3-2.4c1.1-0.2,2-1.3,2-2.3l0-0.6L-220.9,201.7z"/>
	<path d="M-169.3,238c0.1-0.1,0.1-0.1,0.2-0.2c-0.4-6.7-2.1-13-4.9-18.7h-0.2c-0.5-0.8-1.5-1.1-2.3-0.6l-0.6,0.3c0,0,0,0,0,0
		l-12.9,7.3c0,0,0,0,0,0.1l-0.5,0.3c-1,0.5-1.4,1.8-1,2.9l2.2,8.8c0.2,1.1,1.2,2,2.3,2l16,0.2c1.1,0,1.9-0.9,1.7-2L-169.3,238z"/>
	<path d="M-237.5,264.5l-5.7-6c-0.7-0.9-2-1.1-3-0.6l-0.3,0.2c0,0,0,0,0,0l-13.3,7.5c0,0,0,0,0,0.1l-0.3,0.2c-1,0.5-1.2,1.7-0.5,2.6
		l0.1,0.1c0,0.1,0,0.1,0,0.2c3.5,5.2,7.9,9.8,13.1,13.4c0,0,0-0.1,0-0.1c0.8,0.5,1.9,0.3,2.4-0.6l8.2-13.8
		C-236.4,266.6-236.7,265.2-237.5,264.5"/>
	<path d="M-178.6,267.3C-178.6,267.2-178.6,267.2-178.6,267.3l-13.6-8.1c0,0,0,0-0.1,0l-0.2-0.1c-0.8-0.5-1.8-0.4-2.6,0.1
		c0,0,0,0,0,0c0,0,0,0,0,0c-0.1,0.1-0.3,0.2-0.4,0.3l-6.4,6c-0.1,0.1-0.2,0.2-0.3,0.3c0,0,0,0-0.1,0v0c-0.6,0.7-0.7,1.8-0.2,2.6
		l7.9,14c0.4,0.7,1.1,1,1.8,0.9c0.1,0.1,0.2,0.1,0.2,0.2c5.7-3.5,10.6-8.1,14.5-13.6c0-0.1,0-0.1,0-0.2l0,0
		C-177.6,268.9-177.7,267.8-178.6,267.3"/>
	<path d="M-236.7,214.3l-0.1-0.2c0,0,0,0,0,0l-7.3-13c0,0,0,0-0.1,0l-0.4-0.8c-0.5-1-1.7-1.2-2.5-0.5l-0.1,0.1c-0.1,0-0.2,0-0.3-0.1
		c-5.1,3.6-9.5,8.1-13,13.2c0,0.1,0.1,0.1,0.1,0.2c-0.6,0.9-0.4,2,0.5,2.5l13.8,8.2c1,0.6,2.3,0.3,3-0.6l5.9-6.1
		C-236.4,216.6-236.2,215.2-236.7,214.3"/>
	<path d="M-177.5,215.6c0.4-0.4,0.6-1,0.4-1.6c0,0,0,0,0,0c0-0.1,0-0.3,0-0.4c-3.8-5.8-8.7-10.7-14.5-14.5c-0.1,0.1-0.3,0.1-0.4,0.2
		c-0.7-0.1-1.3,0.2-1.7,0.9l-0.1,0.2c0,0,0,0-0.1,0l-7.7,13.1c0,0,0,0,0,0l-0.3,0.5c-0.6,1-0.3,2.3,0.5,3l6.4,6.4
		c0.7,0.9,2,1.1,3,0.6l14-7.9C-177.8,215.8-177.7,215.7-177.5,215.6L-177.5,215.6C-177.6,215.6-177.6,215.6-177.5,215.6"/>
	<path d="M-169.1,244.8c-0.1,0-0.1,0-0.2,0c-0.1-0.8-0.7-1.4-1.5-1.5c0,0,0,0,0-0.1l-14.4-0.1c0,0,0,0,0,0.1l-1.8,0
		c-0.8,0-1.5,0.4-2,1.1c0,0-0.1,0-0.1,0c0,0.1,0,0.2,0,0.3c-0.1,0.2-0.2,0.4-0.2,0.6l-2.5,8.6c-0.4,1,0,2.3,1,2.9l13.8,8.2
		c0.7,0.4,1.6,0.3,2.1-0.3h0.2C-171.6,258.4-169.6,251.8-169.1,244.8"/>
	<path d="M-192.7,241c0,14.5-11.8,26.3-26.3,26.3c-14.5,0-26.3-11.8-26.3-26.3s11.8-26.3,26.3-26.3
		C-204.5,214.7-192.7,226.5-192.7,241"/>
</g>
</svg>
