<?xml version="1.0" encoding="utf-8"?>
<!-- Generator: Adobe Illustrator 19.1.0, SVG Export Plug-In . SVG Version: 6.00 Build 0)  -->
<svg version="1.1" id="Layer_1" xmlns="http://www.w3.org/2000/svg" xmlns:xlink="http://www.w3.org/1999/xlink" x="0px" y="0px"
	 viewBox="-269 191 100 100" style="enable-background:new -269 191 100 100;" xml:space="preserve">
<g>
	<path d="M-219,191c-15.8,0-28.6,12.8-28.6,28.5c0,10.4,9.6,20.1,9.6,20.1c2.4,2.4,4.4,5.2,4.4,8.6v0.4c0,3.4,2.8,6.2,6.2,6.2h17
		c3.4,0,6.2-2.8,6.2-6.2v-0.4c0-3.4,2-6.2,4.4-8.6c0,0,9.6-9.7,9.6-20.1C-190.4,203.8-203.2,191-219,191 M-220,202.7
		c-4.1,0-7.8,1.7-10.6,4.4c-2.7,2.7-4.4,6.4-4.4,10.5c0,1.2-1,2.3-2.3,2.3c-1.2,0-2.3-1-2.3-2.3c0-10.7,8.7-19.4,19.4-19.4
		c1.2,0,2.2,1,2.2,2.2C-217.7,201.7-218.7,202.7-220,202.7"/>
	<path d="M-204.4,262.7c0,1.8-1.6,3.3-3.6,3.3h-21.9c-2,0-3.6-1.5-3.6-3.3c0-1.9,1.6-3.4,3.6-3.4h21.9
		C-206.1,259.4-204.4,260.9-204.4,262.7"/>
	<path d="M-204.4,273.7c0,1.8-1.6,3.4-3.6,3.4h-21.9c-2,0-3.6-1.5-3.6-3.4c0-1.8,1.6-3.4,3.6-3.4h21.9
		C-206.1,270.4-204.4,271.9-204.4,273.7"/>
	<path d="M-230.4,281.3h22.7c0,0-1.1,9.7-11.4,9.7C-229.3,291-230.4,281.3-230.4,281.3"/>
</g>
</svg>
