<?xml version="1.0" encoding="utf-8"?>
<!-- Generator: Adobe Illustrator 19.1.0, SVG Export Plug-In . SVG Version: 6.00 Build 0)  -->
<svg version="1.1" id="Layer_1" xmlns="http://www.w3.org/2000/svg" xmlns:xlink="http://www.w3.org/1999/xlink" x="0px" y="0px"
	 viewBox="-269 191 100 100" style="enable-background:new -269 191 100 100;" xml:space="preserve">
<g>
	<path d="M-214.1,210c-0.3-0.8-1.2-1.1-2-0.8l-3.2,1.3l-5.2-3.3c-0.7-0.4-1.6-0.2-2.1,0.5c-0.4,0.7-0.2,1.6,0.5,2.1l4.4,2.7
		c0,0.2,0,0.4,0.1,0.6c0.2,0.6,0.8,0.9,1.4,0.9c0.2,0,0.4,0,0.6-0.1l0.1-0.1l0.1,0c0.3,0.2,0.5,0.2,0.8,0.2c0.5,0,1-0.3,1.3-0.7
		c0.1-0.2,0.2-0.3,0.2-0.5l2.3-0.9C-214.2,211.7-213.8,210.8-214.1,210"/>
	<path d="M-171.2,232.3l-29.4-12.9v-13.2h4c0.6,0,1.2-0.2,1.6-0.5c0.8-0.5,0.9-1.8,0.2-2.7c-0.4-0.5-3.7-2.3-3.7-2.3l-18-8.6
		c-1.5-0.7-3.9-0.7-5.4,0l-17.7,8.6c0,0-3.2,1.8-3.7,2.3c-0.7,0.8-0.6,2.2,0.2,2.7c0.5,0.3,1,0.5,1.7,0.5h4v13.2l-29.4,13
		c-2.1,1.2-2.4,2.7-2.1,4.2c0.5,1.6,2,2,3.9,2h6.4l0,46.8c0,1.3,0.5,2.5,1.3,3.4c0.8,0.9,1.8,1.5,3.1,1.7v0.1h0.8h20.9v-19
		c0-1.6,1.3-3,3-3h21.1c1.7,0,3,1.3,3,3v19h18h2.8c1.5,0,2.9-0.7,3.9-1.8c0.8-0.9,1.3-2.1,1.3-3.4v-46.8h0.6h5.8
		c1.9,0,3.4-0.4,3.9-2C-168.8,235-169.1,233.5-171.2,232.3 M-232.6,249c0,1.7-1.3,3-3,3h-5.2c-1.6,0-3-1.3-3-3v-4.7c0-1.7,1.4-3,3-3
		h5.2c1.6,0,3,1.3,3,3V249z M-213.4,249c0,1.7-1.3,3-3,3h-5.2c-1.7,0-3-1.3-3-3v-4.7c0-1.7,1.4-3,3-3h5.2c1.7,0,3,1.3,3,3V249z
		 M-219.4,221.4c-5.1,0-9.2-4.1-9.2-9.2c0-5.1,4.1-9.2,9.2-9.2c5.1,0,9.2,4.1,9.2,9.2C-210.2,217.3-214.3,221.4-219.4,221.4
		 M-194.2,249c0,1.7-1.3,3-3,3h-5.2c-1.6,0-3-1.3-3-3v-4.7c0-1.7,1.3-3,3-3h5.2c1.7,0,3,1.3,3,3V249z"/>
</g>
</svg>
