<?xml version="1.0" encoding="utf-8"?>
<!-- Generator: Adobe Illustrator 19.1.0, SVG Export Plug-In . SVG Version: 6.00 Build 0)  -->
<svg version="1.1" id="Layer_1" xmlns="http://www.w3.org/2000/svg" xmlns:xlink="http://www.w3.org/1999/xlink" x="0px" y="0px"
	 viewBox="-269 191 100 100" style="enable-background:new -269 191 100 100;" xml:space="preserve">
<g>
	<path d="M-172.3,234.1l-23.2,11.5v-9.5c0-2-1.5-2.9-3.3-2l-23.2,11.5v-9.5c0-2-1.5-2.9-3.2-2l-23.2,12.2l-1.6-33.6
		c-0.1-2-1.8-3.6-3.8-3.6h-8.2c-2,0-3.7,1.6-3.8,3.6l-3.3,74.6c-0.1,2,1.5,3.6,3.5,3.6h92.9c2,0,3.6-1.6,3.6-3.6v-51.2
		C-169,234.1-170.5,233.2-172.3,234.1"/>
	<path d="M-257.7,205.3c8.4-22.8,29-2.9,39.6-13.9c0.6-0.6,1-0.5,0.8,0.3c-1.9,10.8-13.7,11-22.8,10.4c-5.8-0.3-11.8,0.6-17,3.4
		C-257.3,205.6-258.1,206.3-257.7,205.3"/>
</g>
</svg>
