<?xml version="1.0" encoding="utf-8"?>
<!-- Generator: Adobe Illustrator 19.1.0, SVG Export Plug-In . SVG Version: 6.00 Build 0)  -->
<svg version="1.1" id="Layer_1" xmlns="http://www.w3.org/2000/svg" xmlns:xlink="http://www.w3.org/1999/xlink" x="0px" y="0px"
	 viewBox="-269 191 100 100" style="enable-background:new -269 191 100 100;" xml:space="preserve">
<g>
	<path d="M-253.2,204.1l-5.1,1c-7,1.4-11.8,7.2-10.5,12.8l0.9,4.3l4.6-0.9L-253.2,204.1z M-188.8,191l-16.1,3.3l-10,17.2l16.1-3.3
		L-188.8,191z M-172.1,198.3c-0.5-2.2-1.8-4-3.6-5.3l-7,12l11.5-2.3L-172.1,198.3z M-221,197.6l-16.1,3.3l-10,17.2l16.1-3.3
		L-221,197.6z M-180.7,222.9l11.7,12.8v-12.8H-180.7z M-197.1,222.9h-16.5l13,14.3H-217l-13-14.3h-16.5l13,14.3H-250l-13-14.3h-4.8
		v55.6c0,6.9,5.9,12.6,13,12.6h72.8c7.2,0,13-5.7,13-12.6v-41.3h-15.1L-197.1,222.9z"/>
</g>
</svg>
