<?xml version="1.0" encoding="utf-8"?>
<!-- Generator: Adobe Illustrator 19.1.0, SVG Export Plug-In . SVG Version: 6.00 Build 0)  -->
<svg version="1.1" id="Layer_1" xmlns="http://www.w3.org/2000/svg" xmlns:xlink="http://www.w3.org/1999/xlink" x="0px" y="0px"
	 viewBox="-269 191 100 100" style="enable-background:new -269 191 100 100;" xml:space="preserve">
<g>
	<path d="M-199.9,223.9c-10.1-5.7-22.8-2.8-29.5,6.7l17.6,11.5L-199.9,223.9z"/>
	<path d="M-191.6,255.2c6-9.9,3.4-22.8-5.8-29.7l-11.8,18.2L-191.6,255.2z"/>
	<path d="M-230.9,233.1l-15.1,23.2c-6.8,10.4-3.8,24.4,6.6,31.1c10.4,6.8,24.3,3.8,31.1-6.6l15.1-23.2L-230.9,233.1z"/>
	<path d="M-195.1,222.1l-2.6-1.7c10.1-15.6,3.1-23.4-1.9-26.7l1.7-2.6C-187.6,197.7-186.6,209-195.1,222.1"/>
</g>
</svg>
