<?xml version="1.0" encoding="utf-8"?>
<!-- Generator: Adobe Illustrator 19.1.0, SVG Export Plug-In . SVG Version: 6.00 Build 0)  -->
<svg version="1.1" id="Layer_1" xmlns="http://www.w3.org/2000/svg" xmlns:xlink="http://www.w3.org/1999/xlink" x="0px" y="0px"
	 viewBox="-269 191 100 100" style="enable-background:new -269 191 100 100;" xml:space="preserve">
<g>
	<path d="M-174,201h-90c-2.8,0-5,2.2-5,5v70c0,2.8,2.2,5,5,5h90c2.8,0,5-2.2,5-5v-70C-169,203.2-171.2,201-174,201 M-252.5,272.2h-9
		v-9h9V272.2z M-252.5,254.3h-9v-9h9V254.3z M-252.5,236.5h-9v-9h9V236.5z M-252.5,218.7h-9v-9h9V218.7z M-198.7,243.6l-29.4,17.8
		c-0.5,0.3-1,0.4-1.6,0.4c-0.5,0-1-0.1-1.5-0.4c-0.9-0.5-1.5-1.5-1.5-2.6v-35.5c0-1.1,0.6-2.1,1.5-2.6c0.9-0.5,2.1-0.5,3,0
		l29.4,17.8c0.9,0.5,1.4,1.5,1.4,2.6C-197.3,242.1-197.8,243.1-198.7,243.6 M-176.5,272.3h-9v-9h9V272.3z M-176.5,254.3h-9v-9h9
		V254.3z M-176.5,236.5h-9v-9h9V236.5z M-176.5,218.6h-9v-9h9V218.6z"/>
</g>
</svg>
