<?xml version="1.0" encoding="utf-8"?>
<!-- Generator: Adobe Illustrator 19.1.0, SVG Export Plug-In . SVG Version: 6.00 Build 0)  -->
<svg version="1.1" id="Layer_1" xmlns="http://www.w3.org/2000/svg" xmlns:xlink="http://www.w3.org/1999/xlink" x="0px" y="0px"
	 viewBox="-269 191 100 100" style="enable-background:new -269 191 100 100;" xml:space="preserve">
<g>
	<path d="M-219,191c-27.6,0-50,22.4-50,50s22.4,50,50,50c27.6,0,50-22.4,50-50S-191.4,191-219,191 M-195.8,253.6
		c0,4-4.5,8.3-9.8,9.3c-1.1,0.2-2.1,0.3-3.1,0.3c-4.4,0-7-2.2-7-6.1c0-4.6,3.7-8.1,9.8-9.3c0.8-0.2,1.7-0.2,2.5-0.2
		c1.2,0,2.4,0.2,3.4,0.5v-25.5l-30.5,8.3v31.1c0,4-4.5,8.3-9.8,9.3c-1.1,0.2-2.1,0.3-3.1,0.3c-4.4,0-7-2.2-7-6.1
		c0-4.6,3.7-8.1,9.8-9.3c0.8-0.2,1.7-0.2,2.5-0.2c1.2,0,2.4,0.2,3.4,0.6v-35.2c0-0.3,0.2-0.6,0.5-0.7l37.4-10.3c0.1,0,0.1,0,0.2,0
		c0.2,0,0.3,0.1,0.5,0.2c0.2,0.1,0.3,0.4,0.3,0.6V253.6z"/>
</g>
</svg>
