<?xml version="1.0" encoding="utf-8"?>
<!-- Generator: Adobe Illustrator 19.1.0, SVG Export Plug-In . SVG Version: 6.00 Build 0)  -->
<svg version="1.1" id="Layer_1" xmlns="http://www.w3.org/2000/svg" xmlns:xlink="http://www.w3.org/1999/xlink" x="0px" y="0px"
	 viewBox="-269 191 100 100" style="enable-background:new -269 191 100 100;" xml:space="preserve">
<g>
	<path d="M-183.6,205.7c-9.8-9.8-22.6-14.7-35.4-14.7c-12.8,0-25.6,4.9-35.3,14.7c-19.5,19.5-19.5,51.2,0,70.7
		c9.8,9.8,22.6,14.6,35.3,14.6c12.8,0,25.6-4.9,35.4-14.6C-164.1,256.8-164.1,225.2-183.6,205.7 M-202.6,277.5
		c-5.2,2.3-10.7,3.5-16.3,3.5c-15.6,0-29.8-9.2-36.2-23.4c-4.4-9.7-4.7-20.4-1-30.4c3.7-9.9,11.1-17.8,20.8-22.1
		c2.5-1.2,5.2-2,7.9-2.6c-10,12.7-12.4,30.1-5.6,45.1c6.7,14.9,21.3,24.8,37.6,25.6C-197.7,274.9-200.1,276.3-202.6,277.5
		 M-200.7,256.9l-6.5-4.7l-6.5,4.7l2.5-7.7l-6.5-4.7h8.1l2.5-7.7l2.5,7.7h8.1l-6.5,4.7L-200.7,256.9z M-198.7,225.4l-5.7,4.1
		l2.2-6.7l-5.6-4.1h7l2.2-6.6l2.2,6.6h7l-5.7,4.1l2.2,6.7L-198.7,225.4z"/>
</g>
</svg>
