<?xml version="1.0" encoding="utf-8"?>
<!-- Generator: Adobe Illustrator 19.1.0, SVG Export Plug-In . SVG Version: 6.00 Build 0)  -->
<svg version="1.1" id="Layer_1" xmlns="http://www.w3.org/2000/svg" xmlns:xlink="http://www.w3.org/1999/xlink" x="0px" y="0px"
	 viewBox="-269 191 100 100" style="enable-background:new -269 191 100 100;" xml:space="preserve">
<g>
	<path d="M-235.7,235.4c11.3,0,20.5-9.4,20.5-21c0-11.6-9.2-21-20.5-21c-11.3,0-20.5,9.4-20.5,21C-256.1,226-247,235.4-235.7,235.4"
		/>
	<path d="M-211.7,236.3l-7-1.9c-4.6,4-10.5,6.5-16.9,6.5c-6.5,0-12.4-2.5-16.9-6.5l-7,1.9c-7.5,2.1-9.9,5.2-9.3,9.3l5.6,35.7
		c0.8,5.6,4.2,9.5,9.3,9.5h18.3h0h18.3c5.1,0,8.5-4,9.3-9.5l5.6-35.6C-201.8,241.7-204.3,238.4-211.7,236.3"/>
	<path d="M-193.1,221.3c8.1,0,14.8-6.8,14.8-15.1c0-8.3-6.6-15.1-14.8-15.1c-8.2,0-14.8,6.8-14.8,15.1
		C-207.9,214.5-201.2,221.3-193.1,221.3"/>
	<path d="M-175.8,222l-5.1-1.3c-3.3,2.9-7.6,4.7-12.2,4.7c-4.7,0-8.9-1.8-12.2-4.7l-5.1,1.3c-5.4,1.5-7.2,3.8-6.7,6.7l0.1,0.5
		l6.7,1.8l0,0l0,0c12.3,3.4,14,10.2,13.2,15.4l-2.3,14.6h6.2h0h13.2c3.7,0,6.1-2.7,6.7-6.7l4-25.6
		C-168.6,225.8-170.4,223.5-175.8,222"/>
</g>
</svg>
