<?xml version="1.0" encoding="utf-8"?>
<!-- Generator: Adobe Illustrator 19.1.0, SVG Export Plug-In . SVG Version: 6.00 Build 0)  -->
<svg version="1.1" id="Layer_1" xmlns="http://www.w3.org/2000/svg" xmlns:xlink="http://www.w3.org/1999/xlink" x="0px" y="0px"
	 viewBox="-269 191 100 100" style="enable-background:new -269 191 100 100;" xml:space="preserve">
<g>
	<path d="M-227,272c-3-4.6-5.4-11.2-3.7-19c2.9-13.6,10.9-21.6,10.9-21.6c0,0,8,8,10.9,21.6c1.8,8.3-1.1,15.3-4.4,20
		c11.1-1.2,28.5-16.8,25.8-35c-2.4-15.9-12.3-19.9-12.3-19.9s2,7.9-1.2,11.4c-3,3.2-6.7,3.1-6.7,3.1c3.5-3.5,5.8-16,0-26.6
		c-5.8-10.7-17.7-15.1-17.7-15.1c3,7.7,1.3,13.8,1.3,13.8c-5.6,14.8-20.3,19.5-25.6,34.3c-2.7,7.6,0,17,7.2,24.9
		C-238.7,268.2-233.2,270.8-227,272"/>
	<path d="M-193.6,278.6h-50.7c-1.2,0-2.1,0.9-2.1,2.1v8.2c0,1.2,0.9,2.1,2.1,2.1h50.7c1.2,0,2.1-0.9,2.1-2.1v-8.2
		C-191.5,279.6-192.5,278.6-193.6,278.6"/>
</g>
</svg>
