<?xml version="1.0" encoding="utf-8"?>
<!-- Generator: Adobe Illustrator 19.1.0, SVG Export Plug-In . SVG Version: 6.00 Build 0)  -->
<svg version="1.1" id="Layer_1" xmlns="http://www.w3.org/2000/svg" xmlns:xlink="http://www.w3.org/1999/xlink" x="0px" y="0px"
	 viewBox="-269 191 100 100" style="enable-background:new -269 191 100 100;" xml:space="preserve">
<g>
	<path d="M-213.9,214.8c-11,0-20.4,6.8-24.3,16.4c2.3,1,4.1,2.7,5.3,4.8c2.2,3.9,1.8,8.6-0.9,12.9l-3.1,4.9
		c4.5,8,13.1,13.5,22.9,13.5c14.5,0,26.2-11.7,26.2-26.2S-199.4,214.8-213.9,214.8 M-214.5,238.4c0.2,0,0.5,0.1,0.7,0.1
		c7.1,0.9,10,3.1,10,8.4c0,3.5-1.1,7.8-7.7,9v2.8c0,1.4-1.2,2.6-2.7,2.6c-1.4,0-2.7-1.2-2.7-2.6V256h-3.8c-1.4,0-2.6-1.4-2.6-2.8
		c0-1.4,1.2-2.8,2.6-2.8l6.3-0.2c4.1,0,4.8-1.5,4.8-3.4c0-1.8-1.1-2.4-3.1-2.8c-0.2,0-0.4-0.1-0.6-0.1c-7.2-0.9-9.4-3.1-9.4-8.4
		c0-3.5,1.8-7.8,8.4-9v-2.8c0-1.4,1.2-2.6,2.7-2.6c1.4,0,2.7,1.2,2.7,2.6v3h2.4c1.4,0,2.6,1.2,2.6,2.6c0,1.4-1.2,2.7-2.6,2.7
		l-6.3,0.1c-4.1,0-4.8,1.4-4.8,3.4C-217.6,237.4-216.4,238-214.5,238.4"/>
	<path d="M-213.9,196.1c-23.7,0-43.2,18.4-44.8,41.8h-5.6c-4.4,0-6.1,3-3.7,6.8l9.5,15.2c2.3,3.7,6.1,3.7,8.5,0l9.5-15.2
		c2.3-3.7,0.6-6.8-3.7-6.8h-3.7c1.6-17.4,16.3-31.1,34.1-31.1c18.9,0,34.2,15.4,34.2,34.2s-15.3,34.2-34.2,34.2
		c-11.3,0-21.4-5.5-27.6-14l-1.8,2.9c-1.4,2.3-3.3,4.1-5.5,5.2c8.2,10.1,20.8,16.6,34.9,16.6c24.8,0,44.9-20.1,44.9-44.9
		S-189.1,196.1-213.9,196.1"/>
</g>
</svg>
