<?xml version="1.0" encoding="utf-8"?>
<!-- Generator: Adobe Illustrator 19.1.0, SVG Export Plug-In . SVG Version: 6.00 Build 0)  -->
<svg version="1.1" id="Layer_1" xmlns="http://www.w3.org/2000/svg" xmlns:xlink="http://www.w3.org/1999/xlink" x="0px" y="0px"
	 viewBox="-269 191 100 100" style="enable-background:new -269 191 100 100;" xml:space="preserve">
<g>
	<path d="M-181.6,241.3l-16.6,16.6l14.8,14.8c1.2,1.2,1.2,3.1,0,4.2c-0.6,0.6-1.3,0.9-2.1,0.9c-0.8,0-1.5-0.3-2.1-0.9l-14.8-14.8
		l-16.4,16.4c4.8,7.5,13.2,12.4,22.7,12.4c14.9,0,26.9-12,26.9-26.9C-169.1,254.5-174.1,246.1-181.6,241.3"/>
	<path d="M-175.1,197.1c-4-4-9.3-6.1-14.6-6.1s-10.6,2-14.6,6.1l-58.6,58.6c-8.1,8.1-8.1,21.2,0,29.3c4,4,9.3,6.1,14.6,6.1
		c5.3,0,10.6-2,14.6-6.1l58.6-58.6C-167,218.3-167,205.2-175.1,197.1 M-180.9,220.5l-29.3,29.3l-11.7-11.7l-29.3,29.3
		c-1.6,1.6-1.6,4.2,0,5.9c1.6,1.6,1.6,4.2,0,5.9c-0.8,0.8-1.9,1.2-2.9,1.2s-2.1-0.4-2.9-1.2c-2.9-2.9-4.1-7-3.5-10.8c0,0,0,0,0,0
		c0-0.3,0.1-0.5,0.2-0.8c0-0.1,0-0.2,0.1-0.2c0.1-0.2,0.1-0.5,0.2-0.7c0-0.1,0.1-0.2,0.1-0.3c0.1-0.3,0.2-0.6,0.4-0.9
		c0.1-0.2,0.2-0.4,0.3-0.6c0.1-0.1,0.1-0.3,0.2-0.4c0.1-0.2,0.2-0.4,0.3-0.6c0.1-0.1,0.2-0.2,0.2-0.4c0.1-0.2,0.3-0.4,0.5-0.6
		c0.1-0.1,0.1-0.2,0.2-0.3c0.2-0.3,0.5-0.6,0.8-0.9l34.2-34.2l24.4-24.4c2.4-2.4,5.6-3.6,8.8-3.6s6.4,1.2,8.8,3.6
		C-176.1,207.8-176.1,215.7-180.9,220.5"/>
</g>
</svg>
