<?xml version="1.0" encoding="utf-8"?>
<!-- Generator: Adobe Illustrator 19.1.0, SVG Export Plug-In . SVG Version: 6.00 Build 0)  -->
<svg version="1.1" id="Layer_1" xmlns="http://www.w3.org/2000/svg" xmlns:xlink="http://www.w3.org/1999/xlink" x="0px" y="0px"
	 viewBox="-269 191 100 100" style="enable-background:new -269 191 100 100;" xml:space="preserve">
<g>
	<path d="M-196.9,291h-44.2c-5,0-9.1-4.2-9.1-9.3v-81.3c0-5.2,4.1-9.4,9.2-9.4l44.1,0c5,0,9.1,4.2,9.1,9.3v81.3
		C-187.8,286.8-191.9,291-196.9,291 M-241,196.4c-2,0-3.8,1.8-3.8,3.9v81.3c0,2.1,1.7,3.9,3.7,3.9h44.2c2,0,3.7-1.8,3.7-3.9v-81.3
		c0-2.1-1.7-3.9-3.7-3.9L-241,196.4z"/>
	<path d="M-235.7,202.1c-2.1,0-3.8,1.8-3.8,3.9v62c0,2.1,1.7,3.9,3.7,3.9h33.5c2.1,0,3.7-1.7,3.7-3.9v-62c0-2.1-1.7-3.9-3.7-3.9
		L-235.7,202.1z"/>
	<path d="M-216,278.5c0,1.7-1.3,3.1-3,3.1c-1.7,0-3-1.4-3-3.1c0-1.7,1.4-3.1,3-3.1C-217.3,275.4-216,276.8-216,278.5"/>
</g>
</svg>
