<?xml version="1.0" encoding="utf-8"?>
<!-- Generator: Adobe Illustrator 19.1.0, SVG Export Plug-In . SVG Version: 6.00 Build 0)  -->
<svg version="1.1" id="Layer_1" xmlns="http://www.w3.org/2000/svg" xmlns:xlink="http://www.w3.org/1999/xlink" x="0px" y="0px"
	 viewBox="-269 191 100 100" style="enable-background:new -269 191 100 100;" xml:space="preserve">
<g>
	<path d="M-261.9,211.9c0-2.8,2.2-5,5-5h74.9v-1.8c0-2.8-2.2-5-5-5h-77c-2.8,0-5,2.2-5,5v59c0,2.8,2.2,5,5,5h2.1V211.9z"/>
	<path d="M-174,212.9h-77c-2.8,0-5,2.2-5,5v59c0,2.8,2.2,5,5,5h77c2.8,0,5-2.2,5-5v-59C-169,215.2-171.2,212.9-174,212.9
		 M-220.1,226.3c3.5,0,6.3,2.8,6.3,6.3c0,3.5-2.8,6.3-6.3,6.3s-6.3-2.8-6.3-6.3C-226.3,229.1-223.5,226.3-220.1,226.3 M-226.2,270
		L-226.2,270h-19l18.8-27.7l9.6,13.8l14.3-21l24.1,34.8L-226.2,270z"/>
</g>
</svg>
