<?xml version="1.0" encoding="utf-8"?>
<!-- Generator: Adobe Illustrator 19.1.0, SVG Export Plug-In . SVG Version: 6.00 Build 0)  -->
<svg version="1.1" id="Layer_1" xmlns="http://www.w3.org/2000/svg" xmlns:xlink="http://www.w3.org/1999/xlink" x="0px" y="0px"
	 viewBox="-269 191 100 100" style="enable-background:new -269 191 100 100;" xml:space="preserve">
<g>
	<path d="M-263,223.5c0-2.5,2-4.5,4.4-4.5h51.2v-1.5c0-2.5-2-4.5-4.4-4.5h-52.7c-2.5,0-4.4,2-4.4,4.5v34.9c0,2.5,2,4.5,4.4,4.5h1.6
		V223.5z"/>
	<path d="M-169,230.6c0,0,0.1-2.6-1.1-3.3c-1.5-0.9-2.9-0.5-4.4,0.5l-13.4,7.4c-1.4,0.9-2.2,2.4-2.2,4.1v15.5c0,1.7,0.8,3.3,2.2,4.1
		l13.4,7.4c1.5,0.9,2.9,1.4,4.4,0.5c1.2-0.8,1.1-3.3,1.1-3.3V230.6z"/>
	<path d="M-199.8,225h-52.7c-2.5,0-4.4,2-4.4,4.5v34.9c0,2.5,2,4.5,4.4,4.5h52.7c2.5,0,4.4-2,4.4-4.5v-34.9
		C-195.4,227-197.4,225-199.8,225 M-226.2,262.8c-8.7,0-15.8-7.1-15.8-15.8c0-8.7,7.1-15.8,15.8-15.8c8.8,0,15.8,7.1,15.8,15.8
		C-210.4,255.7-217.5,262.8-226.2,262.8"/>
	<path d="M-218.9,246.3l-10.5-7c-0.3-0.2-0.6-0.2-0.9,0c-0.3,0.1-0.5,0.4-0.5,0.8V254c0,0.3,0.2,0.6,0.5,0.8
		c0.1,0.1,0.3,0.1,0.4,0.1c0.2,0,0.3-0.1,0.5-0.2l10.5-7c0.2-0.2,0.4-0.4,0.4-0.7S-218.7,246.4-218.9,246.3"/>
</g>
</svg>
