<?xml version="1.0" encoding="utf-8"?>
<!-- Generator: Adobe Illustrator 19.1.0, SVG Export Plug-In . SVG Version: 6.00 Build 0)  -->
<svg version="1.1" id="Layer_1" xmlns="http://www.w3.org/2000/svg" xmlns:xlink="http://www.w3.org/1999/xlink" x="0px" y="0px"
	 viewBox="-269 191 100 100" style="enable-background:new -269 191 100 100;" xml:space="preserve">
<g>
	<path d="M-219,233.9c11.5,0,20.9-9.6,20.9-21.4S-207.5,191-219,191c-11.5,0-20.9,9.6-20.9,21.4S-230.6,233.9-219,233.9"/>
	<path d="M-194.5,234.9l-7.2-1.9c-4.7,4.1-10.7,6.6-17.3,6.6c-6.6,0-12.6-2.5-17.3-6.6l-7.2,1.9c-7.7,2.1-10.1,5.3-9.5,9.5l5.7,36.7
		c0.8,5.7,4.3,9.9,9.5,9.9h18.8h0h18.7c5.3,0,8.7-4.2,9.5-9.9l5.7-36.5C-184.4,240.4-186.9,237-194.5,234.9 M-228.2,283.1l8.2-18.9
		h-9.3l8.8-16.9h11.6l-7,11l10.6-0.4L-228.2,283.1z"/>
</g>
</svg>
