<?xml version="1.0" encoding="utf-8"?>
<!-- Generator: Adobe Illustrator 19.1.0, SVG Export Plug-In . SVG Version: 6.00 Build 0)  -->
<svg version="1.1" id="Layer_1" xmlns="http://www.w3.org/2000/svg" xmlns:xlink="http://www.w3.org/1999/xlink" x="0px" y="0px"
	 viewBox="-269 191 100 100" style="enable-background:new -269 191 100 100;" xml:space="preserve">
<g>
	<path d="M-184.2,201.2c-16.7,0-27.2-5.8-31.9-9.2c-0.1-0.1-0.2-0.2-0.3-0.3c-0.7-0.5-1.6-0.7-2.5-0.7c-0.9,0-1.8,0.3-2.5,0.7
		c-0.1,0.1-0.2,0.1-0.3,0.2c-4.6,3.4-15.1,9.2-31.8,9.2c-2.8,0-5.5,2.3-5.5,5.1v46.7c0,9.4,7,18.7,19.8,27.6
		c8.9,6.2,17.9,10,18.3,10.1c0.6,0.3,1.4,0.4,2.1,0.4c0.7,0,1.4-0.1,2-0.4c0.4-0.2,9.4-3.9,18.3-10.1c12.8-8.9,19.5-18.2,19.5-27.6
		v-46.7C-179,203.4-181.4,201.2-184.2,201.2 M-210.3,242l5.4,16.4l-14-10.3l-14,10.2l5.4-16.3l-14-10h17.4l5.4-16.5l5.4,16.5h17.4
		L-210.3,242z"/>
</g>
</svg>
