<?xml version="1.0" encoding="utf-8"?>
<!-- Generator: Adobe Illustrator 19.1.0, SVG Export Plug-In . SVG Version: 6.00 Build 0)  -->
<svg version="1.1" id="Layer_1" xmlns="http://www.w3.org/2000/svg" xmlns:xlink="http://www.w3.org/1999/xlink" x="0px" y="0px"
	 viewBox="-269 191 100 100" style="enable-background:new -269 191 100 100;" xml:space="preserve">
<style type="text/css">
	.st0{fill-rule:evenodd;clip-rule:evenodd;}
</style>
<g>
	<path class="st0" d="M-202.5,191c2.1,0.5,4,1.2,5.6,2.6c1,1,2.1,2,2.8,3.3c1.8,3,5.2,9.5,5.4,9.8c2.3-1.2,4.5-2.4,7-3.6
		c-0.2,0.4-7.9,13.2-11.7,19.4c-0.2,0.3-0.6,0.5-0.9,0.5c-7.3,0-21.9-0.2-22.2-0.2c2.1-1.4,4.2-2.7,6.2-4c-0.1-0.2-5.8-10.6-9-16.1
		c-1.3-2.2-6.1-9.3-11.8-11.6H-202.5z"/>
	<path class="st0" d="M-185.5,258.5c3.7,0,7.2-1.5,10.5-3.3c1.2-0.7,2.3-1.6,3.5-2.5c-0.1,0.2-9.4,16.3-13.6,23.6
		c-2.3,4.3-5.9,6.5-10.8,6.5c-3.1,0-8.7,0-9.1,0v8.1c-0.2-0.4-7.8-13.5-11.2-19.9c-0.2-0.3-0.2-0.8-0.1-1.1
		c3.5-6.4,11.1-19.5,11.3-19.8v8.3C-205,258.5-191.6,258.6-185.5,258.5"/>
	<path class="st0" d="M-224.2,258.5v24.4c-0.3,0-11.2,0-16.6,0c-3.1,0-6.2-0.4-9-1.9c-1.5-0.8-2.8-1.9-3.6-3.5
		c-4.6-7.9-13.7-23.8-13.8-23.9c1.4,1,2.9,2.1,4.4,3c2.7,1.5,5.7,2,8.8,2C-244.3,258.6-224.4,258.5-224.2,258.5"/>
	<path d="M-234.4,193.2c-2.1-0.2-4.3,0-5.7,0.9c-0.6,0.4-1,0.8-1.3,1.2c-3.6,5.4-10,16.9-10.2,17.2c7.2,4.3,13.9,8.2,21.1,12.5
		c0.1-0.2,8.7-15.1,10.5-18.2c-1.7-3.5-4.2-6.6-6.6-8.9C-228.8,195.7-231.4,193.4-234.4,193.2"/>
	<path d="M-233.5,245.3c-0.1-0.3-7.6-14.1-11.3-21c-0.1-0.3-0.7-0.5-1-0.5c-7.7,0.3-8.9,0.3-22.8,0.2c2.3,1.8,4.9,3.8,7.1,5.5
		c-1.4,2.4-5.5,9.5-7.4,12.8c0.3,1.2,1.2,4.2,1.4,4.7c1.5,4,4.4,6.7,8.7,7.9c2.2,0.5,7,0.9,10.3,0.7c2.2-3.8,7.8-13.4,8.3-14.2
		C-238.1,242.7-235.8,244-233.5,245.3"/>
	<path d="M-178.4,253.5c2.5-1,5.6-3.3,6.9-5.2c1.3-2,2.6-6.4,2.4-7.9c-0.1-0.3-9.7-16.7-9.8-17.1c-7.1,4.4-13.8,8.4-20.9,12.8
		c0.1,0.2,8.7,14.9,10.8,18.7C-187.1,254.9-181.4,254.9-178.4,253.5"/>
</g>
</svg>
