<?xml version="1.0" encoding="utf-8"?>
<!-- Generator: Adobe Illustrator 19.1.0, SVG Export Plug-In . SVG Version: 6.00 Build 0)  -->
<svg version="1.1" id="Layer_1" xmlns="http://www.w3.org/2000/svg" xmlns:xlink="http://www.w3.org/1999/xlink" x="0px" y="0px"
	 viewBox="-269 191 100 100" style="enable-background:new -269 191 100 100;" xml:space="preserve">
<g>
	<path d="M-203.7,282.5h-6.6c5-3.1,8.3-9.1,8.3-16l0-57.1c0-10.1-7.2-18.3-16.1-18.3l-2,0c-8.9,0-16.1,8.2-16.1,18.3l0,57.1
		c0,6.9,3.4,12.9,8.3,16h-6.6c-1.9,0-3.5,1.9-3.5,4.3c0,2.4,1.6,4.3,3.5,4.3h30.6c1.9,0,3.5-1.9,3.5-4.3
		C-200.2,284.4-201.7,282.5-203.7,282.5z M-219,204.1c1.5,0,2.6,1.2,2.6,2.6c0,1.5-1.2,2.6-2.6,2.6c-1.5,0-2.6-1.2-2.6-2.6
		C-221.6,205.3-220.5,204.1-219,204.1z M-219,214.9c1.5,0,2.6,1.2,2.6,2.6c0,1.4-1.2,2.6-2.6,2.6c-1.5,0-2.6-1.2-2.6-2.6
		C-221.6,216.1-220.5,214.9-219,214.9z M-219,225.7c1.5,0,2.6,1.2,2.6,2.6c0,1.5-1.2,2.6-2.6,2.6c-1.5,0-2.6-1.2-2.6-2.6
		C-221.6,226.9-220.5,225.7-219,225.7z M-219,236.5c1.5,0,2.6,1.2,2.6,2.6c0,1.5-1.2,2.6-2.6,2.6c-1.5,0-2.6-1.2-2.6-2.6
		C-221.6,237.7-220.5,236.5-219,236.5z M-230.5,261.7c0-6.4,5.2-11.5,11.5-11.5c6.4,0,11.5,5.2,11.5,11.5c0,6.4-5.2,11.5-11.5,11.5
		C-225.4,273.3-230.5,268.1-230.5,261.7z"/>
	<path d="M-219,270.6c4.9,0,8.8-4,8.8-8.8c0-4.9-4-8.8-8.8-8.8c-4.9,0-8.8,4-8.8,8.8C-227.8,266.6-223.9,270.6-219,270.6z"/>
</g>
</svg>
