<?xml version="1.0" encoding="utf-8"?>
<!-- Generator: Adobe Illustrator 19.1.0, SVG Export Plug-In . SVG Version: 6.00 Build 0)  -->
<svg version="1.1" id="Layer_1" xmlns="http://www.w3.org/2000/svg" xmlns:xlink="http://www.w3.org/1999/xlink" x="0px" y="0px"
	 viewBox="-269 191 100 100" style="enable-background:new -269 191 100 100;" xml:space="preserve">
<g>
	<path d="M-172.1,221.4h-27.8c-1.7,0-3.1,1.4-3.1,3.1c0,1.7,1.4,3.1,3.1,3.1h2.6V275c0,6.3,5.1,11.4,11.4,11.4
		c6.3,0,11.4-5.1,11.4-11.4v-47.4h2.6c1.7,0,3.1-1.4,3.1-3.1C-169,222.8-170.4,221.4-172.1,221.4 M-190.6,261.6
		c0,0.8-0.7,1.5-1.5,1.5c-0.8,0-1.5-0.7-1.5-1.5v-34h3.1V261.6z"/>
	<path d="M-206.1,224.5c0-3.4,2.8-6.2,6.2-6.2h8.9l2.3-3c0.9-1.1,0.7-2.9-0.3-3.9l-5.1-5.1c-1-1-2.7-1.1-3.9-0.3l-7.8,5.9
		c-3-1.9-6.4-3.3-10-4.1l-1.3-9.7c-0.2-1.4-1.5-2.6-2.9-2.6h-7.2c-1.4,0-2.7,1.1-2.9,2.6l-1.3,9.7c-3.6,0.8-6.9,2.3-10,4.1l-7.8-5.9
		c-1.1-0.9-2.9-0.7-3.9,0.3l-5.1,5.1c-1,1-1.1,2.7-0.3,3.9l5.9,7.8c-1.9,3-3.3,6.4-4.1,10l-9.7,1.3c-1.4,0.2-2.6,1.5-2.6,2.9v7.2
		c0,1.4,1.1,2.7,2.6,2.9l9.7,1.3c0.8,3.6,2.3,6.9,4.1,10l-5.9,7.8c-0.9,1.1-0.7,2.9,0.3,3.9l5.1,5.1c1,1,2.7,1.1,3.9,0.3l7.8-5.9
		c3,1.9,6.4,3.3,10,4.1l1.3,9.7c0.2,1.4,1.5,2.6,2.9,2.6h7.2c1.4,0,2.7-1.1,2.9-2.6l1.3-9.7c3.6-0.8,6.9-2.3,10-4.1l5.3,4v-43.3
		C-203.6,230.4-206.1,227.8-206.1,224.5 M-223.6,258.8c-9.8,0-17.8-7.9-17.8-17.8c0-9.8,8-17.8,17.8-17.8c9.8,0,17.8,8,17.8,17.8
		C-205.9,250.8-213.8,258.8-223.6,258.8"/>
	<path d="M-174.3,214.2c0,2.4-2,4.3-4.4,4.3c-2.4,0-4.4-1.9-4.4-4.3c0-2.4,2-4.3,4.4-4.3C-176.3,209.9-174.3,211.8-174.3,214.2"/>
	<path d="M-181,205.6c0,1.2-1,2.1-2.2,2.1c-1.2,0-2.2-1-2.2-2.1c0-1.2,1-2.2,2.2-2.2C-181.9,203.4-181,204.4-181,205.6"/>
	<path d="M-173.1,198.8c0,1.7-1.4,3.1-3.2,3.1c-1.8,0-3.2-1.4-3.2-3.1s1.4-3.1,3.2-3.1C-174.6,195.7-173.1,197.1-173.1,198.8"/>
</g>
</svg>
