<?xml version="1.0" encoding="utf-8"?>
<!-- Generator: Adobe Illustrator 19.1.0, SVG Export Plug-In . SVG Version: 6.00 Build 0)  -->
<svg version="1.1" id="Layer_1" xmlns="http://www.w3.org/2000/svg" xmlns:xlink="http://www.w3.org/1999/xlink" x="0px" y="0px"
	 viewBox="-269 191 100 100" style="enable-background:new -269 191 100 100;" xml:space="preserve">
<style type="text/css">
	.st0{fill-rule:evenodd;clip-rule:evenodd;}
</style>
<g>
	<path class="st0" d="M-175.2,191h-43.2c-1.7,0-4.1,1-5.3,2.2l-43.4,43.4c-2.4,2.4-2.4,6.4,0,8.8l43.8,43.7c2.4,2.4,6.4,2.4,8.8,0
		l43.4-43.4c1.2-1.2,2.2-3.6,2.2-5.3v-43.2C-169,193.8-171.8,191-175.2,191 M-200.2,229.9c-4.2,0-7.7-3.4-7.7-7.7
		c0-4.2,3.4-7.6,7.7-7.6c4.2,0,7.6,3.4,7.6,7.6C-192.6,226.5-196,229.9-200.2,229.9"/>
</g>
</svg>
