<?xml version="1.0" encoding="utf-8"?>
<!-- Generator: Adobe Illustrator 19.1.0, SVG Export Plug-In . SVG Version: 6.00 Build 0)  -->
<svg version="1.1" id="Layer_1" xmlns="http://www.w3.org/2000/svg" xmlns:xlink="http://www.w3.org/1999/xlink" x="0px" y="0px"
	 viewBox="-269 191 100 100" style="enable-background:new -269 191 100 100;" xml:space="preserve">
<g>
	<path d="M-196.4,291h-45.2c-5.3,0-9.6-4.3-9.6-9.6v-80.8c0-5.3,4.3-9.6,9.6-9.6l45.2,0c5.3,0,9.6,4.3,9.6,9.6v80.9
		C-186.8,286.7-191.1,291-196.4,291 M-241.6,197c-2,0-3.6,1.7-3.6,3.6v80.8c0,2,1.6,3.6,3.6,3.6h45.2c2,0,3.6-1.6,3.6-3.6v-80.9
		c0-2-1.6-3.6-3.6-3.6L-241.6,197z"/>
	<path d="M-216,278.2c0,1.6-1.3,3-3,3c-1.6,0-3-1.3-3-3c0-1.7,1.3-3,3-3C-217.3,275.2-216,276.5-216,278.2"/>
	<path d="M-201.6,201.3l-34.1,0c-2.1,0-3.8,1.8-3.8,3.9v61.6c0,2.1,1.2,4.7,3.3,4.7h34.3c2.1,0,4.4-2.6,4.4-4.7v-61.7
		C-197.5,203-199.5,201.3-201.6,201.3 M-202.5,220.4l-14,4.4v30.7c0,3.4-4.3,8.3-9.2,9.2c-4.9,0.9-10.3-0.8-10.3-5.4
		c0-4.5,4.2-7.3,9.1-8.3c2.4-0.5,4.4-0.2,6.4,0.7v-35.2l18-5.7V220.4z"/>
</g>
</svg>
