<?xml version="1.0" encoding="utf-8"?>
<!-- Generator: Adobe Illustrator 19.1.0, SVG Export Plug-In . SVG Version: 6.00 Build 0)  -->
<svg version="1.1" id="Layer_1" xmlns="http://www.w3.org/2000/svg" xmlns:xlink="http://www.w3.org/1999/xlink" x="0px" y="0px"
	 viewBox="-269 191 100 100" style="enable-background:new -269 191 100 100;" xml:space="preserve">
<g>
	<path d="M-212.1,205.2c-1.4,0-2.6-0.9-3.1-2.2l-2-6.2c-0.6-1.7,0.4-3.6,2.1-4.1c1.7-0.6,3.6,0.4,4.1,2.1l2,6.2
		c0.6,1.7-0.4,3.5-2.1,4.1C-211.4,205.2-211.8,205.2-212.1,205.2"/>
	<path d="M-178.5,222.1c-1.4,0-2.6-0.9-3.1-2.2c-0.6-1.7,0.4-3.5,2.1-4.1l6.2-2c1.7-0.6,3.6,0.4,4.1,2.1c0.6,1.7-0.4,3.5-2.1,4.1
		l-6.2,2C-177.8,222.1-178.1,222.1-178.5,222.1"/>
	<path d="M-191.8,206.7c-0.5,0-1-0.1-1.5-0.3c-1.6-0.8-2.3-2.8-1.4-4.4l2.9-5.8c0.8-1.6,2.8-2.3,4.4-1.4c1.6,0.8,2.3,2.8,1.4,4.4
		l-2.9,5.8C-189.5,206.1-190.6,206.7-191.8,206.7"/>
	<path d="M-227.5,218.6c-0.5,0-1-0.1-1.5-0.3l-5.8-3c-1.6-0.8-2.2-2.8-1.4-4.4c0.8-1.6,2.8-2.3,4.4-1.4l5.8,3
		c1.6,0.8,2.3,2.8,1.4,4.4C-225.2,217.9-226.3,218.6-227.5,218.6"/>
	<path d="M-174.1,245.4c-0.5,0-1-0.1-1.5-0.4l-5.8-2.9c-1.6-0.8-2.3-2.8-1.4-4.4c0.8-1.6,2.8-2.2,4.4-1.4l5.8,3
		c1.6,0.8,2.3,2.8,1.4,4.4C-171.8,244.8-172.9,245.4-174.1,245.4"/>
	<path d="M-184.7,254.6l-2.2-0.3l-0.4-2.2c-1.5-8.4-8.8-14.4-17.3-14.4c-2.9,0-5.7,0.7-8.2,2l-2.2,1.2l-1.6-1.9
		c-4-4.6-9.9-7.3-16-7.3c-11.5,0-20.8,9-21.2,20.5l-0.1,2.3l-2.2,0.6c-7.6,2.1-12.8,9.1-12.8,16.9c0,9,6.7,16.5,15.6,17.4l1,0.1
		h64.9c9.7,0,17.6-7.9,17.6-17.6C-169.9,263.2-176.1,255.9-184.7,254.6"/>
	<path d="M-213.6,233c2.8-1.2,5.9-1.8,9-1.8c6.5,0,12.5,2.6,16.8,7c3.3-4.8,4.4-11.1,2.5-17c-3.3-10.2-14.3-15.7-24.5-12.4
		c-8.1,2.6-13.2,10.1-13.3,18.2C-219.6,228.3-216.3,230.4-213.6,233"/>
</g>
</svg>
