<?xml version="1.0" encoding="utf-8"?>
<!-- Generator: Adobe Illustrator 19.1.0, SVG Export Plug-In . SVG Version: 6.00 Build 0)  -->
<svg version="1.1" id="Layer_1" xmlns="http://www.w3.org/2000/svg" xmlns:xlink="http://www.w3.org/1999/xlink" x="0px" y="0px"
	 viewBox="-269 191 100 100" style="enable-background:new -269 191 100 100;" xml:space="preserve">
<g>
	<path d="M-269,216.5c2.4,1.1,5.1,1.7,7.8,1.7c5.1,0,9.9-2,13.5-5.6c3.6-3.6,5.6-8.4,5.6-13.5c0-2.8-0.6-5.4-1.7-7.8
		c-5.3,0.6-10.5,2.7-14.9,6.3C-264.7,202.5-268.2,209.3-269,216.5"/>
	<path d="M-213.2,211.1c-1.1-3.4-2.8-6.6-5.2-9.5c-4.9-6-11.8-9.5-18.9-10.3c0.8,2.5,1.3,5.1,1.3,7.8c0,6.7-2.6,13-7.3,17.7
		c-4.7,4.7-11,7.3-17.7,7.3c-2.7,0-5.3-0.4-7.8-1.3c0.6,5.3,2.7,10.5,6.3,15c3.7,4.5,8.6,7.6,13.8,9.2
		C-242.6,230.7-229.6,217.6-213.2,211.1"/>
	<path d="M-169.7,243.1c0.4-2.9,0.7-5.8,0.7-8.8c0-6.3-0.7-14.2-3.8-17.3c-2.2-2.2-11-3.8-17.3-3.8c-3,0-5.9,0.2-8.8,0.7
		L-169.7,243.1z"/>
	<path d="M-246,262.3c-0.3,2.4-0.5,4.9-0.5,7.4c0,6.3,0.4,15.1,3,18.1c2.5,3,11.4,3,17.7,3h0.4c2.5,0,5-0.2,7.4-0.5L-246,262.3z"/>
	<path d="M-204.3,215.1c-20.1,5.2-35.9,21.3-40.7,41.6l32.5,32.5c20.3-4.8,36.4-20.5,41.6-40.6L-204.3,215.1z M-195,244.2l-3.2,3.2
		l2.5,2.5c0.9,0.9,0.9,2.3,0,3.2c-0.4,0.4-1,0.7-1.6,0.7c-0.6,0-1.2-0.2-1.6-0.7l-2.5-2.5l-3.6,3.6l2.5,2.5c0.9,0.9,0.9,2.3,0,3.2
		c-0.4,0.4-1,0.7-1.6,0.7c-0.6,0-1.2-0.2-1.6-0.7l-2.5-2.5l-3.6,3.6l2.5,2.5c0.9,0.9,0.9,2.3,0,3.2c-0.4,0.4-1,0.6-1.6,0.6
		c-0.6,0-1.2-0.2-1.6-0.6l-2.5-2.5l-3.7,3.7c-0.4,0.4-1,0.7-1.6,0.7c-0.6,0-1.2-0.2-1.6-0.7c-0.9-0.9-0.9-2.3,0-3.2l3.7-3.7
		l-2.5-2.5c-0.9-0.9-0.9-2.3,0-3.2c0.9-0.9,2.3-0.9,3.2,0l2.5,2.5l3.6-3.6l-2.5-2.5c-0.9-0.9-0.9-2.3,0-3.2c0.9-0.9,2.3-0.9,3.2,0
		l2.5,2.5l3.6-3.6l-2.5-2.5c-0.9-0.9-0.9-2.3,0-3.2c0.9-0.9,2.3-0.9,3.2,0l2.5,2.5l3.2-3.2c0.9-0.9,2.3-0.9,3.2,0
		C-194.1,241.9-194.1,243.3-195,244.2"/>
</g>
</svg>
