<?xml version="1.0" encoding="utf-8"?>
<!-- Generator: Adobe Illustrator 19.1.0, SVG Export Plug-In . SVG Version: 6.00 Build 0)  -->
<svg version="1.1" id="Layer_1" xmlns="http://www.w3.org/2000/svg" xmlns:xlink="http://www.w3.org/1999/xlink" x="0px" y="0px"
	 viewBox="-269 191 100 100" style="enable-background:new -269 191 100 100;" xml:space="preserve">
<path d="M-170.9,233.2h-8.8l-6.8-17.2c-0.8-2-2.1-4.7-5.9-5.8c0,0-7.1-2.1-18.3-2.9v-2.9c0-1.9-1.6-3.5-3.5-3.5h-9.6
	c-1.9,0-3.5,1.6-3.5,3.5v2.9c-12.3,0.8-19.7,3-19.7,3c-3.4,1.3-4.5,2.4-5.9,5.8l-6.5,17.2h-7.8c-1,0-1.8,0.8-1.8,1.8v5.3
	c0,1,0.8,1.8,1.8,1.8h4.9l-2.9,20.9v1v4.2v11c0,1.1,0.9,2,2,2h12.6c1.1,0,2-0.9,2-2V273h59.5v6.1c0,1.1,0.9,2,2,2h12.6
	c1.1,0,2-0.9,2-2v-15.2c0-0.1,0-0.2,0-0.3l0-1.6l-3.9-19.9h5.8c1,0,1.9-0.9,1.9-1.9v-5C-169,234.1-169.8,233.2-170.9,233.2z
	 M-247.4,255.4c-3.6,0-6.6-3-6.6-6.6c0-3.7,3-6.6,6.6-6.6c3.6,0,6.6,2.9,6.6,6.6C-240.8,252.5-243.7,255.4-247.4,255.4z
	 M-219.4,233.2h-31.8l5.9-14.7c0.7-1.6,0.9-1.8,1.6-2c0,0,10-2.9,24.4-3c0,0,0.1,0,0.2,0c0.1,0,0.2,0,0.2,0c14.3,0.1,24.4,3,24.4,3
	c0.7,0.2,0.9,0.3,1.6,2l5.9,14.7H-219H-219.4z M-187.6,255.9c-3.6,0-6.6-3-6.6-6.6c0-3.7,3-6.6,6.6-6.6c3.6,0,6.6,2.9,6.6,6.6
	C-181,252.9-184,255.9-187.6,255.9z"/>
</svg>
