<?xml version="1.0" encoding="utf-8"?>
<!-- Generator: Adobe Illustrator 19.1.0, SVG Export Plug-In . SVG Version: 6.00 Build 0)  -->
<svg version="1.1" id="Layer_1" xmlns="http://www.w3.org/2000/svg" xmlns:xlink="http://www.w3.org/1999/xlink" x="0px" y="0px"
	 viewBox="-269 191 100 100" style="enable-background:new -269 191 100 100;" xml:space="preserve">
<g>
	<path d="M-193.6,221.4c0-2.8-2.2-5-5-5h-39.9c-2.8,0-5,2.2-5,5v39.9c0,2.8,2.2,5,5,5h39.9c2.8,0,5-2.2,5-5V221.4z"/>
	<path d="M-172,236.3c1.7,0,3-1.3,3-3c0-1.7-1.3-3-3-3h-6.6v-10h6.6c1.7,0,3-1.3,3-3c0-1.7-1.3-3-3-3h-6.6v-3.3
		c0-5.5-5-9.6-10.5-9.6h-3.5V194c0-1.7-1.3-3-3-3c-1.7,0-3,1.3-3,3v7.5h-10V194c0-1.7-1.3-3-3-3c-1.7,0-3,1.3-3,3v7.5h-9V194
		c0-1.7-1.3-3-3-3c-1.7,0-3,1.3-3,3v7.5h-10V194c0-1.7-1.3-3-3-3c-1.7,0-3,1.3-3,3v7.5h-3.5c-5.5,0-9.5,4.1-9.5,9.6v3.3h-7.6
		c-1.7,0-3,1.3-3,3c0,1.7,1.3,3,3,3h7.6v10h-7.6c-1.7,0-3,1.3-3,3c0,1.6,1.3,3,3,3h7.6v10h-7.6c-1.7,0-3,1.3-3,3c0,1.7,1.3,3,3,3
		h7.6v9h-7.6c-1.7,0-3,1.3-3,3c0,1.7,1.3,3,3,3h7.6v3.7c0,5.5,4,10.3,9.5,10.3h3.5v6.8c0,1.7,1.3,3,3,3c1.7,0,3-1.3,3-3v-6.8h10v6.8
		c0,1.7,1.3,3,3,3c1.6,0,3-1.3,3-3v-6.8h9v6.8c0,1.7,1.3,3,3,3c1.7,0,3-1.3,3-3v-6.8h10v6.8c0,1.7,1.3,3,3,3c1.7,0,3-1.3,3-3v-6.8
		h3.5c5.5,0,10.5-4.8,10.5-10.3v-3.7h6.6c1.7,0,3-1.3,3-3c0-1.7-1.3-3-3-3h-6.6v-9h6.6c1.7,0,3-1.3,3-3c0-1.7-1.3-3-3-3h-6.6v-10
		H-172z M-184.6,271.2c0,2.2-1.8,4-4,4h-59.8c-2.2,0-4-1.8-4-4v-59.8c0-2.2,1.8-4,4-4h59.8c2.2,0,4,1.8,4,4V271.2z"/>
</g>
</svg>
