<?xml version="1.0" encoding="utf-8"?>
<!-- Generator: Adobe Illustrator 19.1.0, SVG Export Plug-In . SVG Version: 6.00 Build 0)  -->
<svg version="1.1" id="Layer_1" xmlns="http://www.w3.org/2000/svg" xmlns:xlink="http://www.w3.org/1999/xlink" x="0px" y="0px"
	 viewBox="-269 191 100 100" style="enable-background:new -269 191 100 100;" xml:space="preserve">
<g>
	<path d="M-219,234.2c11.6,0,21.1-9.7,21.1-21.6S-207.4,191-219,191c-11.6,0-21.1,9.7-21.1,21.6S-230.6,234.2-219,234.2"/>
	<g>
		<path d="M-235,277.7c-0.8,0-1.4,0.6-1.4,1.4c0,0.8,0.6,1.4,1.4,1.4c0.8,0,1.4-0.6,1.4-1.4C-233.6,278.3-234.2,277.7-235,277.7z"/>
		<path d="M-194.3,235.2l-7.2-1.9c-4.7,4.1-10.8,6.6-17.4,6.7c-6.7,0-12.7-2.5-17.4-6.7l-7.2,1.9c-7.7,2.1-10.2,5.4-9.6,9.6
			l5.8,36.6c0.8,5.7,4.3,9.6,9.6,9.6h18.9h0h18.9c5.3,0,8.8-3.9,9.6-9.6l5.8-36.6C-184.1,240.6-186.6,237.4-194.3,235.2z
			 M-231.5,282.3c-1.9,1.8-4.9,1.8-6.7,0c-1.9-1.9-1.9-4.9,0-6.7l10.9-10.9c0,0,0,0.1,0.1,0.1l4.2,4.2c-0.4,1.7-0.1,3.2,0.5,4.4
			L-231.5,282.3z M-203.8,282.2c0,0-3.7,3.5-6.6,0.6c-2.9-2.9-8.7-8.7-8.7-8.7s-2.4-2.4-0.7-5.8l-11.9-11.9l-2.4-0.2l-4.6-6.7
			l2.2-2.2l6.8,4.6l0.2,2.4l11.9,11.9c3.3-1.7,5.8,0.8,5.8,0.8s5.8,5.8,8.7,8.7C-200.3,278.5-203.8,282.2-203.8,282.2z
			 M-202.6,260.9c-4.6,4.5-6.6,1.2-9.6,2.4c-1.6-1-3.5-0.8-4.8-0.5c0,0-4.2-4.2-4.2-4.2l0.6-0.6c3.7-3.7-1.7-6.1,3.7-11.4
			c5.3-5.3,10.7-2.5,10.7-2.5s-5.8,5.8-6.8,6.8l1,5.1l5.1,1c1-1,6.8-6.8,6.8-6.8S-197.3,255.6-202.6,260.9z"/>
	</g>
</g>
</svg>
