<?xml version="1.0" encoding="utf-8"?>
<!-- Generator: Adobe Illustrator 19.1.0, SVG Export Plug-In . SVG Version: 6.00 Build 0)  -->
<svg version="1.1" id="Layer_1" xmlns="http://www.w3.org/2000/svg" xmlns:xlink="http://www.w3.org/1999/xlink" x="0px" y="0px"
	 viewBox="-269 191 100 100" style="enable-background:new -269 191 100 100;" xml:space="preserve">
<g>
	<path d="M-176.9,241c0-4.4,3.6-8,7.9-8v-11.8c0-4.1-3.3-7.5-7.4-7.5h-50.6c0,0,0,0,0,0c0,2.4-1.9,4.3-4.3,4.3
		c-2.4,0-4.3-1.9-4.3-4.3c0,0,0,0,0,0h-25.9c-4.1,0-7.4,3.3-7.4,7.5V233c4.4,0,7.9,3.6,7.9,8c0,4.4-3.6,8-7.9,8v11.8
		c0,4.1,3.3,7.5,7.4,7.5h25.9c0,0,0,0,0-0.1c0-2.4,1.9-4.3,4.3-4.3c2.4,0,4.3,1.9,4.3,4.3c0,0,0,0,0,0.1h50.6c4.1,0,7.4-3.3,7.4-7.5
		V249C-173.4,249-176.9,245.4-176.9,241 M-231.4,258.9c-2.4,0-4.3-1.9-4.3-4.3c0-2.4,1.9-4.3,4.3-4.3c2.4,0,4.3,1.9,4.3,4.3
		C-227,257-229,258.9-231.4,258.9 M-231.4,245.3c-2.4,0-4.3-1.9-4.3-4.3c0-2.4,1.9-4.3,4.3-4.3c2.4,0,4.3,1.9,4.3,4.3
		C-227,243.4-229,245.3-231.4,245.3 M-231.4,231.7c-2.4,0-4.3-1.9-4.3-4.3c0-2.4,1.9-4.3,4.3-4.3c2.4,0,4.3,1.9,4.3,4.3
		C-227,229.8-229,231.7-231.4,231.7"/>
</g>
</svg>
