<?xml version="1.0" encoding="utf-8"?>
<!-- Generator: Adobe Illustrator 19.1.0, SVG Export Plug-In . SVG Version: 6.00 Build 0)  -->
<svg version="1.1" id="Layer_1" xmlns="http://www.w3.org/2000/svg" xmlns:xlink="http://www.w3.org/1999/xlink" x="0px" y="0px"
	 viewBox="-269 191 100 100" style="enable-background:new -269 191 100 100;" xml:space="preserve">
<g>
	<path d="M-180.6,248.4c-2.9-19.3-15-24.2-15-24.2s2.4,9.6-1.5,13.9c-3.6,3.9-8.2,3.8-8.2,3.8c4.3-4.3,7-19.5,0-32.5
		c-7-13-21.6-18.4-21.6-18.4c3.7,9.3,1.6,16.8,1.6,16.8c-6.8,18-24.8,23.8-31.2,41.9c-3.3,9.2,0,20.7,8.8,30.4
		c4.7,5.2,11.5,8.3,19,9.8c-3.7-5.6-6.6-13.7-4.6-23.2c3.6-16.6,13.3-26.3,13.3-26.3h0c0,0,9.7,9.7,13.3,26.3
		c2.2,10.2-1.3,18.7-5.3,24.3C-198.5,289.5-177.2,270.6-180.6,248.4"/>
</g>
</svg>
