<?xml version="1.0" encoding="utf-8"?>
<!-- Generator: Adobe Illustrator 19.1.0, SVG Export Plug-In . SVG Version: 6.00 Build 0)  -->
<svg version="1.1" id="Layer_1" xmlns="http://www.w3.org/2000/svg" xmlns:xlink="http://www.w3.org/1999/xlink" x="0px" y="0px"
	 viewBox="-269 191 100 100" style="enable-background:new -269 191 100 100;" xml:space="preserve">
<g>
	<path d="M-172.3,229H-193c-6.7,6.6-16.4,10.4-26.6,10.4c-10.3,0-20-3.8-26.6-10.4h-19.4c-1.8,0-3.3,1.5-3.3,3.3v14.8
		c0,1.8,1.5,3.3,3.3,3.3h1.7c-0.1,0.2-0.1,0.4-0.1,0.5c0,1.2,1.1,2.1,2.4,2.1h3.7c1.3,0,2.4-1,2.4-2.1c0-0.2,0-0.4-0.1-0.5h75.5
		c0.1,1.4,1.3,2.5,2.7,2.5h2.7c1.4,0,2.6-1.1,2.7-2.5c1.7-0.1,3-1.5,3-3.3v-14.8C-169,230.5-170.5,229-172.3,229 M-249.7,241.1
		l-3.6,0l0,3.6c0,0.9-0.7,1.7-1.6,1.7c-0.2,0-0.4,0-0.6-0.1c-0.6-0.2-1.1-0.8-1.1-1.5l0-3.6l-3.6,0c-0.2,0-0.4,0-0.6-0.1
		c-0.6-0.2-1.1-0.8-1.1-1.5c0-0.9,0.7-1.7,1.6-1.7l3.6,0l0-3.6c0-0.9,0.7-1.7,1.6-1.7c0.9,0,1.7,0.7,1.7,1.6l0,3.6l3.6,0
		c0.9,0,1.7,0.7,1.7,1.6C-248,240.3-248.8,241-249.7,241.1"/>
	<path d="M-198.5,229.4h-42.3c5.8,4.3,13.3,6.7,21.1,6.7C-211.8,236.1-204.3,233.7-198.5,229.4"/>
</g>
</svg>
