<?xml version="1.0" encoding="utf-8"?>
<!-- Generator: Adobe Illustrator 19.1.0, SVG Export Plug-In . SVG Version: 6.00 Build 0)  -->
<svg version="1.1" id="Layer_1" xmlns="http://www.w3.org/2000/svg" xmlns:xlink="http://www.w3.org/1999/xlink" x="0px" y="0px"
	 viewBox="-269 191 100 100" style="enable-background:new -269 191 100 100;" xml:space="preserve">
<g>
	<rect x="-259.9" y="213.7" width="81.7" height="46.5"/>
	<g>
		<path d="M-172.5,204.9h-93.1c-1.9,0-3.5,1.6-3.5,3.6v58.3c0,2,1.5,3.6,3.5,3.6h26.1h14.8v2.4h-21.2c-1.1,0-2,0.9-2,2.1
			c0,1.2,0.9,2.1,2,2.1h54.3c1.1,0,2-0.9,2-2.1c0-1.2-0.9-2.1-2-2.1h-21.8v-2.4h14.8h26.1c1.9,0,3.5-1.6,3.5-3.6v-58.3
			C-169,206.5-170.5,204.9-172.5,204.9 M-173.9,260.5c0,2.2-1.8,4.1-4,4.1H-260c-2.2,0-4-1.8-4-4.1v-47.1c0-2.2,1.8-4.1,4-4.1h82.1
			c2.2,0,4,1.8,4,4.1V260.5z"/>
	</g>
</g>
</svg>
